  0
SECTION
  2
HEADER
  9
$ANGBASE
  50
0.0
  9
$ANGDIR
  70
1
  9
$MEASUREMENT
  70
0
  0
ENDSEC
  0
SECTION
  2
TABLES
  0
TABLE
  2
LTYPE
  70
4
  0
LTYPE
  5
40F
  2
CONTINUOUS
  70
0
  3
Solid line
  72
65
  73
0
  40
0.0
  0
LTYPE
  5
410
  2
DASHDOT
 70
0
  3
Dash Dot ____ _ ____ _
 72
65
 73
4
 40
2.0
 49
1.25
 49
-0.25
 49
0.25
 49
-0.25
  0
LTYPE
  5
411
  2
DASHED
 70
0
  3
Dashed __ __ __ __ __
 72
65
 73
2
 40
0.75
 49
0.5
 49
-0.25
  0
LTYPE
  5
43B
  2
DOTTED
 70
0
  3
Dotted .  .  .  .
 72
65
 73
2
 40
0.2
 49
0.0
 49
-0.2
  0
ENDTAB
  0
TABLE
  2
STYLE
  70
4
  0
STYLE
  2
KICAD
  70
0
  40
0
  41
1
  42
1
  50
0
  71
0
  3
isocp.shx
  0
STYLE
  2
KICADB
  70
0
  40
0
  41
1
  42
1
  50
0
  71
0
  3
isocp.shx
  0
STYLE
  2
KICADI
  70
0
  40
0
  41
1
  42
1
  50
15
  71
0
  3
isocp.shx
  0
STYLE
  2
KICADBI
  70
0
  40
0
  41
1
  42
1
  50
15
  71
0
  3
isocp.shx
  0
ENDTAB
  0
TABLE
  2
LAYER
  70
1
  0
LAYER
  2
BLACK
  70
0
  62
7
  6
CONTINUOUS
  0
ENDTAB
  0
ENDSEC
  0
SECTION
  2
ENTITIES
0
LINE
8
BLACK
6
CONTINUOUS
10
2.7809055118110235
20
-5.2043307086614172
11
2.6805118110236221
21
-5.2043307086614172
0
LINE
8
BLACK
6
CONTINUOUS
10
2.6805118110236221
20
-5.2043307086614172
11
2.6805118110236221
21
-5.1059055118110237
0
LINE
8
BLACK
6
CONTINUOUS
10
2.6805118110236221
20
-5.1059055118110237
11
2.7809055118110235
21
-5.1059055118110237
0
LINE
8
BLACK
6
CONTINUOUS
10
2.7809055118110235
20
-5.1059055118110237
11
2.7809055118110235
21
-5.2043307086614172
0
LINE
8
BLACK
6
CONTINUOUS
10
3.4750000000000001
20
-5.2043307086614172
11
3.3746062992125982
21
-5.2043307086614172
0
LINE
8
BLACK
6
CONTINUOUS
10
3.3746062992125982
20
-5.2043307086614172
11
3.3746062992125982
21
-5.1059055118110237
0
LINE
8
BLACK
6
CONTINUOUS
10
3.3746062992125982
20
-5.1059055118110237
11
3.4750000000000001
21
-5.1059055118110237
0
LINE
8
BLACK
6
CONTINUOUS
10
3.4750000000000001
20
-5.1059055118110237
11
3.4750000000000001
21
-5.2043307086614172
0
LINE
8
BLACK
6
CONTINUOUS
10
4.1690944881889767
20
-5.2043307086614172
11
4.0687007874015748
21
-5.2043307086614172
0
LINE
8
BLACK
6
CONTINUOUS
10
4.0687007874015748
20
-5.2043307086614172
11
4.0687007874015748
21
-5.1059055118110237
0
LINE
8
BLACK
6
CONTINUOUS
10
4.0687007874015748
20
-5.1059055118110237
11
4.1690944881889767
21
-5.1059055118110237
0
LINE
8
BLACK
6
CONTINUOUS
10
4.1690944881889767
20
-5.1059055118110237
11
4.1690944881889767
21
-5.2043307086614172
0
LINE
8
BLACK
6
CONTINUOUS
10
3.3261811023622045
20
-5.1043307086614176
11
3.2257874015748031
21
-5.1043307086614176
0
LINE
8
BLACK
6
CONTINUOUS
10
3.2257874015748031
20
-5.1043307086614176
11
3.2257874015748031
21
-5.0059055118110232
0
LINE
8
BLACK
6
CONTINUOUS
10
3.2257874015748031
20
-5.0059055118110232
11
3.3261811023622045
21
-5.0059055118110232
0
LINE
8
BLACK
6
CONTINUOUS
10
3.3261811023622045
20
-5.0059055118110232
11
3.3261811023622045
21
-5.1043307086614176
0
LINE
8
BLACK
6
CONTINUOUS
10
4.0202755905511811
20
-5.1043307086614176
11
3.9198818897637793
21
-5.1043307086614176
0
LINE
8
BLACK
6
CONTINUOUS
10
3.9198818897637793
20
-5.1043307086614176
11
3.9198818897637793
21
-5.0059055118110232
0
LINE
8
BLACK
6
CONTINUOUS
10
3.9198818897637793
20
-5.0059055118110232
11
4.0202755905511811
21
-5.0059055118110232
0
LINE
8
BLACK
6
CONTINUOUS
10
4.0202755905511811
20
-5.0059055118110232
11
4.0202755905511811
21
-5.1043307086614176
0
LINE
8
BLACK
6
CONTINUOUS
10
4.7143700787401572
20
-5.1043307086614176
11
4.6139763779527554
21
-5.1043307086614176
0
LINE
8
BLACK
6
CONTINUOUS
10
4.6139763779527554
20
-5.1043307086614176
11
4.6139763779527554
21
-5.0059055118110232
0
LINE
8
BLACK
6
CONTINUOUS
10
4.6139763779527554
20
-5.0059055118110232
11
4.7143700787401572
21
-5.0059055118110232
0
LINE
8
BLACK
6
CONTINUOUS
10
4.7143700787401572
20
-5.0059055118110232
11
4.7143700787401572
21
-5.1043307086614176
0
LINE
8
BLACK
6
CONTINUOUS
10
2.7809055118110235
20
-4.5685039370078737
11
2.6805118110236221
21
-4.5685039370078737
0
LINE
8
BLACK
6
CONTINUOUS
10
2.6805118110236221
20
-4.5685039370078737
11
2.6805118110236221
21
-4.4700787401574802
0
LINE
8
BLACK
6
CONTINUOUS
10
2.6805118110236221
20
-4.4700787401574802
11
2.7809055118110235
21
-4.4700787401574802
0
LINE
8
BLACK
6
CONTINUOUS
10
2.7809055118110235
20
-4.4700787401574802
11
2.7809055118110235
21
-4.5685039370078737
0
LINE
8
BLACK
6
CONTINUOUS
10
3.4750000000000001
20
-4.5685039370078737
11
3.3746062992125982
21
-4.5685039370078737
0
LINE
8
BLACK
6
CONTINUOUS
10
3.3746062992125982
20
-4.5685039370078737
11
3.3746062992125982
21
-4.4700787401574802
0
LINE
8
BLACK
6
CONTINUOUS
10
3.3746062992125982
20
-4.4700787401574802
11
3.4750000000000001
21
-4.4700787401574802
0
LINE
8
BLACK
6
CONTINUOUS
10
3.4750000000000001
20
-4.4700787401574802
11
3.4750000000000001
21
-4.5685039370078737
0
LINE
8
BLACK
6
CONTINUOUS
10
4.1690944881889767
20
-4.5685039370078737
11
4.0687007874015748
21
-4.5685039370078737
0
LINE
8
BLACK
6
CONTINUOUS
10
4.0687007874015748
20
-4.5685039370078737
11
4.0687007874015748
21
-4.4700787401574802
0
LINE
8
BLACK
6
CONTINUOUS
10
4.0687007874015748
20
-4.4700787401574802
11
4.1690944881889767
21
-4.4700787401574802
0
LINE
8
BLACK
6
CONTINUOUS
10
4.1690944881889767
20
-4.4700787401574802
11
4.1690944881889767
21
-4.5685039370078737
0
LINE
8
BLACK
6
CONTINUOUS
10
3.3261811023622045
20
-4.4685039370078741
11
3.2257874015748031
21
-4.4685039370078741
0
LINE
8
BLACK
6
CONTINUOUS
10
3.2257874015748031
20
-4.4685039370078741
11
3.2257874015748031
21
-4.3700787401574805
0
LINE
8
BLACK
6
CONTINUOUS
10
3.2257874015748031
20
-4.3700787401574805
11
3.3261811023622045
21
-4.3700787401574805
0
LINE
8
BLACK
6
CONTINUOUS
10
3.3261811023622045
20
-4.3700787401574805
11
3.3261811023622045
21
-4.4685039370078741
0
LINE
8
BLACK
6
CONTINUOUS
10
4.0202755905511811
20
-4.4685039370078741
11
3.9198818897637793
21
-4.4685039370078741
0
LINE
8
BLACK
6
CONTINUOUS
10
3.9198818897637793
20
-4.4685039370078741
11
3.9198818897637793
21
-4.3700787401574805
0
LINE
8
BLACK
6
CONTINUOUS
10
3.9198818897637793
20
-4.3700787401574805
11
4.0202755905511811
21
-4.3700787401574805
0
LINE
8
BLACK
6
CONTINUOUS
10
4.0202755905511811
20
-4.3700787401574805
11
4.0202755905511811
21
-4.4685039370078741
0
LINE
8
BLACK
6
CONTINUOUS
10
4.7143700787401572
20
-4.4685039370078741
11
4.6139763779527554
21
-4.4685039370078741
0
LINE
8
BLACK
6
CONTINUOUS
10
4.6139763779527554
20
-4.4685039370078741
11
4.6139763779527554
21
-4.3700787401574805
0
LINE
8
BLACK
6
CONTINUOUS
10
4.6139763779527554
20
-4.3700787401574805
11
4.7143700787401572
21
-4.3700787401574805
0
LINE
8
BLACK
6
CONTINUOUS
10
4.7143700787401572
20
-4.3700787401574805
11
4.7143700787401572
21
-4.4685039370078741
0
LINE
8
BLACK
6
CONTINUOUS
10
2.7809055118110235
20
-3.9326771653543307
11
2.6805118110236221
21
-3.9326771653543307
0
LINE
8
BLACK
6
CONTINUOUS
10
2.6805118110236221
20
-3.9326771653543307
11
2.6805118110236221
21
-3.8342519685039371
0
LINE
8
BLACK
6
CONTINUOUS
10
2.6805118110236221
20
-3.8342519685039371
11
2.7809055118110235
21
-3.8342519685039371
0
LINE
8
BLACK
6
CONTINUOUS
10
2.7809055118110235
20
-3.8342519685039371
11
2.7809055118110235
21
-3.9326771653543307
0
LINE
8
BLACK
6
CONTINUOUS
10
3.4750000000000001
20
-3.9326771653543307
11
3.3746062992125982
21
-3.9326771653543307
0
LINE
8
BLACK
6
CONTINUOUS
10
3.3746062992125982
20
-3.9326771653543307
11
3.3746062992125982
21
-3.8342519685039371
0
LINE
8
BLACK
6
CONTINUOUS
10
3.3746062992125982
20
-3.8342519685039371
11
3.4750000000000001
21
-3.8342519685039371
0
LINE
8
BLACK
6
CONTINUOUS
10
3.4750000000000001
20
-3.8342519685039371
11
3.4750000000000001
21
-3.9326771653543307
0
LINE
8
BLACK
6
CONTINUOUS
10
4.1690944881889767
20
-3.9326771653543307
11
4.0687007874015748
21
-3.9326771653543307
0
LINE
8
BLACK
6
CONTINUOUS
10
4.0687007874015748
20
-3.9326771653543307
11
4.0687007874015748
21
-3.8342519685039371
0
LINE
8
BLACK
6
CONTINUOUS
10
4.0687007874015748
20
-3.8342519685039371
11
4.1690944881889767
21
-3.8342519685039371
0
LINE
8
BLACK
6
CONTINUOUS
10
4.1690944881889767
20
-3.8342519685039371
11
4.1690944881889767
21
-3.9326771653543307
0
LINE
8
BLACK
6
CONTINUOUS
10
3.3261811023622045
20
-3.8326771653543306
11
3.2257874015748031
21
-3.8326771653543306
0
LINE
8
BLACK
6
CONTINUOUS
10
3.2257874015748031
20
-3.8326771653543306
11
3.2257874015748031
21
-3.734251968503937
0
LINE
8
BLACK
6
CONTINUOUS
10
3.2257874015748031
20
-3.734251968503937
11
3.3261811023622045
21
-3.734251968503937
0
LINE
8
BLACK
6
CONTINUOUS
10
3.3261811023622045
20
-3.734251968503937
11
3.3261811023622045
21
-3.8326771653543306
0
LINE
8
BLACK
6
CONTINUOUS
10
4.0202755905511811
20
-3.8326771653543306
11
3.9198818897637793
21
-3.8326771653543306
0
LINE
8
BLACK
6
CONTINUOUS
10
3.9198818897637793
20
-3.8326771653543306
11
3.9198818897637793
21
-3.734251968503937
0
LINE
8
BLACK
6
CONTINUOUS
10
3.9198818897637793
20
-3.734251968503937
11
4.0202755905511811
21
-3.734251968503937
0
LINE
8
BLACK
6
CONTINUOUS
10
4.0202755905511811
20
-3.734251968503937
11
4.0202755905511811
21
-3.8326771653543306
0
LINE
8
BLACK
6
CONTINUOUS
10
4.7143700787401572
20
-3.8326771653543306
11
4.6139763779527554
21
-3.8326771653543306
0
LINE
8
BLACK
6
CONTINUOUS
10
4.6139763779527554
20
-3.8326771653543306
11
4.6139763779527554
21
-3.734251968503937
0
LINE
8
BLACK
6
CONTINUOUS
10
4.6139763779527554
20
-3.734251968503937
11
4.7143700787401572
21
-3.734251968503937
0
LINE
8
BLACK
6
CONTINUOUS
10
4.7143700787401572
20
-3.734251968503937
11
4.7143700787401572
21
-3.8326771653543306
0
LINE
8
BLACK
6
CONTINUOUS
10
2.7809055118110235
20
-3.2968503937007871
11
2.6805118110236221
21
-3.2968503937007871
0
LINE
8
BLACK
6
CONTINUOUS
10
2.6805118110236221
20
-3.2968503937007871
11
2.6805118110236221
21
-3.1984251968503936
0
LINE
8
BLACK
6
CONTINUOUS
10
2.6805118110236221
20
-3.1984251968503936
11
2.7809055118110235
21
-3.1984251968503936
0
LINE
8
BLACK
6
CONTINUOUS
10
2.7809055118110235
20
-3.1984251968503936
11
2.7809055118110235
21
-3.2968503937007871
0
LINE
8
BLACK
6
CONTINUOUS
10
3.4750000000000001
20
-3.2968503937007871
11
3.3746062992125982
21
-3.2968503937007871
0
LINE
8
BLACK
6
CONTINUOUS
10
3.3746062992125982
20
-3.2968503937007871
11
3.3746062992125982
21
-3.1984251968503936
0
LINE
8
BLACK
6
CONTINUOUS
10
3.3746062992125982
20
-3.1984251968503936
11
3.4750000000000001
21
-3.1984251968503936
0
LINE
8
BLACK
6
CONTINUOUS
10
3.4750000000000001
20
-3.1984251968503936
11
3.4750000000000001
21
-3.2968503937007871
0
LINE
8
BLACK
6
CONTINUOUS
10
4.1690944881889767
20
-3.2968503937007871
11
4.0687007874015748
21
-3.2968503937007871
0
LINE
8
BLACK
6
CONTINUOUS
10
4.0687007874015748
20
-3.2968503937007871
11
4.0687007874015748
21
-3.1984251968503936
0
LINE
8
BLACK
6
CONTINUOUS
10
4.0687007874015748
20
-3.1984251968503936
11
4.1690944881889767
21
-3.1984251968503936
0
LINE
8
BLACK
6
CONTINUOUS
10
4.1690944881889767
20
-3.1984251968503936
11
4.1690944881889767
21
-3.2968503937007871
0
LINE
8
BLACK
6
CONTINUOUS
10
4.8631889763779528
20
-3.2968503937007871
11
4.7627952755905509
21
-3.2968503937007871
0
LINE
8
BLACK
6
CONTINUOUS
10
4.7627952755905509
20
-3.2968503937007871
11
4.7627952755905509
21
-3.1984251968503936
0
LINE
8
BLACK
6
CONTINUOUS
10
4.7627952755905509
20
-3.1984251968503936
11
4.8631889763779528
21
-3.1984251968503936
0
LINE
8
BLACK
6
CONTINUOUS
10
4.8631889763779528
20
-3.1984251968503936
11
4.8631889763779528
21
-3.2968503937007871
0
LINE
8
BLACK
6
CONTINUOUS
10
3.3261811023622045
20
-3.1968503937007875
11
3.2257874015748031
21
-3.1968503937007875
0
LINE
8
BLACK
6
CONTINUOUS
10
3.2257874015748031
20
-3.1968503937007875
11
3.2257874015748031
21
-3.0984251968503935
0
LINE
8
BLACK
6
CONTINUOUS
10
3.2257874015748031
20
-3.0984251968503935
11
3.3261811023622045
21
-3.0984251968503935
0
LINE
8
BLACK
6
CONTINUOUS
10
3.3261811023622045
20
-3.0984251968503935
11
3.3261811023622045
21
-3.1968503937007875
0
LINE
8
BLACK
6
CONTINUOUS
10
4.0202755905511811
20
-3.1968503937007875
11
3.9198818897637793
21
-3.1968503937007875
0
LINE
8
BLACK
6
CONTINUOUS
10
3.9198818897637793
20
-3.1968503937007875
11
3.9198818897637793
21
-3.0984251968503935
0
LINE
8
BLACK
6
CONTINUOUS
10
3.9198818897637793
20
-3.0984251968503935
11
4.0202755905511811
21
-3.0984251968503935
0
LINE
8
BLACK
6
CONTINUOUS
10
4.0202755905511811
20
-3.0984251968503935
11
4.0202755905511811
21
-3.1968503937007875
0
LINE
8
BLACK
6
CONTINUOUS
10
4.7143700787401572
20
-3.1968503937007875
11
4.6139763779527554
21
-3.1968503937007875
0
LINE
8
BLACK
6
CONTINUOUS
10
4.6139763779527554
20
-3.1968503937007875
11
4.6139763779527554
21
-3.0984251968503935
0
LINE
8
BLACK
6
CONTINUOUS
10
4.6139763779527554
20
-3.0984251968503935
11
4.7143700787401572
21
-3.0984251968503935
0
LINE
8
BLACK
6
CONTINUOUS
10
4.7143700787401572
20
-3.0984251968503935
11
4.7143700787401572
21
-3.1968503937007875
0
LINE
8
BLACK
6
CONTINUOUS
10
5.4084645669291334
20
-3.1968503937007875
11
5.3080708661417324
21
-3.1968503937007875
0
LINE
8
BLACK
6
CONTINUOUS
10
5.3080708661417324
20
-3.1968503937007875
11
5.3080708661417324
21
-3.0984251968503935
0
LINE
8
BLACK
6
CONTINUOUS
10
5.3080708661417324
20
-3.0984251968503935
11
5.4084645669291334
21
-3.0984251968503935
0
LINE
8
BLACK
6
CONTINUOUS
10
5.4084645669291334
20
-3.0984251968503935
11
5.4084645669291334
21
-3.1968503937007875
0
LINE
8
BLACK
6
CONTINUOUS
10
2.7809055118110235
20
-2.6610236220472441
11
2.6805118110236221
21
-2.6610236220472441
0
LINE
8
BLACK
6
CONTINUOUS
10
2.6805118110236221
20
-2.6610236220472441
11
2.6805118110236221
21
-2.5625984251968505
0
LINE
8
BLACK
6
CONTINUOUS
10
2.6805118110236221
20
-2.5625984251968505
11
2.7809055118110235
21
-2.5625984251968505
0
LINE
8
BLACK
6
CONTINUOUS
10
2.7809055118110235
20
-2.5625984251968505
11
2.7809055118110235
21
-2.6610236220472441
0
LINE
8
BLACK
6
CONTINUOUS
10
3.4750000000000001
20
-2.6610236220472441
11
3.3746062992125982
21
-2.6610236220472441
0
LINE
8
BLACK
6
CONTINUOUS
10
3.3746062992125982
20
-2.6610236220472441
11
3.3746062992125982
21
-2.5625984251968505
0
LINE
8
BLACK
6
CONTINUOUS
10
3.3746062992125982
20
-2.5625984251968505
11
3.4750000000000001
21
-2.5625984251968505
0
LINE
8
BLACK
6
CONTINUOUS
10
3.4750000000000001
20
-2.5625984251968505
11
3.4750000000000001
21
-2.6610236220472441
0
LINE
8
BLACK
6
CONTINUOUS
10
4.1690944881889767
20
-2.6610236220472441
11
4.0687007874015748
21
-2.6610236220472441
0
LINE
8
BLACK
6
CONTINUOUS
10
4.0687007874015748
20
-2.6610236220472441
11
4.0687007874015748
21
-2.5625984251968505
0
LINE
8
BLACK
6
CONTINUOUS
10
4.0687007874015748
20
-2.5625984251968505
11
4.1690944881889767
21
-2.5625984251968505
0
LINE
8
BLACK
6
CONTINUOUS
10
4.1690944881889767
20
-2.5625984251968505
11
4.1690944881889767
21
-2.6610236220472441
0
LINE
8
BLACK
6
CONTINUOUS
10
4.8631889763779528
20
-2.6610236220472441
11
4.7627952755905509
21
-2.6610236220472441
0
LINE
8
BLACK
6
CONTINUOUS
10
4.7627952755905509
20
-2.6610236220472441
11
4.7627952755905509
21
-2.5625984251968505
0
LINE
8
BLACK
6
CONTINUOUS
10
4.7627952755905509
20
-2.5625984251968505
11
4.8631889763779528
21
-2.5625984251968505
0
LINE
8
BLACK
6
CONTINUOUS
10
4.8631889763779528
20
-2.5625984251968505
11
4.8631889763779528
21
-2.6610236220472441
0
LINE
8
BLACK
6
CONTINUOUS
10
3.3261811023622045
20
-2.561023622047244
11
3.2257874015748031
21
-2.561023622047244
0
LINE
8
BLACK
6
CONTINUOUS
10
3.2257874015748031
20
-2.561023622047244
11
3.2257874015748031
21
-2.4625984251968505
0
LINE
8
BLACK
6
CONTINUOUS
10
3.2257874015748031
20
-2.4625984251968505
11
3.3261811023622045
21
-2.4625984251968505
0
LINE
8
BLACK
6
CONTINUOUS
10
3.3261811023622045
20
-2.4625984251968505
11
3.3261811023622045
21
-2.561023622047244
0
LINE
8
BLACK
6
CONTINUOUS
10
4.0202755905511811
20
-2.561023622047244
11
3.9198818897637793
21
-2.561023622047244
0
LINE
8
BLACK
6
CONTINUOUS
10
3.9198818897637793
20
-2.561023622047244
11
3.9198818897637793
21
-2.4625984251968505
0
LINE
8
BLACK
6
CONTINUOUS
10
3.9198818897637793
20
-2.4625984251968505
11
4.0202755905511811
21
-2.4625984251968505
0
LINE
8
BLACK
6
CONTINUOUS
10
4.0202755905511811
20
-2.4625984251968505
11
4.0202755905511811
21
-2.561023622047244
0
LINE
8
BLACK
6
CONTINUOUS
10
4.7143700787401572
20
-2.561023622047244
11
4.6139763779527554
21
-2.561023622047244
0
LINE
8
BLACK
6
CONTINUOUS
10
4.6139763779527554
20
-2.561023622047244
11
4.6139763779527554
21
-2.4625984251968505
0
LINE
8
BLACK
6
CONTINUOUS
10
4.6139763779527554
20
-2.4625984251968505
11
4.7143700787401572
21
-2.4625984251968505
0
LINE
8
BLACK
6
CONTINUOUS
10
4.7143700787401572
20
-2.4625984251968505
11
4.7143700787401572
21
-2.561023622047244
0
LINE
8
BLACK
6
CONTINUOUS
10
5.4084645669291334
20
-2.561023622047244
11
5.3080708661417324
21
-2.561023622047244
0
LINE
8
BLACK
6
CONTINUOUS
10
5.3080708661417324
20
-2.561023622047244
11
5.3080708661417324
21
-2.4625984251968505
0
LINE
8
BLACK
6
CONTINUOUS
10
5.3080708661417324
20
-2.4625984251968505
11
5.4084645669291334
21
-2.4625984251968505
0
LINE
8
BLACK
6
CONTINUOUS
10
5.4084645669291334
20
-2.4625984251968505
11
5.4084645669291334
21
-2.561023622047244
0
LINE
8
BLACK
6
CONTINUOUS
10
2.7809055118110235
20
-2.0251968503937006
11
2.6805118110236221
21
-2.0251968503937006
0
LINE
8
BLACK
6
CONTINUOUS
10
2.6805118110236221
20
-2.0251968503937006
11
2.6805118110236221
21
-1.926771653543307
0
LINE
8
BLACK
6
CONTINUOUS
10
2.6805118110236221
20
-1.926771653543307
11
2.7809055118110235
21
-1.926771653543307
0
LINE
8
BLACK
6
CONTINUOUS
10
2.7809055118110235
20
-1.926771653543307
11
2.7809055118110235
21
-2.0251968503937006
0
LINE
8
BLACK
6
CONTINUOUS
10
3.4750000000000001
20
-2.0251968503937006
11
3.3746062992125982
21
-2.0251968503937006
0
LINE
8
BLACK
6
CONTINUOUS
10
3.3746062992125982
20
-2.0251968503937006
11
3.3746062992125982
21
-1.926771653543307
0
LINE
8
BLACK
6
CONTINUOUS
10
3.3746062992125982
20
-1.926771653543307
11
3.4750000000000001
21
-1.926771653543307
0
LINE
8
BLACK
6
CONTINUOUS
10
3.4750000000000001
20
-1.926771653543307
11
3.4750000000000001
21
-2.0251968503937006
0
LINE
8
BLACK
6
CONTINUOUS
10
4.1690944881889767
20
-2.0251968503937006
11
4.0687007874015748
21
-2.0251968503937006
0
LINE
8
BLACK
6
CONTINUOUS
10
4.0687007874015748
20
-2.0251968503937006
11
4.0687007874015748
21
-1.926771653543307
0
LINE
8
BLACK
6
CONTINUOUS
10
4.0687007874015748
20
-1.926771653543307
11
4.1690944881889767
21
-1.926771653543307
0
LINE
8
BLACK
6
CONTINUOUS
10
4.1690944881889767
20
-1.926771653543307
11
4.1690944881889767
21
-2.0251968503937006
0
LINE
8
BLACK
6
CONTINUOUS
10
4.8631889763779528
20
-2.0251968503937006
11
4.7627952755905509
21
-2.0251968503937006
0
LINE
8
BLACK
6
CONTINUOUS
10
4.7627952755905509
20
-2.0251968503937006
11
4.7627952755905509
21
-1.926771653543307
0
LINE
8
BLACK
6
CONTINUOUS
10
4.7627952755905509
20
-1.926771653543307
11
4.8631889763779528
21
-1.926771653543307
0
LINE
8
BLACK
6
CONTINUOUS
10
4.8631889763779528
20
-1.926771653543307
11
4.8631889763779528
21
-2.0251968503937006
0
LINE
8
BLACK
6
CONTINUOUS
10
3.3261811023622045
20
-1.9251968503937007
11
3.2257874015748031
21
-1.9251968503937007
0
LINE
8
BLACK
6
CONTINUOUS
10
3.2257874015748031
20
-1.9251968503937007
11
3.2257874015748031
21
-1.826771653543307
0
LINE
8
BLACK
6
CONTINUOUS
10
3.2257874015748031
20
-1.826771653543307
11
3.3261811023622045
21
-1.826771653543307
0
LINE
8
BLACK
6
CONTINUOUS
10
3.3261811023622045
20
-1.826771653543307
11
3.3261811023622045
21
-1.9251968503937007
0
LINE
8
BLACK
6
CONTINUOUS
10
4.0202755905511811
20
-1.9251968503937007
11
3.9198818897637793
21
-1.9251968503937007
0
LINE
8
BLACK
6
CONTINUOUS
10
3.9198818897637793
20
-1.9251968503937007
11
3.9198818897637793
21
-1.826771653543307
0
LINE
8
BLACK
6
CONTINUOUS
10
3.9198818897637793
20
-1.826771653543307
11
4.0202755905511811
21
-1.826771653543307
0
LINE
8
BLACK
6
CONTINUOUS
10
4.0202755905511811
20
-1.826771653543307
11
4.0202755905511811
21
-1.9251968503937007
0
LINE
8
BLACK
6
CONTINUOUS
10
4.7143700787401572
20
-1.9251968503937007
11
4.6139763779527554
21
-1.9251968503937007
0
LINE
8
BLACK
6
CONTINUOUS
10
4.6139763779527554
20
-1.9251968503937007
11
4.6139763779527554
21
-1.826771653543307
0
LINE
8
BLACK
6
CONTINUOUS
10
4.6139763779527554
20
-1.826771653543307
11
4.7143700787401572
21
-1.826771653543307
0
LINE
8
BLACK
6
CONTINUOUS
10
4.7143700787401572
20
-1.826771653543307
11
4.7143700787401572
21
-1.9251968503937007
0
LINE
8
BLACK
6
CONTINUOUS
10
5.4084645669291334
20
-1.9251968503937007
11
5.3080708661417324
21
-1.9251968503937007
0
LINE
8
BLACK
6
CONTINUOUS
10
5.3080708661417324
20
-1.9251968503937007
11
5.3080708661417324
21
-1.826771653543307
0
LINE
8
BLACK
6
CONTINUOUS
10
5.3080708661417324
20
-1.826771653543307
11
5.4084645669291334
21
-1.826771653543307
0
LINE
8
BLACK
6
CONTINUOUS
10
5.4084645669291334
20
-1.826771653543307
11
5.4084645669291334
21
-1.9251968503937007
0
LINE
8
BLACK
6
CONTINUOUS
10
4.9183070866141732
20
-1.1271653543307087
11
4.8179133858267713
21
-1.1271653543307087
0
LINE
8
BLACK
6
CONTINUOUS
10
4.8179133858267713
20
-1.1271653543307087
11
4.8179133858267713
21
-1.028740157480315
0
LINE
8
BLACK
6
CONTINUOUS
10
4.8179133858267713
20
-1.028740157480315
11
4.9183070866141732
21
-1.028740157480315
0
LINE
8
BLACK
6
CONTINUOUS
10
4.9183070866141732
20
-1.028740157480315
11
4.9183070866141732
21
-1.1271653543307087
0
LINE
8
BLACK
6
CONTINUOUS
10
5.4635826771653546
20
-1.0271653543307087
11
5.3631889763779528
21
-1.0271653543307087
0
LINE
8
BLACK
6
CONTINUOUS
10
5.3631889763779528
20
-1.0271653543307087
11
5.3631889763779528
21
-0.9287401574803149
0
LINE
8
BLACK
6
CONTINUOUS
10
5.3631889763779528
20
-0.9287401574803149
11
5.4635826771653546
21
-0.9287401574803149
0
LINE
8
BLACK
6
CONTINUOUS
10
5.4635826771653546
20
-0.9287401574803149
11
5.4635826771653546
21
-1.0271653543307087
  0
ENDSEC
  0
EOF
