<?xml version="1.0" standalone="no"?>
 <!DOCTYPE svg PUBLIC "-//W3C//DTD SVG 1.1//EN" 
 "http://www.w3.org/Graphics/SVG/1.1/DTD/svg11.dtd"> 
<svg
  xmlns:svg="http://www.w3.org/2000/svg"
  xmlns="http://www.w3.org/2000/svg"
  xmlns:xlink="http://www.w3.org/1999/xlink"
  version="1.1"
  width="297.0022mm" height="210.0072mm" viewBox="0.0000 0.0000 297.0022 210.0072">
<title>SVG Image created as V3-B_Mask.svg date 2025/07/21 07:58:33 </title>
  <desc>Image generated by PCBNEW </desc>
<g style="fill:#000000; fill-opacity:1.0000;stroke:#000000; stroke-opacity:1.0000;
stroke-linecap:round; stroke-linejoin:round;"
 transform="translate(0 0) scale(1 1)">
</g>
<g style="fill:#000000; fill-opacity:1.0000; stroke:none;">
<circle cx="71.8400" cy="52.7300" r="0.8509" /> 
</g>
<g style="fill:#000000; fill-opacity:1.0000; stroke:none;">
<circle cx="73.1100" cy="50.1900" r="1.5000" /> 
</g>
<g style="fill:#000000; fill-opacity:1.0000; stroke:none;">
<circle cx="73.1100" cy="55.2700" r="1.5000" /> 
</g>
<g style="fill:#000000; fill-opacity:1.0000; stroke:none;">
<circle cx="76.9200" cy="52.7300" r="1.9939" /> 
</g>
<g style="fill:#000000; fill-opacity:1.0000; stroke:none;">
<circle cx="79.4600" cy="47.6500" r="1.5000" /> 
</g>
<g style="fill:#000000; fill-opacity:1.0000; stroke:none;">
<circle cx="79.4600" cy="57.8100" r="1.5000" /> 
</g>
<g style="fill:#000000; fill-opacity:1.0000; stroke:none;">
<circle cx="82.0000" cy="52.7300" r="0.8509" /> 
<path style="fill:#000000; fill-opacity:1.0000; stroke:none;fill-rule:evenodd;"
d="M 81.9350,48.9000
81.9350,46.4000
84.4850,46.4000
84.4850,48.9000
Z" /> 
<path style="fill:#000000; fill-opacity:1.0000; stroke:none;fill-rule:evenodd;"
d="M 68.0850,51.4400
68.0850,48.9400
70.6350,48.9400
70.6350,51.4400
Z" /> 
<path style="fill:#000000; fill-opacity:1.0000; stroke:none;fill-rule:evenodd;"
d="M 138.7650,86.3200
138.7650,84.7200
140.3650,84.7200
140.3650,86.3200
Z" /> 
</g>
<g style="fill:#000000; fill-opacity:1.0000; stroke:none;">
<circle cx="147.1850" cy="85.5200" r="0.8000" /> 
<path style="fill:#000000; fill-opacity:1.0000; stroke:none;fill-rule:evenodd;"
d="M 149.5350,104.0700
149.5350,102.4700
151.1350,102.4700
151.1350,104.0700
Z" /> 
<circle cx="157.9550" cy="103.2700" r="0.8000" /> 
<circle cx="89.4700" cy="133.4800" r="0.8509" /> 
</g>
<g style="fill:#000000; fill-opacity:1.0000; stroke:none;">
<circle cx="90.7400" cy="130.9400" r="1.5000" /> 
</g>
<g style="fill:#000000; fill-opacity:1.0000; stroke:none;">
<circle cx="90.7400" cy="136.0200" r="1.5000" /> 
</g>
<g style="fill:#000000; fill-opacity:1.0000; stroke:none;">
<circle cx="94.5500" cy="133.4800" r="1.9939" /> 
</g>
<g style="fill:#000000; fill-opacity:1.0000; stroke:none;">
<circle cx="97.0900" cy="128.4000" r="1.5000" /> 
</g>
<g style="fill:#000000; fill-opacity:1.0000; stroke:none;">
<circle cx="97.0900" cy="138.5600" r="1.5000" /> 
</g>
<g style="fill:#000000; fill-opacity:1.0000; stroke:none;">
<circle cx="99.6300" cy="133.4800" r="0.8509" /> 
<path style="fill:#000000; fill-opacity:1.0000; stroke:none;fill-rule:evenodd;"
d="M 99.5650,129.6500
99.5650,127.1500
102.1150,127.1500
102.1150,129.6500
Z" /> 
<path style="fill:#000000; fill-opacity:1.0000; stroke:none;fill-rule:evenodd;"
d="M 85.7150,132.1900
85.7150,129.6900
88.2650,129.6900
88.2650,132.1900
Z" /> 
<path style="fill:#000000; fill-opacity:1.0000; stroke:none;fill-rule:evenodd;"
d="M 149.5350,100.5200
149.5350,98.9200
151.1350,98.9200
151.1350,100.5200
Z" /> 
</g>
<g style="fill:#000000; fill-opacity:1.0000; stroke:none;">
<circle cx="157.9550" cy="99.7200" r="0.8000" /> 
<path style="fill:#000000; fill-opacity:1.0000; stroke:none;fill-rule:evenodd;"
d="M 138.7650,96.9700
138.7650,95.3700
140.3650,95.3700
140.3650,96.9700
Z" /> 
<circle cx="147.1850" cy="96.1700" r="0.8000" /> 
<circle cx="107.1000" cy="52.7300" r="0.8509" /> 
</g>
<g style="fill:#000000; fill-opacity:1.0000; stroke:none;">
<circle cx="108.3700" cy="50.1900" r="1.5000" /> 
</g>
<g style="fill:#000000; fill-opacity:1.0000; stroke:none;">
<circle cx="108.3700" cy="55.2700" r="1.5000" /> 
</g>
<g style="fill:#000000; fill-opacity:1.0000; stroke:none;">
<circle cx="112.1800" cy="52.7300" r="1.9939" /> 
</g>
<g style="fill:#000000; fill-opacity:1.0000; stroke:none;">
<circle cx="114.7200" cy="47.6500" r="1.5000" /> 
</g>
<g style="fill:#000000; fill-opacity:1.0000; stroke:none;">
<circle cx="114.7200" cy="57.8100" r="1.5000" /> 
</g>
<g style="fill:#000000; fill-opacity:1.0000; stroke:none;">
<circle cx="117.2600" cy="52.7300" r="0.8509" /> 
<path style="fill:#000000; fill-opacity:1.0000; stroke:none;fill-rule:evenodd;"
d="M 117.1950,48.9000
117.1950,46.4000
119.7450,46.4000
119.7450,48.9000
Z" /> 
<path style="fill:#000000; fill-opacity:1.0000; stroke:none;fill-rule:evenodd;"
d="M 103.3450,51.4400
103.3450,48.9400
105.8950,48.9400
105.8950,51.4400
Z" /> 
</g>
<g style="fill:#000000; fill-opacity:1.0000; stroke:none;">
<circle cx="89.4700" cy="85.0300" r="0.8509" /> 
</g>
<g style="fill:#000000; fill-opacity:1.0000; stroke:none;">
<circle cx="90.7400" cy="82.4900" r="1.5000" /> 
</g>
<g style="fill:#000000; fill-opacity:1.0000; stroke:none;">
<circle cx="90.7400" cy="87.5700" r="1.5000" /> 
</g>
<g style="fill:#000000; fill-opacity:1.0000; stroke:none;">
<circle cx="94.5500" cy="85.0300" r="1.9939" /> 
</g>
<g style="fill:#000000; fill-opacity:1.0000; stroke:none;">
<circle cx="97.0900" cy="79.9500" r="1.5000" /> 
</g>
<g style="fill:#000000; fill-opacity:1.0000; stroke:none;">
<circle cx="97.0900" cy="90.1100" r="1.5000" /> 
</g>
<g style="fill:#000000; fill-opacity:1.0000; stroke:none;">
<circle cx="99.6300" cy="85.0300" r="0.8509" /> 
<path style="fill:#000000; fill-opacity:1.0000; stroke:none;fill-rule:evenodd;"
d="M 99.5650,81.2000
99.5650,78.7000
102.1150,78.7000
102.1150,81.2000
Z" /> 
<path style="fill:#000000; fill-opacity:1.0000; stroke:none;fill-rule:evenodd;"
d="M 85.7150,83.7400
85.7150,81.2400
88.2650,81.2400
88.2650,83.7400
Z" /> 
<path style="fill:#000000; fill-opacity:1.0000; stroke:none;fill-rule:evenodd;"
d="M 149.5350,93.4200
149.5350,91.8200
151.1350,91.8200
151.1350,93.4200
Z" /> 
</g>
<g style="fill:#000000; fill-opacity:1.0000; stroke:none;">
<circle cx="157.9550" cy="92.6200" r="0.8000" /> 
<circle cx="71.8400" cy="68.8800" r="0.8509" /> 
</g>
<g style="fill:#000000; fill-opacity:1.0000; stroke:none;">
<circle cx="73.1100" cy="66.3400" r="1.5000" /> 
</g>
<g style="fill:#000000; fill-opacity:1.0000; stroke:none;">
<circle cx="73.1100" cy="71.4200" r="1.5000" /> 
</g>
<g style="fill:#000000; fill-opacity:1.0000; stroke:none;">
<circle cx="76.9200" cy="68.8800" r="1.9939" /> 
</g>
<g style="fill:#000000; fill-opacity:1.0000; stroke:none;">
<circle cx="79.4600" cy="63.8000" r="1.5000" /> 
</g>
<g style="fill:#000000; fill-opacity:1.0000; stroke:none;">
<circle cx="79.4600" cy="73.9600" r="1.5000" /> 
</g>
<g style="fill:#000000; fill-opacity:1.0000; stroke:none;">
<circle cx="82.0000" cy="68.8800" r="0.8509" /> 
<path style="fill:#000000; fill-opacity:1.0000; stroke:none;fill-rule:evenodd;"
d="M 81.9350,65.0500
81.9350,62.5500
84.4850,62.5500
84.4850,65.0500
Z" /> 
<path style="fill:#000000; fill-opacity:1.0000; stroke:none;fill-rule:evenodd;"
d="M 68.0850,67.5900
68.0850,65.0900
70.6350,65.0900
70.6350,67.5900
Z" /> 
</g>
<g style="fill:#000000; fill-opacity:1.0000; stroke:none;">
<circle cx="107.1000" cy="68.8800" r="0.8509" /> 
</g>
<g style="fill:#000000; fill-opacity:1.0000; stroke:none;">
<circle cx="108.3700" cy="66.3400" r="1.5000" /> 
</g>
<g style="fill:#000000; fill-opacity:1.0000; stroke:none;">
<circle cx="108.3700" cy="71.4200" r="1.5000" /> 
</g>
<g style="fill:#000000; fill-opacity:1.0000; stroke:none;">
<circle cx="112.1800" cy="68.8800" r="1.9939" /> 
</g>
<g style="fill:#000000; fill-opacity:1.0000; stroke:none;">
<circle cx="114.7200" cy="63.8000" r="1.5000" /> 
</g>
<g style="fill:#000000; fill-opacity:1.0000; stroke:none;">
<circle cx="114.7200" cy="73.9600" r="1.5000" /> 
</g>
<g style="fill:#000000; fill-opacity:1.0000; stroke:none;">
<circle cx="117.2600" cy="68.8800" r="0.8509" /> 
<path style="fill:#000000; fill-opacity:1.0000; stroke:none;fill-rule:evenodd;"
d="M 117.1950,65.0500
117.1950,62.5500
119.7450,62.5500
119.7450,65.0500
Z" /> 
<path style="fill:#000000; fill-opacity:1.0000; stroke:none;fill-rule:evenodd;"
d="M 103.3450,67.5900
103.3450,65.0900
105.8950,65.0900
105.8950,67.5900
Z" /> 
</g>
<g style="fill:#000000; fill-opacity:1.0000; stroke:none;">
<circle cx="124.7300" cy="68.8800" r="0.8509" /> 
</g>
<g style="fill:#000000; fill-opacity:1.0000; stroke:none;">
<circle cx="126.0000" cy="66.3400" r="1.5000" /> 
</g>
<g style="fill:#000000; fill-opacity:1.0000; stroke:none;">
<circle cx="126.0000" cy="71.4200" r="1.5000" /> 
</g>
<g style="fill:#000000; fill-opacity:1.0000; stroke:none;">
<circle cx="129.8100" cy="68.8800" r="1.9939" /> 
</g>
<g style="fill:#000000; fill-opacity:1.0000; stroke:none;">
<circle cx="132.3500" cy="63.8000" r="1.5000" /> 
</g>
<g style="fill:#000000; fill-opacity:1.0000; stroke:none;">
<circle cx="132.3500" cy="73.9600" r="1.5000" /> 
</g>
<g style="fill:#000000; fill-opacity:1.0000; stroke:none;">
<circle cx="134.8900" cy="68.8800" r="0.8509" /> 
<path style="fill:#000000; fill-opacity:1.0000; stroke:none;fill-rule:evenodd;"
d="M 134.8250,65.0500
134.8250,62.5500
137.3750,62.5500
137.3750,65.0500
Z" /> 
<path style="fill:#000000; fill-opacity:1.0000; stroke:none;fill-rule:evenodd;"
d="M 120.9750,67.5900
120.9750,65.0900
123.5250,65.0900
123.5250,67.5900
Z" /> 
<path style="fill:#000000; fill-opacity:1.0000; stroke:none;fill-rule:evenodd;"
d="M 160.3050,100.5200
160.3050,98.9200
161.9050,98.9200
161.9050,100.5200
Z" /> 
</g>
<g style="fill:#000000; fill-opacity:1.0000; stroke:none;">
<circle cx="168.7250" cy="99.7200" r="0.8000" /> 
<circle cx="107.1000" cy="101.1800" r="0.8509" /> 
</g>
<g style="fill:#000000; fill-opacity:1.0000; stroke:none;">
<circle cx="108.3700" cy="98.6400" r="1.5000" /> 
</g>
<g style="fill:#000000; fill-opacity:1.0000; stroke:none;">
<circle cx="108.3700" cy="103.7200" r="1.5000" /> 
</g>
<g style="fill:#000000; fill-opacity:1.0000; stroke:none;">
<circle cx="112.1800" cy="101.1800" r="1.9939" /> 
</g>
<g style="fill:#000000; fill-opacity:1.0000; stroke:none;">
<circle cx="114.7200" cy="96.1000" r="1.5000" /> 
</g>
<g style="fill:#000000; fill-opacity:1.0000; stroke:none;">
<circle cx="114.7200" cy="106.2600" r="1.5000" /> 
</g>
<g style="fill:#000000; fill-opacity:1.0000; stroke:none;">
<circle cx="117.2600" cy="101.1800" r="0.8509" /> 
<path style="fill:#000000; fill-opacity:1.0000; stroke:none;fill-rule:evenodd;"
d="M 117.1950,97.3500
117.1950,94.8500
119.7450,94.8500
119.7450,97.3500
Z" /> 
<path style="fill:#000000; fill-opacity:1.0000; stroke:none;fill-rule:evenodd;"
d="M 103.3450,99.8900
103.3450,97.3900
105.8950,97.3900
105.8950,99.8900
Z" /> 
</g>
<g style="fill:#000000; fill-opacity:1.0000; stroke:none;">
<circle cx="89.4700" cy="52.7300" r="0.8509" /> 
</g>
<g style="fill:#000000; fill-opacity:1.0000; stroke:none;">
<circle cx="90.7400" cy="50.1900" r="1.5000" /> 
</g>
<g style="fill:#000000; fill-opacity:1.0000; stroke:none;">
<circle cx="90.7400" cy="55.2700" r="1.5000" /> 
</g>
<g style="fill:#000000; fill-opacity:1.0000; stroke:none;">
<circle cx="94.5500" cy="52.7300" r="1.9939" /> 
</g>
<g style="fill:#000000; fill-opacity:1.0000; stroke:none;">
<circle cx="97.0900" cy="47.6500" r="1.5000" /> 
</g>
<g style="fill:#000000; fill-opacity:1.0000; stroke:none;">
<circle cx="97.0900" cy="57.8100" r="1.5000" /> 
</g>
<g style="fill:#000000; fill-opacity:1.0000; stroke:none;">
<circle cx="99.6300" cy="52.7300" r="0.8509" /> 
<path style="fill:#000000; fill-opacity:1.0000; stroke:none;fill-rule:evenodd;"
d="M 99.5650,48.9000
99.5650,46.4000
102.1150,46.4000
102.1150,48.9000
Z" /> 
<path style="fill:#000000; fill-opacity:1.0000; stroke:none;fill-rule:evenodd;"
d="M 85.7150,51.4400
85.7150,48.9400
88.2650,48.9400
88.2650,51.4400
Z" /> 
<path style="fill:#000000; fill-opacity:1.0000; stroke:none;fill-rule:evenodd;"
d="M 138.7650,100.5200
138.7650,98.9200
140.3650,98.9200
140.3650,100.5200
Z" /> 
</g>
<g style="fill:#000000; fill-opacity:1.0000; stroke:none;">
<circle cx="147.1850" cy="99.7200" r="0.8000" /> 
<path style="fill:#000000; fill-opacity:1.0000; stroke:none;fill-rule:evenodd;"
d="M 138.7650,104.0700
138.7650,102.4700
140.3650,102.4700
140.3650,104.0700
Z" /> 
<circle cx="147.1850" cy="103.2700" r="0.8000" /> 
<path style="fill:#000000; fill-opacity:1.0000; stroke:none;fill-rule:evenodd;"
d="M 138.7650,89.8700
138.7650,88.2700
140.3650,88.2700
140.3650,89.8700
Z" /> 
<circle cx="147.1850" cy="89.0700" r="0.8000" /> 
<circle cx="89.4700" cy="68.8800" r="0.8509" /> 
</g>
<g style="fill:#000000; fill-opacity:1.0000; stroke:none;">
<circle cx="90.7400" cy="66.3400" r="1.5000" /> 
</g>
<g style="fill:#000000; fill-opacity:1.0000; stroke:none;">
<circle cx="90.7400" cy="71.4200" r="1.5000" /> 
</g>
<g style="fill:#000000; fill-opacity:1.0000; stroke:none;">
<circle cx="94.5500" cy="68.8800" r="1.9939" /> 
</g>
<g style="fill:#000000; fill-opacity:1.0000; stroke:none;">
<circle cx="97.0900" cy="63.8000" r="1.5000" /> 
</g>
<g style="fill:#000000; fill-opacity:1.0000; stroke:none;">
<circle cx="97.0900" cy="73.9600" r="1.5000" /> 
</g>
<g style="fill:#000000; fill-opacity:1.0000; stroke:none;">
<circle cx="99.6300" cy="68.8800" r="0.8509" /> 
<path style="fill:#000000; fill-opacity:1.0000; stroke:none;fill-rule:evenodd;"
d="M 99.5650,65.0500
99.5650,62.5500
102.1150,62.5500
102.1150,65.0500
Z" /> 
<path style="fill:#000000; fill-opacity:1.0000; stroke:none;fill-rule:evenodd;"
d="M 85.7150,67.5900
85.7150,65.0900
88.2650,65.0900
88.2650,67.5900
Z" /> 
</g>
<g style="fill:#000000; fill-opacity:1.0000; stroke:none;">
<circle cx="71.8400" cy="85.0300" r="0.8509" /> 
</g>
<g style="fill:#000000; fill-opacity:1.0000; stroke:none;">
<circle cx="73.1100" cy="82.4900" r="1.5000" /> 
</g>
<g style="fill:#000000; fill-opacity:1.0000; stroke:none;">
<circle cx="73.1100" cy="87.5700" r="1.5000" /> 
</g>
<g style="fill:#000000; fill-opacity:1.0000; stroke:none;">
<circle cx="76.9200" cy="85.0300" r="1.9939" /> 
</g>
<g style="fill:#000000; fill-opacity:1.0000; stroke:none;">
<circle cx="79.4600" cy="79.9500" r="1.5000" /> 
</g>
<g style="fill:#000000; fill-opacity:1.0000; stroke:none;">
<circle cx="79.4600" cy="90.1100" r="1.5000" /> 
</g>
<g style="fill:#000000; fill-opacity:1.0000; stroke:none;">
<circle cx="82.0000" cy="85.0300" r="0.8509" /> 
<path style="fill:#000000; fill-opacity:1.0000; stroke:none;fill-rule:evenodd;"
d="M 81.9350,81.2000
81.9350,78.7000
84.4850,78.7000
84.4850,81.2000
Z" /> 
<path style="fill:#000000; fill-opacity:1.0000; stroke:none;fill-rule:evenodd;"
d="M 68.0850,83.7400
68.0850,81.2400
70.6350,81.2400
70.6350,83.7400
Z" /> 
<path style="fill:#000000; fill-opacity:1.0000; stroke:none;fill-rule:evenodd;"
d="M 122.5350,40.5700
122.5350,38.9700
124.1350,38.9700
124.1350,40.5700
Z" /> 
</g>
<g style="fill:#000000; fill-opacity:1.0000; stroke:none;">
<circle cx="130.9550" cy="39.7700" r="0.8000" /> 
<circle cx="107.1000" cy="133.4800" r="0.8509" /> 
</g>
<g style="fill:#000000; fill-opacity:1.0000; stroke:none;">
<circle cx="108.3700" cy="130.9400" r="1.5000" /> 
</g>
<g style="fill:#000000; fill-opacity:1.0000; stroke:none;">
<circle cx="108.3700" cy="136.0200" r="1.5000" /> 
</g>
<g style="fill:#000000; fill-opacity:1.0000; stroke:none;">
<circle cx="112.1800" cy="133.4800" r="1.9939" /> 
</g>
<g style="fill:#000000; fill-opacity:1.0000; stroke:none;">
<circle cx="114.7200" cy="128.4000" r="1.5000" /> 
</g>
<g style="fill:#000000; fill-opacity:1.0000; stroke:none;">
<circle cx="114.7200" cy="138.5600" r="1.5000" /> 
</g>
<g style="fill:#000000; fill-opacity:1.0000; stroke:none;">
<circle cx="117.2600" cy="133.4800" r="0.8509" /> 
<path style="fill:#000000; fill-opacity:1.0000; stroke:none;fill-rule:evenodd;"
d="M 117.1950,129.6500
117.1950,127.1500
119.7450,127.1500
119.7450,129.6500
Z" /> 
<path style="fill:#000000; fill-opacity:1.0000; stroke:none;fill-rule:evenodd;"
d="M 103.3450,132.1900
103.3450,129.6900
105.8950,129.6900
105.8950,132.1900
Z" /> 
</g>
<g style="fill:#000000; fill-opacity:1.0000; stroke:none;">
<circle cx="71.8400" cy="101.1800" r="0.8509" /> 
</g>
<g style="fill:#000000; fill-opacity:1.0000; stroke:none;">
<circle cx="73.1100" cy="98.6400" r="1.5000" /> 
</g>
<g style="fill:#000000; fill-opacity:1.0000; stroke:none;">
<circle cx="73.1100" cy="103.7200" r="1.5000" /> 
</g>
<g style="fill:#000000; fill-opacity:1.0000; stroke:none;">
<circle cx="76.9200" cy="101.1800" r="1.9939" /> 
</g>
<g style="fill:#000000; fill-opacity:1.0000; stroke:none;">
<circle cx="79.4600" cy="96.1000" r="1.5000" /> 
</g>
<g style="fill:#000000; fill-opacity:1.0000; stroke:none;">
<circle cx="79.4600" cy="106.2600" r="1.5000" /> 
</g>
<g style="fill:#000000; fill-opacity:1.0000; stroke:none;">
<circle cx="82.0000" cy="101.1800" r="0.8509" /> 
<path style="fill:#000000; fill-opacity:1.0000; stroke:none;fill-rule:evenodd;"
d="M 81.9350,97.3500
81.9350,94.8500
84.4850,94.8500
84.4850,97.3500
Z" /> 
<path style="fill:#000000; fill-opacity:1.0000; stroke:none;fill-rule:evenodd;"
d="M 68.0850,99.8900
68.0850,97.3900
70.6350,97.3900
70.6350,99.8900
Z" /> 
<path style="fill:#000000; fill-opacity:1.0000; stroke:none;fill-rule:evenodd;"
d="M 149.5350,86.3200
149.5350,84.7200
151.1350,84.7200
151.1350,86.3200
Z" /> 
</g>
<g style="fill:#000000; fill-opacity:1.0000; stroke:none;">
<circle cx="157.9550" cy="85.5200" r="0.8000" /> 
<path style="fill:#000000; fill-opacity:1.0000; stroke:none;fill-rule:evenodd;"
d="M 242.7388,34.9328
242.7194,34.9289
242.7029,34.9179
242.6919,34.9014
242.6880,34.8820
242.6880,33.3580
242.6919,33.3386
242.7029,33.3221
242.7194,33.3111
242.7388,33.3072
244.2628,33.3072
244.2822,33.3111
244.2987,33.3221
244.3097,33.3386
244.3136,33.3580
244.3136,34.8820
244.3097,34.9014
244.2987,34.9179
244.2822,34.9289
244.2628,34.9328
Z" /> 
<circle cx="243.5000" cy="31.5800" r="0.8128" /> 
<circle cx="243.5000" cy="29.0400" r="0.8128" /> 
<circle cx="243.5000" cy="26.5000" r="0.8128" /> 
<circle cx="107.1000" cy="85.0300" r="0.8509" /> 
</g>
<g style="fill:#000000; fill-opacity:1.0000; stroke:none;">
<circle cx="108.3700" cy="82.4900" r="1.5000" /> 
</g>
<g style="fill:#000000; fill-opacity:1.0000; stroke:none;">
<circle cx="108.3700" cy="87.5700" r="1.5000" /> 
</g>
<g style="fill:#000000; fill-opacity:1.0000; stroke:none;">
<circle cx="112.1800" cy="85.0300" r="1.9939" /> 
</g>
<g style="fill:#000000; fill-opacity:1.0000; stroke:none;">
<circle cx="114.7200" cy="79.9500" r="1.5000" /> 
</g>
<g style="fill:#000000; fill-opacity:1.0000; stroke:none;">
<circle cx="114.7200" cy="90.1100" r="1.5000" /> 
</g>
<g style="fill:#000000; fill-opacity:1.0000; stroke:none;">
<circle cx="117.2600" cy="85.0300" r="0.8509" /> 
<path style="fill:#000000; fill-opacity:1.0000; stroke:none;fill-rule:evenodd;"
d="M 117.1950,81.2000
117.1950,78.7000
119.7450,78.7000
119.7450,81.2000
Z" /> 
<path style="fill:#000000; fill-opacity:1.0000; stroke:none;fill-rule:evenodd;"
d="M 103.3450,83.7400
103.3450,81.2400
105.8950,81.2400
105.8950,83.7400
Z" /> 
</g>
<g style="fill:#000000; fill-opacity:1.0000; stroke:none;">
<circle cx="71.8400" cy="133.4800" r="0.8509" /> 
</g>
<g style="fill:#000000; fill-opacity:1.0000; stroke:none;">
<circle cx="73.1100" cy="130.9400" r="1.5000" /> 
</g>
<g style="fill:#000000; fill-opacity:1.0000; stroke:none;">
<circle cx="73.1100" cy="136.0200" r="1.5000" /> 
</g>
<g style="fill:#000000; fill-opacity:1.0000; stroke:none;">
<circle cx="76.9200" cy="133.4800" r="1.9939" /> 
</g>
<g style="fill:#000000; fill-opacity:1.0000; stroke:none;">
<circle cx="79.4600" cy="128.4000" r="1.5000" /> 
</g>
<g style="fill:#000000; fill-opacity:1.0000; stroke:none;">
<circle cx="79.4600" cy="138.5600" r="1.5000" /> 
</g>
<g style="fill:#000000; fill-opacity:1.0000; stroke:none;">
<circle cx="82.0000" cy="133.4800" r="0.8509" /> 
<path style="fill:#000000; fill-opacity:1.0000; stroke:none;fill-rule:evenodd;"
d="M 81.9350,129.6500
81.9350,127.1500
84.4850,127.1500
84.4850,129.6500
Z" /> 
<path style="fill:#000000; fill-opacity:1.0000; stroke:none;fill-rule:evenodd;"
d="M 68.0850,132.1900
68.0850,129.6900
70.6350,129.6900
70.6350,132.1900
Z" /> 
<path style="fill:#000000; fill-opacity:1.0000; stroke:none;fill-rule:evenodd;"
d="M 160.3050,96.9700
160.3050,95.3700
161.9050,95.3700
161.9050,96.9700
Z" /> 
</g>
<g style="fill:#000000; fill-opacity:1.0000; stroke:none;">
<circle cx="168.7250" cy="96.1700" r="0.8000" /> 
<circle cx="89.4700" cy="117.3300" r="0.8509" /> 
</g>
<g style="fill:#000000; fill-opacity:1.0000; stroke:none;">
<circle cx="90.7400" cy="114.7900" r="1.5000" /> 
</g>
<g style="fill:#000000; fill-opacity:1.0000; stroke:none;">
<circle cx="90.7400" cy="119.8700" r="1.5000" /> 
</g>
<g style="fill:#000000; fill-opacity:1.0000; stroke:none;">
<circle cx="94.5500" cy="117.3300" r="1.9939" /> 
</g>
<g style="fill:#000000; fill-opacity:1.0000; stroke:none;">
<circle cx="97.0900" cy="112.2500" r="1.5000" /> 
</g>
<g style="fill:#000000; fill-opacity:1.0000; stroke:none;">
<circle cx="97.0900" cy="122.4100" r="1.5000" /> 
</g>
<g style="fill:#000000; fill-opacity:1.0000; stroke:none;">
<circle cx="99.6300" cy="117.3300" r="0.8509" /> 
<path style="fill:#000000; fill-opacity:1.0000; stroke:none;fill-rule:evenodd;"
d="M 99.5650,113.5000
99.5650,111.0000
102.1150,111.0000
102.1150,113.5000
Z" /> 
<path style="fill:#000000; fill-opacity:1.0000; stroke:none;fill-rule:evenodd;"
d="M 85.7150,116.0400
85.7150,113.5400
88.2650,113.5400
88.2650,116.0400
Z" /> 
<path style="fill:#000000; fill-opacity:1.0000; stroke:none;fill-rule:evenodd;"
d="M 138.7650,93.4200
138.7650,91.8200
140.3650,91.8200
140.3650,93.4200
Z" /> 
</g>
<g style="fill:#000000; fill-opacity:1.0000; stroke:none;">
<circle cx="147.1850" cy="92.6200" r="0.8000" /> 
<path style="fill:#000000; fill-opacity:1.0000; stroke:none;fill-rule:evenodd;"
d="M 149.5350,89.8700
149.5350,88.2700
151.1350,88.2700
151.1350,89.8700
Z" /> 
<circle cx="157.9550" cy="89.0700" r="0.8000" /> 
<circle cx="124.7300" cy="52.7300" r="0.8509" /> 
</g>
<g style="fill:#000000; fill-opacity:1.0000; stroke:none;">
<circle cx="126.0000" cy="50.1900" r="1.5000" /> 
</g>
<g style="fill:#000000; fill-opacity:1.0000; stroke:none;">
<circle cx="126.0000" cy="55.2700" r="1.5000" /> 
</g>
<g style="fill:#000000; fill-opacity:1.0000; stroke:none;">
<circle cx="129.8100" cy="52.7300" r="1.9939" /> 
</g>
<g style="fill:#000000; fill-opacity:1.0000; stroke:none;">
<circle cx="132.3500" cy="47.6500" r="1.5000" /> 
</g>
<g style="fill:#000000; fill-opacity:1.0000; stroke:none;">
<circle cx="132.3500" cy="57.8100" r="1.5000" /> 
</g>
<g style="fill:#000000; fill-opacity:1.0000; stroke:none;">
<circle cx="134.8900" cy="52.7300" r="0.8509" /> 
<path style="fill:#000000; fill-opacity:1.0000; stroke:none;fill-rule:evenodd;"
d="M 134.8250,48.9000
134.8250,46.4000
137.3750,46.4000
137.3750,48.9000
Z" /> 
<path style="fill:#000000; fill-opacity:1.0000; stroke:none;fill-rule:evenodd;"
d="M 120.9750,51.4400
120.9750,48.9400
123.5250,48.9400
123.5250,51.4400
Z" /> 
<path style="fill:#000000; fill-opacity:1.0000; stroke:none;fill-rule:evenodd;"
d="M 160.3050,93.4200
160.3050,91.8200
161.9050,91.8200
161.9050,93.4200
Z" /> 
</g>
<g style="fill:#000000; fill-opacity:1.0000; stroke:none;">
<circle cx="168.7250" cy="92.6200" r="0.8000" /> 
<path style="fill:#000000; fill-opacity:1.0000; stroke:none;fill-rule:evenodd;"
d="M 160.3050,86.3200
160.3050,84.7200
161.9050,84.7200
161.9050,86.3200
Z" /> 
<circle cx="168.7250" cy="85.5200" r="0.8000" /> 
<path style="fill:#000000; fill-opacity:1.0000; stroke:none;fill-rule:evenodd;"
d="M 138.7650,107.6200
138.7650,106.0200
140.3650,106.0200
140.3650,107.6200
Z" /> 
<circle cx="147.1850" cy="106.8200" r="0.8000" /> 
<path style="fill:#000000; fill-opacity:1.0000; stroke:none;fill-rule:evenodd;"
d="M 149.5350,107.6200
149.5350,106.0200
151.1350,106.0200
151.1350,107.6200
Z" /> 
<circle cx="157.9550" cy="106.8200" r="0.8000" /> 
<circle cx="71.8400" cy="117.3300" r="0.8509" /> 
</g>
<g style="fill:#000000; fill-opacity:1.0000; stroke:none;">
<circle cx="73.1100" cy="114.7900" r="1.5000" /> 
</g>
<g style="fill:#000000; fill-opacity:1.0000; stroke:none;">
<circle cx="73.1100" cy="119.8700" r="1.5000" /> 
</g>
<g style="fill:#000000; fill-opacity:1.0000; stroke:none;">
<circle cx="76.9200" cy="117.3300" r="1.9939" /> 
</g>
<g style="fill:#000000; fill-opacity:1.0000; stroke:none;">
<circle cx="79.4600" cy="112.2500" r="1.5000" /> 
</g>
<g style="fill:#000000; fill-opacity:1.0000; stroke:none;">
<circle cx="79.4600" cy="122.4100" r="1.5000" /> 
</g>
<g style="fill:#000000; fill-opacity:1.0000; stroke:none;">
<circle cx="82.0000" cy="117.3300" r="0.8509" /> 
<path style="fill:#000000; fill-opacity:1.0000; stroke:none;fill-rule:evenodd;"
d="M 81.9350,113.5000
81.9350,111.0000
84.4850,111.0000
84.4850,113.5000
Z" /> 
<path style="fill:#000000; fill-opacity:1.0000; stroke:none;fill-rule:evenodd;"
d="M 68.0850,116.0400
68.0850,113.5400
70.6350,113.5400
70.6350,116.0400
Z" /> 
<path style="fill:#000000; fill-opacity:1.0000; stroke:none;fill-rule:evenodd;"
d="M 160.3050,104.0700
160.3050,102.4700
161.9050,102.4700
161.9050,104.0700
Z" /> 
</g>
<g style="fill:#000000; fill-opacity:1.0000; stroke:none;">
<circle cx="168.7250" cy="103.2700" r="0.8000" /> 
<path style="fill:#000000; fill-opacity:1.0000; stroke:none;fill-rule:evenodd;"
d="M 149.5350,96.9700
149.5350,95.3700
151.1350,95.3700
151.1350,96.9700
Z" /> 
<circle cx="157.9550" cy="96.1700" r="0.8000" /> 
<path style="fill:#000000; fill-opacity:1.0000; stroke:none;fill-rule:evenodd;"
d="M 160.3050,107.6200
160.3050,106.0200
161.9050,106.0200
161.9050,107.6200
Z" /> 
<circle cx="168.7250" cy="106.8200" r="0.8000" /> 
<circle cx="107.1000" cy="117.3300" r="0.8509" /> 
</g>
<g style="fill:#000000; fill-opacity:1.0000; stroke:none;">
<circle cx="108.3700" cy="114.7900" r="1.5000" /> 
</g>
<g style="fill:#000000; fill-opacity:1.0000; stroke:none;">
<circle cx="108.3700" cy="119.8700" r="1.5000" /> 
</g>
<g style="fill:#000000; fill-opacity:1.0000; stroke:none;">
<circle cx="112.1800" cy="117.3300" r="1.9939" /> 
</g>
<g style="fill:#000000; fill-opacity:1.0000; stroke:none;">
<circle cx="114.7200" cy="112.2500" r="1.5000" /> 
</g>
<g style="fill:#000000; fill-opacity:1.0000; stroke:none;">
<circle cx="114.7200" cy="122.4100" r="1.5000" /> 
</g>
<g style="fill:#000000; fill-opacity:1.0000; stroke:none;">
<circle cx="117.2600" cy="117.3300" r="0.8509" /> 
<path style="fill:#000000; fill-opacity:1.0000; stroke:none;fill-rule:evenodd;"
d="M 117.1950,113.5000
117.1950,111.0000
119.7450,111.0000
119.7450,113.5000
Z" /> 
<path style="fill:#000000; fill-opacity:1.0000; stroke:none;fill-rule:evenodd;"
d="M 103.3450,116.0400
103.3450,113.5400
105.8950,113.5400
105.8950,116.0400
Z" /> 
<path style="fill:#000000; fill-opacity:1.0000; stroke:none;fill-rule:evenodd;"
d="M 160.3050,89.8700
160.3050,88.2700
161.9050,88.2700
161.9050,89.8700
Z" /> 
</g>
<g style="fill:#000000; fill-opacity:1.0000; stroke:none;">
<circle cx="168.7250" cy="89.0700" r="0.8000" /> 
<circle cx="89.4700" cy="101.1800" r="0.8509" /> 
</g>
<g style="fill:#000000; fill-opacity:1.0000; stroke:none;">
<circle cx="90.7400" cy="98.6400" r="1.5000" /> 
</g>
<g style="fill:#000000; fill-opacity:1.0000; stroke:none;">
<circle cx="90.7400" cy="103.7200" r="1.5000" /> 
</g>
<g style="fill:#000000; fill-opacity:1.0000; stroke:none;">
<circle cx="94.5500" cy="101.1800" r="1.9939" /> 
</g>
<g style="fill:#000000; fill-opacity:1.0000; stroke:none;">
<circle cx="97.0900" cy="96.1000" r="1.5000" /> 
</g>
<g style="fill:#000000; fill-opacity:1.0000; stroke:none;">
<circle cx="97.0900" cy="106.2600" r="1.5000" /> 
</g>
<g style="fill:#000000; fill-opacity:1.0000; stroke:none;">
<circle cx="99.6300" cy="101.1800" r="0.8509" /> 
<path style="fill:#000000; fill-opacity:1.0000; stroke:none;fill-rule:evenodd;"
d="M 99.5650,97.3500
99.5650,94.8500
102.1150,94.8500
102.1150,97.3500
Z" /> 
<path style="fill:#000000; fill-opacity:1.0000; stroke:none;fill-rule:evenodd;"
d="M 85.7150,99.8900
85.7150,97.3900
88.2650,97.3900
88.2650,99.8900
Z" /> 
</g>
<g style="fill:#000000; fill-opacity:1.0000; stroke:none;">
<circle cx="126.1300" cy="29.9200" r="0.8509" /> 
</g>
<g style="fill:#000000; fill-opacity:1.0000; stroke:none;">
<circle cx="127.4000" cy="27.3800" r="1.5000" /> 
</g>
<g style="fill:#000000; fill-opacity:1.0000; stroke:none;">
<circle cx="127.4000" cy="32.4600" r="1.5000" /> 
</g>
<g style="fill:#000000; fill-opacity:1.0000; stroke:none;">
<circle cx="131.2100" cy="29.9200" r="1.9939" /> 
</g>
<g style="fill:#000000; fill-opacity:1.0000; stroke:none;">
<circle cx="133.7500" cy="24.8400" r="1.5000" /> 
</g>
<g style="fill:#000000; fill-opacity:1.0000; stroke:none;">
<circle cx="133.7500" cy="35.0000" r="1.5000" /> 
</g>
<g style="fill:#000000; fill-opacity:1.0000; stroke:none;">
<circle cx="136.2900" cy="29.9200" r="0.8509" /> 
<path style="fill:#000000; fill-opacity:1.0000; stroke:none;fill-rule:evenodd;"
d="M 136.2250,26.0900
136.2250,23.5900
138.7750,23.5900
138.7750,26.0900
Z" /> 
<path style="fill:#000000; fill-opacity:1.0000; stroke:none;fill-rule:evenodd;"
d="M 122.3750,28.6300
122.3750,26.1300
124.9250,26.1300
124.9250,28.6300
Z" /> 
</g>
<g style="fill:#000000; fill-opacity:1.0000; stroke:none;">
<circle cx="144.7600" cy="49.0400" r="0.9000" /> 
</g>
<g style="fill:#000000; fill-opacity:1.0000; stroke:none;">
<circle cx="144.7600" cy="51.5800" r="0.9000" /> 
<path style="fill:#000000; fill-opacity:1.0000; stroke:none;fill-rule:evenodd;"
d="M 143.8600,53.6700
143.8678,53.5863
143.9121,53.4597
143.9918,53.3518
144.0997,53.2721
144.2263,53.2278
144.3100,53.2200
145.2100,53.2200
145.2937,53.2278
145.4203,53.2721
145.5282,53.3518
145.6079,53.4597
145.6522,53.5863
145.6600,53.6700
145.6600,54.5700
145.6522,54.6537
145.6079,54.7803
145.5282,54.8882
145.4203,54.9679
145.2937,55.0122
145.2100,55.0200
144.3100,55.0200
144.2263,55.0122
144.0997,54.9679
143.9918,54.8882
143.9121,54.7803
143.8678,54.6537
143.8600,54.5700
Z" /> 
<path style="fill:#000000; fill-opacity:1.0000; stroke:none;fill-rule:evenodd;"
d="M 143.8600,56.2100
143.8678,56.1263
143.9121,55.9997
143.9918,55.8918
144.0997,55.8121
144.2263,55.7678
144.3100,55.7600
145.2100,55.7600
145.2937,55.7678
145.4203,55.8121
145.5282,55.8918
145.6079,55.9997
145.6522,56.1263
145.6600,56.2100
145.6600,57.1100
145.6522,57.1937
145.6079,57.3203
145.5282,57.4282
145.4203,57.5079
145.2937,57.5522
145.2100,57.5600
144.3100,57.5600
144.2263,57.5522
144.0997,57.5079
143.9918,57.4282
143.9121,57.3203
143.8678,57.1937
143.8600,57.1100
Z" /> 
</g>
<g style="fill:#000000; fill-opacity:1.0000; stroke:none;">
<circle cx="144.7600" cy="59.2000" r="0.9000" /> 
</g>
<g style="fill:#000000; fill-opacity:1.0000; stroke:none;">
<circle cx="144.7600" cy="61.7400" r="0.9000" /> 
</g>
<g style="fill:#000000; fill-opacity:1.0000; stroke:none;">
<circle cx="144.7600" cy="64.2800" r="0.9000" /> 
</g>
<g style="fill:#000000; fill-opacity:1.0000; stroke:none;">
<circle cx="144.7600" cy="66.8200" r="0.9000" /> 
</g>
<g style="fill:#000000; fill-opacity:1.0000; stroke:none;">
<circle cx="144.7600" cy="69.3600" r="0.9000" /> 
</g>
<g style="fill:#000000; fill-opacity:1.0000; stroke:none;">
<circle cx="144.7600" cy="71.9000" r="0.9000" /> 
</g>
<g style="fill:#000000; fill-opacity:1.0000; stroke:none;">
<circle cx="144.7600" cy="74.4400" r="0.9000" /> 
</g>
<g style="fill:#000000; fill-opacity:1.0000; stroke:none;">
<circle cx="144.7600" cy="76.9800" r="0.9000" /> 
</g>
<g style="fill:none; 
stroke:#000000; stroke-width:1.8000; stroke-opacity:1; 
stroke-linecap:round; stroke-linejoin:round;">
<path d="M160.0000 46.5000
L160.0000 49.0400
" />
<path style="fill:#000000; fill-opacity:1.0000; stroke:none;fill-rule:evenodd;"
d="M 159.1000,51.1300
159.1078,51.0463
159.1521,50.9197
159.2318,50.8118
159.3397,50.7321
159.4663,50.6878
159.5500,50.6800
160.4500,50.6800
160.5337,50.6878
160.6603,50.7321
160.7682,50.8118
160.8479,50.9197
160.8922,51.0463
160.9000,51.1300
160.9000,52.0300
160.8922,52.1137
160.8479,52.2403
160.7682,52.3482
160.6603,52.4279
160.5337,52.4722
160.4500,52.4800
159.5500,52.4800
159.4663,52.4722
159.3397,52.4279
159.2318,52.3482
159.1521,52.2403
159.1078,52.1137
159.1000,52.0300
Z" /> 
</g>
<g style="fill:#000000; fill-opacity:1.0000; stroke:none;">
<circle cx="160.0000" cy="54.1200" r="0.9000" /> 
</g>
<g style="fill:#000000; fill-opacity:1.0000; stroke:none;">
<circle cx="160.0000" cy="56.6600" r="0.9000" /> 
</g>
<g style="fill:#000000; fill-opacity:1.0000; stroke:none;">
<circle cx="160.0000" cy="59.2000" r="0.9000" /> 
</g>
<g style="fill:#000000; fill-opacity:1.0000; stroke:none;">
<circle cx="160.0000" cy="61.7400" r="0.9000" /> 
</g>
<g style="fill:#000000; fill-opacity:1.0000; stroke:none;">
<circle cx="160.0000" cy="64.2800" r="0.9000" /> 
</g>
<g style="fill:#000000; fill-opacity:1.0000; stroke:none;">
<circle cx="160.0000" cy="66.8200" r="0.9000" /> 
</g>
<g style="fill:#000000; fill-opacity:1.0000; stroke:none;">
<circle cx="160.0000" cy="69.3600" r="0.9000" /> 
</g>
<g style="fill:#000000; fill-opacity:1.0000; stroke:none;">
<circle cx="160.0000" cy="71.9000" r="0.9000" /> 
</g>
<g style="fill:#000000; fill-opacity:1.0000; stroke:none;">
<circle cx="160.0000" cy="74.4400" r="0.9000" /> 
</g>
<g style="fill:#000000; fill-opacity:1.0000; stroke:none;">
<circle cx="160.0000" cy="76.9800" r="0.9000" /> 
</g>
<g style="fill:#000000; fill-opacity:1.0000; stroke:none;">
<circle cx="147.8334" cy="73.8863" r="0.9000" /> 
</g>
<g style="fill:#000000; fill-opacity:1.0000; stroke:none;">
<circle cx="150.3734" cy="73.8863" r="0.9000" /> 
</g>
<g style="fill:#000000; fill-opacity:1.0000; stroke:none;">
<circle cx="152.9134" cy="73.8863" r="0.9000" /> 
<path style="fill:#000000; fill-opacity:1.0000; stroke:none;fill-rule:evenodd;"
d="M 143.8600,46.0500
143.8678,45.9663
143.9121,45.8397
143.9918,45.7318
144.0997,45.6521
144.2263,45.6078
144.3100,45.6000
145.2100,45.6000
145.2937,45.6078
145.4203,45.6521
145.5282,45.7318
145.6079,45.8397
145.6522,45.9663
145.6600,46.0500
145.6600,46.9500
145.6522,47.0337
145.6079,47.1603
145.5282,47.2682
145.4203,47.3479
145.2937,47.3922
145.2100,47.4000
144.3100,47.4000
144.2263,47.3922
144.0997,47.3479
143.9918,47.2682
143.9121,47.1603
143.8678,47.0337
143.8600,46.9500
Z" /> 
</g>
<g style="fill:#000000; fill-opacity:1.0000; stroke:none;">
<circle cx="160.0000" cy="46.5000" r="0.9000" /> 
</g>
<g style="fill:#000000; fill-opacity:1.0000; stroke:none;">
<circle cx="124.7300" cy="85.0300" r="0.8509" /> 
</g>
<g style="fill:#000000; fill-opacity:1.0000; stroke:none;">
<circle cx="126.0000" cy="82.4900" r="1.5000" /> 
</g>
<g style="fill:#000000; fill-opacity:1.0000; stroke:none;">
<circle cx="126.0000" cy="87.5700" r="1.5000" /> 
</g>
<g style="fill:#000000; fill-opacity:1.0000; stroke:none;">
<circle cx="129.8100" cy="85.0300" r="1.9939" /> 
</g>
<g style="fill:#000000; fill-opacity:1.0000; stroke:none;">
<circle cx="132.3500" cy="79.9500" r="1.5000" /> 
</g>
<g style="fill:#000000; fill-opacity:1.0000; stroke:none;">
<circle cx="132.3500" cy="90.1100" r="1.5000" /> 
</g>
<g style="fill:#000000; fill-opacity:1.0000; stroke:none;">
<circle cx="134.8900" cy="85.0300" r="0.8509" /> 
<path style="fill:#000000; fill-opacity:1.0000; stroke:none;fill-rule:evenodd;"
d="M 134.8250,81.2000
134.8250,78.7000
137.3750,78.7000
137.3750,81.2000
Z" /> 
<path style="fill:#000000; fill-opacity:1.0000; stroke:none;fill-rule:evenodd;"
d="M 120.9750,83.7400
120.9750,81.2400
123.5250,81.2400
123.5250,83.7400
Z" /> 
</g> 
</svg>
