<?xml version="1.0" standalone="no"?>
 <!DOCTYPE svg PUBLIC "-//W3C//DTD SVG 1.1//EN" 
 "http://www.w3.org/Graphics/SVG/1.1/DTD/svg11.dtd"> 
<svg
  xmlns:svg="http://www.w3.org/2000/svg"
  xmlns="http://www.w3.org/2000/svg"
  xmlns:xlink="http://www.w3.org/1999/xlink"
  version="1.1"
  width="297.0022mm" height="210.0072mm" viewBox="0.0000 0.0000 297.0022 210.0072">
<title>SVG Image created as V3-B_Paste.svg date 2025/07/21 07:58:33 </title>
  <desc>Image generated by PCBNEW </desc>
<g style="fill:#000000; fill-opacity:1.0000;stroke:#000000; stroke-opacity:1.0000;
stroke-linecap:round; stroke-linejoin:round;"
 transform="translate(0 0) scale(1 1)">
<path style="fill:#000000; fill-opacity:1.0000; stroke:none;fill-rule:evenodd;"
d="M 81.9350,48.9000
81.9350,46.4000
84.4850,46.4000
84.4850,48.9000
Z" /> 
<path style="fill:#000000; fill-opacity:1.0000; stroke:none;fill-rule:evenodd;"
d="M 68.0850,51.4400
68.0850,48.9400
70.6350,48.9400
70.6350,51.4400
Z" /> 
<path style="fill:#000000; fill-opacity:1.0000; stroke:none;fill-rule:evenodd;"
d="M 99.5650,129.6500
99.5650,127.1500
102.1150,127.1500
102.1150,129.6500
Z" /> 
<path style="fill:#000000; fill-opacity:1.0000; stroke:none;fill-rule:evenodd;"
d="M 85.7150,132.1900
85.7150,129.6900
88.2650,129.6900
88.2650,132.1900
Z" /> 
<path style="fill:#000000; fill-opacity:1.0000; stroke:none;fill-rule:evenodd;"
d="M 117.1950,48.9000
117.1950,46.4000
119.7450,46.4000
119.7450,48.9000
Z" /> 
<path style="fill:#000000; fill-opacity:1.0000; stroke:none;fill-rule:evenodd;"
d="M 103.3450,51.4400
103.3450,48.9400
105.8950,48.9400
105.8950,51.4400
Z" /> 
<path style="fill:#000000; fill-opacity:1.0000; stroke:none;fill-rule:evenodd;"
d="M 99.5650,81.2000
99.5650,78.7000
102.1150,78.7000
102.1150,81.2000
Z" /> 
<path style="fill:#000000; fill-opacity:1.0000; stroke:none;fill-rule:evenodd;"
d="M 85.7150,83.7400
85.7150,81.2400
88.2650,81.2400
88.2650,83.7400
Z" /> 
<path style="fill:#000000; fill-opacity:1.0000; stroke:none;fill-rule:evenodd;"
d="M 81.9350,65.0500
81.9350,62.5500
84.4850,62.5500
84.4850,65.0500
Z" /> 
<path style="fill:#000000; fill-opacity:1.0000; stroke:none;fill-rule:evenodd;"
d="M 68.0850,67.5900
68.0850,65.0900
70.6350,65.0900
70.6350,67.5900
Z" /> 
<path style="fill:#000000; fill-opacity:1.0000; stroke:none;fill-rule:evenodd;"
d="M 117.1950,65.0500
117.1950,62.5500
119.7450,62.5500
119.7450,65.0500
Z" /> 
<path style="fill:#000000; fill-opacity:1.0000; stroke:none;fill-rule:evenodd;"
d="M 103.3450,67.5900
103.3450,65.0900
105.8950,65.0900
105.8950,67.5900
Z" /> 
<path style="fill:#000000; fill-opacity:1.0000; stroke:none;fill-rule:evenodd;"
d="M 134.8250,65.0500
134.8250,62.5500
137.3750,62.5500
137.3750,65.0500
Z" /> 
<path style="fill:#000000; fill-opacity:1.0000; stroke:none;fill-rule:evenodd;"
d="M 120.9750,67.5900
120.9750,65.0900
123.5250,65.0900
123.5250,67.5900
Z" /> 
<path style="fill:#000000; fill-opacity:1.0000; stroke:none;fill-rule:evenodd;"
d="M 117.1950,97.3500
117.1950,94.8500
119.7450,94.8500
119.7450,97.3500
Z" /> 
<path style="fill:#000000; fill-opacity:1.0000; stroke:none;fill-rule:evenodd;"
d="M 103.3450,99.8900
103.3450,97.3900
105.8950,97.3900
105.8950,99.8900
Z" /> 
<path style="fill:#000000; fill-opacity:1.0000; stroke:none;fill-rule:evenodd;"
d="M 99.5650,48.9000
99.5650,46.4000
102.1150,46.4000
102.1150,48.9000
Z" /> 
<path style="fill:#000000; fill-opacity:1.0000; stroke:none;fill-rule:evenodd;"
d="M 85.7150,51.4400
85.7150,48.9400
88.2650,48.9400
88.2650,51.4400
Z" /> 
<path style="fill:#000000; fill-opacity:1.0000; stroke:none;fill-rule:evenodd;"
d="M 99.5650,65.0500
99.5650,62.5500
102.1150,62.5500
102.1150,65.0500
Z" /> 
<path style="fill:#000000; fill-opacity:1.0000; stroke:none;fill-rule:evenodd;"
d="M 85.7150,67.5900
85.7150,65.0900
88.2650,65.0900
88.2650,67.5900
Z" /> 
<path style="fill:#000000; fill-opacity:1.0000; stroke:none;fill-rule:evenodd;"
d="M 81.9350,81.2000
81.9350,78.7000
84.4850,78.7000
84.4850,81.2000
Z" /> 
<path style="fill:#000000; fill-opacity:1.0000; stroke:none;fill-rule:evenodd;"
d="M 68.0850,83.7400
68.0850,81.2400
70.6350,81.2400
70.6350,83.7400
Z" /> 
<path style="fill:#000000; fill-opacity:1.0000; stroke:none;fill-rule:evenodd;"
d="M 117.1950,129.6500
117.1950,127.1500
119.7450,127.1500
119.7450,129.6500
Z" /> 
<path style="fill:#000000; fill-opacity:1.0000; stroke:none;fill-rule:evenodd;"
d="M 103.3450,132.1900
103.3450,129.6900
105.8950,129.6900
105.8950,132.1900
Z" /> 
<path style="fill:#000000; fill-opacity:1.0000; stroke:none;fill-rule:evenodd;"
d="M 81.9350,97.3500
81.9350,94.8500
84.4850,94.8500
84.4850,97.3500
Z" /> 
<path style="fill:#000000; fill-opacity:1.0000; stroke:none;fill-rule:evenodd;"
d="M 68.0850,99.8900
68.0850,97.3900
70.6350,97.3900
70.6350,99.8900
Z" /> 
<path style="fill:#000000; fill-opacity:1.0000; stroke:none;fill-rule:evenodd;"
d="M 117.1950,81.2000
117.1950,78.7000
119.7450,78.7000
119.7450,81.2000
Z" /> 
<path style="fill:#000000; fill-opacity:1.0000; stroke:none;fill-rule:evenodd;"
d="M 103.3450,83.7400
103.3450,81.2400
105.8950,81.2400
105.8950,83.7400
Z" /> 
<path style="fill:#000000; fill-opacity:1.0000; stroke:none;fill-rule:evenodd;"
d="M 81.9350,129.6500
81.9350,127.1500
84.4850,127.1500
84.4850,129.6500
Z" /> 
<path style="fill:#000000; fill-opacity:1.0000; stroke:none;fill-rule:evenodd;"
d="M 68.0850,132.1900
68.0850,129.6900
70.6350,129.6900
70.6350,132.1900
Z" /> 
<path style="fill:#000000; fill-opacity:1.0000; stroke:none;fill-rule:evenodd;"
d="M 99.5650,113.5000
99.5650,111.0000
102.1150,111.0000
102.1150,113.5000
Z" /> 
<path style="fill:#000000; fill-opacity:1.0000; stroke:none;fill-rule:evenodd;"
d="M 85.7150,116.0400
85.7150,113.5400
88.2650,113.5400
88.2650,116.0400
Z" /> 
<path style="fill:#000000; fill-opacity:1.0000; stroke:none;fill-rule:evenodd;"
d="M 134.8250,48.9000
134.8250,46.4000
137.3750,46.4000
137.3750,48.9000
Z" /> 
<path style="fill:#000000; fill-opacity:1.0000; stroke:none;fill-rule:evenodd;"
d="M 120.9750,51.4400
120.9750,48.9400
123.5250,48.9400
123.5250,51.4400
Z" /> 
<path style="fill:#000000; fill-opacity:1.0000; stroke:none;fill-rule:evenodd;"
d="M 81.9350,113.5000
81.9350,111.0000
84.4850,111.0000
84.4850,113.5000
Z" /> 
<path style="fill:#000000; fill-opacity:1.0000; stroke:none;fill-rule:evenodd;"
d="M 68.0850,116.0400
68.0850,113.5400
70.6350,113.5400
70.6350,116.0400
Z" /> 
<path style="fill:#000000; fill-opacity:1.0000; stroke:none;fill-rule:evenodd;"
d="M 117.1950,113.5000
117.1950,111.0000
119.7450,111.0000
119.7450,113.5000
Z" /> 
<path style="fill:#000000; fill-opacity:1.0000; stroke:none;fill-rule:evenodd;"
d="M 103.3450,116.0400
103.3450,113.5400
105.8950,113.5400
105.8950,116.0400
Z" /> 
<path style="fill:#000000; fill-opacity:1.0000; stroke:none;fill-rule:evenodd;"
d="M 99.5650,97.3500
99.5650,94.8500
102.1150,94.8500
102.1150,97.3500
Z" /> 
<path style="fill:#000000; fill-opacity:1.0000; stroke:none;fill-rule:evenodd;"
d="M 85.7150,99.8900
85.7150,97.3900
88.2650,97.3900
88.2650,99.8900
Z" /> 
<path style="fill:#000000; fill-opacity:1.0000; stroke:none;fill-rule:evenodd;"
d="M 136.2250,26.0900
136.2250,23.5900
138.7750,23.5900
138.7750,26.0900
Z" /> 
<path style="fill:#000000; fill-opacity:1.0000; stroke:none;fill-rule:evenodd;"
d="M 122.3750,28.6300
122.3750,26.1300
124.9250,26.1300
124.9250,28.6300
Z" /> 
<path style="fill:#000000; fill-opacity:1.0000; stroke:none;fill-rule:evenodd;"
d="M 134.8250,81.2000
134.8250,78.7000
137.3750,78.7000
137.3750,81.2000
Z" /> 
<path style="fill:#000000; fill-opacity:1.0000; stroke:none;fill-rule:evenodd;"
d="M 120.9750,83.7400
120.9750,81.2400
123.5250,81.2400
123.5250,83.7400
Z" /> 
</g> 
</svg>
