<?xml version="1.0" standalone="no"?>
 <!DOCTYPE svg PUBLIC "-//W3C//DTD SVG 1.1//EN" 
 "http://www.w3.org/Graphics/SVG/1.1/DTD/svg11.dtd"> 
<svg
  xmlns:svg="http://www.w3.org/2000/svg"
  xmlns="http://www.w3.org/2000/svg"
  xmlns:xlink="http://www.w3.org/1999/xlink"
  version="1.1"
  width="297.0022mm" height="210.0072mm" viewBox="0.0000 0.0000 297.0022 210.0072">
<title>SVG Image created as V3-B_Silkscreen.svg date 2025/07/21 07:58:33 </title>
  <desc>Image generated by PCBNEW </desc>
<g style="fill:#000000; fill-opacity:1.0000;stroke:#000000; stroke-opacity:1.0000;
stroke-linecap:round; stroke-linejoin:round;"
 transform="translate(0 0) scale(1 1)">
</g>
<g style="fill:none; 
stroke:#000000; stroke-width:0.1500; stroke-opacity:1; 
stroke-linecap:round; stroke-linejoin:round;">
<text x="76.9200" y="44.9750"
transform="scale(-1 1) translate(-153.840000 0)"
textLength="3.2976" font-size="1.3333" lengthAdjust="spacingAndGlyphs"
text-anchor="middle" opacity="0" stroke-opacity="0">SW1</text>
<g class="stroked-text"><desc>SW1</desc>
<path d="M78.2533 44.8822
L78.1105 44.9298
" />
<path d="M78.1105 44.9298
L77.8724 44.9298
" />
<path d="M77.8724 44.9298
L77.7771 44.8822
" />
<path d="M77.7771 44.8822
L77.7295 44.8346
" />
<path d="M77.7295 44.8346
L77.6819 44.7393
" />
<path d="M77.6819 44.7393
L77.6819 44.6441
" />
<path d="M77.6819 44.6441
L77.7295 44.5489
" />
<path d="M77.7295 44.5489
L77.7771 44.5012
" />
<path d="M77.7771 44.5012
L77.8724 44.4536
" />
<path d="M77.8724 44.4536
L78.0629 44.4060
" />
<path d="M78.0629 44.4060
L78.1581 44.3584
" />
<path d="M78.1581 44.3584
L78.2057 44.3108
" />
<path d="M78.2057 44.3108
L78.2533 44.2155
" />
<path d="M78.2533 44.2155
L78.2533 44.1203
" />
<path d="M78.2533 44.1203
L78.2057 44.0251
" />
<path d="M78.2057 44.0251
L78.1581 43.9774
" />
<path d="M78.1581 43.9774
L78.0629 43.9298
" />
<path d="M78.0629 43.9298
L77.8248 43.9298
" />
<path d="M77.8248 43.9298
L77.6819 43.9774
" />
<path d="M77.3486 43.9298
L77.1105 44.9298
" />
<path d="M77.1105 44.9298
L76.9200 44.2155
" />
<path d="M76.9200 44.2155
L76.7295 44.9298
" />
<path d="M76.7295 44.9298
L76.4914 43.9298
" />
<path d="M75.5867 44.9298
L76.1581 44.9298
" />
<path d="M75.8724 44.9298
L75.8724 43.9298
" />
<path d="M75.8724 43.9298
L75.9676 44.0727
" />
<path d="M75.9676 44.0727
L76.0629 44.1679
" />
<path d="M76.0629 44.1679
L76.1581 44.2155
" />
</g><text x="94.5500" y="125.7250"
transform="scale(-1 1) translate(-189.100000 0)"
textLength="4.2500" font-size="1.3333" lengthAdjust="spacingAndGlyphs"
text-anchor="middle" opacity="0" stroke-opacity="0">SW12</text>
<g class="stroked-text"><desc>SW12</desc>
<path d="M96.3595 125.6322
L96.2167 125.6798
" />
<path d="M96.2167 125.6798
L95.9786 125.6798
" />
<path d="M95.9786 125.6798
L95.8833 125.6322
" />
<path d="M95.8833 125.6322
L95.8357 125.5846
" />
<path d="M95.8357 125.5846
L95.7881 125.4893
" />
<path d="M95.7881 125.4893
L95.7881 125.3941
" />
<path d="M95.7881 125.3941
L95.8357 125.2989
" />
<path d="M95.8357 125.2989
L95.8833 125.2512
" />
<path d="M95.8833 125.2512
L95.9786 125.2036
" />
<path d="M95.9786 125.2036
L96.1690 125.1560
" />
<path d="M96.1690 125.1560
L96.2643 125.1084
" />
<path d="M96.2643 125.1084
L96.3119 125.0608
" />
<path d="M96.3119 125.0608
L96.3595 124.9655
" />
<path d="M96.3595 124.9655
L96.3595 124.8703
" />
<path d="M96.3595 124.8703
L96.3119 124.7751
" />
<path d="M96.3119 124.7751
L96.2643 124.7274
" />
<path d="M96.2643 124.7274
L96.1690 124.6798
" />
<path d="M96.1690 124.6798
L95.9310 124.6798
" />
<path d="M95.9310 124.6798
L95.7881 124.7274
" />
<path d="M95.4548 124.6798
L95.2167 125.6798
" />
<path d="M95.2167 125.6798
L95.0262 124.9655
" />
<path d="M95.0262 124.9655
L94.8357 125.6798
" />
<path d="M94.8357 125.6798
L94.5976 124.6798
" />
<path d="M93.6929 125.6798
L94.2643 125.6798
" />
<path d="M93.9786 125.6798
L93.9786 124.6798
" />
<path d="M93.9786 124.6798
L94.0738 124.8227
" />
<path d="M94.0738 124.8227
L94.1690 124.9179
" />
<path d="M94.1690 124.9179
L94.2643 124.9655
" />
<path d="M93.3119 124.7751
L93.2643 124.7274
" />
<path d="M93.2643 124.7274
L93.1690 124.6798
" />
<path d="M93.1690 124.6798
L92.9310 124.6798
" />
<path d="M92.9310 124.6798
L92.8357 124.7274
" />
<path d="M92.8357 124.7274
L92.7881 124.7751
" />
<path d="M92.7881 124.7751
L92.7405 124.8703
" />
<path d="M92.7405 124.8703
L92.7405 124.9655
" />
<path d="M92.7405 124.9655
L92.7881 125.1084
" />
<path d="M92.7881 125.1084
L93.3595 125.6798
" />
<path d="M93.3595 125.6798
L92.7405 125.6798
" />
</g><text x="112.1800" y="44.9750"
transform="scale(-1 1) translate(-224.360000 0)"
textLength="4.2500" font-size="1.3333" lengthAdjust="spacingAndGlyphs"
text-anchor="middle" opacity="0" stroke-opacity="0">SW13</text>
<g class="stroked-text"><desc>SW13</desc>
<path d="M113.9895 44.8822
L113.8467 44.9298
" />
<path d="M113.8467 44.9298
L113.6086 44.9298
" />
<path d="M113.6086 44.9298
L113.5133 44.8822
" />
<path d="M113.5133 44.8822
L113.4657 44.8346
" />
<path d="M113.4657 44.8346
L113.4181 44.7393
" />
<path d="M113.4181 44.7393
L113.4181 44.6441
" />
<path d="M113.4181 44.6441
L113.4657 44.5489
" />
<path d="M113.4657 44.5489
L113.5133 44.5012
" />
<path d="M113.5133 44.5012
L113.6086 44.4536
" />
<path d="M113.6086 44.4536
L113.7990 44.4060
" />
<path d="M113.7990 44.4060
L113.8943 44.3584
" />
<path d="M113.8943 44.3584
L113.9419 44.3108
" />
<path d="M113.9419 44.3108
L113.9895 44.2155
" />
<path d="M113.9895 44.2155
L113.9895 44.1203
" />
<path d="M113.9895 44.1203
L113.9419 44.0251
" />
<path d="M113.9419 44.0251
L113.8943 43.9774
" />
<path d="M113.8943 43.9774
L113.7990 43.9298
" />
<path d="M113.7990 43.9298
L113.5610 43.9298
" />
<path d="M113.5610 43.9298
L113.4181 43.9774
" />
<path d="M113.0848 43.9298
L112.8467 44.9298
" />
<path d="M112.8467 44.9298
L112.6562 44.2155
" />
<path d="M112.6562 44.2155
L112.4657 44.9298
" />
<path d="M112.4657 44.9298
L112.2276 43.9298
" />
<path d="M111.3229 44.9298
L111.8943 44.9298
" />
<path d="M111.6086 44.9298
L111.6086 43.9298
" />
<path d="M111.6086 43.9298
L111.7038 44.0727
" />
<path d="M111.7038 44.0727
L111.7990 44.1679
" />
<path d="M111.7990 44.1679
L111.8943 44.2155
" />
<path d="M110.9895 43.9298
L110.3705 43.9298
" />
<path d="M110.3705 43.9298
L110.7038 44.3108
" />
<path d="M110.7038 44.3108
L110.5610 44.3108
" />
<path d="M110.5610 44.3108
L110.4657 44.3584
" />
<path d="M110.4657 44.3584
L110.4181 44.4060
" />
<path d="M110.4181 44.4060
L110.3705 44.5012
" />
<path d="M110.3705 44.5012
L110.3705 44.7393
" />
<path d="M110.3705 44.7393
L110.4181 44.8346
" />
<path d="M110.4181 44.8346
L110.4657 44.8822
" />
<path d="M110.4657 44.8822
L110.5610 44.9298
" />
<path d="M110.5610 44.9298
L110.8467 44.9298
" />
<path d="M110.8467 44.9298
L110.9419 44.8822
" />
<path d="M110.9419 44.8822
L110.9895 44.8346
" />
</g><text x="94.5500" y="77.2750"
transform="scale(-1 1) translate(-189.100000 0)"
textLength="3.2976" font-size="1.3333" lengthAdjust="spacingAndGlyphs"
text-anchor="middle" opacity="0" stroke-opacity="0">SW9</text>
<g class="stroked-text"><desc>SW9</desc>
<path d="M95.8833 77.1822
L95.7405 77.2298
" />
<path d="M95.7405 77.2298
L95.5024 77.2298
" />
<path d="M95.5024 77.2298
L95.4071 77.1822
" />
<path d="M95.4071 77.1822
L95.3595 77.1346
" />
<path d="M95.3595 77.1346
L95.3119 77.0393
" />
<path d="M95.3119 77.0393
L95.3119 76.9441
" />
<path d="M95.3119 76.9441
L95.3595 76.8489
" />
<path d="M95.3595 76.8489
L95.4071 76.8012
" />
<path d="M95.4071 76.8012
L95.5024 76.7536
" />
<path d="M95.5024 76.7536
L95.6929 76.7060
" />
<path d="M95.6929 76.7060
L95.7881 76.6584
" />
<path d="M95.7881 76.6584
L95.8357 76.6108
" />
<path d="M95.8357 76.6108
L95.8833 76.5155
" />
<path d="M95.8833 76.5155
L95.8833 76.4203
" />
<path d="M95.8833 76.4203
L95.8357 76.3251
" />
<path d="M95.8357 76.3251
L95.7881 76.2774
" />
<path d="M95.7881 76.2774
L95.6929 76.2298
" />
<path d="M95.6929 76.2298
L95.4548 76.2298
" />
<path d="M95.4548 76.2298
L95.3119 76.2774
" />
<path d="M94.9786 76.2298
L94.7405 77.2298
" />
<path d="M94.7405 77.2298
L94.5500 76.5155
" />
<path d="M94.5500 76.5155
L94.3595 77.2298
" />
<path d="M94.3595 77.2298
L94.1214 76.2298
" />
<path d="M93.6929 77.2298
L93.5024 77.2298
" />
<path d="M93.5024 77.2298
L93.4071 77.1822
" />
<path d="M93.4071 77.1822
L93.3595 77.1346
" />
<path d="M93.3595 77.1346
L93.2643 76.9917
" />
<path d="M93.2643 76.9917
L93.2167 76.8012
" />
<path d="M93.2167 76.8012
L93.2167 76.4203
" />
<path d="M93.2167 76.4203
L93.2643 76.3251
" />
<path d="M93.2643 76.3251
L93.3119 76.2774
" />
<path d="M93.3119 76.2774
L93.4071 76.2298
" />
<path d="M93.4071 76.2298
L93.5976 76.2298
" />
<path d="M93.5976 76.2298
L93.6929 76.2774
" />
<path d="M93.6929 76.2774
L93.7405 76.3251
" />
<path d="M93.7405 76.3251
L93.7881 76.4203
" />
<path d="M93.7881 76.4203
L93.7881 76.6584
" />
<path d="M93.7881 76.6584
L93.7405 76.7536
" />
<path d="M93.7405 76.7536
L93.6929 76.8012
" />
<path d="M93.6929 76.8012
L93.5976 76.8489
" />
<path d="M93.5976 76.8489
L93.4071 76.8489
" />
<path d="M93.4071 76.8489
L93.3119 76.8012
" />
<path d="M93.3119 76.8012
L93.2643 76.7536
" />
<path d="M93.2643 76.7536
L93.2167 76.6584
" />
</g><text x="76.9200" y="61.1250"
transform="scale(-1 1) translate(-153.840000 0)"
textLength="3.2976" font-size="1.3333" lengthAdjust="spacingAndGlyphs"
text-anchor="middle" opacity="0" stroke-opacity="0">SW2</text>
<g class="stroked-text"><desc>SW2</desc>
<path d="M78.2533 61.0322
L78.1105 61.0798
" />
<path d="M78.1105 61.0798
L77.8724 61.0798
" />
<path d="M77.8724 61.0798
L77.7771 61.0322
" />
<path d="M77.7771 61.0322
L77.7295 60.9846
" />
<path d="M77.7295 60.9846
L77.6819 60.8893
" />
<path d="M77.6819 60.8893
L77.6819 60.7941
" />
<path d="M77.6819 60.7941
L77.7295 60.6989
" />
<path d="M77.7295 60.6989
L77.7771 60.6512
" />
<path d="M77.7771 60.6512
L77.8724 60.6036
" />
<path d="M77.8724 60.6036
L78.0629 60.5560
" />
<path d="M78.0629 60.5560
L78.1581 60.5084
" />
<path d="M78.1581 60.5084
L78.2057 60.4608
" />
<path d="M78.2057 60.4608
L78.2533 60.3655
" />
<path d="M78.2533 60.3655
L78.2533 60.2703
" />
<path d="M78.2533 60.2703
L78.2057 60.1751
" />
<path d="M78.2057 60.1751
L78.1581 60.1274
" />
<path d="M78.1581 60.1274
L78.0629 60.0798
" />
<path d="M78.0629 60.0798
L77.8248 60.0798
" />
<path d="M77.8248 60.0798
L77.6819 60.1274
" />
<path d="M77.3486 60.0798
L77.1105 61.0798
" />
<path d="M77.1105 61.0798
L76.9200 60.3655
" />
<path d="M76.9200 60.3655
L76.7295 61.0798
" />
<path d="M76.7295 61.0798
L76.4914 60.0798
" />
<path d="M76.1581 60.1751
L76.1105 60.1274
" />
<path d="M76.1105 60.1274
L76.0152 60.0798
" />
<path d="M76.0152 60.0798
L75.7771 60.0798
" />
<path d="M75.7771 60.0798
L75.6819 60.1274
" />
<path d="M75.6819 60.1274
L75.6343 60.1751
" />
<path d="M75.6343 60.1751
L75.5867 60.2703
" />
<path d="M75.5867 60.2703
L75.5867 60.3655
" />
<path d="M75.5867 60.3655
L75.6343 60.5084
" />
<path d="M75.6343 60.5084
L76.2057 61.0798
" />
<path d="M76.2057 61.0798
L75.5867 61.0798
" />
</g><text x="112.1800" y="61.1250"
transform="scale(-1 1) translate(-224.360000 0)"
textLength="4.2500" font-size="1.3333" lengthAdjust="spacingAndGlyphs"
text-anchor="middle" opacity="0" stroke-opacity="0">SW14</text>
<g class="stroked-text"><desc>SW14</desc>
<path d="M113.9895 61.0322
L113.8467 61.0798
" />
<path d="M113.8467 61.0798
L113.6086 61.0798
" />
<path d="M113.6086 61.0798
L113.5133 61.0322
" />
<path d="M113.5133 61.0322
L113.4657 60.9846
" />
<path d="M113.4657 60.9846
L113.4181 60.8893
" />
<path d="M113.4181 60.8893
L113.4181 60.7941
" />
<path d="M113.4181 60.7941
L113.4657 60.6989
" />
<path d="M113.4657 60.6989
L113.5133 60.6512
" />
<path d="M113.5133 60.6512
L113.6086 60.6036
" />
<path d="M113.6086 60.6036
L113.7990 60.5560
" />
<path d="M113.7990 60.5560
L113.8943 60.5084
" />
<path d="M113.8943 60.5084
L113.9419 60.4608
" />
<path d="M113.9419 60.4608
L113.9895 60.3655
" />
<path d="M113.9895 60.3655
L113.9895 60.2703
" />
<path d="M113.9895 60.2703
L113.9419 60.1751
" />
<path d="M113.9419 60.1751
L113.8943 60.1274
" />
<path d="M113.8943 60.1274
L113.7990 60.0798
" />
<path d="M113.7990 60.0798
L113.5610 60.0798
" />
<path d="M113.5610 60.0798
L113.4181 60.1274
" />
<path d="M113.0848 60.0798
L112.8467 61.0798
" />
<path d="M112.8467 61.0798
L112.6562 60.3655
" />
<path d="M112.6562 60.3655
L112.4657 61.0798
" />
<path d="M112.4657 61.0798
L112.2276 60.0798
" />
<path d="M111.3229 61.0798
L111.8943 61.0798
" />
<path d="M111.6086 61.0798
L111.6086 60.0798
" />
<path d="M111.6086 60.0798
L111.7038 60.2227
" />
<path d="M111.7038 60.2227
L111.7990 60.3179
" />
<path d="M111.7990 60.3179
L111.8943 60.3655
" />
<path d="M110.4657 60.4132
L110.4657 61.0798
" />
<path d="M110.7038 60.0322
L110.9419 60.7465
" />
<path d="M110.9419 60.7465
L110.3229 60.7465
" />
</g><text x="129.8100" y="61.1250"
transform="scale(-1 1) translate(-259.620000 0)"
textLength="4.2500" font-size="1.3333" lengthAdjust="spacingAndGlyphs"
text-anchor="middle" opacity="0" stroke-opacity="0">SW20</text>
<g class="stroked-text"><desc>SW20</desc>
<path d="M131.6195 61.0322
L131.4767 61.0798
" />
<path d="M131.4767 61.0798
L131.2386 61.0798
" />
<path d="M131.2386 61.0798
L131.1433 61.0322
" />
<path d="M131.1433 61.0322
L131.0957 60.9846
" />
<path d="M131.0957 60.9846
L131.0481 60.8893
" />
<path d="M131.0481 60.8893
L131.0481 60.7941
" />
<path d="M131.0481 60.7941
L131.0957 60.6989
" />
<path d="M131.0957 60.6989
L131.1433 60.6512
" />
<path d="M131.1433 60.6512
L131.2386 60.6036
" />
<path d="M131.2386 60.6036
L131.4290 60.5560
" />
<path d="M131.4290 60.5560
L131.5243 60.5084
" />
<path d="M131.5243 60.5084
L131.5719 60.4608
" />
<path d="M131.5719 60.4608
L131.6195 60.3655
" />
<path d="M131.6195 60.3655
L131.6195 60.2703
" />
<path d="M131.6195 60.2703
L131.5719 60.1751
" />
<path d="M131.5719 60.1751
L131.5243 60.1274
" />
<path d="M131.5243 60.1274
L131.4290 60.0798
" />
<path d="M131.4290 60.0798
L131.1910 60.0798
" />
<path d="M131.1910 60.0798
L131.0481 60.1274
" />
<path d="M130.7148 60.0798
L130.4767 61.0798
" />
<path d="M130.4767 61.0798
L130.2862 60.3655
" />
<path d="M130.2862 60.3655
L130.0957 61.0798
" />
<path d="M130.0957 61.0798
L129.8576 60.0798
" />
<path d="M129.5243 60.1751
L129.4767 60.1274
" />
<path d="M129.4767 60.1274
L129.3814 60.0798
" />
<path d="M129.3814 60.0798
L129.1433 60.0798
" />
<path d="M129.1433 60.0798
L129.0481 60.1274
" />
<path d="M129.0481 60.1274
L129.0005 60.1751
" />
<path d="M129.0005 60.1751
L128.9529 60.2703
" />
<path d="M128.9529 60.2703
L128.9529 60.3655
" />
<path d="M128.9529 60.3655
L129.0005 60.5084
" />
<path d="M129.0005 60.5084
L129.5719 61.0798
" />
<path d="M129.5719 61.0798
L128.9529 61.0798
" />
<path d="M128.3338 60.0798
L128.2386 60.0798
" />
<path d="M128.2386 60.0798
L128.1433 60.1274
" />
<path d="M128.1433 60.1274
L128.0957 60.1751
" />
<path d="M128.0957 60.1751
L128.0481 60.2703
" />
<path d="M128.0481 60.2703
L128.0005 60.4608
" />
<path d="M128.0005 60.4608
L128.0005 60.6989
" />
<path d="M128.0005 60.6989
L128.0481 60.8893
" />
<path d="M128.0481 60.8893
L128.0957 60.9846
" />
<path d="M128.0957 60.9846
L128.1433 61.0322
" />
<path d="M128.1433 61.0322
L128.2386 61.0798
" />
<path d="M128.2386 61.0798
L128.3338 61.0798
" />
<path d="M128.3338 61.0798
L128.4290 61.0322
" />
<path d="M128.4290 61.0322
L128.4767 60.9846
" />
<path d="M128.4767 60.9846
L128.5243 60.8893
" />
<path d="M128.5243 60.8893
L128.5719 60.6989
" />
<path d="M128.5719 60.6989
L128.5719 60.4608
" />
<path d="M128.5719 60.4608
L128.5243 60.2703
" />
<path d="M128.5243 60.2703
L128.4767 60.1751
" />
<path d="M128.4767 60.1751
L128.4290 60.1274
" />
<path d="M128.4290 60.1274
L128.3338 60.0798
" />
</g><text x="112.1800" y="93.4250"
transform="scale(-1 1) translate(-224.360000 0)"
textLength="4.2500" font-size="1.3333" lengthAdjust="spacingAndGlyphs"
text-anchor="middle" opacity="0" stroke-opacity="0">SW16</text>
<g class="stroked-text"><desc>SW16</desc>
<path d="M113.9895 93.3322
L113.8467 93.3798
" />
<path d="M113.8467 93.3798
L113.6086 93.3798
" />
<path d="M113.6086 93.3798
L113.5133 93.3322
" />
<path d="M113.5133 93.3322
L113.4657 93.2846
" />
<path d="M113.4657 93.2846
L113.4181 93.1893
" />
<path d="M113.4181 93.1893
L113.4181 93.0941
" />
<path d="M113.4181 93.0941
L113.4657 92.9989
" />
<path d="M113.4657 92.9989
L113.5133 92.9512
" />
<path d="M113.5133 92.9512
L113.6086 92.9036
" />
<path d="M113.6086 92.9036
L113.7990 92.8560
" />
<path d="M113.7990 92.8560
L113.8943 92.8084
" />
<path d="M113.8943 92.8084
L113.9419 92.7608
" />
<path d="M113.9419 92.7608
L113.9895 92.6655
" />
<path d="M113.9895 92.6655
L113.9895 92.5703
" />
<path d="M113.9895 92.5703
L113.9419 92.4751
" />
<path d="M113.9419 92.4751
L113.8943 92.4274
" />
<path d="M113.8943 92.4274
L113.7990 92.3798
" />
<path d="M113.7990 92.3798
L113.5610 92.3798
" />
<path d="M113.5610 92.3798
L113.4181 92.4274
" />
<path d="M113.0848 92.3798
L112.8467 93.3798
" />
<path d="M112.8467 93.3798
L112.6562 92.6655
" />
<path d="M112.6562 92.6655
L112.4657 93.3798
" />
<path d="M112.4657 93.3798
L112.2276 92.3798
" />
<path d="M111.3229 93.3798
L111.8943 93.3798
" />
<path d="M111.6086 93.3798
L111.6086 92.3798
" />
<path d="M111.6086 92.3798
L111.7038 92.5227
" />
<path d="M111.7038 92.5227
L111.7990 92.6179
" />
<path d="M111.7990 92.6179
L111.8943 92.6655
" />
<path d="M110.4657 92.3798
L110.6562 92.3798
" />
<path d="M110.6562 92.3798
L110.7514 92.4274
" />
<path d="M110.7514 92.4274
L110.7990 92.4751
" />
<path d="M110.7990 92.4751
L110.8943 92.6179
" />
<path d="M110.8943 92.6179
L110.9419 92.8084
" />
<path d="M110.9419 92.8084
L110.9419 93.1893
" />
<path d="M110.9419 93.1893
L110.8943 93.2846
" />
<path d="M110.8943 93.2846
L110.8467 93.3322
" />
<path d="M110.8467 93.3322
L110.7514 93.3798
" />
<path d="M110.7514 93.3798
L110.5610 93.3798
" />
<path d="M110.5610 93.3798
L110.4657 93.3322
" />
<path d="M110.4657 93.3322
L110.4181 93.2846
" />
<path d="M110.4181 93.2846
L110.3705 93.1893
" />
<path d="M110.3705 93.1893
L110.3705 92.9512
" />
<path d="M110.3705 92.9512
L110.4181 92.8560
" />
<path d="M110.4181 92.8560
L110.4657 92.8084
" />
<path d="M110.4657 92.8084
L110.5610 92.7608
" />
<path d="M110.5610 92.7608
L110.7514 92.7608
" />
<path d="M110.7514 92.7608
L110.8467 92.8084
" />
<path d="M110.8467 92.8084
L110.8943 92.8560
" />
<path d="M110.8943 92.8560
L110.9419 92.9512
" />
</g><text x="94.5500" y="44.9750"
transform="scale(-1 1) translate(-189.100000 0)"
textLength="3.2976" font-size="1.3333" lengthAdjust="spacingAndGlyphs"
text-anchor="middle" opacity="0" stroke-opacity="0">SW7</text>
<g class="stroked-text"><desc>SW7</desc>
<path d="M95.8833 44.8822
L95.7405 44.9298
" />
<path d="M95.7405 44.9298
L95.5024 44.9298
" />
<path d="M95.5024 44.9298
L95.4071 44.8822
" />
<path d="M95.4071 44.8822
L95.3595 44.8346
" />
<path d="M95.3595 44.8346
L95.3119 44.7393
" />
<path d="M95.3119 44.7393
L95.3119 44.6441
" />
<path d="M95.3119 44.6441
L95.3595 44.5489
" />
<path d="M95.3595 44.5489
L95.4071 44.5012
" />
<path d="M95.4071 44.5012
L95.5024 44.4536
" />
<path d="M95.5024 44.4536
L95.6929 44.4060
" />
<path d="M95.6929 44.4060
L95.7881 44.3584
" />
<path d="M95.7881 44.3584
L95.8357 44.3108
" />
<path d="M95.8357 44.3108
L95.8833 44.2155
" />
<path d="M95.8833 44.2155
L95.8833 44.1203
" />
<path d="M95.8833 44.1203
L95.8357 44.0251
" />
<path d="M95.8357 44.0251
L95.7881 43.9774
" />
<path d="M95.7881 43.9774
L95.6929 43.9298
" />
<path d="M95.6929 43.9298
L95.4548 43.9298
" />
<path d="M95.4548 43.9298
L95.3119 43.9774
" />
<path d="M94.9786 43.9298
L94.7405 44.9298
" />
<path d="M94.7405 44.9298
L94.5500 44.2155
" />
<path d="M94.5500 44.2155
L94.3595 44.9298
" />
<path d="M94.3595 44.9298
L94.1214 43.9298
" />
<path d="M93.8357 43.9298
L93.1690 43.9298
" />
<path d="M93.1690 43.9298
L93.5976 44.9298
" />
</g><text x="94.5500" y="61.1250"
transform="scale(-1 1) translate(-189.100000 0)"
textLength="3.2976" font-size="1.3333" lengthAdjust="spacingAndGlyphs"
text-anchor="middle" opacity="0" stroke-opacity="0">SW8</text>
<g class="stroked-text"><desc>SW8</desc>
<path d="M95.8833 61.0322
L95.7405 61.0798
" />
<path d="M95.7405 61.0798
L95.5024 61.0798
" />
<path d="M95.5024 61.0798
L95.4071 61.0322
" />
<path d="M95.4071 61.0322
L95.3595 60.9846
" />
<path d="M95.3595 60.9846
L95.3119 60.8893
" />
<path d="M95.3119 60.8893
L95.3119 60.7941
" />
<path d="M95.3119 60.7941
L95.3595 60.6989
" />
<path d="M95.3595 60.6989
L95.4071 60.6512
" />
<path d="M95.4071 60.6512
L95.5024 60.6036
" />
<path d="M95.5024 60.6036
L95.6929 60.5560
" />
<path d="M95.6929 60.5560
L95.7881 60.5084
" />
<path d="M95.7881 60.5084
L95.8357 60.4608
" />
<path d="M95.8357 60.4608
L95.8833 60.3655
" />
<path d="M95.8833 60.3655
L95.8833 60.2703
" />
<path d="M95.8833 60.2703
L95.8357 60.1751
" />
<path d="M95.8357 60.1751
L95.7881 60.1274
" />
<path d="M95.7881 60.1274
L95.6929 60.0798
" />
<path d="M95.6929 60.0798
L95.4548 60.0798
" />
<path d="M95.4548 60.0798
L95.3119 60.1274
" />
<path d="M94.9786 60.0798
L94.7405 61.0798
" />
<path d="M94.7405 61.0798
L94.5500 60.3655
" />
<path d="M94.5500 60.3655
L94.3595 61.0798
" />
<path d="M94.3595 61.0798
L94.1214 60.0798
" />
<path d="M93.5976 60.5084
L93.6929 60.4608
" />
<path d="M93.6929 60.4608
L93.7405 60.4132
" />
<path d="M93.7405 60.4132
L93.7881 60.3179
" />
<path d="M93.7881 60.3179
L93.7881 60.2703
" />
<path d="M93.7881 60.2703
L93.7405 60.1751
" />
<path d="M93.7405 60.1751
L93.6929 60.1274
" />
<path d="M93.6929 60.1274
L93.5976 60.0798
" />
<path d="M93.5976 60.0798
L93.4071 60.0798
" />
<path d="M93.4071 60.0798
L93.3119 60.1274
" />
<path d="M93.3119 60.1274
L93.2643 60.1751
" />
<path d="M93.2643 60.1751
L93.2167 60.2703
" />
<path d="M93.2167 60.2703
L93.2167 60.3179
" />
<path d="M93.2167 60.3179
L93.2643 60.4132
" />
<path d="M93.2643 60.4132
L93.3119 60.4608
" />
<path d="M93.3119 60.4608
L93.4071 60.5084
" />
<path d="M93.4071 60.5084
L93.5976 60.5084
" />
<path d="M93.5976 60.5084
L93.6929 60.5560
" />
<path d="M93.6929 60.5560
L93.7405 60.6036
" />
<path d="M93.7405 60.6036
L93.7881 60.6989
" />
<path d="M93.7881 60.6989
L93.7881 60.8893
" />
<path d="M93.7881 60.8893
L93.7405 60.9846
" />
<path d="M93.7405 60.9846
L93.6929 61.0322
" />
<path d="M93.6929 61.0322
L93.5976 61.0798
" />
<path d="M93.5976 61.0798
L93.4071 61.0798
" />
<path d="M93.4071 61.0798
L93.3119 61.0322
" />
<path d="M93.3119 61.0322
L93.2643 60.9846
" />
<path d="M93.2643 60.9846
L93.2167 60.8893
" />
<path d="M93.2167 60.8893
L93.2167 60.6989
" />
<path d="M93.2167 60.6989
L93.2643 60.6036
" />
<path d="M93.2643 60.6036
L93.3119 60.5560
" />
<path d="M93.3119 60.5560
L93.4071 60.5084
" />
</g><text x="76.9200" y="77.2750"
transform="scale(-1 1) translate(-153.840000 0)"
textLength="3.2976" font-size="1.3333" lengthAdjust="spacingAndGlyphs"
text-anchor="middle" opacity="0" stroke-opacity="0">SW3</text>
<g class="stroked-text"><desc>SW3</desc>
<path d="M78.2533 77.1822
L78.1105 77.2298
" />
<path d="M78.1105 77.2298
L77.8724 77.2298
" />
<path d="M77.8724 77.2298
L77.7771 77.1822
" />
<path d="M77.7771 77.1822
L77.7295 77.1346
" />
<path d="M77.7295 77.1346
L77.6819 77.0393
" />
<path d="M77.6819 77.0393
L77.6819 76.9441
" />
<path d="M77.6819 76.9441
L77.7295 76.8489
" />
<path d="M77.7295 76.8489
L77.7771 76.8012
" />
<path d="M77.7771 76.8012
L77.8724 76.7536
" />
<path d="M77.8724 76.7536
L78.0629 76.7060
" />
<path d="M78.0629 76.7060
L78.1581 76.6584
" />
<path d="M78.1581 76.6584
L78.2057 76.6108
" />
<path d="M78.2057 76.6108
L78.2533 76.5155
" />
<path d="M78.2533 76.5155
L78.2533 76.4203
" />
<path d="M78.2533 76.4203
L78.2057 76.3251
" />
<path d="M78.2057 76.3251
L78.1581 76.2774
" />
<path d="M78.1581 76.2774
L78.0629 76.2298
" />
<path d="M78.0629 76.2298
L77.8248 76.2298
" />
<path d="M77.8248 76.2298
L77.6819 76.2774
" />
<path d="M77.3486 76.2298
L77.1105 77.2298
" />
<path d="M77.1105 77.2298
L76.9200 76.5155
" />
<path d="M76.9200 76.5155
L76.7295 77.2298
" />
<path d="M76.7295 77.2298
L76.4914 76.2298
" />
<path d="M76.2057 76.2298
L75.5867 76.2298
" />
<path d="M75.5867 76.2298
L75.9200 76.6108
" />
<path d="M75.9200 76.6108
L75.7771 76.6108
" />
<path d="M75.7771 76.6108
L75.6819 76.6584
" />
<path d="M75.6819 76.6584
L75.6343 76.7060
" />
<path d="M75.6343 76.7060
L75.5867 76.8012
" />
<path d="M75.5867 76.8012
L75.5867 77.0393
" />
<path d="M75.5867 77.0393
L75.6343 77.1346
" />
<path d="M75.6343 77.1346
L75.6819 77.1822
" />
<path d="M75.6819 77.1822
L75.7771 77.2298
" />
<path d="M75.7771 77.2298
L76.0629 77.2298
" />
<path d="M76.0629 77.2298
L76.1581 77.1822
" />
<path d="M76.1581 77.1822
L76.2057 77.1346
" />
</g><text x="112.1800" y="125.7250"
transform="scale(-1 1) translate(-224.360000 0)"
textLength="4.2500" font-size="1.3333" lengthAdjust="spacingAndGlyphs"
text-anchor="middle" opacity="0" stroke-opacity="0">SW18</text>
<g class="stroked-text"><desc>SW18</desc>
<path d="M113.9895 125.6322
L113.8467 125.6798
" />
<path d="M113.8467 125.6798
L113.6086 125.6798
" />
<path d="M113.6086 125.6798
L113.5133 125.6322
" />
<path d="M113.5133 125.6322
L113.4657 125.5846
" />
<path d="M113.4657 125.5846
L113.4181 125.4893
" />
<path d="M113.4181 125.4893
L113.4181 125.3941
" />
<path d="M113.4181 125.3941
L113.4657 125.2989
" />
<path d="M113.4657 125.2989
L113.5133 125.2512
" />
<path d="M113.5133 125.2512
L113.6086 125.2036
" />
<path d="M113.6086 125.2036
L113.7990 125.1560
" />
<path d="M113.7990 125.1560
L113.8943 125.1084
" />
<path d="M113.8943 125.1084
L113.9419 125.0608
" />
<path d="M113.9419 125.0608
L113.9895 124.9655
" />
<path d="M113.9895 124.9655
L113.9895 124.8703
" />
<path d="M113.9895 124.8703
L113.9419 124.7751
" />
<path d="M113.9419 124.7751
L113.8943 124.7274
" />
<path d="M113.8943 124.7274
L113.7990 124.6798
" />
<path d="M113.7990 124.6798
L113.5610 124.6798
" />
<path d="M113.5610 124.6798
L113.4181 124.7274
" />
<path d="M113.0848 124.6798
L112.8467 125.6798
" />
<path d="M112.8467 125.6798
L112.6562 124.9655
" />
<path d="M112.6562 124.9655
L112.4657 125.6798
" />
<path d="M112.4657 125.6798
L112.2276 124.6798
" />
<path d="M111.3229 125.6798
L111.8943 125.6798
" />
<path d="M111.6086 125.6798
L111.6086 124.6798
" />
<path d="M111.6086 124.6798
L111.7038 124.8227
" />
<path d="M111.7038 124.8227
L111.7990 124.9179
" />
<path d="M111.7990 124.9179
L111.8943 124.9655
" />
<path d="M110.7514 125.1084
L110.8467 125.0608
" />
<path d="M110.8467 125.0608
L110.8943 125.0132
" />
<path d="M110.8943 125.0132
L110.9419 124.9179
" />
<path d="M110.9419 124.9179
L110.9419 124.8703
" />
<path d="M110.9419 124.8703
L110.8943 124.7751
" />
<path d="M110.8943 124.7751
L110.8467 124.7274
" />
<path d="M110.8467 124.7274
L110.7514 124.6798
" />
<path d="M110.7514 124.6798
L110.5610 124.6798
" />
<path d="M110.5610 124.6798
L110.4657 124.7274
" />
<path d="M110.4657 124.7274
L110.4181 124.7751
" />
<path d="M110.4181 124.7751
L110.3705 124.8703
" />
<path d="M110.3705 124.8703
L110.3705 124.9179
" />
<path d="M110.3705 124.9179
L110.4181 125.0132
" />
<path d="M110.4181 125.0132
L110.4657 125.0608
" />
<path d="M110.4657 125.0608
L110.5610 125.1084
" />
<path d="M110.5610 125.1084
L110.7514 125.1084
" />
<path d="M110.7514 125.1084
L110.8467 125.1560
" />
<path d="M110.8467 125.1560
L110.8943 125.2036
" />
<path d="M110.8943 125.2036
L110.9419 125.2989
" />
<path d="M110.9419 125.2989
L110.9419 125.4893
" />
<path d="M110.9419 125.4893
L110.8943 125.5846
" />
<path d="M110.8943 125.5846
L110.8467 125.6322
" />
<path d="M110.8467 125.6322
L110.7514 125.6798
" />
<path d="M110.7514 125.6798
L110.5610 125.6798
" />
<path d="M110.5610 125.6798
L110.4657 125.6322
" />
<path d="M110.4657 125.6322
L110.4181 125.5846
" />
<path d="M110.4181 125.5846
L110.3705 125.4893
" />
<path d="M110.3705 125.4893
L110.3705 125.2989
" />
<path d="M110.3705 125.2989
L110.4181 125.2036
" />
<path d="M110.4181 125.2036
L110.4657 125.1560
" />
<path d="M110.4657 125.1560
L110.5610 125.1084
" />
</g><text x="76.9200" y="93.4250"
transform="scale(-1 1) translate(-153.840000 0)"
textLength="3.2976" font-size="1.3333" lengthAdjust="spacingAndGlyphs"
text-anchor="middle" opacity="0" stroke-opacity="0">SW4</text>
<g class="stroked-text"><desc>SW4</desc>
<path d="M78.2533 93.3322
L78.1105 93.3798
" />
<path d="M78.1105 93.3798
L77.8724 93.3798
" />
<path d="M77.8724 93.3798
L77.7771 93.3322
" />
<path d="M77.7771 93.3322
L77.7295 93.2846
" />
<path d="M77.7295 93.2846
L77.6819 93.1893
" />
<path d="M77.6819 93.1893
L77.6819 93.0941
" />
<path d="M77.6819 93.0941
L77.7295 92.9989
" />
<path d="M77.7295 92.9989
L77.7771 92.9512
" />
<path d="M77.7771 92.9512
L77.8724 92.9036
" />
<path d="M77.8724 92.9036
L78.0629 92.8560
" />
<path d="M78.0629 92.8560
L78.1581 92.8084
" />
<path d="M78.1581 92.8084
L78.2057 92.7608
" />
<path d="M78.2057 92.7608
L78.2533 92.6655
" />
<path d="M78.2533 92.6655
L78.2533 92.5703
" />
<path d="M78.2533 92.5703
L78.2057 92.4751
" />
<path d="M78.2057 92.4751
L78.1581 92.4274
" />
<path d="M78.1581 92.4274
L78.0629 92.3798
" />
<path d="M78.0629 92.3798
L77.8248 92.3798
" />
<path d="M77.8248 92.3798
L77.6819 92.4274
" />
<path d="M77.3486 92.3798
L77.1105 93.3798
" />
<path d="M77.1105 93.3798
L76.9200 92.6655
" />
<path d="M76.9200 92.6655
L76.7295 93.3798
" />
<path d="M76.7295 93.3798
L76.4914 92.3798
" />
<path d="M75.6819 92.7132
L75.6819 93.3798
" />
<path d="M75.9200 92.3322
L76.1581 93.0465
" />
<path d="M76.1581 93.0465
L75.5390 93.0465
" />
</g><text x="112.1800" y="77.2750"
transform="scale(-1 1) translate(-224.360000 0)"
textLength="4.2500" font-size="1.3333" lengthAdjust="spacingAndGlyphs"
text-anchor="middle" opacity="0" stroke-opacity="0">SW15</text>
<g class="stroked-text"><desc>SW15</desc>
<path d="M113.9895 77.1822
L113.8467 77.2298
" />
<path d="M113.8467 77.2298
L113.6086 77.2298
" />
<path d="M113.6086 77.2298
L113.5133 77.1822
" />
<path d="M113.5133 77.1822
L113.4657 77.1346
" />
<path d="M113.4657 77.1346
L113.4181 77.0393
" />
<path d="M113.4181 77.0393
L113.4181 76.9441
" />
<path d="M113.4181 76.9441
L113.4657 76.8489
" />
<path d="M113.4657 76.8489
L113.5133 76.8012
" />
<path d="M113.5133 76.8012
L113.6086 76.7536
" />
<path d="M113.6086 76.7536
L113.7990 76.7060
" />
<path d="M113.7990 76.7060
L113.8943 76.6584
" />
<path d="M113.8943 76.6584
L113.9419 76.6108
" />
<path d="M113.9419 76.6108
L113.9895 76.5155
" />
<path d="M113.9895 76.5155
L113.9895 76.4203
" />
<path d="M113.9895 76.4203
L113.9419 76.3251
" />
<path d="M113.9419 76.3251
L113.8943 76.2774
" />
<path d="M113.8943 76.2774
L113.7990 76.2298
" />
<path d="M113.7990 76.2298
L113.5610 76.2298
" />
<path d="M113.5610 76.2298
L113.4181 76.2774
" />
<path d="M113.0848 76.2298
L112.8467 77.2298
" />
<path d="M112.8467 77.2298
L112.6562 76.5155
" />
<path d="M112.6562 76.5155
L112.4657 77.2298
" />
<path d="M112.4657 77.2298
L112.2276 76.2298
" />
<path d="M111.3229 77.2298
L111.8943 77.2298
" />
<path d="M111.6086 77.2298
L111.6086 76.2298
" />
<path d="M111.6086 76.2298
L111.7038 76.3727
" />
<path d="M111.7038 76.3727
L111.7990 76.4679
" />
<path d="M111.7990 76.4679
L111.8943 76.5155
" />
<path d="M110.4181 76.2298
L110.8943 76.2298
" />
<path d="M110.8943 76.2298
L110.9419 76.7060
" />
<path d="M110.9419 76.7060
L110.8943 76.6584
" />
<path d="M110.8943 76.6584
L110.7990 76.6108
" />
<path d="M110.7990 76.6108
L110.5610 76.6108
" />
<path d="M110.5610 76.6108
L110.4657 76.6584
" />
<path d="M110.4657 76.6584
L110.4181 76.7060
" />
<path d="M110.4181 76.7060
L110.3705 76.8012
" />
<path d="M110.3705 76.8012
L110.3705 77.0393
" />
<path d="M110.3705 77.0393
L110.4181 77.1346
" />
<path d="M110.4181 77.1346
L110.4657 77.1822
" />
<path d="M110.4657 77.1822
L110.5610 77.2298
" />
<path d="M110.5610 77.2298
L110.7990 77.2298
" />
<path d="M110.7990 77.2298
L110.8943 77.1822
" />
<path d="M110.8943 77.1822
L110.9419 77.1346
" />
</g><text x="76.9200" y="125.7250"
transform="scale(-1 1) translate(-153.840000 0)"
textLength="3.2976" font-size="1.3333" lengthAdjust="spacingAndGlyphs"
text-anchor="middle" opacity="0" stroke-opacity="0">SW6</text>
<g class="stroked-text"><desc>SW6</desc>
<path d="M78.2533 125.6322
L78.1105 125.6798
" />
<path d="M78.1105 125.6798
L77.8724 125.6798
" />
<path d="M77.8724 125.6798
L77.7771 125.6322
" />
<path d="M77.7771 125.6322
L77.7295 125.5846
" />
<path d="M77.7295 125.5846
L77.6819 125.4893
" />
<path d="M77.6819 125.4893
L77.6819 125.3941
" />
<path d="M77.6819 125.3941
L77.7295 125.2989
" />
<path d="M77.7295 125.2989
L77.7771 125.2512
" />
<path d="M77.7771 125.2512
L77.8724 125.2036
" />
<path d="M77.8724 125.2036
L78.0629 125.1560
" />
<path d="M78.0629 125.1560
L78.1581 125.1084
" />
<path d="M78.1581 125.1084
L78.2057 125.0608
" />
<path d="M78.2057 125.0608
L78.2533 124.9655
" />
<path d="M78.2533 124.9655
L78.2533 124.8703
" />
<path d="M78.2533 124.8703
L78.2057 124.7751
" />
<path d="M78.2057 124.7751
L78.1581 124.7274
" />
<path d="M78.1581 124.7274
L78.0629 124.6798
" />
<path d="M78.0629 124.6798
L77.8248 124.6798
" />
<path d="M77.8248 124.6798
L77.6819 124.7274
" />
<path d="M77.3486 124.6798
L77.1105 125.6798
" />
<path d="M77.1105 125.6798
L76.9200 124.9655
" />
<path d="M76.9200 124.9655
L76.7295 125.6798
" />
<path d="M76.7295 125.6798
L76.4914 124.6798
" />
<path d="M75.6819 124.6798
L75.8724 124.6798
" />
<path d="M75.8724 124.6798
L75.9676 124.7274
" />
<path d="M75.9676 124.7274
L76.0152 124.7751
" />
<path d="M76.0152 124.7751
L76.1105 124.9179
" />
<path d="M76.1105 124.9179
L76.1581 125.1084
" />
<path d="M76.1581 125.1084
L76.1581 125.4893
" />
<path d="M76.1581 125.4893
L76.1105 125.5846
" />
<path d="M76.1105 125.5846
L76.0629 125.6322
" />
<path d="M76.0629 125.6322
L75.9676 125.6798
" />
<path d="M75.9676 125.6798
L75.7771 125.6798
" />
<path d="M75.7771 125.6798
L75.6819 125.6322
" />
<path d="M75.6819 125.6322
L75.6343 125.5846
" />
<path d="M75.6343 125.5846
L75.5867 125.4893
" />
<path d="M75.5867 125.4893
L75.5867 125.2512
" />
<path d="M75.5867 125.2512
L75.6343 125.1560
" />
<path d="M75.6343 125.1560
L75.6819 125.1084
" />
<path d="M75.6819 125.1084
L75.7771 125.0608
" />
<path d="M75.7771 125.0608
L75.9676 125.0608
" />
<path d="M75.9676 125.0608
L76.0629 125.1084
" />
<path d="M76.0629 125.1084
L76.1105 125.1560
" />
<path d="M76.1105 125.1560
L76.1581 125.2512
" />
</g><text x="94.5500" y="109.5750"
transform="scale(-1 1) translate(-189.100000 0)"
textLength="4.2500" font-size="1.3333" lengthAdjust="spacingAndGlyphs"
text-anchor="middle" opacity="0" stroke-opacity="0">SW11</text>
<g class="stroked-text"><desc>SW11</desc>
<path d="M96.3595 109.4822
L96.2167 109.5298
" />
<path d="M96.2167 109.5298
L95.9786 109.5298
" />
<path d="M95.9786 109.5298
L95.8833 109.4822
" />
<path d="M95.8833 109.4822
L95.8357 109.4346
" />
<path d="M95.8357 109.4346
L95.7881 109.3393
" />
<path d="M95.7881 109.3393
L95.7881 109.2441
" />
<path d="M95.7881 109.2441
L95.8357 109.1489
" />
<path d="M95.8357 109.1489
L95.8833 109.1012
" />
<path d="M95.8833 109.1012
L95.9786 109.0536
" />
<path d="M95.9786 109.0536
L96.1690 109.0060
" />
<path d="M96.1690 109.0060
L96.2643 108.9584
" />
<path d="M96.2643 108.9584
L96.3119 108.9108
" />
<path d="M96.3119 108.9108
L96.3595 108.8155
" />
<path d="M96.3595 108.8155
L96.3595 108.7203
" />
<path d="M96.3595 108.7203
L96.3119 108.6251
" />
<path d="M96.3119 108.6251
L96.2643 108.5774
" />
<path d="M96.2643 108.5774
L96.1690 108.5298
" />
<path d="M96.1690 108.5298
L95.9310 108.5298
" />
<path d="M95.9310 108.5298
L95.7881 108.5774
" />
<path d="M95.4548 108.5298
L95.2167 109.5298
" />
<path d="M95.2167 109.5298
L95.0262 108.8155
" />
<path d="M95.0262 108.8155
L94.8357 109.5298
" />
<path d="M94.8357 109.5298
L94.5976 108.5298
" />
<path d="M93.6929 109.5298
L94.2643 109.5298
" />
<path d="M93.9786 109.5298
L93.9786 108.5298
" />
<path d="M93.9786 108.5298
L94.0738 108.6727
" />
<path d="M94.0738 108.6727
L94.1690 108.7679
" />
<path d="M94.1690 108.7679
L94.2643 108.8155
" />
<path d="M92.7405 109.5298
L93.3119 109.5298
" />
<path d="M93.0262 109.5298
L93.0262 108.5298
" />
<path d="M93.0262 108.5298
L93.1214 108.6727
" />
<path d="M93.1214 108.6727
L93.2167 108.7679
" />
<path d="M93.2167 108.7679
L93.3119 108.8155
" />
</g><text x="129.8100" y="44.9750"
transform="scale(-1 1) translate(-259.620000 0)"
textLength="4.2500" font-size="1.3333" lengthAdjust="spacingAndGlyphs"
text-anchor="middle" opacity="0" stroke-opacity="0">SW19</text>
<g class="stroked-text"><desc>SW19</desc>
<path d="M131.6195 44.8822
L131.4767 44.9298
" />
<path d="M131.4767 44.9298
L131.2386 44.9298
" />
<path d="M131.2386 44.9298
L131.1433 44.8822
" />
<path d="M131.1433 44.8822
L131.0957 44.8346
" />
<path d="M131.0957 44.8346
L131.0481 44.7393
" />
<path d="M131.0481 44.7393
L131.0481 44.6441
" />
<path d="M131.0481 44.6441
L131.0957 44.5489
" />
<path d="M131.0957 44.5489
L131.1433 44.5012
" />
<path d="M131.1433 44.5012
L131.2386 44.4536
" />
<path d="M131.2386 44.4536
L131.4290 44.4060
" />
<path d="M131.4290 44.4060
L131.5243 44.3584
" />
<path d="M131.5243 44.3584
L131.5719 44.3108
" />
<path d="M131.5719 44.3108
L131.6195 44.2155
" />
<path d="M131.6195 44.2155
L131.6195 44.1203
" />
<path d="M131.6195 44.1203
L131.5719 44.0251
" />
<path d="M131.5719 44.0251
L131.5243 43.9774
" />
<path d="M131.5243 43.9774
L131.4290 43.9298
" />
<path d="M131.4290 43.9298
L131.1910 43.9298
" />
<path d="M131.1910 43.9298
L131.0481 43.9774
" />
<path d="M130.7148 43.9298
L130.4767 44.9298
" />
<path d="M130.4767 44.9298
L130.2862 44.2155
" />
<path d="M130.2862 44.2155
L130.0957 44.9298
" />
<path d="M130.0957 44.9298
L129.8576 43.9298
" />
<path d="M128.9529 44.9298
L129.5243 44.9298
" />
<path d="M129.2386 44.9298
L129.2386 43.9298
" />
<path d="M129.2386 43.9298
L129.3338 44.0727
" />
<path d="M129.3338 44.0727
L129.4290 44.1679
" />
<path d="M129.4290 44.1679
L129.5243 44.2155
" />
<path d="M128.4767 44.9298
L128.2862 44.9298
" />
<path d="M128.2862 44.9298
L128.1910 44.8822
" />
<path d="M128.1910 44.8822
L128.1433 44.8346
" />
<path d="M128.1433 44.8346
L128.0481 44.6917
" />
<path d="M128.0481 44.6917
L128.0005 44.5012
" />
<path d="M128.0005 44.5012
L128.0005 44.1203
" />
<path d="M128.0005 44.1203
L128.0481 44.0251
" />
<path d="M128.0481 44.0251
L128.0957 43.9774
" />
<path d="M128.0957 43.9774
L128.1910 43.9298
" />
<path d="M128.1910 43.9298
L128.3814 43.9298
" />
<path d="M128.3814 43.9298
L128.4767 43.9774
" />
<path d="M128.4767 43.9774
L128.5243 44.0251
" />
<path d="M128.5243 44.0251
L128.5719 44.1203
" />
<path d="M128.5719 44.1203
L128.5719 44.3584
" />
<path d="M128.5719 44.3584
L128.5243 44.4536
" />
<path d="M128.5243 44.4536
L128.4767 44.5012
" />
<path d="M128.4767 44.5012
L128.3814 44.5489
" />
<path d="M128.3814 44.5489
L128.1910 44.5489
" />
<path d="M128.1910 44.5489
L128.0957 44.5012
" />
<path d="M128.0957 44.5012
L128.0481 44.4536
" />
<path d="M128.0481 44.4536
L128.0005 44.3584
" />
</g><text x="76.9200" y="109.5750"
transform="scale(-1 1) translate(-153.840000 0)"
textLength="3.2976" font-size="1.3333" lengthAdjust="spacingAndGlyphs"
text-anchor="middle" opacity="0" stroke-opacity="0">SW5</text>
<g class="stroked-text"><desc>SW5</desc>
<path d="M78.2533 109.4822
L78.1105 109.5298
" />
<path d="M78.1105 109.5298
L77.8724 109.5298
" />
<path d="M77.8724 109.5298
L77.7771 109.4822
" />
<path d="M77.7771 109.4822
L77.7295 109.4346
" />
<path d="M77.7295 109.4346
L77.6819 109.3393
" />
<path d="M77.6819 109.3393
L77.6819 109.2441
" />
<path d="M77.6819 109.2441
L77.7295 109.1489
" />
<path d="M77.7295 109.1489
L77.7771 109.1012
" />
<path d="M77.7771 109.1012
L77.8724 109.0536
" />
<path d="M77.8724 109.0536
L78.0629 109.0060
" />
<path d="M78.0629 109.0060
L78.1581 108.9584
" />
<path d="M78.1581 108.9584
L78.2057 108.9108
" />
<path d="M78.2057 108.9108
L78.2533 108.8155
" />
<path d="M78.2533 108.8155
L78.2533 108.7203
" />
<path d="M78.2533 108.7203
L78.2057 108.6251
" />
<path d="M78.2057 108.6251
L78.1581 108.5774
" />
<path d="M78.1581 108.5774
L78.0629 108.5298
" />
<path d="M78.0629 108.5298
L77.8248 108.5298
" />
<path d="M77.8248 108.5298
L77.6819 108.5774
" />
<path d="M77.3486 108.5298
L77.1105 109.5298
" />
<path d="M77.1105 109.5298
L76.9200 108.8155
" />
<path d="M76.9200 108.8155
L76.7295 109.5298
" />
<path d="M76.7295 109.5298
L76.4914 108.5298
" />
<path d="M75.6343 108.5298
L76.1105 108.5298
" />
<path d="M76.1105 108.5298
L76.1581 109.0060
" />
<path d="M76.1581 109.0060
L76.1105 108.9584
" />
<path d="M76.1105 108.9584
L76.0152 108.9108
" />
<path d="M76.0152 108.9108
L75.7771 108.9108
" />
<path d="M75.7771 108.9108
L75.6819 108.9584
" />
<path d="M75.6819 108.9584
L75.6343 109.0060
" />
<path d="M75.6343 109.0060
L75.5867 109.1012
" />
<path d="M75.5867 109.1012
L75.5867 109.3393
" />
<path d="M75.5867 109.3393
L75.6343 109.4346
" />
<path d="M75.6343 109.4346
L75.6819 109.4822
" />
<path d="M75.6819 109.4822
L75.7771 109.5298
" />
<path d="M75.7771 109.5298
L76.0152 109.5298
" />
<path d="M76.0152 109.5298
L76.1105 109.4822
" />
<path d="M76.1105 109.4822
L76.1581 109.4346
" />
</g><text x="112.1800" y="109.5750"
transform="scale(-1 1) translate(-224.360000 0)"
textLength="4.2500" font-size="1.3333" lengthAdjust="spacingAndGlyphs"
text-anchor="middle" opacity="0" stroke-opacity="0">SW17</text>
<g class="stroked-text"><desc>SW17</desc>
<path d="M113.9895 109.4822
L113.8467 109.5298
" />
<path d="M113.8467 109.5298
L113.6086 109.5298
" />
<path d="M113.6086 109.5298
L113.5133 109.4822
" />
<path d="M113.5133 109.4822
L113.4657 109.4346
" />
<path d="M113.4657 109.4346
L113.4181 109.3393
" />
<path d="M113.4181 109.3393
L113.4181 109.2441
" />
<path d="M113.4181 109.2441
L113.4657 109.1489
" />
<path d="M113.4657 109.1489
L113.5133 109.1012
" />
<path d="M113.5133 109.1012
L113.6086 109.0536
" />
<path d="M113.6086 109.0536
L113.7990 109.0060
" />
<path d="M113.7990 109.0060
L113.8943 108.9584
" />
<path d="M113.8943 108.9584
L113.9419 108.9108
" />
<path d="M113.9419 108.9108
L113.9895 108.8155
" />
<path d="M113.9895 108.8155
L113.9895 108.7203
" />
<path d="M113.9895 108.7203
L113.9419 108.6251
" />
<path d="M113.9419 108.6251
L113.8943 108.5774
" />
<path d="M113.8943 108.5774
L113.7990 108.5298
" />
<path d="M113.7990 108.5298
L113.5610 108.5298
" />
<path d="M113.5610 108.5298
L113.4181 108.5774
" />
<path d="M113.0848 108.5298
L112.8467 109.5298
" />
<path d="M112.8467 109.5298
L112.6562 108.8155
" />
<path d="M112.6562 108.8155
L112.4657 109.5298
" />
<path d="M112.4657 109.5298
L112.2276 108.5298
" />
<path d="M111.3229 109.5298
L111.8943 109.5298
" />
<path d="M111.6086 109.5298
L111.6086 108.5298
" />
<path d="M111.6086 108.5298
L111.7038 108.6727
" />
<path d="M111.7038 108.6727
L111.7990 108.7679
" />
<path d="M111.7990 108.7679
L111.8943 108.8155
" />
<path d="M110.9895 108.5298
L110.3229 108.5298
" />
<path d="M110.3229 108.5298
L110.7514 109.5298
" />
</g><text x="94.5500" y="93.4250"
transform="scale(-1 1) translate(-189.100000 0)"
textLength="4.2500" font-size="1.3333" lengthAdjust="spacingAndGlyphs"
text-anchor="middle" opacity="0" stroke-opacity="0">SW10</text>
<g class="stroked-text"><desc>SW10</desc>
<path d="M96.3595 93.3322
L96.2167 93.3798
" />
<path d="M96.2167 93.3798
L95.9786 93.3798
" />
<path d="M95.9786 93.3798
L95.8833 93.3322
" />
<path d="M95.8833 93.3322
L95.8357 93.2846
" />
<path d="M95.8357 93.2846
L95.7881 93.1893
" />
<path d="M95.7881 93.1893
L95.7881 93.0941
" />
<path d="M95.7881 93.0941
L95.8357 92.9989
" />
<path d="M95.8357 92.9989
L95.8833 92.9512
" />
<path d="M95.8833 92.9512
L95.9786 92.9036
" />
<path d="M95.9786 92.9036
L96.1690 92.8560
" />
<path d="M96.1690 92.8560
L96.2643 92.8084
" />
<path d="M96.2643 92.8084
L96.3119 92.7608
" />
<path d="M96.3119 92.7608
L96.3595 92.6655
" />
<path d="M96.3595 92.6655
L96.3595 92.5703
" />
<path d="M96.3595 92.5703
L96.3119 92.4751
" />
<path d="M96.3119 92.4751
L96.2643 92.4274
" />
<path d="M96.2643 92.4274
L96.1690 92.3798
" />
<path d="M96.1690 92.3798
L95.9310 92.3798
" />
<path d="M95.9310 92.3798
L95.7881 92.4274
" />
<path d="M95.4548 92.3798
L95.2167 93.3798
" />
<path d="M95.2167 93.3798
L95.0262 92.6655
" />
<path d="M95.0262 92.6655
L94.8357 93.3798
" />
<path d="M94.8357 93.3798
L94.5976 92.3798
" />
<path d="M93.6929 93.3798
L94.2643 93.3798
" />
<path d="M93.9786 93.3798
L93.9786 92.3798
" />
<path d="M93.9786 92.3798
L94.0738 92.5227
" />
<path d="M94.0738 92.5227
L94.1690 92.6179
" />
<path d="M94.1690 92.6179
L94.2643 92.6655
" />
<path d="M93.0738 92.3798
L92.9786 92.3798
" />
<path d="M92.9786 92.3798
L92.8833 92.4274
" />
<path d="M92.8833 92.4274
L92.8357 92.4751
" />
<path d="M92.8357 92.4751
L92.7881 92.5703
" />
<path d="M92.7881 92.5703
L92.7405 92.7608
" />
<path d="M92.7405 92.7608
L92.7405 92.9989
" />
<path d="M92.7405 92.9989
L92.7881 93.1893
" />
<path d="M92.7881 93.1893
L92.8357 93.2846
" />
<path d="M92.8357 93.2846
L92.8833 93.3322
" />
<path d="M92.8833 93.3322
L92.9786 93.3798
" />
<path d="M92.9786 93.3798
L93.0738 93.3798
" />
<path d="M93.0738 93.3798
L93.1690 93.3322
" />
<path d="M93.1690 93.3322
L93.2167 93.2846
" />
<path d="M93.2167 93.2846
L93.2643 93.1893
" />
<path d="M93.2643 93.1893
L93.3119 92.9989
" />
<path d="M93.3119 92.9989
L93.3119 92.7608
" />
<path d="M93.3119 92.7608
L93.2643 92.5703
" />
<path d="M93.2643 92.5703
L93.2167 92.4751
" />
<path d="M93.2167 92.4751
L93.1690 92.4274
" />
<path d="M93.1690 92.4274
L93.0738 92.3798
" />
</g><text x="131.2100" y="22.1650"
transform="scale(-1 1) translate(-262.420000 0)"
textLength="4.2500" font-size="1.3333" lengthAdjust="spacingAndGlyphs"
text-anchor="middle" opacity="0" stroke-opacity="0">SW22</text>
<g class="stroked-text"><desc>SW22</desc>
<path d="M133.0195 22.0722
L132.8767 22.1198
" />
<path d="M132.8767 22.1198
L132.6386 22.1198
" />
<path d="M132.6386 22.1198
L132.5433 22.0722
" />
<path d="M132.5433 22.0722
L132.4957 22.0246
" />
<path d="M132.4957 22.0246
L132.4481 21.9293
" />
<path d="M132.4481 21.9293
L132.4481 21.8341
" />
<path d="M132.4481 21.8341
L132.4957 21.7389
" />
<path d="M132.4957 21.7389
L132.5433 21.6912
" />
<path d="M132.5433 21.6912
L132.6386 21.6436
" />
<path d="M132.6386 21.6436
L132.8290 21.5960
" />
<path d="M132.8290 21.5960
L132.9243 21.5484
" />
<path d="M132.9243 21.5484
L132.9719 21.5008
" />
<path d="M132.9719 21.5008
L133.0195 21.4055
" />
<path d="M133.0195 21.4055
L133.0195 21.3103
" />
<path d="M133.0195 21.3103
L132.9719 21.2151
" />
<path d="M132.9719 21.2151
L132.9243 21.1674
" />
<path d="M132.9243 21.1674
L132.8290 21.1198
" />
<path d="M132.8290 21.1198
L132.5910 21.1198
" />
<path d="M132.5910 21.1198
L132.4481 21.1674
" />
<path d="M132.1148 21.1198
L131.8767 22.1198
" />
<path d="M131.8767 22.1198
L131.6862 21.4055
" />
<path d="M131.6862 21.4055
L131.4957 22.1198
" />
<path d="M131.4957 22.1198
L131.2576 21.1198
" />
<path d="M130.9243 21.2151
L130.8767 21.1674
" />
<path d="M130.8767 21.1674
L130.7814 21.1198
" />
<path d="M130.7814 21.1198
L130.5433 21.1198
" />
<path d="M130.5433 21.1198
L130.4481 21.1674
" />
<path d="M130.4481 21.1674
L130.4005 21.2151
" />
<path d="M130.4005 21.2151
L130.3529 21.3103
" />
<path d="M130.3529 21.3103
L130.3529 21.4055
" />
<path d="M130.3529 21.4055
L130.4005 21.5484
" />
<path d="M130.4005 21.5484
L130.9719 22.1198
" />
<path d="M130.9719 22.1198
L130.3529 22.1198
" />
<path d="M129.9719 21.2151
L129.9243 21.1674
" />
<path d="M129.9243 21.1674
L129.8290 21.1198
" />
<path d="M129.8290 21.1198
L129.5910 21.1198
" />
<path d="M129.5910 21.1198
L129.4957 21.1674
" />
<path d="M129.4957 21.1674
L129.4481 21.2151
" />
<path d="M129.4481 21.2151
L129.4005 21.3103
" />
<path d="M129.4005 21.3103
L129.4005 21.4055
" />
<path d="M129.4005 21.4055
L129.4481 21.5484
" />
<path d="M129.4481 21.5484
L130.0195 22.1198
" />
<path d="M130.0195 22.1198
L129.4005 22.1198
" />
</g><text x="129.8100" y="77.2750"
transform="scale(-1 1) translate(-259.620000 0)"
textLength="4.2500" font-size="1.3333" lengthAdjust="spacingAndGlyphs"
text-anchor="middle" opacity="0" stroke-opacity="0">SW21</text>
<g class="stroked-text"><desc>SW21</desc>
<path d="M131.6195 77.1822
L131.4767 77.2298
" />
<path d="M131.4767 77.2298
L131.2386 77.2298
" />
<path d="M131.2386 77.2298
L131.1433 77.1822
" />
<path d="M131.1433 77.1822
L131.0957 77.1346
" />
<path d="M131.0957 77.1346
L131.0481 77.0393
" />
<path d="M131.0481 77.0393
L131.0481 76.9441
" />
<path d="M131.0481 76.9441
L131.0957 76.8489
" />
<path d="M131.0957 76.8489
L131.1433 76.8012
" />
<path d="M131.1433 76.8012
L131.2386 76.7536
" />
<path d="M131.2386 76.7536
L131.4290 76.7060
" />
<path d="M131.4290 76.7060
L131.5243 76.6584
" />
<path d="M131.5243 76.6584
L131.5719 76.6108
" />
<path d="M131.5719 76.6108
L131.6195 76.5155
" />
<path d="M131.6195 76.5155
L131.6195 76.4203
" />
<path d="M131.6195 76.4203
L131.5719 76.3251
" />
<path d="M131.5719 76.3251
L131.5243 76.2774
" />
<path d="M131.5243 76.2774
L131.4290 76.2298
" />
<path d="M131.4290 76.2298
L131.1910 76.2298
" />
<path d="M131.1910 76.2298
L131.0481 76.2774
" />
<path d="M130.7148 76.2298
L130.4767 77.2298
" />
<path d="M130.4767 77.2298
L130.2862 76.5155
" />
<path d="M130.2862 76.5155
L130.0957 77.2298
" />
<path d="M130.0957 77.2298
L129.8576 76.2298
" />
<path d="M129.5243 76.3251
L129.4767 76.2774
" />
<path d="M129.4767 76.2774
L129.3814 76.2298
" />
<path d="M129.3814 76.2298
L129.1433 76.2298
" />
<path d="M129.1433 76.2298
L129.0481 76.2774
" />
<path d="M129.0481 76.2774
L129.0005 76.3251
" />
<path d="M129.0005 76.3251
L128.9529 76.4203
" />
<path d="M128.9529 76.4203
L128.9529 76.5155
" />
<path d="M128.9529 76.5155
L129.0005 76.6584
" />
<path d="M129.0005 76.6584
L129.5719 77.2298
" />
<path d="M129.5719 77.2298
L128.9529 77.2298
" />
<path d="M128.0005 77.2298
L128.5719 77.2298
" />
<path d="M128.2862 77.2298
L128.2862 76.2298
" />
<path d="M128.2862 76.2298
L128.3814 76.3727
" />
<path d="M128.3814 76.3727
L128.4767 76.4679
" />
<path d="M128.4767 76.4679
L128.5719 76.5155
" />
</g><path d="M69.9200 45.7300
L70.9200 45.7300
" />
<path d="M69.9200 46.7300
L69.9200 45.7300
" />
<path d="M69.9200 59.7300
L69.9200 58.7300
" />
<path d="M70.5700 48.2850
L70.5700 48.6660
" />
<path d="M70.5700 51.7140
L70.5700 52.0950
" />
<path d="M70.5700 52.0950
L70.9510 52.0950
" />
<path d="M70.9200 59.7300
L69.9200 59.7300
" />
<path d="M72.7290 52.0950
L74.3800 52.0950
" />
<path d="M76.9200 50.1900
L82.0000 50.1900
" />
<path d="M82.0000 45.7450
L73.1100 45.7450
" />
<path d="M82.0000 46.1260
L82.0000 45.7450
" />
<path d="M82.0000 50.1900
L82.0000 49.1740
" />
<path d="M82.9200 45.7300
L83.9200 45.7300
" />
<path d="M83.9200 45.7300
L83.9200 46.1260
" />
<path d="M83.9200 58.7300
L83.9200 59.7300
" />
<path d="M83.9200 59.7300
L82.9200 59.7300
" />
<path d="M73.1100 45.7450 A2.5400 2.5400 0.0 0 0 70.5700 48.2850" />
<path d="M76.9200 50.1900 A2.5400 2.5400 0.0 0 0 74.4587 52.1025" />
<path d="M87.5500 126.4800
L88.5500 126.4800
" />
<path d="M87.5500 127.4800
L87.5500 126.4800
" />
<path d="M87.5500 140.4800
L87.5500 139.4800
" />
<path d="M88.2000 129.0350
L88.2000 129.4160
" />
<path d="M88.2000 132.4640
L88.2000 132.8450
" />
<path d="M88.2000 132.8450
L88.5810 132.8450
" />
<path d="M88.5500 140.4800
L87.5500 140.4800
" />
<path d="M90.3590 132.8450
L92.0100 132.8450
" />
<path d="M94.5500 130.9400
L99.6300 130.9400
" />
<path d="M99.6300 126.4950
L90.7400 126.4950
" />
<path d="M99.6300 126.8760
L99.6300 126.4950
" />
<path d="M99.6300 130.9400
L99.6300 129.9240
" />
<path d="M100.5500 126.4800
L101.5500 126.4800
" />
<path d="M101.5500 126.4800
L101.5500 126.8760
" />
<path d="M101.5500 139.4800
L101.5500 140.4800
" />
<path d="M101.5500 140.4800
L100.5500 140.4800
" />
<path d="M90.7400 126.4950 A2.5400 2.5400 0.0 0 0 88.2000 129.0350" />
<path d="M94.5500 130.9400 A2.5400 2.5400 0.0 0 0 92.0887 132.8525" />
<path d="M105.1800 45.7300
L106.1800 45.7300
" />
<path d="M105.1800 46.7300
L105.1800 45.7300
" />
<path d="M105.1800 59.7300
L105.1800 58.7300
" />
<path d="M105.8300 48.2850
L105.8300 48.6660
" />
<path d="M105.8300 51.7140
L105.8300 52.0950
" />
<path d="M105.8300 52.0950
L106.2110 52.0950
" />
<path d="M106.1800 59.7300
L105.1800 59.7300
" />
<path d="M107.9890 52.0950
L109.6400 52.0950
" />
<path d="M112.1800 50.1900
L117.2600 50.1900
" />
<path d="M117.2600 45.7450
L108.3700 45.7450
" />
<path d="M117.2600 46.1260
L117.2600 45.7450
" />
<path d="M117.2600 50.1900
L117.2600 49.1740
" />
<path d="M118.1800 45.7300
L119.1800 45.7300
" />
<path d="M119.1800 45.7300
L119.1800 46.1260
" />
<path d="M119.1800 58.7300
L119.1800 59.7300
" />
<path d="M119.1800 59.7300
L118.1800 59.7300
" />
<path d="M108.3700 45.7450 A2.5400 2.5400 0.0 0 0 105.8300 48.2850" />
<path d="M112.1800 50.1900 A2.5400 2.5400 0.0 0 0 109.7187 52.1025" />
<path d="M87.5500 78.0300
L88.5500 78.0300
" />
<path d="M87.5500 79.0300
L87.5500 78.0300
" />
<path d="M87.5500 92.0300
L87.5500 91.0300
" />
<path d="M88.2000 80.5850
L88.2000 80.9660
" />
<path d="M88.2000 84.0140
L88.2000 84.3950
" />
<path d="M88.2000 84.3950
L88.5810 84.3950
" />
<path d="M88.5500 92.0300
L87.5500 92.0300
" />
<path d="M90.3590 84.3950
L92.0100 84.3950
" />
<path d="M94.5500 82.4900
L99.6300 82.4900
" />
<path d="M99.6300 78.0450
L90.7400 78.0450
" />
<path d="M99.6300 78.4260
L99.6300 78.0450
" />
<path d="M99.6300 82.4900
L99.6300 81.4740
" />
<path d="M100.5500 78.0300
L101.5500 78.0300
" />
<path d="M101.5500 78.0300
L101.5500 78.4260
" />
<path d="M101.5500 91.0300
L101.5500 92.0300
" />
<path d="M101.5500 92.0300
L100.5500 92.0300
" />
<path d="M90.7400 78.0450 A2.5400 2.5400 0.0 0 0 88.2000 80.5850" />
<path d="M94.5500 82.4900 A2.5400 2.5400 0.0 0 0 92.0887 84.4025" />
<path d="M69.9200 61.8800
L70.9200 61.8800
" />
<path d="M69.9200 62.8800
L69.9200 61.8800
" />
<path d="M69.9200 75.8800
L69.9200 74.8800
" />
<path d="M70.5700 64.4350
L70.5700 64.8160
" />
<path d="M70.5700 67.8640
L70.5700 68.2450
" />
<path d="M70.5700 68.2450
L70.9510 68.2450
" />
<path d="M70.9200 75.8800
L69.9200 75.8800
" />
<path d="M72.7290 68.2450
L74.3800 68.2450
" />
<path d="M76.9200 66.3400
L82.0000 66.3400
" />
<path d="M82.0000 61.8950
L73.1100 61.8950
" />
<path d="M82.0000 62.2760
L82.0000 61.8950
" />
<path d="M82.0000 66.3400
L82.0000 65.3240
" />
<path d="M82.9200 61.8800
L83.9200 61.8800
" />
<path d="M83.9200 61.8800
L83.9200 62.2760
" />
<path d="M83.9200 74.8800
L83.9200 75.8800
" />
<path d="M83.9200 75.8800
L82.9200 75.8800
" />
<path d="M73.1100 61.8950 A2.5400 2.5400 0.0 0 0 70.5700 64.4350" />
<path d="M76.9200 66.3400 A2.5400 2.5400 0.0 0 0 74.4587 68.2525" />
<path d="M105.1800 61.8800
L106.1800 61.8800
" />
<path d="M105.1800 62.8800
L105.1800 61.8800
" />
<path d="M105.1800 75.8800
L105.1800 74.8800
" />
<path d="M105.8300 64.4350
L105.8300 64.8160
" />
<path d="M105.8300 67.8640
L105.8300 68.2450
" />
<path d="M105.8300 68.2450
L106.2110 68.2450
" />
<path d="M106.1800 75.8800
L105.1800 75.8800
" />
<path d="M107.9890 68.2450
L109.6400 68.2450
" />
<path d="M112.1800 66.3400
L117.2600 66.3400
" />
<path d="M117.2600 61.8950
L108.3700 61.8950
" />
<path d="M117.2600 62.2760
L117.2600 61.8950
" />
<path d="M117.2600 66.3400
L117.2600 65.3240
" />
<path d="M118.1800 61.8800
L119.1800 61.8800
" />
<path d="M119.1800 61.8800
L119.1800 62.2760
" />
<path d="M119.1800 74.8800
L119.1800 75.8800
" />
<path d="M119.1800 75.8800
L118.1800 75.8800
" />
<path d="M108.3700 61.8950 A2.5400 2.5400 0.0 0 0 105.8300 64.4350" />
<path d="M112.1800 66.3400 A2.5400 2.5400 0.0 0 0 109.7187 68.2525" />
<path d="M122.8100 61.8800
L123.8100 61.8800
" />
<path d="M122.8100 62.8800
L122.8100 61.8800
" />
<path d="M122.8100 75.8800
L122.8100 74.8800
" />
<path d="M123.4600 64.4350
L123.4600 64.8160
" />
<path d="M123.4600 67.8640
L123.4600 68.2450
" />
<path d="M123.4600 68.2450
L123.8410 68.2450
" />
<path d="M123.8100 75.8800
L122.8100 75.8800
" />
<path d="M125.6190 68.2450
L127.2700 68.2450
" />
<path d="M129.8100 66.3400
L134.8900 66.3400
" />
<path d="M134.8900 61.8950
L126.0000 61.8950
" />
<path d="M134.8900 62.2760
L134.8900 61.8950
" />
<path d="M134.8900 66.3400
L134.8900 65.3240
" />
<path d="M135.8100 61.8800
L136.8100 61.8800
" />
<path d="M136.8100 61.8800
L136.8100 62.2760
" />
<path d="M136.8100 74.8800
L136.8100 75.8800
" />
<path d="M136.8100 75.8800
L135.8100 75.8800
" />
<path d="M126.0000 61.8950 A2.5400 2.5400 0.0 0 0 123.4600 64.4350" />
<path d="M129.8100 66.3400 A2.5400 2.5400 0.0 0 0 127.3487 68.2525" />
<path d="M105.1800 94.1800
L106.1800 94.1800
" />
<path d="M105.1800 95.1800
L105.1800 94.1800
" />
<path d="M105.1800 108.1800
L105.1800 107.1800
" />
<path d="M105.8300 96.7350
L105.8300 97.1160
" />
<path d="M105.8300 100.1640
L105.8300 100.5450
" />
<path d="M105.8300 100.5450
L106.2110 100.5450
" />
<path d="M106.1800 108.1800
L105.1800 108.1800
" />
<path d="M107.9890 100.5450
L109.6400 100.5450
" />
<path d="M112.1800 98.6400
L117.2600 98.6400
" />
<path d="M117.2600 94.1950
L108.3700 94.1950
" />
<path d="M117.2600 94.5760
L117.2600 94.1950
" />
<path d="M117.2600 98.6400
L117.2600 97.6240
" />
<path d="M118.1800 94.1800
L119.1800 94.1800
" />
<path d="M119.1800 94.1800
L119.1800 94.5760
" />
<path d="M119.1800 107.1800
L119.1800 108.1800
" />
<path d="M119.1800 108.1800
L118.1800 108.1800
" />
<path d="M108.3700 94.1950 A2.5400 2.5400 0.0 0 0 105.8300 96.7350" />
<path d="M112.1800 98.6400 A2.5400 2.5400 0.0 0 0 109.7187 100.5525" />
<path d="M87.5500 45.7300
L88.5500 45.7300
" />
<path d="M87.5500 46.7300
L87.5500 45.7300
" />
<path d="M87.5500 59.7300
L87.5500 58.7300
" />
<path d="M88.2000 48.2850
L88.2000 48.6660
" />
<path d="M88.2000 51.7140
L88.2000 52.0950
" />
<path d="M88.2000 52.0950
L88.5810 52.0950
" />
<path d="M88.5500 59.7300
L87.5500 59.7300
" />
<path d="M90.3590 52.0950
L92.0100 52.0950
" />
<path d="M94.5500 50.1900
L99.6300 50.1900
" />
<path d="M99.6300 45.7450
L90.7400 45.7450
" />
<path d="M99.6300 46.1260
L99.6300 45.7450
" />
<path d="M99.6300 50.1900
L99.6300 49.1740
" />
<path d="M100.5500 45.7300
L101.5500 45.7300
" />
<path d="M101.5500 45.7300
L101.5500 46.1260
" />
<path d="M101.5500 58.7300
L101.5500 59.7300
" />
<path d="M101.5500 59.7300
L100.5500 59.7300
" />
<path d="M90.7400 45.7450 A2.5400 2.5400 0.0 0 0 88.2000 48.2850" />
<path d="M94.5500 50.1900 A2.5400 2.5400 0.0 0 0 92.0887 52.1025" />
<path d="M87.5500 61.8800
L88.5500 61.8800
" />
<path d="M87.5500 62.8800
L87.5500 61.8800
" />
<path d="M87.5500 75.8800
L87.5500 74.8800
" />
<path d="M88.2000 64.4350
L88.2000 64.8160
" />
<path d="M88.2000 67.8640
L88.2000 68.2450
" />
<path d="M88.2000 68.2450
L88.5810 68.2450
" />
<path d="M88.5500 75.8800
L87.5500 75.8800
" />
<path d="M90.3590 68.2450
L92.0100 68.2450
" />
<path d="M94.5500 66.3400
L99.6300 66.3400
" />
<path d="M99.6300 61.8950
L90.7400 61.8950
" />
<path d="M99.6300 62.2760
L99.6300 61.8950
" />
<path d="M99.6300 66.3400
L99.6300 65.3240
" />
<path d="M100.5500 61.8800
L101.5500 61.8800
" />
<path d="M101.5500 61.8800
L101.5500 62.2760
" />
<path d="M101.5500 74.8800
L101.5500 75.8800
" />
<path d="M101.5500 75.8800
L100.5500 75.8800
" />
<path d="M90.7400 61.8950 A2.5400 2.5400 0.0 0 0 88.2000 64.4350" />
<path d="M94.5500 66.3400 A2.5400 2.5400 0.0 0 0 92.0887 68.2525" />
<path d="M69.9200 78.0300
L70.9200 78.0300
" />
<path d="M69.9200 79.0300
L69.9200 78.0300
" />
<path d="M69.9200 92.0300
L69.9200 91.0300
" />
<path d="M70.5700 80.5850
L70.5700 80.9660
" />
<path d="M70.5700 84.0140
L70.5700 84.3950
" />
<path d="M70.5700 84.3950
L70.9510 84.3950
" />
<path d="M70.9200 92.0300
L69.9200 92.0300
" />
<path d="M72.7290 84.3950
L74.3800 84.3950
" />
<path d="M76.9200 82.4900
L82.0000 82.4900
" />
<path d="M82.0000 78.0450
L73.1100 78.0450
" />
<path d="M82.0000 78.4260
L82.0000 78.0450
" />
<path d="M82.0000 82.4900
L82.0000 81.4740
" />
<path d="M82.9200 78.0300
L83.9200 78.0300
" />
<path d="M83.9200 78.0300
L83.9200 78.4260
" />
<path d="M83.9200 91.0300
L83.9200 92.0300
" />
<path d="M83.9200 92.0300
L82.9200 92.0300
" />
<path d="M73.1100 78.0450 A2.5400 2.5400 0.0 0 0 70.5700 80.5850" />
<path d="M76.9200 82.4900 A2.5400 2.5400 0.0 0 0 74.4587 84.4025" />
<path d="M105.1800 126.4800
L106.1800 126.4800
" />
<path d="M105.1800 127.4800
L105.1800 126.4800
" />
<path d="M105.1800 140.4800
L105.1800 139.4800
" />
<path d="M105.8300 129.0350
L105.8300 129.4160
" />
<path d="M105.8300 132.4640
L105.8300 132.8450
" />
<path d="M105.8300 132.8450
L106.2110 132.8450
" />
<path d="M106.1800 140.4800
L105.1800 140.4800
" />
<path d="M107.9890 132.8450
L109.6400 132.8450
" />
<path d="M112.1800 130.9400
L117.2600 130.9400
" />
<path d="M117.2600 126.4950
L108.3700 126.4950
" />
<path d="M117.2600 126.8760
L117.2600 126.4950
" />
<path d="M117.2600 130.9400
L117.2600 129.9240
" />
<path d="M118.1800 126.4800
L119.1800 126.4800
" />
<path d="M119.1800 126.4800
L119.1800 126.8760
" />
<path d="M119.1800 139.4800
L119.1800 140.4800
" />
<path d="M119.1800 140.4800
L118.1800 140.4800
" />
<path d="M108.3700 126.4950 A2.5400 2.5400 0.0 0 0 105.8300 129.0350" />
<path d="M112.1800 130.9400 A2.5400 2.5400 0.0 0 0 109.7187 132.8525" />
<path d="M69.9200 94.1800
L70.9200 94.1800
" />
<path d="M69.9200 95.1800
L69.9200 94.1800
" />
<path d="M69.9200 108.1800
L69.9200 107.1800
" />
<path d="M70.5700 96.7350
L70.5700 97.1160
" />
<path d="M70.5700 100.1640
L70.5700 100.5450
" />
<path d="M70.5700 100.5450
L70.9510 100.5450
" />
<path d="M70.9200 108.1800
L69.9200 108.1800
" />
<path d="M72.7290 100.5450
L74.3800 100.5450
" />
<path d="M76.9200 98.6400
L82.0000 98.6400
" />
<path d="M82.0000 94.1950
L73.1100 94.1950
" />
<path d="M82.0000 94.5760
L82.0000 94.1950
" />
<path d="M82.0000 98.6400
L82.0000 97.6240
" />
<path d="M82.9200 94.1800
L83.9200 94.1800
" />
<path d="M83.9200 94.1800
L83.9200 94.5760
" />
<path d="M83.9200 107.1800
L83.9200 108.1800
" />
<path d="M83.9200 108.1800
L82.9200 108.1800
" />
<path d="M73.1100 94.1950 A2.5400 2.5400 0.0 0 0 70.5700 96.7350" />
<path d="M76.9200 98.6400 A2.5400 2.5400 0.0 0 0 74.4587 100.5525" />
<path d="M105.1800 78.0300
L106.1800 78.0300
" />
<path d="M105.1800 79.0300
L105.1800 78.0300
" />
<path d="M105.1800 92.0300
L105.1800 91.0300
" />
<path d="M105.8300 80.5850
L105.8300 80.9660
" />
<path d="M105.8300 84.0140
L105.8300 84.3950
" />
<path d="M105.8300 84.3950
L106.2110 84.3950
" />
<path d="M106.1800 92.0300
L105.1800 92.0300
" />
<path d="M107.9890 84.3950
L109.6400 84.3950
" />
<path d="M112.1800 82.4900
L117.2600 82.4900
" />
<path d="M117.2600 78.0450
L108.3700 78.0450
" />
<path d="M117.2600 78.4260
L117.2600 78.0450
" />
<path d="M117.2600 82.4900
L117.2600 81.4740
" />
<path d="M118.1800 78.0300
L119.1800 78.0300
" />
<path d="M119.1800 78.0300
L119.1800 78.4260
" />
<path d="M119.1800 91.0300
L119.1800 92.0300
" />
<path d="M119.1800 92.0300
L118.1800 92.0300
" />
<path d="M108.3700 78.0450 A2.5400 2.5400 0.0 0 0 105.8300 80.5850" />
<path d="M112.1800 82.4900 A2.5400 2.5400 0.0 0 0 109.7187 84.4025" />
<path d="M69.9200 126.4800
L70.9200 126.4800
" />
<path d="M69.9200 127.4800
L69.9200 126.4800
" />
<path d="M69.9200 140.4800
L69.9200 139.4800
" />
<path d="M70.5700 129.0350
L70.5700 129.4160
" />
<path d="M70.5700 132.4640
L70.5700 132.8450
" />
<path d="M70.5700 132.8450
L70.9510 132.8450
" />
<path d="M70.9200 140.4800
L69.9200 140.4800
" />
<path d="M72.7290 132.8450
L74.3800 132.8450
" />
<path d="M76.9200 130.9400
L82.0000 130.9400
" />
<path d="M82.0000 126.4950
L73.1100 126.4950
" />
<path d="M82.0000 126.8760
L82.0000 126.4950
" />
<path d="M82.0000 130.9400
L82.0000 129.9240
" />
<path d="M82.9200 126.4800
L83.9200 126.4800
" />
<path d="M83.9200 126.4800
L83.9200 126.8760
" />
<path d="M83.9200 139.4800
L83.9200 140.4800
" />
<path d="M83.9200 140.4800
L82.9200 140.4800
" />
<path d="M73.1100 126.4950 A2.5400 2.5400 0.0 0 0 70.5700 129.0350" />
<path d="M76.9200 130.9400 A2.5400 2.5400 0.0 0 0 74.4587 132.8525" />
<path d="M87.5500 110.3300
L88.5500 110.3300
" />
<path d="M87.5500 111.3300
L87.5500 110.3300
" />
<path d="M87.5500 124.3300
L87.5500 123.3300
" />
<path d="M88.2000 112.8850
L88.2000 113.2660
" />
<path d="M88.2000 116.3140
L88.2000 116.6950
" />
<path d="M88.2000 116.6950
L88.5810 116.6950
" />
<path d="M88.5500 124.3300
L87.5500 124.3300
" />
<path d="M90.3590 116.6950
L92.0100 116.6950
" />
<path d="M94.5500 114.7900
L99.6300 114.7900
" />
<path d="M99.6300 110.3450
L90.7400 110.3450
" />
<path d="M99.6300 110.7260
L99.6300 110.3450
" />
<path d="M99.6300 114.7900
L99.6300 113.7740
" />
<path d="M100.5500 110.3300
L101.5500 110.3300
" />
<path d="M101.5500 110.3300
L101.5500 110.7260
" />
<path d="M101.5500 123.3300
L101.5500 124.3300
" />
<path d="M101.5500 124.3300
L100.5500 124.3300
" />
<path d="M90.7400 110.3450 A2.5400 2.5400 0.0 0 0 88.2000 112.8850" />
<path d="M94.5500 114.7900 A2.5400 2.5400 0.0 0 0 92.0887 116.7025" />
<path d="M122.8100 45.7300
L123.8100 45.7300
" />
<path d="M122.8100 46.7300
L122.8100 45.7300
" />
<path d="M122.8100 59.7300
L122.8100 58.7300
" />
<path d="M123.4600 48.2850
L123.4600 48.6660
" />
<path d="M123.4600 51.7140
L123.4600 52.0950
" />
<path d="M123.4600 52.0950
L123.8410 52.0950
" />
<path d="M123.8100 59.7300
L122.8100 59.7300
" />
<path d="M125.6190 52.0950
L127.2700 52.0950
" />
<path d="M129.8100 50.1900
L134.8900 50.1900
" />
<path d="M134.8900 45.7450
L126.0000 45.7450
" />
<path d="M134.8900 46.1260
L134.8900 45.7450
" />
<path d="M134.8900 50.1900
L134.8900 49.1740
" />
<path d="M135.8100 45.7300
L136.8100 45.7300
" />
<path d="M136.8100 45.7300
L136.8100 46.1260
" />
<path d="M136.8100 58.7300
L136.8100 59.7300
" />
<path d="M136.8100 59.7300
L135.8100 59.7300
" />
<path d="M126.0000 45.7450 A2.5400 2.5400 0.0 0 0 123.4600 48.2850" />
<path d="M129.8100 50.1900 A2.5400 2.5400 0.0 0 0 127.3487 52.1025" />
<path d="M69.9200 110.3300
L70.9200 110.3300
" />
<path d="M69.9200 111.3300
L69.9200 110.3300
" />
<path d="M69.9200 124.3300
L69.9200 123.3300
" />
<path d="M70.5700 112.8850
L70.5700 113.2660
" />
<path d="M70.5700 116.3140
L70.5700 116.6950
" />
<path d="M70.5700 116.6950
L70.9510 116.6950
" />
<path d="M70.9200 124.3300
L69.9200 124.3300
" />
<path d="M72.7290 116.6950
L74.3800 116.6950
" />
<path d="M76.9200 114.7900
L82.0000 114.7900
" />
<path d="M82.0000 110.3450
L73.1100 110.3450
" />
<path d="M82.0000 110.7260
L82.0000 110.3450
" />
<path d="M82.0000 114.7900
L82.0000 113.7740
" />
<path d="M82.9200 110.3300
L83.9200 110.3300
" />
<path d="M83.9200 110.3300
L83.9200 110.7260
" />
<path d="M83.9200 123.3300
L83.9200 124.3300
" />
<path d="M83.9200 124.3300
L82.9200 124.3300
" />
<path d="M73.1100 110.3450 A2.5400 2.5400 0.0 0 0 70.5700 112.8850" />
<path d="M76.9200 114.7900 A2.5400 2.5400 0.0 0 0 74.4587 116.7025" />
<path d="M105.1800 110.3300
L106.1800 110.3300
" />
<path d="M105.1800 111.3300
L105.1800 110.3300
" />
<path d="M105.1800 124.3300
L105.1800 123.3300
" />
<path d="M105.8300 112.8850
L105.8300 113.2660
" />
<path d="M105.8300 116.3140
L105.8300 116.6950
" />
<path d="M105.8300 116.6950
L106.2110 116.6950
" />
<path d="M106.1800 124.3300
L105.1800 124.3300
" />
<path d="M107.9890 116.6950
L109.6400 116.6950
" />
<path d="M112.1800 114.7900
L117.2600 114.7900
" />
<path d="M117.2600 110.3450
L108.3700 110.3450
" />
<path d="M117.2600 110.7260
L117.2600 110.3450
" />
<path d="M117.2600 114.7900
L117.2600 113.7740
" />
<path d="M118.1800 110.3300
L119.1800 110.3300
" />
<path d="M119.1800 110.3300
L119.1800 110.7260
" />
<path d="M119.1800 123.3300
L119.1800 124.3300
" />
<path d="M119.1800 124.3300
L118.1800 124.3300
" />
<path d="M108.3700 110.3450 A2.5400 2.5400 0.0 0 0 105.8300 112.8850" />
<path d="M112.1800 114.7900 A2.5400 2.5400 0.0 0 0 109.7187 116.7025" />
<path d="M87.5500 94.1800
L88.5500 94.1800
" />
<path d="M87.5500 95.1800
L87.5500 94.1800
" />
<path d="M87.5500 108.1800
L87.5500 107.1800
" />
<path d="M88.2000 96.7350
L88.2000 97.1160
" />
<path d="M88.2000 100.1640
L88.2000 100.5450
" />
<path d="M88.2000 100.5450
L88.5810 100.5450
" />
<path d="M88.5500 108.1800
L87.5500 108.1800
" />
<path d="M90.3590 100.5450
L92.0100 100.5450
" />
<path d="M94.5500 98.6400
L99.6300 98.6400
" />
<path d="M99.6300 94.1950
L90.7400 94.1950
" />
<path d="M99.6300 94.5760
L99.6300 94.1950
" />
<path d="M99.6300 98.6400
L99.6300 97.6240
" />
<path d="M100.5500 94.1800
L101.5500 94.1800
" />
<path d="M101.5500 94.1800
L101.5500 94.5760
" />
<path d="M101.5500 107.1800
L101.5500 108.1800
" />
<path d="M101.5500 108.1800
L100.5500 108.1800
" />
<path d="M90.7400 94.1950 A2.5400 2.5400 0.0 0 0 88.2000 96.7350" />
<path d="M94.5500 98.6400 A2.5400 2.5400 0.0 0 0 92.0887 100.5525" />
<path d="M124.2100 22.9200
L125.2100 22.9200
" />
<path d="M124.2100 23.9200
L124.2100 22.9200
" />
<path d="M124.2100 36.9200
L124.2100 35.9200
" />
<path d="M124.8600 25.4750
L124.8600 25.8560
" />
<path d="M124.8600 28.9040
L124.8600 29.2850
" />
<path d="M124.8600 29.2850
L125.2410 29.2850
" />
<path d="M125.2100 36.9200
L124.2100 36.9200
" />
<path d="M127.0190 29.2850
L128.6700 29.2850
" />
<path d="M131.2100 27.3800
L136.2900 27.3800
" />
<path d="M136.2900 22.9350
L127.4000 22.9350
" />
<path d="M136.2900 23.3160
L136.2900 22.9350
" />
<path d="M136.2900 27.3800
L136.2900 26.3640
" />
<path d="M137.2100 22.9200
L138.2100 22.9200
" />
<path d="M138.2100 22.9200
L138.2100 23.3160
" />
<path d="M138.2100 35.9200
L138.2100 36.9200
" />
<path d="M138.2100 36.9200
L137.2100 36.9200
" />
<path d="M127.4000 22.9350 A2.5400 2.5400 0.0 0 0 124.8600 25.4750" />
<path d="M131.2100 27.3800 A2.5400 2.5400 0.0 0 0 128.7487 29.2925" />
<path d="M122.8100 78.0300
L123.8100 78.0300
" />
<path d="M122.8100 79.0300
L122.8100 78.0300
" />
<path d="M122.8100 92.0300
L122.8100 91.0300
" />
<path d="M123.4600 80.5850
L123.4600 80.9660
" />
<path d="M123.4600 84.0140
L123.4600 84.3950
" />
<path d="M123.4600 84.3950
L123.8410 84.3950
" />
<path d="M123.8100 92.0300
L122.8100 92.0300
" />
<path d="M125.6190 84.3950
L127.2700 84.3950
" />
<path d="M129.8100 82.4900
L134.8900 82.4900
" />
<path d="M134.8900 78.0450
L126.0000 78.0450
" />
<path d="M134.8900 78.4260
L134.8900 78.0450
" />
<path d="M134.8900 82.4900
L134.8900 81.4740
" />
<path d="M135.8100 78.0300
L136.8100 78.0300
" />
<path d="M136.8100 78.0300
L136.8100 78.4260
" />
<path d="M136.8100 91.0300
L136.8100 92.0300
" />
<path d="M136.8100 92.0300
L135.8100 92.0300
" />
<path d="M126.0000 78.0450 A2.5400 2.5400 0.0 0 0 123.4600 80.5850" />
<path d="M129.8100 82.4900 A2.5400 2.5400 0.0 0 0 127.3487 84.4025" />
</g> 
</svg>
