<?xml version="1.0" standalone="no"?>
 <!DOCTYPE svg PUBLIC "-//W3C//DTD SVG 1.1//EN" 
 "http://www.w3.org/Graphics/SVG/1.1/DTD/svg11.dtd"> 
<svg
  xmlns:svg="http://www.w3.org/2000/svg"
  xmlns="http://www.w3.org/2000/svg"
  xmlns:xlink="http://www.w3.org/1999/xlink"
  version="1.1"
  width="297.0022mm" height="210.0072mm" viewBox="0.0000 0.0000 297.0022 210.0072">
<title>SVG Image created as V3-F_Cu.svg date 2025/07/21 07:58:32 </title>
  <desc>Image generated by PCBNEW </desc>
<g style="fill:#000000; fill-opacity:1.0000;stroke:#000000; stroke-opacity:1.0000;
stroke-linecap:round; stroke-linejoin:round;"
 transform="translate(0 0) scale(1 1)">
<path style="fill:#000000; fill-opacity:1.0000; stroke:none;fill-rule:evenodd;"
d="M 81.9350,59.0600
81.9350,56.5600
84.4850,56.5600
84.4850,59.0600
Z" /> 
<path style="fill:#000000; fill-opacity:1.0000; stroke:none;fill-rule:evenodd;"
d="M 68.0850,56.5200
68.0850,54.0200
70.6350,54.0200
70.6350,56.5200
Z" /> 
<path style="fill:#000000; fill-opacity:1.0000; stroke:none;fill-rule:evenodd;"
d="M 138.7650,86.3200
138.7650,84.7200
140.3650,84.7200
140.3650,86.3200
Z" /> 
</g>
<g style="fill:#000000; fill-opacity:1.0000; stroke:none;">
<circle cx="147.1850" cy="85.5200" r="0.8000" /> 
<path style="fill:#000000; fill-opacity:1.0000; stroke:none;fill-rule:evenodd;"
d="M 149.5350,104.0700
149.5350,102.4700
151.1350,102.4700
151.1350,104.0700
Z" /> 
<circle cx="157.9550" cy="103.2700" r="0.8000" /> 
<path style="fill:#000000; fill-opacity:1.0000; stroke:none;fill-rule:evenodd;"
d="M 99.5650,139.8100
99.5650,137.3100
102.1150,137.3100
102.1150,139.8100
Z" /> 
<path style="fill:#000000; fill-opacity:1.0000; stroke:none;fill-rule:evenodd;"
d="M 85.7150,137.2700
85.7150,134.7700
88.2650,134.7700
88.2650,137.2700
Z" /> 
<path style="fill:#000000; fill-opacity:1.0000; stroke:none;fill-rule:evenodd;"
d="M 149.5350,100.5200
149.5350,98.9200
151.1350,98.9200
151.1350,100.5200
Z" /> 
<circle cx="157.9550" cy="99.7200" r="0.8000" /> 
<path style="fill:#000000; fill-opacity:1.0000; stroke:none;fill-rule:evenodd;"
d="M 138.7650,96.9700
138.7650,95.3700
140.3650,95.3700
140.3650,96.9700
Z" /> 
<circle cx="147.1850" cy="96.1700" r="0.8000" /> 
<path style="fill:#000000; fill-opacity:1.0000; stroke:none;fill-rule:evenodd;"
d="M 117.1950,59.0600
117.1950,56.5600
119.7450,56.5600
119.7450,59.0600
Z" /> 
<path style="fill:#000000; fill-opacity:1.0000; stroke:none;fill-rule:evenodd;"
d="M 103.3450,56.5200
103.3450,54.0200
105.8950,54.0200
105.8950,56.5200
Z" /> 
<path style="fill:#000000; fill-opacity:1.0000; stroke:none;fill-rule:evenodd;"
d="M 99.5650,91.3600
99.5650,88.8600
102.1150,88.8600
102.1150,91.3600
Z" /> 
<path style="fill:#000000; fill-opacity:1.0000; stroke:none;fill-rule:evenodd;"
d="M 85.7150,88.8200
85.7150,86.3200
88.2650,86.3200
88.2650,88.8200
Z" /> 
<path style="fill:#000000; fill-opacity:1.0000; stroke:none;fill-rule:evenodd;"
d="M 149.5350,93.4200
149.5350,91.8200
151.1350,91.8200
151.1350,93.4200
Z" /> 
<circle cx="157.9550" cy="92.6200" r="0.8000" /> 
<path style="fill:#000000; fill-opacity:1.0000; stroke:none;fill-rule:evenodd;"
d="M 81.9350,75.2100
81.9350,72.7100
84.4850,72.7100
84.4850,75.2100
Z" /> 
<path style="fill:#000000; fill-opacity:1.0000; stroke:none;fill-rule:evenodd;"
d="M 68.0850,72.6700
68.0850,70.1700
70.6350,70.1700
70.6350,72.6700
Z" /> 
<path style="fill:#000000; fill-opacity:1.0000; stroke:none;fill-rule:evenodd;"
d="M 117.1950,75.2100
117.1950,72.7100
119.7450,72.7100
119.7450,75.2100
Z" /> 
<path style="fill:#000000; fill-opacity:1.0000; stroke:none;fill-rule:evenodd;"
d="M 103.3450,72.6700
103.3450,70.1700
105.8950,70.1700
105.8950,72.6700
Z" /> 
<path style="fill:#000000; fill-opacity:1.0000; stroke:none;fill-rule:evenodd;"
d="M 134.8250,75.2100
134.8250,72.7100
137.3750,72.7100
137.3750,75.2100
Z" /> 
<path style="fill:#000000; fill-opacity:1.0000; stroke:none;fill-rule:evenodd;"
d="M 120.9750,72.6700
120.9750,70.1700
123.5250,70.1700
123.5250,72.6700
Z" /> 
<path style="fill:#000000; fill-opacity:1.0000; stroke:none;fill-rule:evenodd;"
d="M 160.3050,100.5200
160.3050,98.9200
161.9050,98.9200
161.9050,100.5200
Z" /> 
<circle cx="168.7250" cy="99.7200" r="0.8000" /> 
<path style="fill:#000000; fill-opacity:1.0000; stroke:none;fill-rule:evenodd;"
d="M 117.1950,107.5100
117.1950,105.0100
119.7450,105.0100
119.7450,107.5100
Z" /> 
<path style="fill:#000000; fill-opacity:1.0000; stroke:none;fill-rule:evenodd;"
d="M 103.3450,104.9700
103.3450,102.4700
105.8950,102.4700
105.8950,104.9700
Z" /> 
<path style="fill:#000000; fill-opacity:1.0000; stroke:none;fill-rule:evenodd;"
d="M 99.5650,59.0600
99.5650,56.5600
102.1150,56.5600
102.1150,59.0600
Z" /> 
<path style="fill:#000000; fill-opacity:1.0000; stroke:none;fill-rule:evenodd;"
d="M 85.7150,56.5200
85.7150,54.0200
88.2650,54.0200
88.2650,56.5200
Z" /> 
<path style="fill:#000000; fill-opacity:1.0000; stroke:none;fill-rule:evenodd;"
d="M 138.7650,100.5200
138.7650,98.9200
140.3650,98.9200
140.3650,100.5200
Z" /> 
<circle cx="147.1850" cy="99.7200" r="0.8000" /> 
<path style="fill:#000000; fill-opacity:1.0000; stroke:none;fill-rule:evenodd;"
d="M 138.7650,104.0700
138.7650,102.4700
140.3650,102.4700
140.3650,104.0700
Z" /> 
<circle cx="147.1850" cy="103.2700" r="0.8000" /> 
<path style="fill:#000000; fill-opacity:1.0000; stroke:none;fill-rule:evenodd;"
d="M 138.7650,89.8700
138.7650,88.2700
140.3650,88.2700
140.3650,89.8700
Z" /> 
<circle cx="147.1850" cy="89.0700" r="0.8000" /> 
<path style="fill:#000000; fill-opacity:1.0000; stroke:none;fill-rule:evenodd;"
d="M 99.5650,75.2100
99.5650,72.7100
102.1150,72.7100
102.1150,75.2100
Z" /> 
<path style="fill:#000000; fill-opacity:1.0000; stroke:none;fill-rule:evenodd;"
d="M 85.7150,72.6700
85.7150,70.1700
88.2650,70.1700
88.2650,72.6700
Z" /> 
<path style="fill:#000000; fill-opacity:1.0000; stroke:none;fill-rule:evenodd;"
d="M 81.9350,91.3600
81.9350,88.8600
84.4850,88.8600
84.4850,91.3600
Z" /> 
<path style="fill:#000000; fill-opacity:1.0000; stroke:none;fill-rule:evenodd;"
d="M 68.0850,88.8200
68.0850,86.3200
70.6350,86.3200
70.6350,88.8200
Z" /> 
<path style="fill:#000000; fill-opacity:1.0000; stroke:none;fill-rule:evenodd;"
d="M 122.5350,40.5700
122.5350,38.9700
124.1350,38.9700
124.1350,40.5700
Z" /> 
<circle cx="130.9550" cy="39.7700" r="0.8000" /> 
<path style="fill:#000000; fill-opacity:1.0000; stroke:none;fill-rule:evenodd;"
d="M 117.1950,139.8100
117.1950,137.3100
119.7450,137.3100
119.7450,139.8100
Z" /> 
<path style="fill:#000000; fill-opacity:1.0000; stroke:none;fill-rule:evenodd;"
d="M 103.3450,137.2700
103.3450,134.7700
105.8950,134.7700
105.8950,137.2700
Z" /> 
<path style="fill:#000000; fill-opacity:1.0000; stroke:none;fill-rule:evenodd;"
d="M 81.9350,107.5100
81.9350,105.0100
84.4850,105.0100
84.4850,107.5100
Z" /> 
<path style="fill:#000000; fill-opacity:1.0000; stroke:none;fill-rule:evenodd;"
d="M 68.0850,104.9700
68.0850,102.4700
70.6350,102.4700
70.6350,104.9700
Z" /> 
<path style="fill:#000000; fill-opacity:1.0000; stroke:none;fill-rule:evenodd;"
d="M 149.5350,86.3200
149.5350,84.7200
151.1350,84.7200
151.1350,86.3200
Z" /> 
<circle cx="157.9550" cy="85.5200" r="0.8000" /> 
<path style="fill:#000000; fill-opacity:1.0000; stroke:none;fill-rule:evenodd;"
d="M 244.2628,34.8820
242.7388,34.8820
242.7388,33.3580
244.2628,33.3580
Z" /> 
<circle cx="243.5000" cy="31.5800" r="0.7620" /> 
<circle cx="243.5000" cy="29.0400" r="0.7620" /> 
<circle cx="243.5000" cy="26.5000" r="0.7620" /> 
<path style="fill:#000000; fill-opacity:1.0000; stroke:none;fill-rule:evenodd;"
d="M 117.1950,91.3600
117.1950,88.8600
119.7450,88.8600
119.7450,91.3600
Z" /> 
<path style="fill:#000000; fill-opacity:1.0000; stroke:none;fill-rule:evenodd;"
d="M 103.3450,88.8200
103.3450,86.3200
105.8950,86.3200
105.8950,88.8200
Z" /> 
<path style="fill:#000000; fill-opacity:1.0000; stroke:none;fill-rule:evenodd;"
d="M 81.9350,139.8100
81.9350,137.3100
84.4850,137.3100
84.4850,139.8100
Z" /> 
<path style="fill:#000000; fill-opacity:1.0000; stroke:none;fill-rule:evenodd;"
d="M 68.0850,137.2700
68.0850,134.7700
70.6350,134.7700
70.6350,137.2700
Z" /> 
<path style="fill:#000000; fill-opacity:1.0000; stroke:none;fill-rule:evenodd;"
d="M 160.3050,96.9700
160.3050,95.3700
161.9050,95.3700
161.9050,96.9700
Z" /> 
<circle cx="168.7250" cy="96.1700" r="0.8000" /> 
<path style="fill:#000000; fill-opacity:1.0000; stroke:none;fill-rule:evenodd;"
d="M 99.5650,123.6600
99.5650,121.1600
102.1150,121.1600
102.1150,123.6600
Z" /> 
<path style="fill:#000000; fill-opacity:1.0000; stroke:none;fill-rule:evenodd;"
d="M 85.7150,121.1200
85.7150,118.6200
88.2650,118.6200
88.2650,121.1200
Z" /> 
<path style="fill:#000000; fill-opacity:1.0000; stroke:none;fill-rule:evenodd;"
d="M 138.7650,93.4200
138.7650,91.8200
140.3650,91.8200
140.3650,93.4200
Z" /> 
<circle cx="147.1850" cy="92.6200" r="0.8000" /> 
<path style="fill:#000000; fill-opacity:1.0000; stroke:none;fill-rule:evenodd;"
d="M 149.5350,89.8700
149.5350,88.2700
151.1350,88.2700
151.1350,89.8700
Z" /> 
<circle cx="157.9550" cy="89.0700" r="0.8000" /> 
<path style="fill:#000000; fill-opacity:1.0000; stroke:none;fill-rule:evenodd;"
d="M 134.8250,59.0600
134.8250,56.5600
137.3750,56.5600
137.3750,59.0600
Z" /> 
<path style="fill:#000000; fill-opacity:1.0000; stroke:none;fill-rule:evenodd;"
d="M 120.9750,56.5200
120.9750,54.0200
123.5250,54.0200
123.5250,56.5200
Z" /> 
<path style="fill:#000000; fill-opacity:1.0000; stroke:none;fill-rule:evenodd;"
d="M 160.3050,93.4200
160.3050,91.8200
161.9050,91.8200
161.9050,93.4200
Z" /> 
<circle cx="168.7250" cy="92.6200" r="0.8000" /> 
<path style="fill:#000000; fill-opacity:1.0000; stroke:none;fill-rule:evenodd;"
d="M 160.3050,86.3200
160.3050,84.7200
161.9050,84.7200
161.9050,86.3200
Z" /> 
<circle cx="168.7250" cy="85.5200" r="0.8000" /> 
<path style="fill:#000000; fill-opacity:1.0000; stroke:none;fill-rule:evenodd;"
d="M 138.7650,107.6200
138.7650,106.0200
140.3650,106.0200
140.3650,107.6200
Z" /> 
<circle cx="147.1850" cy="106.8200" r="0.8000" /> 
<path style="fill:#000000; fill-opacity:1.0000; stroke:none;fill-rule:evenodd;"
d="M 149.5350,107.6200
149.5350,106.0200
151.1350,106.0200
151.1350,107.6200
Z" /> 
<circle cx="157.9550" cy="106.8200" r="0.8000" /> 
<path style="fill:#000000; fill-opacity:1.0000; stroke:none;fill-rule:evenodd;"
d="M 81.9350,123.6600
81.9350,121.1600
84.4850,121.1600
84.4850,123.6600
Z" /> 
<path style="fill:#000000; fill-opacity:1.0000; stroke:none;fill-rule:evenodd;"
d="M 68.0850,121.1200
68.0850,118.6200
70.6350,118.6200
70.6350,121.1200
Z" /> 
<path style="fill:#000000; fill-opacity:1.0000; stroke:none;fill-rule:evenodd;"
d="M 160.3050,104.0700
160.3050,102.4700
161.9050,102.4700
161.9050,104.0700
Z" /> 
<circle cx="168.7250" cy="103.2700" r="0.8000" /> 
<path style="fill:#000000; fill-opacity:1.0000; stroke:none;fill-rule:evenodd;"
d="M 149.5350,96.9700
149.5350,95.3700
151.1350,95.3700
151.1350,96.9700
Z" /> 
<circle cx="157.9550" cy="96.1700" r="0.8000" /> 
<path style="fill:#000000; fill-opacity:1.0000; stroke:none;fill-rule:evenodd;"
d="M 160.3050,107.6200
160.3050,106.0200
161.9050,106.0200
161.9050,107.6200
Z" /> 
<circle cx="168.7250" cy="106.8200" r="0.8000" /> 
<path style="fill:#000000; fill-opacity:1.0000; stroke:none;fill-rule:evenodd;"
d="M 117.1950,123.6600
117.1950,121.1600
119.7450,121.1600
119.7450,123.6600
Z" /> 
<path style="fill:#000000; fill-opacity:1.0000; stroke:none;fill-rule:evenodd;"
d="M 103.3450,121.1200
103.3450,118.6200
105.8950,118.6200
105.8950,121.1200
Z" /> 
<path style="fill:#000000; fill-opacity:1.0000; stroke:none;fill-rule:evenodd;"
d="M 160.3050,89.8700
160.3050,88.2700
161.9050,88.2700
161.9050,89.8700
Z" /> 
<circle cx="168.7250" cy="89.0700" r="0.8000" /> 
<path style="fill:#000000; fill-opacity:1.0000; stroke:none;fill-rule:evenodd;"
d="M 99.5650,107.5100
99.5650,105.0100
102.1150,105.0100
102.1150,107.5100
Z" /> 
<path style="fill:#000000; fill-opacity:1.0000; stroke:none;fill-rule:evenodd;"
d="M 85.7150,104.9700
85.7150,102.4700
88.2650,102.4700
88.2650,104.9700
Z" /> 
<path style="fill:#000000; fill-opacity:1.0000; stroke:none;fill-rule:evenodd;"
d="M 136.2250,36.2500
136.2250,33.7500
138.7750,33.7500
138.7750,36.2500
Z" /> 
<path style="fill:#000000; fill-opacity:1.0000; stroke:none;fill-rule:evenodd;"
d="M 122.3750,33.7100
122.3750,31.2100
124.9250,31.2100
124.9250,33.7100
Z" /> 
<circle cx="144.7600" cy="49.0400" r="0.9000" /> 
</g>
<g style="fill:#000000; fill-opacity:1.0000; stroke:none;">
<circle cx="144.7600" cy="51.5800" r="0.9000" /> 
<path style="fill:#000000; fill-opacity:1.0000; stroke:none;fill-rule:evenodd;"
d="M 143.8600,53.6700
143.8678,53.5863
143.9121,53.4597
143.9918,53.3518
144.0997,53.2721
144.2263,53.2278
144.3100,53.2200
145.2100,53.2200
145.2937,53.2278
145.4203,53.2721
145.5282,53.3518
145.6079,53.4597
145.6522,53.5863
145.6600,53.6700
145.6600,54.5700
145.6522,54.6537
145.6079,54.7803
145.5282,54.8882
145.4203,54.9679
145.2937,55.0122
145.2100,55.0200
144.3100,55.0200
144.2263,55.0122
144.0997,54.9679
143.9918,54.8882
143.9121,54.7803
143.8678,54.6537
143.8600,54.5700
Z" /> 
<path style="fill:#000000; fill-opacity:1.0000; stroke:none;fill-rule:evenodd;"
d="M 143.8600,56.2100
143.8678,56.1263
143.9121,55.9997
143.9918,55.8918
144.0997,55.8121
144.2263,55.7678
144.3100,55.7600
145.2100,55.7600
145.2937,55.7678
145.4203,55.8121
145.5282,55.8918
145.6079,55.9997
145.6522,56.1263
145.6600,56.2100
145.6600,57.1100
145.6522,57.1937
145.6079,57.3203
145.5282,57.4282
145.4203,57.5079
145.2937,57.5522
145.2100,57.5600
144.3100,57.5600
144.2263,57.5522
144.0997,57.5079
143.9918,57.4282
143.9121,57.3203
143.8678,57.1937
143.8600,57.1100
Z" /> 
</g>
<g style="fill:#000000; fill-opacity:1.0000; stroke:none;">
<circle cx="144.7600" cy="59.2000" r="0.9000" /> 
</g>
<g style="fill:#000000; fill-opacity:1.0000; stroke:none;">
<circle cx="144.7600" cy="61.7400" r="0.9000" /> 
</g>
<g style="fill:#000000; fill-opacity:1.0000; stroke:none;">
<circle cx="144.7600" cy="64.2800" r="0.9000" /> 
</g>
<g style="fill:#000000; fill-opacity:1.0000; stroke:none;">
<circle cx="144.7600" cy="66.8200" r="0.9000" /> 
</g>
<g style="fill:#000000; fill-opacity:1.0000; stroke:none;">
<circle cx="144.7600" cy="69.3600" r="0.9000" /> 
</g>
<g style="fill:#000000; fill-opacity:1.0000; stroke:none;">
<circle cx="144.7600" cy="71.9000" r="0.9000" /> 
</g>
<g style="fill:#000000; fill-opacity:1.0000; stroke:none;">
<circle cx="144.7600" cy="74.4400" r="0.9000" /> 
</g>
<g style="fill:#000000; fill-opacity:1.0000; stroke:none;">
<circle cx="144.7600" cy="76.9800" r="0.9000" /> 
</g>
<g style="fill:none; 
stroke:#000000; stroke-width:1.8000; stroke-opacity:1; 
stroke-linecap:round; stroke-linejoin:round;">
<path d="M160.0000 46.5000
L160.0000 49.0400
" />
<path style="fill:#000000; fill-opacity:1.0000; stroke:none;fill-rule:evenodd;"
d="M 159.1000,51.1300
159.1078,51.0463
159.1521,50.9197
159.2318,50.8118
159.3397,50.7321
159.4663,50.6878
159.5500,50.6800
160.4500,50.6800
160.5337,50.6878
160.6603,50.7321
160.7682,50.8118
160.8479,50.9197
160.8922,51.0463
160.9000,51.1300
160.9000,52.0300
160.8922,52.1137
160.8479,52.2403
160.7682,52.3482
160.6603,52.4279
160.5337,52.4722
160.4500,52.4800
159.5500,52.4800
159.4663,52.4722
159.3397,52.4279
159.2318,52.3482
159.1521,52.2403
159.1078,52.1137
159.1000,52.0300
Z" /> 
</g>
<g style="fill:#000000; fill-opacity:1.0000; stroke:none;">
<circle cx="160.0000" cy="54.1200" r="0.9000" /> 
</g>
<g style="fill:#000000; fill-opacity:1.0000; stroke:none;">
<circle cx="160.0000" cy="56.6600" r="0.9000" /> 
</g>
<g style="fill:#000000; fill-opacity:1.0000; stroke:none;">
<circle cx="160.0000" cy="59.2000" r="0.9000" /> 
</g>
<g style="fill:#000000; fill-opacity:1.0000; stroke:none;">
<circle cx="160.0000" cy="61.7400" r="0.9000" /> 
</g>
<g style="fill:#000000; fill-opacity:1.0000; stroke:none;">
<circle cx="160.0000" cy="64.2800" r="0.9000" /> 
</g>
<g style="fill:#000000; fill-opacity:1.0000; stroke:none;">
<circle cx="160.0000" cy="66.8200" r="0.9000" /> 
</g>
<g style="fill:#000000; fill-opacity:1.0000; stroke:none;">
<circle cx="160.0000" cy="69.3600" r="0.9000" /> 
</g>
<g style="fill:#000000; fill-opacity:1.0000; stroke:none;">
<circle cx="160.0000" cy="71.9000" r="0.9000" /> 
</g>
<g style="fill:#000000; fill-opacity:1.0000; stroke:none;">
<circle cx="160.0000" cy="74.4400" r="0.9000" /> 
</g>
<g style="fill:#000000; fill-opacity:1.0000; stroke:none;">
<circle cx="160.0000" cy="76.9800" r="0.9000" /> 
</g>
<g style="fill:#000000; fill-opacity:1.0000; stroke:none;">
<circle cx="147.8334" cy="73.8863" r="0.9000" /> 
</g>
<g style="fill:#000000; fill-opacity:1.0000; stroke:none;">
<circle cx="150.3734" cy="73.8863" r="0.9000" /> 
</g>
<g style="fill:#000000; fill-opacity:1.0000; stroke:none;">
<circle cx="152.9134" cy="73.8863" r="0.9000" /> 
<path style="fill:#000000; fill-opacity:1.0000; stroke:none;fill-rule:evenodd;"
d="M 143.8600,46.0500
143.8678,45.9663
143.9121,45.8397
143.9918,45.7318
144.0997,45.6521
144.2263,45.6078
144.3100,45.6000
145.2100,45.6000
145.2937,45.6078
145.4203,45.6521
145.5282,45.7318
145.6079,45.8397
145.6522,45.9663
145.6600,46.0500
145.6600,46.9500
145.6522,47.0337
145.6079,47.1603
145.5282,47.2682
145.4203,47.3479
145.2937,47.3922
145.2100,47.4000
144.3100,47.4000
144.2263,47.3922
144.0997,47.3479
143.9918,47.2682
143.9121,47.1603
143.8678,47.0337
143.8600,46.9500
Z" /> 
</g>
<g style="fill:#000000; fill-opacity:1.0000; stroke:none;">
<circle cx="160.0000" cy="46.5000" r="0.9000" /> 
<path style="fill:#000000; fill-opacity:1.0000; stroke:none;fill-rule:evenodd;"
d="M 134.8250,91.3600
134.8250,88.8600
137.3750,88.8600
137.3750,91.3600
Z" /> 
<path style="fill:#000000; fill-opacity:1.0000; stroke:none;fill-rule:evenodd;"
d="M 120.9750,88.8200
120.9750,86.3200
123.5250,86.3200
123.5250,88.8200
Z" /> 
</g> 
</svg>
