  0
SECTION
  2
HEADER
  9
$ANGBASE
  50
0.0
  9
$ANGDIR
  70
1
  9
$MEASUREMENT
  70
0
  0
ENDSEC
  0
SECTION
  2
TABLES
  0
TABLE
  2
LTYPE
  70
4
  0
LTYPE
  5
40F
  2
CONTINUOUS
  70
0
  3
Solid line
  72
65
  73
0
  40
0.0
  0
LTYPE
  5
410
  2
DASHDOT
 70
0
  3
Dash Dot ____ _ ____ _
 72
65
 73
4
 40
2.0
 49
1.25
 49
-0.25
 49
0.25
 49
-0.25
  0
LTYPE
  5
411
  2
DASHED
 70
0
  3
Dashed __ __ __ __ __
 72
65
 73
2
 40
0.75
 49
0.5
 49
-0.25
  0
LTYPE
  5
43B
  2
DOTTED
 70
0
  3
Dotted .  .  .  .
 72
65
 73
2
 40
0.2
 49
0.0
 49
-0.2
  0
ENDTAB
  0
TABLE
  2
STYLE
  70
4
  0
STYLE
  2
KICAD
  70
0
  40
0
  41
1
  42
1
  50
0
  71
0
  3
isocp.shx
  0
STYLE
  2
KICADB
  70
0
  40
0
  41
1
  42
1
  50
0
  71
0
  3
isocp.shx
  0
STYLE
  2
KICADI
  70
0
  40
0
  41
1
  42
1
  50
15
  71
0
  3
isocp.shx
  0
STYLE
  2
KICADBI
  70
0
  40
0
  41
1
  42
1
  50
15
  71
0
  3
isocp.shx
  0
ENDTAB
  0
TABLE
  2
LAYER
  70
1
  0
LAYER
  2
BLACK
  70
0
  62
7
  6
CONTINUOUS
  0
ENDTAB
  0
ENDSEC
  0
SECTION
  2
ENTITIES
0
LINE
8
BLACK
6
CONTINUOUS
10
3.3261811023622045
20
-5.504330708661417
11
3.2257874015748031
21
-5.504330708661417
0
LINE
8
BLACK
6
CONTINUOUS
10
3.2257874015748031
20
-5.504330708661417
11
3.2257874015748031
21
-5.4059055118110235
0
LINE
8
BLACK
6
CONTINUOUS
10
3.2257874015748031
20
-5.4059055118110235
11
3.3261811023622045
21
-5.4059055118110235
0
LINE
8
BLACK
6
CONTINUOUS
10
3.3261811023622045
20
-5.4059055118110235
11
3.3261811023622045
21
-5.504330708661417
0
LINE
8
BLACK
6
CONTINUOUS
10
4.0202755905511811
20
-5.504330708661417
11
3.9198818897637793
21
-5.504330708661417
0
LINE
8
BLACK
6
CONTINUOUS
10
3.9198818897637793
20
-5.504330708661417
11
3.9198818897637793
21
-5.4059055118110235
0
LINE
8
BLACK
6
CONTINUOUS
10
3.9198818897637793
20
-5.4059055118110235
11
4.0202755905511811
21
-5.4059055118110235
0
LINE
8
BLACK
6
CONTINUOUS
10
4.0202755905511811
20
-5.4059055118110235
11
4.0202755905511811
21
-5.504330708661417
0
LINE
8
BLACK
6
CONTINUOUS
10
4.7143700787401572
20
-5.504330708661417
11
4.6139763779527554
21
-5.504330708661417
0
LINE
8
BLACK
6
CONTINUOUS
10
4.6139763779527554
20
-5.504330708661417
11
4.6139763779527554
21
-5.4059055118110235
0
LINE
8
BLACK
6
CONTINUOUS
10
4.6139763779527554
20
-5.4059055118110235
11
4.7143700787401572
21
-5.4059055118110235
0
LINE
8
BLACK
6
CONTINUOUS
10
4.7143700787401572
20
-5.4059055118110235
11
4.7143700787401572
21
-5.504330708661417
0
LINE
8
BLACK
6
CONTINUOUS
10
2.7809055118110235
20
-5.4043307086614174
11
2.6805118110236221
21
-5.4043307086614174
0
LINE
8
BLACK
6
CONTINUOUS
10
2.6805118110236221
20
-5.4043307086614174
11
2.6805118110236221
21
-5.3059055118110239
0
LINE
8
BLACK
6
CONTINUOUS
10
2.6805118110236221
20
-5.3059055118110239
11
2.7809055118110235
21
-5.3059055118110239
0
LINE
8
BLACK
6
CONTINUOUS
10
2.7809055118110235
20
-5.3059055118110239
11
2.7809055118110235
21
-5.4043307086614174
0
LINE
8
BLACK
6
CONTINUOUS
10
3.4750000000000001
20
-5.4043307086614174
11
3.3746062992125982
21
-5.4043307086614174
0
LINE
8
BLACK
6
CONTINUOUS
10
3.3746062992125982
20
-5.4043307086614174
11
3.3746062992125982
21
-5.3059055118110239
0
LINE
8
BLACK
6
CONTINUOUS
10
3.3746062992125982
20
-5.3059055118110239
11
3.4750000000000001
21
-5.3059055118110239
0
LINE
8
BLACK
6
CONTINUOUS
10
3.4750000000000001
20
-5.3059055118110239
11
3.4750000000000001
21
-5.4043307086614174
0
LINE
8
BLACK
6
CONTINUOUS
10
4.1690944881889767
20
-5.4043307086614174
11
4.0687007874015748
21
-5.4043307086614174
0
LINE
8
BLACK
6
CONTINUOUS
10
4.0687007874015748
20
-5.4043307086614174
11
4.0687007874015748
21
-5.3059055118110239
0
LINE
8
BLACK
6
CONTINUOUS
10
4.0687007874015748
20
-5.3059055118110239
11
4.1690944881889767
21
-5.3059055118110239
0
LINE
8
BLACK
6
CONTINUOUS
10
4.1690944881889767
20
-5.3059055118110239
11
4.1690944881889767
21
-5.4043307086614174
0
LINE
8
BLACK
6
CONTINUOUS
10
3.3261811023622045
20
-4.8685039370078735
11
3.2257874015748031
21
-4.8685039370078735
0
LINE
8
BLACK
6
CONTINUOUS
10
3.2257874015748031
20
-4.8685039370078735
11
3.2257874015748031
21
-4.77007874015748
0
LINE
8
BLACK
6
CONTINUOUS
10
3.2257874015748031
20
-4.77007874015748
11
3.3261811023622045
21
-4.77007874015748
0
LINE
8
BLACK
6
CONTINUOUS
10
3.3261811023622045
20
-4.77007874015748
11
3.3261811023622045
21
-4.8685039370078735
0
LINE
8
BLACK
6
CONTINUOUS
10
4.0202755905511811
20
-4.8685039370078735
11
3.9198818897637793
21
-4.8685039370078735
0
LINE
8
BLACK
6
CONTINUOUS
10
3.9198818897637793
20
-4.8685039370078735
11
3.9198818897637793
21
-4.77007874015748
0
LINE
8
BLACK
6
CONTINUOUS
10
3.9198818897637793
20
-4.77007874015748
11
4.0202755905511811
21
-4.77007874015748
0
LINE
8
BLACK
6
CONTINUOUS
10
4.0202755905511811
20
-4.77007874015748
11
4.0202755905511811
21
-4.8685039370078735
0
LINE
8
BLACK
6
CONTINUOUS
10
4.7143700787401572
20
-4.8685039370078735
11
4.6139763779527554
21
-4.8685039370078735
0
LINE
8
BLACK
6
CONTINUOUS
10
4.6139763779527554
20
-4.8685039370078735
11
4.6139763779527554
21
-4.77007874015748
0
LINE
8
BLACK
6
CONTINUOUS
10
4.6139763779527554
20
-4.77007874015748
11
4.7143700787401572
21
-4.77007874015748
0
LINE
8
BLACK
6
CONTINUOUS
10
4.7143700787401572
20
-4.77007874015748
11
4.7143700787401572
21
-4.8685039370078735
0
LINE
8
BLACK
6
CONTINUOUS
10
2.7809055118110235
20
-4.7685039370078739
11
2.6805118110236221
21
-4.7685039370078739
0
LINE
8
BLACK
6
CONTINUOUS
10
2.6805118110236221
20
-4.7685039370078739
11
2.6805118110236221
21
-4.6700787401574804
0
LINE
8
BLACK
6
CONTINUOUS
10
2.6805118110236221
20
-4.6700787401574804
11
2.7809055118110235
21
-4.6700787401574804
0
LINE
8
BLACK
6
CONTINUOUS
10
2.7809055118110235
20
-4.6700787401574804
11
2.7809055118110235
21
-4.7685039370078739
0
LINE
8
BLACK
6
CONTINUOUS
10
3.4750000000000001
20
-4.7685039370078739
11
3.3746062992125982
21
-4.7685039370078739
0
LINE
8
BLACK
6
CONTINUOUS
10
3.3746062992125982
20
-4.7685039370078739
11
3.3746062992125982
21
-4.6700787401574804
0
LINE
8
BLACK
6
CONTINUOUS
10
3.3746062992125982
20
-4.6700787401574804
11
3.4750000000000001
21
-4.6700787401574804
0
LINE
8
BLACK
6
CONTINUOUS
10
3.4750000000000001
20
-4.6700787401574804
11
3.4750000000000001
21
-4.7685039370078739
0
LINE
8
BLACK
6
CONTINUOUS
10
4.1690944881889767
20
-4.7685039370078739
11
4.0687007874015748
21
-4.7685039370078739
0
LINE
8
BLACK
6
CONTINUOUS
10
4.0687007874015748
20
-4.7685039370078739
11
4.0687007874015748
21
-4.6700787401574804
0
LINE
8
BLACK
6
CONTINUOUS
10
4.0687007874015748
20
-4.6700787401574804
11
4.1690944881889767
21
-4.6700787401574804
0
LINE
8
BLACK
6
CONTINUOUS
10
4.1690944881889767
20
-4.6700787401574804
11
4.1690944881889767
21
-4.7685039370078739
0
LINE
8
BLACK
6
CONTINUOUS
10
3.3261811023622045
20
-4.2326771653543309
11
3.2257874015748031
21
-4.2326771653543309
0
LINE
8
BLACK
6
CONTINUOUS
10
3.2257874015748031
20
-4.2326771653543309
11
3.2257874015748031
21
-4.1342519685039365
0
LINE
8
BLACK
6
CONTINUOUS
10
3.2257874015748031
20
-4.1342519685039365
11
3.3261811023622045
21
-4.1342519685039365
0
LINE
8
BLACK
6
CONTINUOUS
10
3.3261811023622045
20
-4.1342519685039365
11
3.3261811023622045
21
-4.2326771653543309
0
LINE
8
BLACK
6
CONTINUOUS
10
4.0202755905511811
20
-4.2326771653543309
11
3.9198818897637793
21
-4.2326771653543309
0
LINE
8
BLACK
6
CONTINUOUS
10
3.9198818897637793
20
-4.2326771653543309
11
3.9198818897637793
21
-4.1342519685039365
0
LINE
8
BLACK
6
CONTINUOUS
10
3.9198818897637793
20
-4.1342519685039365
11
4.0202755905511811
21
-4.1342519685039365
0
LINE
8
BLACK
6
CONTINUOUS
10
4.0202755905511811
20
-4.1342519685039365
11
4.0202755905511811
21
-4.2326771653543309
0
LINE
8
BLACK
6
CONTINUOUS
10
4.7143700787401572
20
-4.2326771653543309
11
4.6139763779527554
21
-4.2326771653543309
0
LINE
8
BLACK
6
CONTINUOUS
10
4.6139763779527554
20
-4.2326771653543309
11
4.6139763779527554
21
-4.1342519685039365
0
LINE
8
BLACK
6
CONTINUOUS
10
4.6139763779527554
20
-4.1342519685039365
11
4.7143700787401572
21
-4.1342519685039365
0
LINE
8
BLACK
6
CONTINUOUS
10
4.7143700787401572
20
-4.1342519685039365
11
4.7143700787401572
21
-4.2326771653543309
0
LINE
8
BLACK
6
CONTINUOUS
10
2.7809055118110235
20
-4.1326771653543304
11
2.6805118110236221
21
-4.1326771653543304
0
LINE
8
BLACK
6
CONTINUOUS
10
2.6805118110236221
20
-4.1326771653543304
11
2.6805118110236221
21
-4.0342519685039369
0
LINE
8
BLACK
6
CONTINUOUS
10
2.6805118110236221
20
-4.0342519685039369
11
2.7809055118110235
21
-4.0342519685039369
0
LINE
8
BLACK
6
CONTINUOUS
10
2.7809055118110235
20
-4.0342519685039369
11
2.7809055118110235
21
-4.1326771653543304
0
LINE
8
BLACK
6
CONTINUOUS
10
3.4750000000000001
20
-4.1326771653543304
11
3.3746062992125982
21
-4.1326771653543304
0
LINE
8
BLACK
6
CONTINUOUS
10
3.3746062992125982
20
-4.1326771653543304
11
3.3746062992125982
21
-4.0342519685039369
0
LINE
8
BLACK
6
CONTINUOUS
10
3.3746062992125982
20
-4.0342519685039369
11
3.4750000000000001
21
-4.0342519685039369
0
LINE
8
BLACK
6
CONTINUOUS
10
3.4750000000000001
20
-4.0342519685039369
11
3.4750000000000001
21
-4.1326771653543304
0
LINE
8
BLACK
6
CONTINUOUS
10
4.1690944881889767
20
-4.1326771653543304
11
4.0687007874015748
21
-4.1326771653543304
0
LINE
8
BLACK
6
CONTINUOUS
10
4.0687007874015748
20
-4.1326771653543304
11
4.0687007874015748
21
-4.0342519685039369
0
LINE
8
BLACK
6
CONTINUOUS
10
4.0687007874015748
20
-4.0342519685039369
11
4.1690944881889767
21
-4.0342519685039369
0
LINE
8
BLACK
6
CONTINUOUS
10
4.1690944881889767
20
-4.0342519685039369
11
4.1690944881889767
21
-4.1326771653543304
0
LINE
8
BLACK
6
CONTINUOUS
10
3.3261811023622045
20
-3.5968503937007874
11
3.2257874015748031
21
-3.5968503937007874
0
LINE
8
BLACK
6
CONTINUOUS
10
3.2257874015748031
20
-3.5968503937007874
11
3.2257874015748031
21
-3.4984251968503934
0
LINE
8
BLACK
6
CONTINUOUS
10
3.2257874015748031
20
-3.4984251968503934
11
3.3261811023622045
21
-3.4984251968503934
0
LINE
8
BLACK
6
CONTINUOUS
10
3.3261811023622045
20
-3.4984251968503934
11
3.3261811023622045
21
-3.5968503937007874
0
LINE
8
BLACK
6
CONTINUOUS
10
4.0202755905511811
20
-3.5968503937007874
11
3.9198818897637793
21
-3.5968503937007874
0
LINE
8
BLACK
6
CONTINUOUS
10
3.9198818897637793
20
-3.5968503937007874
11
3.9198818897637793
21
-3.4984251968503934
0
LINE
8
BLACK
6
CONTINUOUS
10
3.9198818897637793
20
-3.4984251968503934
11
4.0202755905511811
21
-3.4984251968503934
0
LINE
8
BLACK
6
CONTINUOUS
10
4.0202755905511811
20
-3.4984251968503934
11
4.0202755905511811
21
-3.5968503937007874
0
LINE
8
BLACK
6
CONTINUOUS
10
4.7143700787401572
20
-3.5968503937007874
11
4.6139763779527554
21
-3.5968503937007874
0
LINE
8
BLACK
6
CONTINUOUS
10
4.6139763779527554
20
-3.5968503937007874
11
4.6139763779527554
21
-3.4984251968503934
0
LINE
8
BLACK
6
CONTINUOUS
10
4.6139763779527554
20
-3.4984251968503934
11
4.7143700787401572
21
-3.4984251968503934
0
LINE
8
BLACK
6
CONTINUOUS
10
4.7143700787401572
20
-3.4984251968503934
11
4.7143700787401572
21
-3.5968503937007874
0
LINE
8
BLACK
6
CONTINUOUS
10
5.4084645669291334
20
-3.5968503937007874
11
5.3080708661417324
21
-3.5968503937007874
0
LINE
8
BLACK
6
CONTINUOUS
10
5.3080708661417324
20
-3.5968503937007874
11
5.3080708661417324
21
-3.4984251968503934
0
LINE
8
BLACK
6
CONTINUOUS
10
5.3080708661417324
20
-3.4984251968503934
11
5.4084645669291334
21
-3.4984251968503934
0
LINE
8
BLACK
6
CONTINUOUS
10
5.4084645669291334
20
-3.4984251968503934
11
5.4084645669291334
21
-3.5968503937007874
0
LINE
8
BLACK
6
CONTINUOUS
10
2.7809055118110235
20
-3.4968503937007873
11
2.6805118110236221
21
-3.4968503937007873
0
LINE
8
BLACK
6
CONTINUOUS
10
2.6805118110236221
20
-3.4968503937007873
11
2.6805118110236221
21
-3.3984251968503938
0
LINE
8
BLACK
6
CONTINUOUS
10
2.6805118110236221
20
-3.3984251968503938
11
2.7809055118110235
21
-3.3984251968503938
0
LINE
8
BLACK
6
CONTINUOUS
10
2.7809055118110235
20
-3.3984251968503938
11
2.7809055118110235
21
-3.4968503937007873
0
LINE
8
BLACK
6
CONTINUOUS
10
3.4750000000000001
20
-3.4968503937007873
11
3.3746062992125982
21
-3.4968503937007873
0
LINE
8
BLACK
6
CONTINUOUS
10
3.3746062992125982
20
-3.4968503937007873
11
3.3746062992125982
21
-3.3984251968503938
0
LINE
8
BLACK
6
CONTINUOUS
10
3.3746062992125982
20
-3.3984251968503938
11
3.4750000000000001
21
-3.3984251968503938
0
LINE
8
BLACK
6
CONTINUOUS
10
3.4750000000000001
20
-3.3984251968503938
11
3.4750000000000001
21
-3.4968503937007873
0
LINE
8
BLACK
6
CONTINUOUS
10
4.1690944881889767
20
-3.4968503937007873
11
4.0687007874015748
21
-3.4968503937007873
0
LINE
8
BLACK
6
CONTINUOUS
10
4.0687007874015748
20
-3.4968503937007873
11
4.0687007874015748
21
-3.3984251968503938
0
LINE
8
BLACK
6
CONTINUOUS
10
4.0687007874015748
20
-3.3984251968503938
11
4.1690944881889767
21
-3.3984251968503938
0
LINE
8
BLACK
6
CONTINUOUS
10
4.1690944881889767
20
-3.3984251968503938
11
4.1690944881889767
21
-3.4968503937007873
0
LINE
8
BLACK
6
CONTINUOUS
10
4.8631889763779528
20
-3.4968503937007873
11
4.7627952755905509
21
-3.4968503937007873
0
LINE
8
BLACK
6
CONTINUOUS
10
4.7627952755905509
20
-3.4968503937007873
11
4.7627952755905509
21
-3.3984251968503938
0
LINE
8
BLACK
6
CONTINUOUS
10
4.7627952755905509
20
-3.3984251968503938
11
4.8631889763779528
21
-3.3984251968503938
0
LINE
8
BLACK
6
CONTINUOUS
10
4.8631889763779528
20
-3.3984251968503938
11
4.8631889763779528
21
-3.4968503937007873
0
LINE
8
BLACK
6
CONTINUOUS
10
3.3261811023622045
20
-2.9610236220472439
11
3.2257874015748031
21
-2.9610236220472439
0
LINE
8
BLACK
6
CONTINUOUS
10
3.2257874015748031
20
-2.9610236220472439
11
3.2257874015748031
21
-2.8625984251968504
0
LINE
8
BLACK
6
CONTINUOUS
10
3.2257874015748031
20
-2.8625984251968504
11
3.3261811023622045
21
-2.8625984251968504
0
LINE
8
BLACK
6
CONTINUOUS
10
3.3261811023622045
20
-2.8625984251968504
11
3.3261811023622045
21
-2.9610236220472439
0
LINE
8
BLACK
6
CONTINUOUS
10
4.0202755905511811
20
-2.9610236220472439
11
3.9198818897637793
21
-2.9610236220472439
0
LINE
8
BLACK
6
CONTINUOUS
10
3.9198818897637793
20
-2.9610236220472439
11
3.9198818897637793
21
-2.8625984251968504
0
LINE
8
BLACK
6
CONTINUOUS
10
3.9198818897637793
20
-2.8625984251968504
11
4.0202755905511811
21
-2.8625984251968504
0
LINE
8
BLACK
6
CONTINUOUS
10
4.0202755905511811
20
-2.8625984251968504
11
4.0202755905511811
21
-2.9610236220472439
0
LINE
8
BLACK
6
CONTINUOUS
10
4.7143700787401572
20
-2.9610236220472439
11
4.6139763779527554
21
-2.9610236220472439
0
LINE
8
BLACK
6
CONTINUOUS
10
4.6139763779527554
20
-2.9610236220472439
11
4.6139763779527554
21
-2.8625984251968504
0
LINE
8
BLACK
6
CONTINUOUS
10
4.6139763779527554
20
-2.8625984251968504
11
4.7143700787401572
21
-2.8625984251968504
0
LINE
8
BLACK
6
CONTINUOUS
10
4.7143700787401572
20
-2.8625984251968504
11
4.7143700787401572
21
-2.9610236220472439
0
LINE
8
BLACK
6
CONTINUOUS
10
5.4084645669291334
20
-2.9610236220472439
11
5.3080708661417324
21
-2.9610236220472439
0
LINE
8
BLACK
6
CONTINUOUS
10
5.3080708661417324
20
-2.9610236220472439
11
5.3080708661417324
21
-2.8625984251968504
0
LINE
8
BLACK
6
CONTINUOUS
10
5.3080708661417324
20
-2.8625984251968504
11
5.4084645669291334
21
-2.8625984251968504
0
LINE
8
BLACK
6
CONTINUOUS
10
5.4084645669291334
20
-2.8625984251968504
11
5.4084645669291334
21
-2.9610236220472439
0
LINE
8
BLACK
6
CONTINUOUS
10
2.7809055118110235
20
-2.8610236220472438
11
2.6805118110236221
21
-2.8610236220472438
0
LINE
8
BLACK
6
CONTINUOUS
10
2.6805118110236221
20
-2.8610236220472438
11
2.6805118110236221
21
-2.7625984251968503
0
LINE
8
BLACK
6
CONTINUOUS
10
2.6805118110236221
20
-2.7625984251968503
11
2.7809055118110235
21
-2.7625984251968503
0
LINE
8
BLACK
6
CONTINUOUS
10
2.7809055118110235
20
-2.7625984251968503
11
2.7809055118110235
21
-2.8610236220472438
0
LINE
8
BLACK
6
CONTINUOUS
10
3.4750000000000001
20
-2.8610236220472438
11
3.3746062992125982
21
-2.8610236220472438
0
LINE
8
BLACK
6
CONTINUOUS
10
3.3746062992125982
20
-2.8610236220472438
11
3.3746062992125982
21
-2.7625984251968503
0
LINE
8
BLACK
6
CONTINUOUS
10
3.3746062992125982
20
-2.7625984251968503
11
3.4750000000000001
21
-2.7625984251968503
0
LINE
8
BLACK
6
CONTINUOUS
10
3.4750000000000001
20
-2.7625984251968503
11
3.4750000000000001
21
-2.8610236220472438
0
LINE
8
BLACK
6
CONTINUOUS
10
4.1690944881889767
20
-2.8610236220472438
11
4.0687007874015748
21
-2.8610236220472438
0
LINE
8
BLACK
6
CONTINUOUS
10
4.0687007874015748
20
-2.8610236220472438
11
4.0687007874015748
21
-2.7625984251968503
0
LINE
8
BLACK
6
CONTINUOUS
10
4.0687007874015748
20
-2.7625984251968503
11
4.1690944881889767
21
-2.7625984251968503
0
LINE
8
BLACK
6
CONTINUOUS
10
4.1690944881889767
20
-2.7625984251968503
11
4.1690944881889767
21
-2.8610236220472438
0
LINE
8
BLACK
6
CONTINUOUS
10
4.8631889763779528
20
-2.8610236220472438
11
4.7627952755905509
21
-2.8610236220472438
0
LINE
8
BLACK
6
CONTINUOUS
10
4.7627952755905509
20
-2.8610236220472438
11
4.7627952755905509
21
-2.7625984251968503
0
LINE
8
BLACK
6
CONTINUOUS
10
4.7627952755905509
20
-2.7625984251968503
11
4.8631889763779528
21
-2.7625984251968503
0
LINE
8
BLACK
6
CONTINUOUS
10
4.8631889763779528
20
-2.7625984251968503
11
4.8631889763779528
21
-2.8610236220472438
0
LINE
8
BLACK
6
CONTINUOUS
10
3.3261811023622045
20
-2.3251968503937008
11
3.2257874015748031
21
-2.3251968503937008
0
LINE
8
BLACK
6
CONTINUOUS
10
3.2257874015748031
20
-2.3251968503937008
11
3.2257874015748031
21
-2.2267716535433069
0
LINE
8
BLACK
6
CONTINUOUS
10
3.2257874015748031
20
-2.2267716535433069
11
3.3261811023622045
21
-2.2267716535433069
0
LINE
8
BLACK
6
CONTINUOUS
10
3.3261811023622045
20
-2.2267716535433069
11
3.3261811023622045
21
-2.3251968503937008
0
LINE
8
BLACK
6
CONTINUOUS
10
4.0202755905511811
20
-2.3251968503937008
11
3.9198818897637793
21
-2.3251968503937008
0
LINE
8
BLACK
6
CONTINUOUS
10
3.9198818897637793
20
-2.3251968503937008
11
3.9198818897637793
21
-2.2267716535433069
0
LINE
8
BLACK
6
CONTINUOUS
10
3.9198818897637793
20
-2.2267716535433069
11
4.0202755905511811
21
-2.2267716535433069
0
LINE
8
BLACK
6
CONTINUOUS
10
4.0202755905511811
20
-2.2267716535433069
11
4.0202755905511811
21
-2.3251968503937008
0
LINE
8
BLACK
6
CONTINUOUS
10
4.7143700787401572
20
-2.3251968503937008
11
4.6139763779527554
21
-2.3251968503937008
0
LINE
8
BLACK
6
CONTINUOUS
10
4.6139763779527554
20
-2.3251968503937008
11
4.6139763779527554
21
-2.2267716535433069
0
LINE
8
BLACK
6
CONTINUOUS
10
4.6139763779527554
20
-2.2267716535433069
11
4.7143700787401572
21
-2.2267716535433069
0
LINE
8
BLACK
6
CONTINUOUS
10
4.7143700787401572
20
-2.2267716535433069
11
4.7143700787401572
21
-2.3251968503937008
0
LINE
8
BLACK
6
CONTINUOUS
10
5.4084645669291334
20
-2.3251968503937008
11
5.3080708661417324
21
-2.3251968503937008
0
LINE
8
BLACK
6
CONTINUOUS
10
5.3080708661417324
20
-2.3251968503937008
11
5.3080708661417324
21
-2.2267716535433069
0
LINE
8
BLACK
6
CONTINUOUS
10
5.3080708661417324
20
-2.2267716535433069
11
5.4084645669291334
21
-2.2267716535433069
0
LINE
8
BLACK
6
CONTINUOUS
10
5.4084645669291334
20
-2.2267716535433069
11
5.4084645669291334
21
-2.3251968503937008
0
LINE
8
BLACK
6
CONTINUOUS
10
2.7809055118110235
20
-2.2251968503937007
11
2.6805118110236221
21
-2.2251968503937007
0
LINE
8
BLACK
6
CONTINUOUS
10
2.6805118110236221
20
-2.2251968503937007
11
2.6805118110236221
21
-2.1267716535433072
0
LINE
8
BLACK
6
CONTINUOUS
10
2.6805118110236221
20
-2.1267716535433072
11
2.7809055118110235
21
-2.1267716535433072
0
LINE
8
BLACK
6
CONTINUOUS
10
2.7809055118110235
20
-2.1267716535433072
11
2.7809055118110235
21
-2.2251968503937007
0
LINE
8
BLACK
6
CONTINUOUS
10
3.4750000000000001
20
-2.2251968503937007
11
3.3746062992125982
21
-2.2251968503937007
0
LINE
8
BLACK
6
CONTINUOUS
10
3.3746062992125982
20
-2.2251968503937007
11
3.3746062992125982
21
-2.1267716535433072
0
LINE
8
BLACK
6
CONTINUOUS
10
3.3746062992125982
20
-2.1267716535433072
11
3.4750000000000001
21
-2.1267716535433072
0
LINE
8
BLACK
6
CONTINUOUS
10
3.4750000000000001
20
-2.1267716535433072
11
3.4750000000000001
21
-2.2251968503937007
0
LINE
8
BLACK
6
CONTINUOUS
10
4.1690944881889767
20
-2.2251968503937007
11
4.0687007874015748
21
-2.2251968503937007
0
LINE
8
BLACK
6
CONTINUOUS
10
4.0687007874015748
20
-2.2251968503937007
11
4.0687007874015748
21
-2.1267716535433072
0
LINE
8
BLACK
6
CONTINUOUS
10
4.0687007874015748
20
-2.1267716535433072
11
4.1690944881889767
21
-2.1267716535433072
0
LINE
8
BLACK
6
CONTINUOUS
10
4.1690944881889767
20
-2.1267716535433072
11
4.1690944881889767
21
-2.2251968503937007
0
LINE
8
BLACK
6
CONTINUOUS
10
4.8631889763779528
20
-2.2251968503937007
11
4.7627952755905509
21
-2.2251968503937007
0
LINE
8
BLACK
6
CONTINUOUS
10
4.7627952755905509
20
-2.2251968503937007
11
4.7627952755905509
21
-2.1267716535433072
0
LINE
8
BLACK
6
CONTINUOUS
10
4.7627952755905509
20
-2.1267716535433072
11
4.8631889763779528
21
-2.1267716535433072
0
LINE
8
BLACK
6
CONTINUOUS
10
4.8631889763779528
20
-2.1267716535433072
11
4.8631889763779528
21
-2.2251968503937007
0
LINE
8
BLACK
6
CONTINUOUS
10
5.4635826771653546
20
-1.4271653543307086
11
5.3631889763779528
21
-1.4271653543307086
0
LINE
8
BLACK
6
CONTINUOUS
10
5.3631889763779528
20
-1.4271653543307086
11
5.3631889763779528
21
-1.3287401574803148
0
LINE
8
BLACK
6
CONTINUOUS
10
5.3631889763779528
20
-1.3287401574803148
11
5.4635826771653546
21
-1.3287401574803148
0
LINE
8
BLACK
6
CONTINUOUS
10
5.4635826771653546
20
-1.3287401574803148
11
5.4635826771653546
21
-1.4271653543307086
0
LINE
8
BLACK
6
CONTINUOUS
10
4.9183070866141732
20
-1.3271653543307087
11
4.8179133858267713
21
-1.3271653543307087
0
LINE
8
BLACK
6
CONTINUOUS
10
4.8179133858267713
20
-1.3271653543307087
11
4.8179133858267713
21
-1.228740157480315
0
LINE
8
BLACK
6
CONTINUOUS
10
4.8179133858267713
20
-1.228740157480315
11
4.9183070866141732
21
-1.228740157480315
0
LINE
8
BLACK
6
CONTINUOUS
10
4.9183070866141732
20
-1.228740157480315
11
4.9183070866141732
21
-1.3271653543307087
  0
ENDSEC
  0
EOF
