<?xml version="1.0" standalone="no"?>
 <!DOCTYPE svg PUBLIC "-//W3C//DTD SVG 1.1//EN" 
 "http://www.w3.org/Graphics/SVG/1.1/DTD/svg11.dtd"> 
<svg
  xmlns:svg="http://www.w3.org/2000/svg"
  xmlns="http://www.w3.org/2000/svg"
  xmlns:xlink="http://www.w3.org/1999/xlink"
  version="1.1"
  width="297.0022mm" height="210.0072mm" viewBox="0.0000 0.0000 297.0022 210.0072">
<title>SVG Image created as V3-F_Mask.svg date 2025/07/21 07:58:33 </title>
  <desc>Image generated by PCBNEW </desc>
<g style="fill:#000000; fill-opacity:1.0000;stroke:#000000; stroke-opacity:1.0000;
stroke-linecap:round; stroke-linejoin:round;"
 transform="translate(0 0) scale(1 1)">
</g>
<g style="fill:#000000; fill-opacity:1.0000; stroke:none;">
<circle cx="71.8400" cy="52.7300" r="0.8509" /> 
</g>
<g style="fill:#000000; fill-opacity:1.0000; stroke:none;">
<circle cx="73.1100" cy="50.1900" r="1.5000" /> 
</g>
<g style="fill:#000000; fill-opacity:1.0000; stroke:none;">
<circle cx="73.1100" cy="55.2700" r="1.5000" /> 
</g>
<g style="fill:#000000; fill-opacity:1.0000; stroke:none;">
<circle cx="76.9200" cy="52.7300" r="1.9939" /> 
</g>
<g style="fill:#000000; fill-opacity:1.0000; stroke:none;">
<circle cx="79.4600" cy="47.6500" r="1.5000" /> 
</g>
<g style="fill:#000000; fill-opacity:1.0000; stroke:none;">
<circle cx="79.4600" cy="57.8100" r="1.5000" /> 
</g>
<g style="fill:#000000; fill-opacity:1.0000; stroke:none;">
<circle cx="82.0000" cy="52.7300" r="0.8509" /> 
<path style="fill:#000000; fill-opacity:1.0000; stroke:none;fill-rule:evenodd;"
d="M 81.9350,59.0600
81.9350,56.5600
84.4850,56.5600
84.4850,59.0600
Z" /> 
<path style="fill:#000000; fill-opacity:1.0000; stroke:none;fill-rule:evenodd;"
d="M 68.0850,56.5200
68.0850,54.0200
70.6350,54.0200
70.6350,56.5200
Z" /> 
<path style="fill:#000000; fill-opacity:1.0000; stroke:none;fill-rule:evenodd;"
d="M 138.7650,86.3200
138.7650,84.7200
140.3650,84.7200
140.3650,86.3200
Z" /> 
</g>
<g style="fill:#000000; fill-opacity:1.0000; stroke:none;">
<circle cx="147.1850" cy="85.5200" r="0.8000" /> 
<path style="fill:#000000; fill-opacity:1.0000; stroke:none;fill-rule:evenodd;"
d="M 149.5350,104.0700
149.5350,102.4700
151.1350,102.4700
151.1350,104.0700
Z" /> 
<circle cx="157.9550" cy="103.2700" r="0.8000" /> 
<circle cx="89.4700" cy="133.4800" r="0.8509" /> 
</g>
<g style="fill:#000000; fill-opacity:1.0000; stroke:none;">
<circle cx="90.7400" cy="130.9400" r="1.5000" /> 
</g>
<g style="fill:#000000; fill-opacity:1.0000; stroke:none;">
<circle cx="90.7400" cy="136.0200" r="1.5000" /> 
</g>
<g style="fill:#000000; fill-opacity:1.0000; stroke:none;">
<circle cx="94.5500" cy="133.4800" r="1.9939" /> 
</g>
<g style="fill:#000000; fill-opacity:1.0000; stroke:none;">
<circle cx="97.0900" cy="128.4000" r="1.5000" /> 
</g>
<g style="fill:#000000; fill-opacity:1.0000; stroke:none;">
<circle cx="97.0900" cy="138.5600" r="1.5000" /> 
</g>
<g style="fill:#000000; fill-opacity:1.0000; stroke:none;">
<circle cx="99.6300" cy="133.4800" r="0.8509" /> 
<path style="fill:#000000; fill-opacity:1.0000; stroke:none;fill-rule:evenodd;"
d="M 99.5650,139.8100
99.5650,137.3100
102.1150,137.3100
102.1150,139.8100
Z" /> 
<path style="fill:#000000; fill-opacity:1.0000; stroke:none;fill-rule:evenodd;"
d="M 85.7150,137.2700
85.7150,134.7700
88.2650,134.7700
88.2650,137.2700
Z" /> 
<path style="fill:#000000; fill-opacity:1.0000; stroke:none;fill-rule:evenodd;"
d="M 149.5350,100.5200
149.5350,98.9200
151.1350,98.9200
151.1350,100.5200
Z" /> 
</g>
<g style="fill:#000000; fill-opacity:1.0000; stroke:none;">
<circle cx="157.9550" cy="99.7200" r="0.8000" /> 
<path style="fill:#000000; fill-opacity:1.0000; stroke:none;fill-rule:evenodd;"
d="M 138.7650,96.9700
138.7650,95.3700
140.3650,95.3700
140.3650,96.9700
Z" /> 
<circle cx="147.1850" cy="96.1700" r="0.8000" /> 
<circle cx="107.1000" cy="52.7300" r="0.8509" /> 
</g>
<g style="fill:#000000; fill-opacity:1.0000; stroke:none;">
<circle cx="108.3700" cy="50.1900" r="1.5000" /> 
</g>
<g style="fill:#000000; fill-opacity:1.0000; stroke:none;">
<circle cx="108.3700" cy="55.2700" r="1.5000" /> 
</g>
<g style="fill:#000000; fill-opacity:1.0000; stroke:none;">
<circle cx="112.1800" cy="52.7300" r="1.9939" /> 
</g>
<g style="fill:#000000; fill-opacity:1.0000; stroke:none;">
<circle cx="114.7200" cy="47.6500" r="1.5000" /> 
</g>
<g style="fill:#000000; fill-opacity:1.0000; stroke:none;">
<circle cx="114.7200" cy="57.8100" r="1.5000" /> 
</g>
<g style="fill:#000000; fill-opacity:1.0000; stroke:none;">
<circle cx="117.2600" cy="52.7300" r="0.8509" /> 
<path style="fill:#000000; fill-opacity:1.0000; stroke:none;fill-rule:evenodd;"
d="M 117.1950,59.0600
117.1950,56.5600
119.7450,56.5600
119.7450,59.0600
Z" /> 
<path style="fill:#000000; fill-opacity:1.0000; stroke:none;fill-rule:evenodd;"
d="M 103.3450,56.5200
103.3450,54.0200
105.8950,54.0200
105.8950,56.5200
Z" /> 
</g>
<g style="fill:#000000; fill-opacity:1.0000; stroke:none;">
<circle cx="89.4700" cy="85.0300" r="0.8509" /> 
</g>
<g style="fill:#000000; fill-opacity:1.0000; stroke:none;">
<circle cx="90.7400" cy="82.4900" r="1.5000" /> 
</g>
<g style="fill:#000000; fill-opacity:1.0000; stroke:none;">
<circle cx="90.7400" cy="87.5700" r="1.5000" /> 
</g>
<g style="fill:#000000; fill-opacity:1.0000; stroke:none;">
<circle cx="94.5500" cy="85.0300" r="1.9939" /> 
</g>
<g style="fill:#000000; fill-opacity:1.0000; stroke:none;">
<circle cx="97.0900" cy="79.9500" r="1.5000" /> 
</g>
<g style="fill:#000000; fill-opacity:1.0000; stroke:none;">
<circle cx="97.0900" cy="90.1100" r="1.5000" /> 
</g>
<g style="fill:#000000; fill-opacity:1.0000; stroke:none;">
<circle cx="99.6300" cy="85.0300" r="0.8509" /> 
<path style="fill:#000000; fill-opacity:1.0000; stroke:none;fill-rule:evenodd;"
d="M 99.5650,91.3600
99.5650,88.8600
102.1150,88.8600
102.1150,91.3600
Z" /> 
<path style="fill:#000000; fill-opacity:1.0000; stroke:none;fill-rule:evenodd;"
d="M 85.7150,88.8200
85.7150,86.3200
88.2650,86.3200
88.2650,88.8200
Z" /> 
<path style="fill:#000000; fill-opacity:1.0000; stroke:none;fill-rule:evenodd;"
d="M 149.5350,93.4200
149.5350,91.8200
151.1350,91.8200
151.1350,93.4200
Z" /> 
</g>
<g style="fill:#000000; fill-opacity:1.0000; stroke:none;">
<circle cx="157.9550" cy="92.6200" r="0.8000" /> 
<circle cx="71.8400" cy="68.8800" r="0.8509" /> 
</g>
<g style="fill:#000000; fill-opacity:1.0000; stroke:none;">
<circle cx="73.1100" cy="66.3400" r="1.5000" /> 
</g>
<g style="fill:#000000; fill-opacity:1.0000; stroke:none;">
<circle cx="73.1100" cy="71.4200" r="1.5000" /> 
</g>
<g style="fill:#000000; fill-opacity:1.0000; stroke:none;">
<circle cx="76.9200" cy="68.8800" r="1.9939" /> 
</g>
<g style="fill:#000000; fill-opacity:1.0000; stroke:none;">
<circle cx="79.4600" cy="63.8000" r="1.5000" /> 
</g>
<g style="fill:#000000; fill-opacity:1.0000; stroke:none;">
<circle cx="79.4600" cy="73.9600" r="1.5000" /> 
</g>
<g style="fill:#000000; fill-opacity:1.0000; stroke:none;">
<circle cx="82.0000" cy="68.8800" r="0.8509" /> 
<path style="fill:#000000; fill-opacity:1.0000; stroke:none;fill-rule:evenodd;"
d="M 81.9350,75.2100
81.9350,72.7100
84.4850,72.7100
84.4850,75.2100
Z" /> 
<path style="fill:#000000; fill-opacity:1.0000; stroke:none;fill-rule:evenodd;"
d="M 68.0850,72.6700
68.0850,70.1700
70.6350,70.1700
70.6350,72.6700
Z" /> 
</g>
<g style="fill:#000000; fill-opacity:1.0000; stroke:none;">
<circle cx="107.1000" cy="68.8800" r="0.8509" /> 
</g>
<g style="fill:#000000; fill-opacity:1.0000; stroke:none;">
<circle cx="108.3700" cy="66.3400" r="1.5000" /> 
</g>
<g style="fill:#000000; fill-opacity:1.0000; stroke:none;">
<circle cx="108.3700" cy="71.4200" r="1.5000" /> 
</g>
<g style="fill:#000000; fill-opacity:1.0000; stroke:none;">
<circle cx="112.1800" cy="68.8800" r="1.9939" /> 
</g>
<g style="fill:#000000; fill-opacity:1.0000; stroke:none;">
<circle cx="114.7200" cy="63.8000" r="1.5000" /> 
</g>
<g style="fill:#000000; fill-opacity:1.0000; stroke:none;">
<circle cx="114.7200" cy="73.9600" r="1.5000" /> 
</g>
<g style="fill:#000000; fill-opacity:1.0000; stroke:none;">
<circle cx="117.2600" cy="68.8800" r="0.8509" /> 
<path style="fill:#000000; fill-opacity:1.0000; stroke:none;fill-rule:evenodd;"
d="M 117.1950,75.2100
117.1950,72.7100
119.7450,72.7100
119.7450,75.2100
Z" /> 
<path style="fill:#000000; fill-opacity:1.0000; stroke:none;fill-rule:evenodd;"
d="M 103.3450,72.6700
103.3450,70.1700
105.8950,70.1700
105.8950,72.6700
Z" /> 
</g>
<g style="fill:#000000; fill-opacity:1.0000; stroke:none;">
<circle cx="124.7300" cy="68.8800" r="0.8509" /> 
</g>
<g style="fill:#000000; fill-opacity:1.0000; stroke:none;">
<circle cx="126.0000" cy="66.3400" r="1.5000" /> 
</g>
<g style="fill:#000000; fill-opacity:1.0000; stroke:none;">
<circle cx="126.0000" cy="71.4200" r="1.5000" /> 
</g>
<g style="fill:#000000; fill-opacity:1.0000; stroke:none;">
<circle cx="129.8100" cy="68.8800" r="1.9939" /> 
</g>
<g style="fill:#000000; fill-opacity:1.0000; stroke:none;">
<circle cx="132.3500" cy="63.8000" r="1.5000" /> 
</g>
<g style="fill:#000000; fill-opacity:1.0000; stroke:none;">
<circle cx="132.3500" cy="73.9600" r="1.5000" /> 
</g>
<g style="fill:#000000; fill-opacity:1.0000; stroke:none;">
<circle cx="134.8900" cy="68.8800" r="0.8509" /> 
<path style="fill:#000000; fill-opacity:1.0000; stroke:none;fill-rule:evenodd;"
d="M 134.8250,75.2100
134.8250,72.7100
137.3750,72.7100
137.3750,75.2100
Z" /> 
<path style="fill:#000000; fill-opacity:1.0000; stroke:none;fill-rule:evenodd;"
d="M 120.9750,72.6700
120.9750,70.1700
123.5250,70.1700
123.5250,72.6700
Z" /> 
<path style="fill:#000000; fill-opacity:1.0000; stroke:none;fill-rule:evenodd;"
d="M 160.3050,100.5200
160.3050,98.9200
161.9050,98.9200
161.9050,100.5200
Z" /> 
</g>
<g style="fill:#000000; fill-opacity:1.0000; stroke:none;">
<circle cx="168.7250" cy="99.7200" r="0.8000" /> 
<circle cx="107.1000" cy="101.1800" r="0.8509" /> 
</g>
<g style="fill:#000000; fill-opacity:1.0000; stroke:none;">
<circle cx="108.3700" cy="98.6400" r="1.5000" /> 
</g>
<g style="fill:#000000; fill-opacity:1.0000; stroke:none;">
<circle cx="108.3700" cy="103.7200" r="1.5000" /> 
</g>
<g style="fill:#000000; fill-opacity:1.0000; stroke:none;">
<circle cx="112.1800" cy="101.1800" r="1.9939" /> 
</g>
<g style="fill:#000000; fill-opacity:1.0000; stroke:none;">
<circle cx="114.7200" cy="96.1000" r="1.5000" /> 
</g>
<g style="fill:#000000; fill-opacity:1.0000; stroke:none;">
<circle cx="114.7200" cy="106.2600" r="1.5000" /> 
</g>
<g style="fill:#000000; fill-opacity:1.0000; stroke:none;">
<circle cx="117.2600" cy="101.1800" r="0.8509" /> 
<path style="fill:#000000; fill-opacity:1.0000; stroke:none;fill-rule:evenodd;"
d="M 117.1950,107.5100
117.1950,105.0100
119.7450,105.0100
119.7450,107.5100
Z" /> 
<path style="fill:#000000; fill-opacity:1.0000; stroke:none;fill-rule:evenodd;"
d="M 103.3450,104.9700
103.3450,102.4700
105.8950,102.4700
105.8950,104.9700
Z" /> 
</g>
<g style="fill:#000000; fill-opacity:1.0000; stroke:none;">
<circle cx="89.4700" cy="52.7300" r="0.8509" /> 
</g>
<g style="fill:#000000; fill-opacity:1.0000; stroke:none;">
<circle cx="90.7400" cy="50.1900" r="1.5000" /> 
</g>
<g style="fill:#000000; fill-opacity:1.0000; stroke:none;">
<circle cx="90.7400" cy="55.2700" r="1.5000" /> 
</g>
<g style="fill:#000000; fill-opacity:1.0000; stroke:none;">
<circle cx="94.5500" cy="52.7300" r="1.9939" /> 
</g>
<g style="fill:#000000; fill-opacity:1.0000; stroke:none;">
<circle cx="97.0900" cy="47.6500" r="1.5000" /> 
</g>
<g style="fill:#000000; fill-opacity:1.0000; stroke:none;">
<circle cx="97.0900" cy="57.8100" r="1.5000" /> 
</g>
<g style="fill:#000000; fill-opacity:1.0000; stroke:none;">
<circle cx="99.6300" cy="52.7300" r="0.8509" /> 
<path style="fill:#000000; fill-opacity:1.0000; stroke:none;fill-rule:evenodd;"
d="M 99.5650,59.0600
99.5650,56.5600
102.1150,56.5600
102.1150,59.0600
Z" /> 
<path style="fill:#000000; fill-opacity:1.0000; stroke:none;fill-rule:evenodd;"
d="M 85.7150,56.5200
85.7150,54.0200
88.2650,54.0200
88.2650,56.5200
Z" /> 
<path style="fill:#000000; fill-opacity:1.0000; stroke:none;fill-rule:evenodd;"
d="M 138.7650,100.5200
138.7650,98.9200
140.3650,98.9200
140.3650,100.5200
Z" /> 
</g>
<g style="fill:#000000; fill-opacity:1.0000; stroke:none;">
<circle cx="147.1850" cy="99.7200" r="0.8000" /> 
<path style="fill:#000000; fill-opacity:1.0000; stroke:none;fill-rule:evenodd;"
d="M 138.7650,104.0700
138.7650,102.4700
140.3650,102.4700
140.3650,104.0700
Z" /> 
<circle cx="147.1850" cy="103.2700" r="0.8000" /> 
<path style="fill:#000000; fill-opacity:1.0000; stroke:none;fill-rule:evenodd;"
d="M 138.7650,89.8700
138.7650,88.2700
140.3650,88.2700
140.3650,89.8700
Z" /> 
<circle cx="147.1850" cy="89.0700" r="0.8000" /> 
<circle cx="89.4700" cy="68.8800" r="0.8509" /> 
</g>
<g style="fill:#000000; fill-opacity:1.0000; stroke:none;">
<circle cx="90.7400" cy="66.3400" r="1.5000" /> 
</g>
<g style="fill:#000000; fill-opacity:1.0000; stroke:none;">
<circle cx="90.7400" cy="71.4200" r="1.5000" /> 
</g>
<g style="fill:#000000; fill-opacity:1.0000; stroke:none;">
<circle cx="94.5500" cy="68.8800" r="1.9939" /> 
</g>
<g style="fill:#000000; fill-opacity:1.0000; stroke:none;">
<circle cx="97.0900" cy="63.8000" r="1.5000" /> 
</g>
<g style="fill:#000000; fill-opacity:1.0000; stroke:none;">
<circle cx="97.0900" cy="73.9600" r="1.5000" /> 
</g>
<g style="fill:#000000; fill-opacity:1.0000; stroke:none;">
<circle cx="99.6300" cy="68.8800" r="0.8509" /> 
<path style="fill:#000000; fill-opacity:1.0000; stroke:none;fill-rule:evenodd;"
d="M 99.5650,75.2100
99.5650,72.7100
102.1150,72.7100
102.1150,75.2100
Z" /> 
<path style="fill:#000000; fill-opacity:1.0000; stroke:none;fill-rule:evenodd;"
d="M 85.7150,72.6700
85.7150,70.1700
88.2650,70.1700
88.2650,72.6700
Z" /> 
</g>
<g style="fill:#000000; fill-opacity:1.0000; stroke:none;">
<circle cx="71.8400" cy="85.0300" r="0.8509" /> 
</g>
<g style="fill:#000000; fill-opacity:1.0000; stroke:none;">
<circle cx="73.1100" cy="82.4900" r="1.5000" /> 
</g>
<g style="fill:#000000; fill-opacity:1.0000; stroke:none;">
<circle cx="73.1100" cy="87.5700" r="1.5000" /> 
</g>
<g style="fill:#000000; fill-opacity:1.0000; stroke:none;">
<circle cx="76.9200" cy="85.0300" r="1.9939" /> 
</g>
<g style="fill:#000000; fill-opacity:1.0000; stroke:none;">
<circle cx="79.4600" cy="79.9500" r="1.5000" /> 
</g>
<g style="fill:#000000; fill-opacity:1.0000; stroke:none;">
<circle cx="79.4600" cy="90.1100" r="1.5000" /> 
</g>
<g style="fill:#000000; fill-opacity:1.0000; stroke:none;">
<circle cx="82.0000" cy="85.0300" r="0.8509" /> 
<path style="fill:#000000; fill-opacity:1.0000; stroke:none;fill-rule:evenodd;"
d="M 81.9350,91.3600
81.9350,88.8600
84.4850,88.8600
84.4850,91.3600
Z" /> 
<path style="fill:#000000; fill-opacity:1.0000; stroke:none;fill-rule:evenodd;"
d="M 68.0850,88.8200
68.0850,86.3200
70.6350,86.3200
70.6350,88.8200
Z" /> 
<path style="fill:#000000; fill-opacity:1.0000; stroke:none;fill-rule:evenodd;"
d="M 122.5350,40.5700
122.5350,38.9700
124.1350,38.9700
124.1350,40.5700
Z" /> 
</g>
<g style="fill:#000000; fill-opacity:1.0000; stroke:none;">
<circle cx="130.9550" cy="39.7700" r="0.8000" /> 
<circle cx="107.1000" cy="133.4800" r="0.8509" /> 
</g>
<g style="fill:#000000; fill-opacity:1.0000; stroke:none;">
<circle cx="108.3700" cy="130.9400" r="1.5000" /> 
</g>
<g style="fill:#000000; fill-opacity:1.0000; stroke:none;">
<circle cx="108.3700" cy="136.0200" r="1.5000" /> 
</g>
<g style="fill:#000000; fill-opacity:1.0000; stroke:none;">
<circle cx="112.1800" cy="133.4800" r="1.9939" /> 
</g>
<g style="fill:#000000; fill-opacity:1.0000; stroke:none;">
<circle cx="114.7200" cy="128.4000" r="1.5000" /> 
</g>
<g style="fill:#000000; fill-opacity:1.0000; stroke:none;">
<circle cx="114.7200" cy="138.5600" r="1.5000" /> 
</g>
<g style="fill:#000000; fill-opacity:1.0000; stroke:none;">
<circle cx="117.2600" cy="133.4800" r="0.8509" /> 
<path style="fill:#000000; fill-opacity:1.0000; stroke:none;fill-rule:evenodd;"
d="M 117.1950,139.8100
117.1950,137.3100
119.7450,137.3100
119.7450,139.8100
Z" /> 
<path style="fill:#000000; fill-opacity:1.0000; stroke:none;fill-rule:evenodd;"
d="M 103.3450,137.2700
103.3450,134.7700
105.8950,134.7700
105.8950,137.2700
Z" /> 
</g>
<g style="fill:#000000; fill-opacity:1.0000; stroke:none;">
<circle cx="71.8400" cy="101.1800" r="0.8509" /> 
</g>
<g style="fill:#000000; fill-opacity:1.0000; stroke:none;">
<circle cx="73.1100" cy="98.6400" r="1.5000" /> 
</g>
<g style="fill:#000000; fill-opacity:1.0000; stroke:none;">
<circle cx="73.1100" cy="103.7200" r="1.5000" /> 
</g>
<g style="fill:#000000; fill-opacity:1.0000; stroke:none;">
<circle cx="76.9200" cy="101.1800" r="1.9939" /> 
</g>
<g style="fill:#000000; fill-opacity:1.0000; stroke:none;">
<circle cx="79.4600" cy="96.1000" r="1.5000" /> 
</g>
<g style="fill:#000000; fill-opacity:1.0000; stroke:none;">
<circle cx="79.4600" cy="106.2600" r="1.5000" /> 
</g>
<g style="fill:#000000; fill-opacity:1.0000; stroke:none;">
<circle cx="82.0000" cy="101.1800" r="0.8509" /> 
<path style="fill:#000000; fill-opacity:1.0000; stroke:none;fill-rule:evenodd;"
d="M 81.9350,107.5100
81.9350,105.0100
84.4850,105.0100
84.4850,107.5100
Z" /> 
<path style="fill:#000000; fill-opacity:1.0000; stroke:none;fill-rule:evenodd;"
d="M 68.0850,104.9700
68.0850,102.4700
70.6350,102.4700
70.6350,104.9700
Z" /> 
<path style="fill:#000000; fill-opacity:1.0000; stroke:none;fill-rule:evenodd;"
d="M 149.5350,86.3200
149.5350,84.7200
151.1350,84.7200
151.1350,86.3200
Z" /> 
</g>
<g style="fill:#000000; fill-opacity:1.0000; stroke:none;">
<circle cx="157.9550" cy="85.5200" r="0.8000" /> 
<path style="fill:#000000; fill-opacity:1.0000; stroke:none;fill-rule:evenodd;"
d="M 242.7388,34.9328
242.7194,34.9289
242.7029,34.9179
242.6919,34.9014
242.6880,34.8820
242.6880,33.3580
242.6919,33.3386
242.7029,33.3221
242.7194,33.3111
242.7388,33.3072
244.2628,33.3072
244.2822,33.3111
244.2987,33.3221
244.3097,33.3386
244.3136,33.3580
244.3136,34.8820
244.3097,34.9014
244.2987,34.9179
244.2822,34.9289
244.2628,34.9328
Z" /> 
<circle cx="243.5000" cy="31.5800" r="0.8128" /> 
<circle cx="243.5000" cy="29.0400" r="0.8128" /> 
<circle cx="243.5000" cy="26.5000" r="0.8128" /> 
<circle cx="107.1000" cy="85.0300" r="0.8509" /> 
</g>
<g style="fill:#000000; fill-opacity:1.0000; stroke:none;">
<circle cx="108.3700" cy="82.4900" r="1.5000" /> 
</g>
<g style="fill:#000000; fill-opacity:1.0000; stroke:none;">
<circle cx="108.3700" cy="87.5700" r="1.5000" /> 
</g>
<g style="fill:#000000; fill-opacity:1.0000; stroke:none;">
<circle cx="112.1800" cy="85.0300" r="1.9939" /> 
</g>
<g style="fill:#000000; fill-opacity:1.0000; stroke:none;">
<circle cx="114.7200" cy="79.9500" r="1.5000" /> 
</g>
<g style="fill:#000000; fill-opacity:1.0000; stroke:none;">
<circle cx="114.7200" cy="90.1100" r="1.5000" /> 
</g>
<g style="fill:#000000; fill-opacity:1.0000; stroke:none;">
<circle cx="117.2600" cy="85.0300" r="0.8509" /> 
<path style="fill:#000000; fill-opacity:1.0000; stroke:none;fill-rule:evenodd;"
d="M 117.1950,91.3600
117.1950,88.8600
119.7450,88.8600
119.7450,91.3600
Z" /> 
<path style="fill:#000000; fill-opacity:1.0000; stroke:none;fill-rule:evenodd;"
d="M 103.3450,88.8200
103.3450,86.3200
105.8950,86.3200
105.8950,88.8200
Z" /> 
</g>
<g style="fill:#000000; fill-opacity:1.0000; stroke:none;">
<circle cx="71.8400" cy="133.4800" r="0.8509" /> 
</g>
<g style="fill:#000000; fill-opacity:1.0000; stroke:none;">
<circle cx="73.1100" cy="130.9400" r="1.5000" /> 
</g>
<g style="fill:#000000; fill-opacity:1.0000; stroke:none;">
<circle cx="73.1100" cy="136.0200" r="1.5000" /> 
</g>
<g style="fill:#000000; fill-opacity:1.0000; stroke:none;">
<circle cx="76.9200" cy="133.4800" r="1.9939" /> 
</g>
<g style="fill:#000000; fill-opacity:1.0000; stroke:none;">
<circle cx="79.4600" cy="128.4000" r="1.5000" /> 
</g>
<g style="fill:#000000; fill-opacity:1.0000; stroke:none;">
<circle cx="79.4600" cy="138.5600" r="1.5000" /> 
</g>
<g style="fill:#000000; fill-opacity:1.0000; stroke:none;">
<circle cx="82.0000" cy="133.4800" r="0.8509" /> 
<path style="fill:#000000; fill-opacity:1.0000; stroke:none;fill-rule:evenodd;"
d="M 81.9350,139.8100
81.9350,137.3100
84.4850,137.3100
84.4850,139.8100
Z" /> 
<path style="fill:#000000; fill-opacity:1.0000; stroke:none;fill-rule:evenodd;"
d="M 68.0850,137.2700
68.0850,134.7700
70.6350,134.7700
70.6350,137.2700
Z" /> 
<path style="fill:#000000; fill-opacity:1.0000; stroke:none;fill-rule:evenodd;"
d="M 160.3050,96.9700
160.3050,95.3700
161.9050,95.3700
161.9050,96.9700
Z" /> 
</g>
<g style="fill:#000000; fill-opacity:1.0000; stroke:none;">
<circle cx="168.7250" cy="96.1700" r="0.8000" /> 
<circle cx="89.4700" cy="117.3300" r="0.8509" /> 
</g>
<g style="fill:#000000; fill-opacity:1.0000; stroke:none;">
<circle cx="90.7400" cy="114.7900" r="1.5000" /> 
</g>
<g style="fill:#000000; fill-opacity:1.0000; stroke:none;">
<circle cx="90.7400" cy="119.8700" r="1.5000" /> 
</g>
<g style="fill:#000000; fill-opacity:1.0000; stroke:none;">
<circle cx="94.5500" cy="117.3300" r="1.9939" /> 
</g>
<g style="fill:#000000; fill-opacity:1.0000; stroke:none;">
<circle cx="97.0900" cy="112.2500" r="1.5000" /> 
</g>
<g style="fill:#000000; fill-opacity:1.0000; stroke:none;">
<circle cx="97.0900" cy="122.4100" r="1.5000" /> 
</g>
<g style="fill:#000000; fill-opacity:1.0000; stroke:none;">
<circle cx="99.6300" cy="117.3300" r="0.8509" /> 
<path style="fill:#000000; fill-opacity:1.0000; stroke:none;fill-rule:evenodd;"
d="M 99.5650,123.6600
99.5650,121.1600
102.1150,121.1600
102.1150,123.6600
Z" /> 
<path style="fill:#000000; fill-opacity:1.0000; stroke:none;fill-rule:evenodd;"
d="M 85.7150,121.1200
85.7150,118.6200
88.2650,118.6200
88.2650,121.1200
Z" /> 
<path style="fill:#000000; fill-opacity:1.0000; stroke:none;fill-rule:evenodd;"
d="M 138.7650,93.4200
138.7650,91.8200
140.3650,91.8200
140.3650,93.4200
Z" /> 
</g>
<g style="fill:#000000; fill-opacity:1.0000; stroke:none;">
<circle cx="147.1850" cy="92.6200" r="0.8000" /> 
<path style="fill:#000000; fill-opacity:1.0000; stroke:none;fill-rule:evenodd;"
d="M 149.5350,89.8700
149.5350,88.2700
151.1350,88.2700
151.1350,89.8700
Z" /> 
<circle cx="157.9550" cy="89.0700" r="0.8000" /> 
<circle cx="124.7300" cy="52.7300" r="0.8509" /> 
</g>
<g style="fill:#000000; fill-opacity:1.0000; stroke:none;">
<circle cx="126.0000" cy="50.1900" r="1.5000" /> 
</g>
<g style="fill:#000000; fill-opacity:1.0000; stroke:none;">
<circle cx="126.0000" cy="55.2700" r="1.5000" /> 
</g>
<g style="fill:#000000; fill-opacity:1.0000; stroke:none;">
<circle cx="129.8100" cy="52.7300" r="1.9939" /> 
</g>
<g style="fill:#000000; fill-opacity:1.0000; stroke:none;">
<circle cx="132.3500" cy="47.6500" r="1.5000" /> 
</g>
<g style="fill:#000000; fill-opacity:1.0000; stroke:none;">
<circle cx="132.3500" cy="57.8100" r="1.5000" /> 
</g>
<g style="fill:#000000; fill-opacity:1.0000; stroke:none;">
<circle cx="134.8900" cy="52.7300" r="0.8509" /> 
<path style="fill:#000000; fill-opacity:1.0000; stroke:none;fill-rule:evenodd;"
d="M 134.8250,59.0600
134.8250,56.5600
137.3750,56.5600
137.3750,59.0600
Z" /> 
<path style="fill:#000000; fill-opacity:1.0000; stroke:none;fill-rule:evenodd;"
d="M 120.9750,56.5200
120.9750,54.0200
123.5250,54.0200
123.5250,56.5200
Z" /> 
<path style="fill:#000000; fill-opacity:1.0000; stroke:none;fill-rule:evenodd;"
d="M 160.3050,93.4200
160.3050,91.8200
161.9050,91.8200
161.9050,93.4200
Z" /> 
</g>
<g style="fill:#000000; fill-opacity:1.0000; stroke:none;">
<circle cx="168.7250" cy="92.6200" r="0.8000" /> 
<path style="fill:#000000; fill-opacity:1.0000; stroke:none;fill-rule:evenodd;"
d="M 160.3050,86.3200
160.3050,84.7200
161.9050,84.7200
161.9050,86.3200
Z" /> 
<circle cx="168.7250" cy="85.5200" r="0.8000" /> 
<path style="fill:#000000; fill-opacity:1.0000; stroke:none;fill-rule:evenodd;"
d="M 138.7650,107.6200
138.7650,106.0200
140.3650,106.0200
140.3650,107.6200
Z" /> 
<circle cx="147.1850" cy="106.8200" r="0.8000" /> 
<path style="fill:#000000; fill-opacity:1.0000; stroke:none;fill-rule:evenodd;"
d="M 149.5350,107.6200
149.5350,106.0200
151.1350,106.0200
151.1350,107.6200
Z" /> 
<circle cx="157.9550" cy="106.8200" r="0.8000" /> 
<circle cx="71.8400" cy="117.3300" r="0.8509" /> 
</g>
<g style="fill:#000000; fill-opacity:1.0000; stroke:none;">
<circle cx="73.1100" cy="114.7900" r="1.5000" /> 
</g>
<g style="fill:#000000; fill-opacity:1.0000; stroke:none;">
<circle cx="73.1100" cy="119.8700" r="1.5000" /> 
</g>
<g style="fill:#000000; fill-opacity:1.0000; stroke:none;">
<circle cx="76.9200" cy="117.3300" r="1.9939" /> 
</g>
<g style="fill:#000000; fill-opacity:1.0000; stroke:none;">
<circle cx="79.4600" cy="112.2500" r="1.5000" /> 
</g>
<g style="fill:#000000; fill-opacity:1.0000; stroke:none;">
<circle cx="79.4600" cy="122.4100" r="1.5000" /> 
</g>
<g style="fill:#000000; fill-opacity:1.0000; stroke:none;">
<circle cx="82.0000" cy="117.3300" r="0.8509" /> 
<path style="fill:#000000; fill-opacity:1.0000; stroke:none;fill-rule:evenodd;"
d="M 81.9350,123.6600
81.9350,121.1600
84.4850,121.1600
84.4850,123.6600
Z" /> 
<path style="fill:#000000; fill-opacity:1.0000; stroke:none;fill-rule:evenodd;"
d="M 68.0850,121.1200
68.0850,118.6200
70.6350,118.6200
70.6350,121.1200
Z" /> 
<path style="fill:#000000; fill-opacity:1.0000; stroke:none;fill-rule:evenodd;"
d="M 160.3050,104.0700
160.3050,102.4700
161.9050,102.4700
161.9050,104.0700
Z" /> 
</g>
<g style="fill:#000000; fill-opacity:1.0000; stroke:none;">
<circle cx="168.7250" cy="103.2700" r="0.8000" /> 
<path style="fill:#000000; fill-opacity:1.0000; stroke:none;fill-rule:evenodd;"
d="M 149.5350,96.9700
149.5350,95.3700
151.1350,95.3700
151.1350,96.9700
Z" /> 
<circle cx="157.9550" cy="96.1700" r="0.8000" /> 
<path style="fill:#000000; fill-opacity:1.0000; stroke:none;fill-rule:evenodd;"
d="M 160.3050,107.6200
160.3050,106.0200
161.9050,106.0200
161.9050,107.6200
Z" /> 
<circle cx="168.7250" cy="106.8200" r="0.8000" /> 
<circle cx="107.1000" cy="117.3300" r="0.8509" /> 
</g>
<g style="fill:#000000; fill-opacity:1.0000; stroke:none;">
<circle cx="108.3700" cy="114.7900" r="1.5000" /> 
</g>
<g style="fill:#000000; fill-opacity:1.0000; stroke:none;">
<circle cx="108.3700" cy="119.8700" r="1.5000" /> 
</g>
<g style="fill:#000000; fill-opacity:1.0000; stroke:none;">
<circle cx="112.1800" cy="117.3300" r="1.9939" /> 
</g>
<g style="fill:#000000; fill-opacity:1.0000; stroke:none;">
<circle cx="114.7200" cy="112.2500" r="1.5000" /> 
</g>
<g style="fill:#000000; fill-opacity:1.0000; stroke:none;">
<circle cx="114.7200" cy="122.4100" r="1.5000" /> 
</g>
<g style="fill:#000000; fill-opacity:1.0000; stroke:none;">
<circle cx="117.2600" cy="117.3300" r="0.8509" /> 
<path style="fill:#000000; fill-opacity:1.0000; stroke:none;fill-rule:evenodd;"
d="M 117.1950,123.6600
117.1950,121.1600
119.7450,121.1600
119.7450,123.6600
Z" /> 
<path style="fill:#000000; fill-opacity:1.0000; stroke:none;fill-rule:evenodd;"
d="M 103.3450,121.1200
103.3450,118.6200
105.8950,118.6200
105.8950,121.1200
Z" /> 
<path style="fill:#000000; fill-opacity:1.0000; stroke:none;fill-rule:evenodd;"
d="M 160.3050,89.8700
160.3050,88.2700
161.9050,88.2700
161.9050,89.8700
Z" /> 
</g>
<g style="fill:#000000; fill-opacity:1.0000; stroke:none;">
<circle cx="168.7250" cy="89.0700" r="0.8000" /> 
<circle cx="89.4700" cy="101.1800" r="0.8509" /> 
</g>
<g style="fill:#000000; fill-opacity:1.0000; stroke:none;">
<circle cx="90.7400" cy="98.6400" r="1.5000" /> 
</g>
<g style="fill:#000000; fill-opacity:1.0000; stroke:none;">
<circle cx="90.7400" cy="103.7200" r="1.5000" /> 
</g>
<g style="fill:#000000; fill-opacity:1.0000; stroke:none;">
<circle cx="94.5500" cy="101.1800" r="1.9939" /> 
</g>
<g style="fill:#000000; fill-opacity:1.0000; stroke:none;">
<circle cx="97.0900" cy="96.1000" r="1.5000" /> 
</g>
<g style="fill:#000000; fill-opacity:1.0000; stroke:none;">
<circle cx="97.0900" cy="106.2600" r="1.5000" /> 
</g>
<g style="fill:#000000; fill-opacity:1.0000; stroke:none;">
<circle cx="99.6300" cy="101.1800" r="0.8509" /> 
<path style="fill:#000000; fill-opacity:1.0000; stroke:none;fill-rule:evenodd;"
d="M 99.5650,107.5100
99.5650,105.0100
102.1150,105.0100
102.1150,107.5100
Z" /> 
<path style="fill:#000000; fill-opacity:1.0000; stroke:none;fill-rule:evenodd;"
d="M 85.7150,104.9700
85.7150,102.4700
88.2650,102.4700
88.2650,104.9700
Z" /> 
</g>
<g style="fill:#000000; fill-opacity:1.0000; stroke:none;">
<circle cx="126.1300" cy="29.9200" r="0.8509" /> 
</g>
<g style="fill:#000000; fill-opacity:1.0000; stroke:none;">
<circle cx="127.4000" cy="27.3800" r="1.5000" /> 
</g>
<g style="fill:#000000; fill-opacity:1.0000; stroke:none;">
<circle cx="127.4000" cy="32.4600" r="1.5000" /> 
</g>
<g style="fill:#000000; fill-opacity:1.0000; stroke:none;">
<circle cx="131.2100" cy="29.9200" r="1.9939" /> 
</g>
<g style="fill:#000000; fill-opacity:1.0000; stroke:none;">
<circle cx="133.7500" cy="24.8400" r="1.5000" /> 
</g>
<g style="fill:#000000; fill-opacity:1.0000; stroke:none;">
<circle cx="133.7500" cy="35.0000" r="1.5000" /> 
</g>
<g style="fill:#000000; fill-opacity:1.0000; stroke:none;">
<circle cx="136.2900" cy="29.9200" r="0.8509" /> 
<path style="fill:#000000; fill-opacity:1.0000; stroke:none;fill-rule:evenodd;"
d="M 136.2250,36.2500
136.2250,33.7500
138.7750,33.7500
138.7750,36.2500
Z" /> 
<path style="fill:#000000; fill-opacity:1.0000; stroke:none;fill-rule:evenodd;"
d="M 122.3750,33.7100
122.3750,31.2100
124.9250,31.2100
124.9250,33.7100
Z" /> 
</g>
<g style="fill:#000000; fill-opacity:1.0000; stroke:none;">
<circle cx="124.7300" cy="85.0300" r="0.8509" /> 
</g>
<g style="fill:#000000; fill-opacity:1.0000; stroke:none;">
<circle cx="126.0000" cy="82.4900" r="1.5000" /> 
</g>
<g style="fill:#000000; fill-opacity:1.0000; stroke:none;">
<circle cx="126.0000" cy="87.5700" r="1.5000" /> 
</g>
<g style="fill:#000000; fill-opacity:1.0000; stroke:none;">
<circle cx="129.8100" cy="85.0300" r="1.9939" /> 
</g>
<g style="fill:#000000; fill-opacity:1.0000; stroke:none;">
<circle cx="132.3500" cy="79.9500" r="1.5000" /> 
</g>
<g style="fill:#000000; fill-opacity:1.0000; stroke:none;">
<circle cx="132.3500" cy="90.1100" r="1.5000" /> 
</g>
<g style="fill:#000000; fill-opacity:1.0000; stroke:none;">
<circle cx="134.8900" cy="85.0300" r="0.8509" /> 
<path style="fill:#000000; fill-opacity:1.0000; stroke:none;fill-rule:evenodd;"
d="M 134.8250,91.3600
134.8250,88.8600
137.3750,88.8600
137.3750,91.3600
Z" /> 
<path style="fill:#000000; fill-opacity:1.0000; stroke:none;fill-rule:evenodd;"
d="M 120.9750,88.8200
120.9750,86.3200
123.5250,86.3200
123.5250,88.8200
Z" /> 
</g> 
</svg>
