%TF.GenerationSoftware,KiCad,Pcbnew,9.0.4*%
%TF.CreationDate,2025-09-06T18:01:24-05:00*%
%TF.ProjectId,esp32_s3_port,65737033-325f-4733-935f-706f72742e6b,rev?*%
%TF.SameCoordinates,Original*%
%TF.FileFunction,Profile,NP*%
%FSLAX46Y46*%
G04 Gerber Fmt 4.6, Leading zero omitted, Abs format (unit mm)*
G04 Created by KiCad (PCBNEW 9.0.4) date 2025-09-06 18:01:24*
%MOMM*%
%LPD*%
G01*
G04 APERTURE LIST*
%TA.AperFunction,Profile*%
%ADD10C,0.050000*%
%TD*%
G04 APERTURE END LIST*
D10*
X49530000Y-109220000D02*
X36830000Y-111125000D01*
X144780000Y-138430000D02*
X133985000Y-127635000D01*
X86995000Y-29845000D02*
X103505000Y-29845000D01*
X162560000Y-123190000D02*
X162560000Y-99060000D01*
X43815000Y-50800000D02*
X43815000Y-47625000D01*
X164465000Y-125095000D02*
X162560000Y-123190000D01*
X103505000Y-93345000D02*
X102235000Y-92075000D01*
X25400000Y-53340000D02*
X43815000Y-50800000D01*
X164465000Y-129540000D02*
X164465000Y-125095000D01*
X24130000Y-57150000D02*
X25400000Y-53340000D01*
X105410000Y-33655000D02*
X124460000Y-33655000D01*
X67310000Y-35560000D02*
X71516834Y-35560000D01*
X90170000Y-95885000D02*
X73660000Y-95885000D01*
X85725000Y-33655000D02*
X86995000Y-29845000D01*
X168910000Y-39370000D02*
X168910000Y-95352526D01*
X124460000Y-33655000D02*
X127635000Y-36830000D01*
X49530000Y-109220000D02*
X60325000Y-109220000D01*
X66675000Y-41910000D02*
X66675000Y-36195000D01*
X103505000Y-111125000D02*
X103505000Y-93345000D01*
X147955000Y-138430000D02*
X144780000Y-138430000D01*
X155575000Y-138430000D02*
X147955000Y-138430000D01*
X133985000Y-127635000D02*
X123825000Y-120650000D01*
X107950000Y-118745000D02*
X103505000Y-111125000D01*
X166370000Y-36830000D02*
X168910000Y-39370000D01*
X114300000Y-120650000D02*
X107950000Y-118745000D01*
X162560000Y-99060000D02*
X168910000Y-95352526D01*
X43815000Y-47625000D02*
X44450000Y-46912893D01*
X66675000Y-36195000D02*
X67310000Y-35560000D01*
X102235000Y-92075000D02*
X93980000Y-92075000D01*
X73660000Y-95885000D02*
X60325000Y-109220000D01*
X123825000Y-120650000D02*
X114300000Y-120650000D01*
X164465000Y-129540000D02*
X155575000Y-138430000D01*
X36830000Y-111125000D02*
X31115000Y-107315000D01*
X103505000Y-29845000D02*
X105410000Y-33655000D01*
X71516834Y-35560000D02*
X73977500Y-33655000D01*
X31115000Y-107315000D02*
X24130000Y-57150000D01*
X93980000Y-92075000D02*
X90170000Y-95885000D01*
X166370000Y-36830000D02*
X127635000Y-36830000D01*
X64732647Y-44450000D02*
X66675000Y-41910000D01*
X73977500Y-33655000D02*
X85725000Y-33655000D01*
X64732647Y-44450000D02*
X44450000Y-46912893D01*
M02*
