%TF.GenerationSoftware,KiCad,Pcbnew,9.0.4*%
%TF.CreationDate,2025-09-06T18:01:24-05:00*%
%TF.ProjectId,esp32_s3_port,65737033-325f-4733-935f-706f72742e6b,rev?*%
%TF.SameCoordinates,Original*%
%TF.FileFunction,Legend,Top*%
%TF.FilePolarity,Positive*%
%FSLAX46Y46*%
G04 Gerber Fmt 4.6, Leading zero omitted, Abs format (unit mm)*
G04 Created by KiCad (PCBNEW 9.0.4) date 2025-09-06 18:01:24*
%MOMM*%
%LPD*%
G01*
G04 APERTURE LIST*
%ADD10C,0.677333*%
%ADD11C,0.150000*%
%ADD12C,0.120000*%
%ADD13C,0.100000*%
G04 APERTURE END LIST*
D10*
X149597533Y-110811734D02*
X149609865Y-110766815D01*
X149622288Y-110721268D01*
X149634802Y-110675080D01*
X149647410Y-110628240D01*
X149660115Y-110580734D01*
X149672919Y-110532548D01*
X149685825Y-110483670D01*
X149698835Y-110434083D01*
X149711953Y-110383773D01*
X149725181Y-110332723D01*
X149738522Y-110280916D01*
X149751982Y-110228334D01*
X149765562Y-110174957D01*
X149779267Y-110120764D01*
X149793102Y-110065735D01*
X149807071Y-110009847D01*
X149821179Y-109953073D01*
X149835431Y-109895389D01*
X149849833Y-109836767D01*
X149864391Y-109777175D01*
X149879112Y-109716582D01*
X149894003Y-109654951D01*
X149909072Y-109592247D01*
X149924327Y-109528426D01*
X149939778Y-109463443D01*
X149955435Y-109397250D01*
X149971309Y-109329793D01*
X149987414Y-109261010D01*
X150003763Y-109190837D01*
X150020372Y-109119198D01*
X150037258Y-109046012D01*
X150054441Y-108971185D01*
X150071944Y-108894610D01*
X150089793Y-108816167D01*
X150108018Y-108735716D01*
X150126654Y-108653093D01*
X150145742Y-108568109D01*
X150165330Y-108480534D01*
X150185479Y-108390092D01*
X150206261Y-108296447D01*
X150227768Y-108199173D01*
X150250117Y-108097728D01*
X150273464Y-107991391D01*
X150298021Y-107879179D01*
X150324095Y-107759673D01*
X150352158Y-107630690D01*
X150383010Y-107488532D01*
X150418234Y-107325887D01*
X150462010Y-107123423D01*
X150480959Y-107035734D01*
X150519437Y-106857694D01*
X150557763Y-106680540D01*
X150576871Y-106592345D01*
X150595943Y-106504432D01*
X150614979Y-106416818D01*
X150633981Y-106329525D01*
X150652949Y-106242572D01*
X150671884Y-106155979D01*
X150690786Y-106069766D01*
X150709657Y-105983951D01*
X150728496Y-105898556D01*
X150747305Y-105813599D01*
X150766084Y-105729101D01*
X150784834Y-105645081D01*
X150794199Y-105603256D01*
X150803556Y-105561559D01*
X150812906Y-105519991D01*
X150822250Y-105478554D01*
X150831587Y-105437252D01*
X150840917Y-105396087D01*
X150850240Y-105355061D01*
X150859557Y-105314177D01*
X150868868Y-105273437D01*
X150878172Y-105232844D01*
X150887470Y-105192399D01*
X150896762Y-105152107D01*
X150906048Y-105111968D01*
X150915327Y-105071986D01*
X150924601Y-105032163D01*
X150933869Y-104992502D01*
X150943132Y-104953004D01*
X150952389Y-104913673D01*
X150961640Y-104874510D01*
X150970885Y-104835519D01*
X150980126Y-104796702D01*
X150989361Y-104758061D01*
X150998590Y-104719599D01*
X151007815Y-104681318D01*
X151017035Y-104643220D01*
X151026249Y-104605309D01*
X151035459Y-104567586D01*
X151044664Y-104530055D01*
X151053864Y-104492716D01*
X151063060Y-104455574D01*
X151072251Y-104418631D01*
X151081438Y-104381888D01*
X151090620Y-104345348D01*
X151099798Y-104309015D01*
X151108972Y-104272890D01*
X151118142Y-104236975D01*
X151127308Y-104201274D01*
X151136469Y-104165788D01*
X151145627Y-104130521D01*
X151154782Y-104095474D01*
X151163932Y-104060651D01*
X151173079Y-104026053D01*
X151182223Y-103991683D01*
X151191363Y-103957544D01*
X151200499Y-103923637D01*
X151209633Y-103889966D01*
X151218763Y-103856533D01*
X151227890Y-103823340D01*
X151237015Y-103790390D01*
X151246136Y-103757686D01*
X151255255Y-103725229D01*
X151264370Y-103693022D01*
X151273484Y-103661069D01*
X151282594Y-103629370D01*
X151291702Y-103597929D01*
X151300808Y-103566748D01*
X151309912Y-103535830D01*
X151319013Y-103505176D01*
X151328112Y-103474790D01*
X151337209Y-103444674D01*
X151346304Y-103414831D01*
X151355397Y-103385262D01*
X151359943Y-103370582D01*
X151364489Y-103355971D01*
X151369034Y-103341430D01*
X151373579Y-103326960D01*
X151378123Y-103312560D01*
X151382667Y-103298231D01*
X151387210Y-103283973D01*
X151391753Y-103269787D01*
X151396296Y-103255672D01*
X151400839Y-103241629D01*
X151405381Y-103227659D01*
X151409922Y-103213762D01*
X151414464Y-103199938D01*
X151419005Y-103186187D01*
X151423546Y-103172510D01*
X151428086Y-103158906D01*
X151432627Y-103145377D01*
X151437167Y-103131923D01*
X151441706Y-103118543D01*
X151446246Y-103105239D01*
X151450785Y-103092010D01*
X151455324Y-103078857D01*
X151459863Y-103065780D01*
X151464402Y-103052779D01*
X151468940Y-103039856D01*
X151473478Y-103027009D01*
X151478016Y-103014240D01*
X151482554Y-103001548D01*
X151487092Y-102988934D01*
X151491630Y-102976399D01*
X151496167Y-102963942D01*
X151500705Y-102951564D01*
X151505242Y-102939265D01*
X151509779Y-102927046D01*
X151514316Y-102914907D01*
X151518853Y-102902847D01*
X151523390Y-102890868D01*
X151527927Y-102878970D01*
X151532464Y-102867153D01*
X151537001Y-102855418D01*
X151541538Y-102843764D01*
X151546075Y-102832191D01*
X151550612Y-102820702D01*
X151555149Y-102809295D01*
X151559686Y-102797970D01*
X151564223Y-102786729D01*
X151568760Y-102775572D01*
X151573297Y-102764498D01*
X151577834Y-102753509D01*
X151582371Y-102742603D01*
X151586908Y-102731783D01*
X151591446Y-102721048D01*
X151595983Y-102710398D01*
X151600521Y-102699834D01*
X151605058Y-102689355D01*
X151609596Y-102678963D01*
X151614134Y-102668658D01*
X151618673Y-102658440D01*
X151623211Y-102648308D01*
X151627750Y-102638265D01*
X151632288Y-102628309D01*
X151636827Y-102618441D01*
X151641366Y-102608662D01*
X151645906Y-102598971D01*
X151650446Y-102589370D01*
X151654985Y-102579858D01*
X151659526Y-102570435D01*
X151664066Y-102561103D01*
X151668607Y-102551861D01*
X151673148Y-102542710D01*
X151677689Y-102533649D01*
X151682231Y-102524680D01*
X151686773Y-102515802D01*
X151691315Y-102507016D01*
X151695858Y-102498322D01*
X151700401Y-102489721D01*
X151704944Y-102481212D01*
X151709488Y-102472797D01*
X151714032Y-102464475D01*
X151718576Y-102456246D01*
X151723121Y-102448112D01*
X151727667Y-102440072D01*
X151732213Y-102432126D01*
X151736759Y-102424276D01*
X151741305Y-102416520D01*
X151745853Y-102408861D01*
X151750400Y-102401297D01*
X151754948Y-102393829D01*
X151759497Y-102386458D01*
X151764046Y-102379183D01*
X151768596Y-102372006D01*
X151773146Y-102364926D01*
X151777697Y-102357943D01*
X151782248Y-102351059D01*
X151786800Y-102344273D01*
X151791352Y-102337585D01*
X151795905Y-102330997D01*
X151800459Y-102324508D01*
X151805013Y-102318118D01*
X151809568Y-102311828D01*
X151814123Y-102305639D01*
X151818679Y-102299549D01*
X151823236Y-102293561D01*
X151827793Y-102287674D01*
X151832351Y-102281888D01*
X151836910Y-102276204D01*
X151841469Y-102270621D01*
X151846029Y-102265141D01*
X151850590Y-102259764D01*
X151855152Y-102254490D01*
X151859714Y-102249319D01*
X151864277Y-102244251D01*
X151868841Y-102239288D01*
X151873405Y-102234428D01*
X151877970Y-102229673D01*
X151882536Y-102225023D01*
X151887103Y-102220478D01*
X151891671Y-102216038D01*
X151896240Y-102211705D01*
X151900809Y-102207477D01*
X151905379Y-102203355D01*
X151907664Y-102201334D01*
X151909950Y-102199340D01*
X151912236Y-102197373D01*
X151914522Y-102195432D01*
X151916808Y-102193518D01*
X151919095Y-102191631D01*
X151921381Y-102189771D01*
X151923668Y-102187938D01*
X151925955Y-102186132D01*
X151928243Y-102184353D01*
X151930530Y-102182601D01*
X151932818Y-102180876D01*
X151935106Y-102179178D01*
X151937395Y-102177507D01*
X151939683Y-102175863D01*
X151941972Y-102174247D01*
X151944261Y-102172658D01*
X151946550Y-102171096D01*
X151948839Y-102169562D01*
X151951129Y-102168055D01*
X151953419Y-102166575D01*
X151955709Y-102165123D01*
X151958000Y-102163699D01*
X151960290Y-102162302D01*
X151962581Y-102160932D01*
X151964872Y-102159590D01*
X151967164Y-102158276D01*
X151969455Y-102156990D01*
X151971747Y-102155731D01*
X151974039Y-102154500D01*
X151976332Y-102153297D01*
X151978625Y-102152122D01*
X151980917Y-102150974D01*
X151983211Y-102149855D01*
X151985504Y-102148764D01*
X151987798Y-102147700D01*
X151990092Y-102146665D01*
X151992386Y-102145657D01*
X151994680Y-102144678D01*
X151996975Y-102143727D01*
X151999270Y-102142804D01*
X152001565Y-102141910D01*
X152003861Y-102141043D01*
X152006157Y-102140205D01*
X152008453Y-102139396D01*
X152010749Y-102138614D01*
X152013046Y-102137862D01*
X152015343Y-102137137D01*
X152017640Y-102136441D01*
X152019937Y-102135774D01*
X152022235Y-102135135D01*
X152024533Y-102134525D01*
X152026831Y-102133944D01*
X152029130Y-102133391D01*
X152031429Y-102132867D01*
X152033728Y-102132372D01*
X152036027Y-102131906D01*
X152038327Y-102131468D01*
X152040627Y-102131059D01*
X152042927Y-102130680D01*
X152045228Y-102130329D01*
X152047529Y-102130007D01*
X152049830Y-102129715D01*
X152052132Y-102129451D01*
X152054433Y-102129217D01*
X152056735Y-102129011D01*
X152059038Y-102128835D01*
X152061341Y-102128688D01*
X152063644Y-102128571D01*
X152065947Y-102128482D01*
X152068250Y-102128424D01*
X152070554Y-102128394D01*
X152072859Y-102128394D01*
X152075163Y-102128423D01*
X152077468Y-102128482D01*
X152079773Y-102128571D01*
X152082079Y-102128689D01*
X152084384Y-102128837D01*
X152086690Y-102129014D01*
X152088997Y-102129221D01*
X152091304Y-102129458D01*
X152093611Y-102129724D01*
X152095918Y-102130021D01*
X152098226Y-102130347D01*
X152100534Y-102130703D01*
X152102842Y-102131089D01*
X152105151Y-102131505D01*
X152107460Y-102131951D01*
X152109769Y-102132427D01*
X152112079Y-102132934D01*
X152114389Y-102133470D01*
X152116699Y-102134036D01*
X152119010Y-102134633D01*
X152121321Y-102135260D01*
X152123632Y-102135917D01*
X152125944Y-102136605D01*
X152128256Y-102137323D01*
X152130568Y-102138071D01*
X152132881Y-102138850D01*
X152135194Y-102139659D01*
X152137508Y-102140499D01*
X152139821Y-102141369D01*
X152142136Y-102142270D01*
X152144450Y-102143201D01*
X152146765Y-102144164D01*
X152149080Y-102145157D01*
X152151396Y-102146180D01*
X152153711Y-102147235D01*
X152156028Y-102148320D01*
X152158344Y-102149436D01*
X152160661Y-102150583D01*
X152162979Y-102151761D01*
X152165296Y-102152970D01*
X152167614Y-102154210D01*
X152169933Y-102155481D01*
X152172251Y-102156783D01*
X152174571Y-102158116D01*
X152176890Y-102159480D01*
X152179210Y-102160876D01*
X152181530Y-102162302D01*
X152183851Y-102163761D01*
X152186172Y-102165250D01*
X152188493Y-102166771D01*
X152190815Y-102168323D01*
X152193137Y-102169906D01*
X152195460Y-102171522D01*
X152197783Y-102173168D01*
X152200106Y-102174846D01*
X152202430Y-102176556D01*
X152204754Y-102178297D01*
X152207078Y-102180070D01*
X152209403Y-102181875D01*
X152211728Y-102183712D01*
X152214054Y-102185580D01*
X152216380Y-102187480D01*
X152218706Y-102189412D01*
X152221033Y-102191376D01*
X152223360Y-102193372D01*
X152225688Y-102195399D01*
X152228016Y-102197459D01*
X152230344Y-102199551D01*
X152232673Y-102201675D01*
X152235002Y-102203831D01*
X152237331Y-102206019D01*
X152239661Y-102208240D01*
X152241992Y-102210492D01*
X152244323Y-102212777D01*
X152246654Y-102215095D01*
X152248986Y-102217444D01*
X152251318Y-102219826D01*
X152253650Y-102222241D01*
X152255983Y-102224688D01*
X152258316Y-102227167D01*
X152260650Y-102229680D01*
X152262984Y-102232224D01*
X152265318Y-102234801D01*
X152267653Y-102237411D01*
X152269989Y-102240054D01*
X152272325Y-102242729D01*
X152274661Y-102245438D01*
X152276998Y-102248179D01*
X152279335Y-102250953D01*
X152281672Y-102253759D01*
X152284010Y-102256599D01*
X152286348Y-102259472D01*
X152288687Y-102262378D01*
X152291027Y-102265316D01*
X152293366Y-102268288D01*
X152298047Y-102274331D01*
X152302729Y-102280507D01*
X152307414Y-102286817D01*
X152312100Y-102293259D01*
X152316787Y-102299836D01*
X152321477Y-102306546D01*
X152326168Y-102313391D01*
X152330862Y-102320370D01*
X152335557Y-102327485D01*
X152340254Y-102334735D01*
X152344952Y-102342120D01*
X152349653Y-102349642D01*
X152354356Y-102357299D01*
X152359060Y-102365093D01*
X152363766Y-102373024D01*
X152368474Y-102381093D01*
X152373185Y-102389298D01*
X152377897Y-102397642D01*
X152382611Y-102406123D01*
X152387327Y-102414743D01*
X152392045Y-102423502D01*
X152396765Y-102432399D01*
X152401486Y-102441436D01*
X152406210Y-102450612D01*
X152410936Y-102459929D01*
X152415664Y-102469386D01*
X152420394Y-102478983D01*
X152425126Y-102488721D01*
X152429860Y-102498600D01*
X152434596Y-102508621D01*
X152439334Y-102518783D01*
X152444075Y-102529088D01*
X152448817Y-102539535D01*
X152453561Y-102550125D01*
X152458308Y-102560857D01*
X152463057Y-102571733D01*
X152467808Y-102582753D01*
X152472561Y-102593916D01*
X152477316Y-102605224D01*
X152482073Y-102616677D01*
X152486832Y-102628274D01*
X152491594Y-102640016D01*
X152496358Y-102651904D01*
X152501124Y-102663938D01*
X152505892Y-102676118D01*
X152510663Y-102688444D01*
X152515436Y-102700917D01*
X152520211Y-102713537D01*
X152524988Y-102726304D01*
X152529768Y-102739219D01*
X152534550Y-102752282D01*
X152539334Y-102765493D01*
X152544120Y-102778852D01*
X152548909Y-102792361D01*
X152553700Y-102806018D01*
X152558493Y-102819826D01*
X152563289Y-102833783D01*
X152568087Y-102847890D01*
X152572888Y-102862147D01*
X152577691Y-102876555D01*
X152582496Y-102891114D01*
X152587304Y-102905825D01*
X152592114Y-102920687D01*
X152596927Y-102935701D01*
X152601742Y-102950868D01*
X152606559Y-102966187D01*
X152611379Y-102981659D01*
X152616201Y-102997284D01*
X152621026Y-103013062D01*
X152625854Y-103028995D01*
X152630683Y-103045081D01*
X152635516Y-103061322D01*
X152640351Y-103077717D01*
X152645188Y-103094268D01*
X152650028Y-103110974D01*
X152654870Y-103127836D01*
X152659715Y-103144853D01*
X152664563Y-103162027D01*
X152669413Y-103179357D01*
X152674266Y-103196845D01*
X152679122Y-103214489D01*
X152683980Y-103232291D01*
X152688840Y-103250251D01*
X152693704Y-103268369D01*
X152698570Y-103286645D01*
X152703438Y-103305080D01*
X152708310Y-103323675D01*
X152713183Y-103342428D01*
X152718060Y-103361341D01*
X152722940Y-103380414D01*
X152727822Y-103399648D01*
X152732706Y-103419042D01*
X152737594Y-103438596D01*
X152742484Y-103458312D01*
X152747377Y-103478190D01*
X152752273Y-103498229D01*
X152757172Y-103518431D01*
X152762073Y-103538795D01*
X152766977Y-103559321D01*
X152771884Y-103580011D01*
X152776794Y-103600864D01*
X152781707Y-103621881D01*
X152786622Y-103643062D01*
X152791541Y-103664407D01*
X152796462Y-103685916D01*
X152801386Y-103707591D01*
X152806313Y-103729430D01*
X152811243Y-103751436D01*
X152816176Y-103773607D01*
X152821112Y-103795944D01*
X152826050Y-103818447D01*
X152830992Y-103841118D01*
X152835936Y-103863955D01*
X152840884Y-103886960D01*
X152845834Y-103910132D01*
X152850788Y-103933473D01*
X152855744Y-103956981D01*
X152860704Y-103980659D01*
X152865666Y-104004505D01*
X152865666Y-104004505D02*
X152877357Y-104061062D01*
X152888946Y-104117522D01*
X152900434Y-104173884D01*
X152911821Y-104230148D01*
X152923106Y-104286316D01*
X152934291Y-104342386D01*
X152945375Y-104398360D01*
X152956359Y-104454238D01*
X152967243Y-104510020D01*
X152978027Y-104565706D01*
X152988711Y-104621297D01*
X152999296Y-104676793D01*
X153009782Y-104732194D01*
X153020168Y-104787501D01*
X153030456Y-104842714D01*
X153040646Y-104897833D01*
X153050737Y-104952859D01*
X153060730Y-105007792D01*
X153070625Y-105062632D01*
X153080422Y-105117380D01*
X153090122Y-105172036D01*
X153099725Y-105226602D01*
X153109231Y-105281076D01*
X153118641Y-105335460D01*
X153127953Y-105389754D01*
X153137170Y-105443958D01*
X153146291Y-105498074D01*
X153155316Y-105552101D01*
X153164246Y-105606041D01*
X153173080Y-105659893D01*
X153181820Y-105713658D01*
X153190464Y-105767337D01*
X153199015Y-105820931D01*
X153207471Y-105874440D01*
X153215833Y-105927864D01*
X153224101Y-105981205D01*
X153232276Y-106034464D01*
X153240358Y-106087640D01*
X153248347Y-106140735D01*
X153256243Y-106193749D01*
X153264047Y-106246684D01*
X153271759Y-106299541D01*
X153279379Y-106352319D01*
X153286907Y-106405020D01*
X153294344Y-106457646D01*
X153301690Y-106510196D01*
X153308945Y-106562673D01*
X153316110Y-106615077D01*
X153323185Y-106667409D01*
X153330170Y-106719671D01*
X153337065Y-106771864D01*
X153343872Y-106823989D01*
X153350589Y-106876047D01*
X153357217Y-106928041D01*
X153363758Y-106979971D01*
X153370210Y-107031840D01*
X153376575Y-107083648D01*
X153382852Y-107135398D01*
X153389042Y-107187091D01*
X153395146Y-107238730D01*
X153401163Y-107290316D01*
X153407095Y-107341851D01*
X153412940Y-107393338D01*
X153418701Y-107444779D01*
X153424376Y-107496177D01*
X153429968Y-107547535D01*
X153435475Y-107598854D01*
X153440898Y-107650138D01*
X153446238Y-107701391D01*
X153451495Y-107752615D01*
X153456670Y-107803814D01*
X153461763Y-107854992D01*
X153466774Y-107906152D01*
X153471704Y-107957300D01*
X153476553Y-108008439D01*
X153481323Y-108059575D01*
X153486013Y-108110712D01*
X153490623Y-108161857D01*
X153495156Y-108213015D01*
X153499610Y-108264192D01*
X153503987Y-108315396D01*
X153508287Y-108366633D01*
X153512511Y-108417913D01*
X153516660Y-108469244D01*
X153520734Y-108520635D01*
X153524734Y-108572096D01*
X153528661Y-108623640D01*
X153532516Y-108675277D01*
X153536300Y-108727023D01*
X153540013Y-108778892D01*
X153543656Y-108830899D01*
X153547232Y-108883065D01*
X153550740Y-108935408D01*
X153554183Y-108987952D01*
X153557561Y-109040723D01*
X153560876Y-109093749D01*
X153564131Y-109147063D01*
X153567326Y-109200703D01*
X153570464Y-109254712D01*
X153573548Y-109309139D01*
X153576580Y-109364044D01*
X153579563Y-109419497D01*
X153582502Y-109475578D01*
X153585400Y-109532389D01*
X153588264Y-109590053D01*
X153591099Y-109648723D01*
X153593914Y-109708596D01*
X153596721Y-109769930D01*
X153599532Y-109833076D01*
X153602369Y-109898526D01*
X153605262Y-109967019D01*
X153608257Y-110039748D01*
X153611442Y-110118878D01*
X153615006Y-110209201D01*
X153619005Y-110311866D01*
X153622610Y-110404449D01*
X153624382Y-110449546D01*
X153626142Y-110493847D01*
X153627896Y-110537356D01*
X153629650Y-110580074D01*
X153631412Y-110622001D01*
X153633187Y-110663141D01*
X153634982Y-110703494D01*
X153636802Y-110743063D01*
X153638655Y-110781848D01*
X153639596Y-110800948D01*
X153640547Y-110819852D01*
X153641509Y-110838561D01*
X153642484Y-110857076D01*
X153643471Y-110875396D01*
X153644472Y-110893522D01*
X153645487Y-110911453D01*
X153646517Y-110929191D01*
X153647564Y-110946735D01*
X153648627Y-110964085D01*
X153649708Y-110981243D01*
X153650807Y-110998207D01*
X153651925Y-111014978D01*
X153653063Y-111031556D01*
X153654223Y-111047942D01*
X153655403Y-111064136D01*
X153656606Y-111080137D01*
X153657832Y-111095947D01*
X153659082Y-111111565D01*
X153660357Y-111126992D01*
X153661657Y-111142227D01*
X153662984Y-111157271D01*
X153664337Y-111172125D01*
X153665719Y-111186787D01*
X153667129Y-111201260D01*
X153668569Y-111215542D01*
X153670039Y-111229634D01*
X153671540Y-111243536D01*
X153673073Y-111257249D01*
X153674638Y-111270772D01*
X153676237Y-111284106D01*
X153677870Y-111297252D01*
X153679538Y-111310208D01*
X153681242Y-111322976D01*
X153682983Y-111335555D01*
X153684761Y-111347946D01*
X153686577Y-111360149D01*
X153688432Y-111372165D01*
X153690327Y-111383993D01*
X153692263Y-111395633D01*
X153694240Y-111407087D01*
X153696259Y-111418353D01*
X153698320Y-111429433D01*
X153700426Y-111440326D01*
X153701496Y-111445703D01*
X153702576Y-111451033D01*
X153703668Y-111456317D01*
X153704772Y-111461554D01*
X153705887Y-111466745D01*
X153707013Y-111471889D01*
X153708152Y-111476987D01*
X153709302Y-111482038D01*
X153710464Y-111487043D01*
X153711638Y-111492002D01*
X153712824Y-111496914D01*
X153714023Y-111501780D01*
X153715234Y-111506600D01*
X153716457Y-111511374D01*
X153717693Y-111516101D01*
X153718941Y-111520782D01*
X153720202Y-111525417D01*
X153721476Y-111530006D01*
X153722763Y-111534549D01*
X153724062Y-111539045D01*
X153725375Y-111543496D01*
X153726701Y-111547900D01*
X153728041Y-111552259D01*
X153729394Y-111556571D01*
X153730760Y-111560838D01*
X153732140Y-111565058D01*
X153733534Y-111569233D01*
X153734941Y-111573362D01*
X153736363Y-111577445D01*
X153737798Y-111581482D01*
X153739247Y-111585473D01*
X153740711Y-111589419D01*
X153742189Y-111593319D01*
X153743681Y-111597173D01*
X153745188Y-111600981D01*
X153746710Y-111604744D01*
X153748246Y-111608461D01*
X153749797Y-111612132D01*
X153751363Y-111615758D01*
X153752944Y-111619338D01*
X153754540Y-111622873D01*
X153756151Y-111626362D01*
X153757777Y-111629806D01*
X153759419Y-111633204D01*
X153761076Y-111636556D01*
X153762749Y-111639864D01*
X153764438Y-111643126D01*
X153766142Y-111646342D01*
X153767862Y-111649513D01*
X153769599Y-111652639D01*
X153771351Y-111655720D01*
X153773119Y-111658755D01*
X153774904Y-111661745D01*
X153776705Y-111664690D01*
X153778523Y-111667590D01*
X153780357Y-111670444D01*
X153782208Y-111673253D01*
X153784076Y-111676018D01*
X153785960Y-111678737D01*
X153787862Y-111681411D01*
X153789781Y-111684040D01*
X153791716Y-111686624D01*
X153793669Y-111689163D01*
X153795640Y-111691657D01*
X153797628Y-111694106D01*
X153799633Y-111696510D01*
X153801656Y-111698870D01*
X153803697Y-111701184D01*
X153805756Y-111703454D01*
X153807833Y-111705679D01*
X153809927Y-111707859D01*
X153812040Y-111709994D01*
X153814172Y-111712085D01*
X153816321Y-111714131D01*
X153818489Y-111716132D01*
X153820676Y-111718089D01*
X153822881Y-111720001D01*
X153825105Y-111721868D01*
X153827348Y-111723691D01*
X153829610Y-111725469D01*
X153831891Y-111727203D01*
X153834191Y-111728892D01*
X153836510Y-111730537D01*
X153838849Y-111732137D01*
X153841207Y-111733693D01*
X153843584Y-111735204D01*
X153845982Y-111736672D01*
X153848399Y-111738094D01*
X153850835Y-111739473D01*
X153853292Y-111740807D01*
X153855769Y-111742097D01*
X153858266Y-111743343D01*
X153860783Y-111744544D01*
X153863321Y-111745701D01*
X153865879Y-111746814D01*
X153868458Y-111747883D01*
X153871057Y-111748908D01*
X153873677Y-111749889D01*
X153876318Y-111750826D01*
X153878979Y-111751719D01*
X153881662Y-111752567D01*
X153884366Y-111753372D01*
X153887091Y-111754133D01*
X153889838Y-111754849D01*
X153892605Y-111755522D01*
X153895395Y-111756151D01*
X153898206Y-111756737D01*
X153901039Y-111757278D01*
X153903893Y-111757775D01*
X153906770Y-111758229D01*
X153909668Y-111758639D01*
X153912589Y-111759006D01*
X153915532Y-111759328D01*
X153918497Y-111759607D01*
X153921485Y-111759842D01*
X153924495Y-111760034D01*
X153927528Y-111760182D01*
X153930583Y-111760287D01*
X153933662Y-111760348D01*
X153936763Y-111760365D01*
X153939887Y-111760339D01*
X153943035Y-111760269D01*
X153946205Y-111760156D01*
X153949399Y-111760000D01*
X153949399Y-111760000D02*
X153952337Y-111759797D01*
X153955293Y-111759512D01*
X153958270Y-111759145D01*
X153961267Y-111758695D01*
X153964286Y-111758160D01*
X153967329Y-111757540D01*
X153970397Y-111756833D01*
X153973490Y-111756038D01*
X153976610Y-111755153D01*
X153979758Y-111754177D01*
X153982936Y-111753108D01*
X153986144Y-111751945D01*
X153989383Y-111750684D01*
X153992655Y-111749325D01*
X153995961Y-111747865D01*
X153999301Y-111746303D01*
X154002678Y-111744634D01*
X154006091Y-111742858D01*
X154009543Y-111740972D01*
X154013033Y-111738973D01*
X154016564Y-111736859D01*
X154020136Y-111734626D01*
X154023750Y-111732273D01*
X154027407Y-111729796D01*
X154031109Y-111727191D01*
X154034855Y-111724457D01*
X154038648Y-111721590D01*
X154042488Y-111718587D01*
X154046377Y-111715444D01*
X154050314Y-111712159D01*
X154054301Y-111708727D01*
X154058340Y-111705145D01*
X154062430Y-111701410D01*
X154066573Y-111697518D01*
X154070770Y-111693466D01*
X154075022Y-111689249D01*
X154079330Y-111684863D01*
X154083695Y-111680306D01*
X154088117Y-111675572D01*
X154092597Y-111670658D01*
X154097138Y-111665559D01*
X154101739Y-111660272D01*
X154106401Y-111654793D01*
X154111126Y-111649115D01*
X154115914Y-111643237D01*
X154120766Y-111637152D01*
X154125684Y-111630857D01*
X154130669Y-111624346D01*
X154135721Y-111617616D01*
X154140841Y-111610660D01*
X154146030Y-111603476D01*
X154151290Y-111596056D01*
X154156622Y-111588397D01*
X154162026Y-111580494D01*
X154167504Y-111572341D01*
X154173056Y-111563933D01*
X154178685Y-111555264D01*
X154184390Y-111546330D01*
X154190174Y-111537124D01*
X154196036Y-111527642D01*
X154201980Y-111517877D01*
X154208005Y-111507823D01*
X154214113Y-111497476D01*
X154220305Y-111486828D01*
X154226582Y-111475873D01*
X154232947Y-111464606D01*
X154239399Y-111453020D01*
X154245941Y-111441109D01*
X154252574Y-111428866D01*
X154259300Y-111416284D01*
X154266119Y-111403356D01*
X154273034Y-111390076D01*
X154280045Y-111376437D01*
X154287155Y-111362430D01*
X154294366Y-111348050D01*
X154301678Y-111333287D01*
X154309094Y-111318135D01*
X154316615Y-111302585D01*
X154324244Y-111286630D01*
X154331981Y-111270260D01*
X154339830Y-111253468D01*
X154347793Y-111236245D01*
X154355871Y-111218581D01*
X154364066Y-111200468D01*
X154372381Y-111181895D01*
X154380819Y-111162854D01*
X154389381Y-111143333D01*
X154398071Y-111123323D01*
X154406891Y-111102813D01*
X154415843Y-111081791D01*
X154424932Y-111060247D01*
X154434159Y-111038167D01*
X154443529Y-111015541D01*
X154453043Y-110992354D01*
X154462707Y-110968594D01*
X154472524Y-110944246D01*
X154482497Y-110919296D01*
X154492630Y-110893729D01*
X154502929Y-110867528D01*
X154513398Y-110840678D01*
X154524041Y-110813159D01*
X154534864Y-110784955D01*
X154545873Y-110756044D01*
X154557073Y-110726406D01*
X154568470Y-110696020D01*
X154580073Y-110664861D01*
X154591887Y-110632905D01*
X154603920Y-110600124D01*
X154616182Y-110566490D01*
X154628681Y-110531973D01*
X154641428Y-110496537D01*
X154654434Y-110460148D01*
X154667710Y-110422764D01*
X154681270Y-110384344D01*
X154695129Y-110344838D01*
X154709303Y-110304194D01*
X154723810Y-110262353D01*
X154738670Y-110219250D01*
X154753908Y-110174810D01*
X154769549Y-110128948D01*
X154785623Y-110081569D01*
X154802167Y-110032560D01*
X154819222Y-109981792D01*
X154836835Y-109929111D01*
X154855068Y-109874330D01*
X154873990Y-109817226D01*
X154893693Y-109757518D01*
X154914289Y-109694850D01*
X154935929Y-109628756D01*
X154958816Y-109558604D01*
X154983237Y-109483497D01*
X155009629Y-109402081D01*
X155038712Y-109312116D01*
X155071855Y-109209353D01*
X155112395Y-109083423D01*
X155140859Y-108994932D01*
X155182420Y-108865735D01*
X155203234Y-108801085D01*
X155224067Y-108736436D01*
X155244917Y-108671816D01*
X155265782Y-108607253D01*
X155286658Y-108542774D01*
X155307545Y-108478407D01*
X155328438Y-108414180D01*
X155349338Y-108350119D01*
X155370240Y-108286252D01*
X155391142Y-108222607D01*
X155401593Y-108190876D01*
X155412043Y-108159211D01*
X155422492Y-108127615D01*
X155432940Y-108096092D01*
X155443386Y-108064645D01*
X155453831Y-108033278D01*
X155464273Y-108001993D01*
X155474713Y-107970795D01*
X155485150Y-107939687D01*
X155495584Y-107908671D01*
X155506014Y-107877753D01*
X155516441Y-107846935D01*
X155526865Y-107816220D01*
X155537284Y-107785613D01*
X155547698Y-107755115D01*
X155558108Y-107724732D01*
X155568513Y-107694466D01*
X155578912Y-107664321D01*
X155589306Y-107634300D01*
X155599694Y-107604407D01*
X155610076Y-107574645D01*
X155620451Y-107545017D01*
X155630820Y-107515527D01*
X155641181Y-107486179D01*
X155651535Y-107456976D01*
X155661882Y-107427921D01*
X155672220Y-107399017D01*
X155682550Y-107370269D01*
X155692872Y-107341680D01*
X155703185Y-107313252D01*
X155713489Y-107284990D01*
X155723784Y-107256897D01*
X155734069Y-107228976D01*
X155744344Y-107201231D01*
X155754608Y-107173665D01*
X155764862Y-107146282D01*
X155775106Y-107119085D01*
X155785338Y-107092078D01*
X155795559Y-107065264D01*
X155805768Y-107038646D01*
X155815965Y-107012228D01*
X155826150Y-106986013D01*
X155836323Y-106960005D01*
X155846482Y-106934207D01*
X155856629Y-106908623D01*
X155866762Y-106883256D01*
X155876881Y-106858109D01*
X155886987Y-106833186D01*
X155897078Y-106808491D01*
X155907155Y-106784027D01*
X155917216Y-106759796D01*
X155927263Y-106735804D01*
X155932280Y-106723898D01*
X155937294Y-106712052D01*
X155942304Y-106700268D01*
X155947309Y-106688546D01*
X155952311Y-106676885D01*
X155957309Y-106665287D01*
X155962302Y-106653752D01*
X155967292Y-106642280D01*
X155972277Y-106630871D01*
X155977259Y-106619527D01*
X155982236Y-106608248D01*
X155987208Y-106597033D01*
X155992177Y-106585884D01*
X155997141Y-106574801D01*
X156002100Y-106563784D01*
X156007056Y-106552834D01*
X156012007Y-106541951D01*
X156016953Y-106531135D01*
X156021895Y-106520388D01*
X156026832Y-106509709D01*
X156031765Y-106499099D01*
X156036693Y-106488558D01*
X156041617Y-106478087D01*
X156046536Y-106467686D01*
X156051450Y-106457356D01*
X156056359Y-106447097D01*
X156061264Y-106436909D01*
X156066164Y-106426793D01*
X156071059Y-106416749D01*
X156075949Y-106406779D01*
X156080834Y-106396881D01*
X156085714Y-106387057D01*
X156090589Y-106377307D01*
X156095459Y-106367631D01*
X156100324Y-106358031D01*
X156105183Y-106348505D01*
X156110038Y-106339056D01*
X156114888Y-106329683D01*
X156119732Y-106320386D01*
X156124571Y-106311166D01*
X156129404Y-106302024D01*
X156134233Y-106292960D01*
X156139056Y-106283974D01*
X156143873Y-106275067D01*
X156148685Y-106266239D01*
X156153492Y-106257490D01*
X156158293Y-106248822D01*
X156163089Y-106240234D01*
X156167879Y-106231727D01*
X156172663Y-106223302D01*
X156177442Y-106214958D01*
X156182215Y-106206697D01*
X156186982Y-106198518D01*
X156191743Y-106190422D01*
X156196499Y-106182409D01*
X156201249Y-106174481D01*
X156205993Y-106166637D01*
X156210731Y-106158878D01*
X156215463Y-106151204D01*
X156220189Y-106143615D01*
X156224909Y-106136113D01*
X156229623Y-106128697D01*
X156234331Y-106121368D01*
X156239033Y-106114127D01*
X156243729Y-106106973D01*
X156248418Y-106099907D01*
X156253101Y-106092930D01*
X156257778Y-106086043D01*
X156262449Y-106079244D01*
X156267113Y-106072536D01*
X156271771Y-106065918D01*
X156276423Y-106059391D01*
X156281068Y-106052955D01*
X156285706Y-106046611D01*
X156290338Y-106040359D01*
X156294964Y-106034199D01*
X156299583Y-106028132D01*
X156304195Y-106022159D01*
X156308800Y-106016280D01*
X156313399Y-106010494D01*
X156317991Y-106004804D01*
X156322577Y-105999208D01*
X156327155Y-105993708D01*
X156331727Y-105988304D01*
X156336292Y-105982997D01*
X156340850Y-105977786D01*
X156345400Y-105972673D01*
X156349944Y-105967657D01*
X156354481Y-105962739D01*
X156359011Y-105957920D01*
X156363534Y-105953200D01*
X156368049Y-105948579D01*
X156372558Y-105944058D01*
X156377059Y-105939637D01*
X156381553Y-105935317D01*
X156386039Y-105931098D01*
X156390519Y-105926981D01*
X156394991Y-105922966D01*
X156399455Y-105919053D01*
X156403912Y-105915242D01*
X156408362Y-105911536D01*
X156412804Y-105907932D01*
X156417239Y-105904433D01*
X156421666Y-105901039D01*
X147954999Y-111963202D02*
X147946528Y-111986408D01*
X147938098Y-112009561D01*
X147929730Y-112032601D01*
X147921403Y-112055589D01*
X147913137Y-112078465D01*
X147904912Y-112101289D01*
X147896748Y-112124001D01*
X147888624Y-112146661D01*
X147880561Y-112169210D01*
X147872538Y-112191707D01*
X147864575Y-112214095D01*
X147856652Y-112236430D01*
X147848790Y-112258656D01*
X147840966Y-112280831D01*
X147833202Y-112302896D01*
X147825478Y-112324911D01*
X147817812Y-112346817D01*
X147810186Y-112368672D01*
X147802618Y-112390419D01*
X147795090Y-112412116D01*
X147787619Y-112433705D01*
X147780188Y-112455245D01*
X147772814Y-112476677D01*
X147765479Y-112498059D01*
X147758201Y-112519335D01*
X147750961Y-112540562D01*
X147743779Y-112561682D01*
X147736634Y-112582753D01*
X147729547Y-112603720D01*
X147722497Y-112624636D01*
X147715503Y-112645449D01*
X147708547Y-112666212D01*
X147701647Y-112686871D01*
X147694785Y-112707482D01*
X147687978Y-112727989D01*
X147681208Y-112748448D01*
X147674493Y-112768804D01*
X147667815Y-112789111D01*
X147661192Y-112809317D01*
X147654605Y-112829474D01*
X147648073Y-112849530D01*
X147641578Y-112869538D01*
X147635136Y-112889444D01*
X147628731Y-112909304D01*
X147622380Y-112929062D01*
X147616064Y-112948774D01*
X147609802Y-112968385D01*
X147603575Y-112987949D01*
X147597402Y-113007414D01*
X147591264Y-113026832D01*
X147585178Y-113046151D01*
X147579128Y-113065424D01*
X147573130Y-113084598D01*
X147567167Y-113103726D01*
X147561256Y-113122756D01*
X147555380Y-113141740D01*
X147549555Y-113160627D01*
X147543765Y-113179468D01*
X147538026Y-113198212D01*
X147532322Y-113216911D01*
X147526668Y-113235513D01*
X147521049Y-113254070D01*
X147515479Y-113272531D01*
X147509944Y-113290948D01*
X147504459Y-113309269D01*
X147499008Y-113327545D01*
X147493606Y-113345727D01*
X147488238Y-113363864D01*
X147482919Y-113381908D01*
X147477633Y-113399906D01*
X147472397Y-113417812D01*
X147467193Y-113435673D01*
X147462038Y-113453441D01*
X147456917Y-113471165D01*
X147451842Y-113488797D01*
X147446802Y-113506385D01*
X147441808Y-113523881D01*
X147436848Y-113541334D01*
X147431934Y-113558696D01*
X147427054Y-113576014D01*
X147422220Y-113593241D01*
X147417418Y-113610426D01*
X147412663Y-113627520D01*
X147407940Y-113644572D01*
X147403263Y-113661533D01*
X147398619Y-113678452D01*
X147394020Y-113695282D01*
X147389453Y-113712070D01*
X147384930Y-113728768D01*
X147380441Y-113745425D01*
X147375995Y-113761994D01*
X147371582Y-113778521D01*
X147367212Y-113794959D01*
X147362875Y-113811357D01*
X147358581Y-113827667D01*
X147354319Y-113843936D01*
X147350100Y-113860118D01*
X147345912Y-113876259D01*
X147341768Y-113892314D01*
X147337655Y-113908328D01*
X147333584Y-113924257D01*
X147329545Y-113940145D01*
X147325547Y-113955947D01*
X147321581Y-113971709D01*
X147317657Y-113987387D01*
X147313763Y-114003024D01*
X147309911Y-114018577D01*
X147306089Y-114034090D01*
X147302309Y-114049520D01*
X147298559Y-114064910D01*
X147294850Y-114080216D01*
X147291171Y-114095484D01*
X147287532Y-114110668D01*
X147283924Y-114125813D01*
X147280356Y-114140876D01*
X147276817Y-114155900D01*
X147273318Y-114170843D01*
X147269849Y-114185746D01*
X147266420Y-114200568D01*
X147263019Y-114215352D01*
X147259658Y-114230055D01*
X147256327Y-114244720D01*
X147253034Y-114259304D01*
X147249770Y-114273851D01*
X147246544Y-114288317D01*
X147243348Y-114302746D01*
X147240189Y-114317096D01*
X147237059Y-114331407D01*
X147233968Y-114345640D01*
X147230904Y-114359836D01*
X147227878Y-114373953D01*
X147224881Y-114388034D01*
X147221920Y-114402036D01*
X147218988Y-114416001D01*
X147216092Y-114429889D01*
X147213225Y-114443740D01*
X147210394Y-114457515D01*
X147207591Y-114471253D01*
X147204823Y-114484914D01*
X147202084Y-114498539D01*
X147199380Y-114512088D01*
X147196704Y-114525601D01*
X147194064Y-114539039D01*
X147191450Y-114552441D01*
X147188872Y-114565767D01*
X147186321Y-114579059D01*
X147183805Y-114592275D01*
X147181316Y-114605456D01*
X147178861Y-114618564D01*
X147176433Y-114631636D01*
X147174039Y-114644634D01*
X147171672Y-114657597D01*
X147169339Y-114670488D01*
X147167032Y-114683343D01*
X147164758Y-114696126D01*
X147162512Y-114708874D01*
X147160298Y-114721550D01*
X147158110Y-114734192D01*
X147155955Y-114746762D01*
X147153827Y-114759298D01*
X147151731Y-114771762D01*
X147149660Y-114784193D01*
X147147622Y-114796553D01*
X147145610Y-114808879D01*
X147143629Y-114821135D01*
X147141675Y-114833357D01*
X147139751Y-114845509D01*
X147137853Y-114857628D01*
X147135987Y-114869678D01*
X147134145Y-114881694D01*
X147132335Y-114893642D01*
X147130549Y-114905557D01*
X147128795Y-114917403D01*
X147127065Y-114929216D01*
X147125365Y-114940962D01*
X147123691Y-114952674D01*
X147122046Y-114964320D01*
X147120426Y-114975933D01*
X147118836Y-114987478D01*
X147117270Y-114998992D01*
X147115734Y-115010439D01*
X147114222Y-115021854D01*
X147112739Y-115033203D01*
X147111280Y-115044520D01*
X147109850Y-115055772D01*
X147108444Y-115066991D01*
X147107067Y-115078146D01*
X147105713Y-115089269D01*
X147104388Y-115100327D01*
X147103086Y-115111354D01*
X147101813Y-115122317D01*
X147100563Y-115133249D01*
X147099340Y-115144116D01*
X147098141Y-115154953D01*
X147096969Y-115165727D01*
X147095821Y-115176470D01*
X147094700Y-115187149D01*
X147093601Y-115197799D01*
X147092530Y-115208385D01*
X147091482Y-115218942D01*
X147090460Y-115229436D01*
X147089460Y-115239900D01*
X147088487Y-115250303D01*
X147087537Y-115260675D01*
X147086613Y-115270986D01*
X147085711Y-115281268D01*
X147084835Y-115291489D01*
X147083981Y-115301680D01*
X147083153Y-115311811D01*
X147082347Y-115321912D01*
X147081566Y-115331954D01*
X147080807Y-115341966D01*
X147080073Y-115351919D01*
X147079361Y-115361842D01*
X147078673Y-115371707D01*
X147078008Y-115381543D01*
X147077366Y-115391320D01*
X147076747Y-115401069D01*
X147076151Y-115410759D01*
X147075577Y-115420421D01*
X147075026Y-115430025D01*
X147074497Y-115439600D01*
X147073991Y-115449119D01*
X147073507Y-115458609D01*
X147073046Y-115468042D01*
X147072606Y-115477448D01*
X147072189Y-115486796D01*
X147071793Y-115496117D01*
X147071420Y-115505382D01*
X147071068Y-115514620D01*
X147070737Y-115523801D01*
X147070428Y-115532956D01*
X147070141Y-115542054D01*
X147069875Y-115551126D01*
X147069630Y-115560143D01*
X147069406Y-115569133D01*
X147069203Y-115578068D01*
X147069022Y-115586976D01*
X147068861Y-115595831D01*
X147068720Y-115604658D01*
X147068601Y-115613432D01*
X147068502Y-115622180D01*
X147068423Y-115630874D01*
X147068365Y-115639542D01*
X147068327Y-115648157D01*
X147068310Y-115656746D01*
X147068312Y-115665282D01*
X147068335Y-115673793D01*
X147068377Y-115682251D01*
X147068439Y-115690684D01*
X147068521Y-115699065D01*
X147068623Y-115707420D01*
X147068744Y-115715724D01*
X147068884Y-115724002D01*
X147069044Y-115732230D01*
X147069223Y-115740432D01*
X147069422Y-115748584D01*
X147069639Y-115756711D01*
X147069875Y-115764787D01*
X147070131Y-115772839D01*
X147070405Y-115780841D01*
X147070698Y-115788818D01*
X147071010Y-115796746D01*
X147071340Y-115804649D01*
X147071689Y-115812503D01*
X147072056Y-115820333D01*
X147072442Y-115828114D01*
X147072846Y-115835871D01*
X147073267Y-115843580D01*
X147073708Y-115851265D01*
X147074165Y-115858902D01*
X147074641Y-115866515D01*
X147075135Y-115874080D01*
X147075647Y-115881622D01*
X147076175Y-115889117D01*
X147076722Y-115896588D01*
X147077286Y-115904012D01*
X147077868Y-115911413D01*
X147078467Y-115918768D01*
X147079083Y-115926099D01*
X147079716Y-115933385D01*
X147080367Y-115940647D01*
X147081034Y-115947864D01*
X147081719Y-115955058D01*
X147082420Y-115962207D01*
X147083139Y-115969332D01*
X147083873Y-115976414D01*
X147084625Y-115983472D01*
X147085392Y-115990486D01*
X147086177Y-115997477D01*
X147086978Y-116004425D01*
X147087796Y-116011350D01*
X147088628Y-116018231D01*
X147089479Y-116025090D01*
X147090344Y-116031906D01*
X147091226Y-116038700D01*
X147092123Y-116045451D01*
X147093038Y-116052180D01*
X147093967Y-116058866D01*
X147094913Y-116065530D01*
X147095873Y-116072153D01*
X147096850Y-116078754D01*
X147097841Y-116085313D01*
X147098850Y-116091850D01*
X147099872Y-116098346D01*
X147100911Y-116104820D01*
X147101964Y-116111254D01*
X147103033Y-116117666D01*
X147104116Y-116124037D01*
X147105216Y-116130387D01*
X147106329Y-116136698D01*
X147107459Y-116142986D01*
X147108601Y-116149236D01*
X147109761Y-116155463D01*
X147110933Y-116161652D01*
X147112122Y-116167820D01*
X147113324Y-116173948D01*
X147114541Y-116180056D01*
X147115772Y-116186125D01*
X147117019Y-116192173D01*
X147118278Y-116198184D01*
X147119554Y-116204173D01*
X147120842Y-116210125D01*
X147122146Y-116216055D01*
X147123462Y-116221949D01*
X147124794Y-116227822D01*
X147126138Y-116233658D01*
X147127498Y-116239473D01*
X147128870Y-116245252D01*
X147130258Y-116251011D01*
X147131658Y-116256733D01*
X147133073Y-116262435D01*
X147134500Y-116268101D01*
X147135943Y-116273747D01*
X147137397Y-116279357D01*
X147138866Y-116284947D01*
X147140347Y-116290502D01*
X147141844Y-116296037D01*
X147143351Y-116301537D01*
X147144874Y-116307018D01*
X147146409Y-116312464D01*
X147147958Y-116317890D01*
X147149519Y-116323282D01*
X147151094Y-116328654D01*
X147152681Y-116333992D01*
X147154283Y-116339311D01*
X147155895Y-116344597D01*
X147157523Y-116349863D01*
X147159161Y-116355096D01*
X147160814Y-116360310D01*
X147162478Y-116365490D01*
X147164156Y-116370652D01*
X147165845Y-116375781D01*
X147167549Y-116380891D01*
X147169263Y-116385969D01*
X147170992Y-116391028D01*
X147172731Y-116396055D01*
X147174485Y-116401063D01*
X147176249Y-116406040D01*
X147178028Y-116410998D01*
X147179816Y-116415924D01*
X147181619Y-116420832D01*
X147183433Y-116425709D01*
X147185260Y-116430568D01*
X147187098Y-116435396D01*
X147188949Y-116440205D01*
X147190811Y-116444985D01*
X147192687Y-116449746D01*
X147192999Y-116450532D01*
X156421666Y-105901039D02*
X156424490Y-105898918D01*
X156427317Y-105896819D01*
X156430146Y-105894744D01*
X156432978Y-105892692D01*
X156435813Y-105890662D01*
X156438650Y-105888655D01*
X156441489Y-105886671D01*
X156444332Y-105884709D01*
X156447177Y-105882770D01*
X156450024Y-105880853D01*
X156452874Y-105878959D01*
X156455727Y-105877087D01*
X156458581Y-105875237D01*
X156461439Y-105873409D01*
X156464299Y-105871603D01*
X156467162Y-105869820D01*
X156470027Y-105868058D01*
X156472895Y-105866318D01*
X156475765Y-105864600D01*
X156478638Y-105862904D01*
X156481514Y-105861229D01*
X156484392Y-105859576D01*
X156487272Y-105857945D01*
X156490155Y-105856335D01*
X156493041Y-105854746D01*
X156495929Y-105853179D01*
X156498820Y-105851633D01*
X156501714Y-105850109D01*
X156504610Y-105848606D01*
X156507509Y-105847124D01*
X156510410Y-105845662D01*
X156513314Y-105844223D01*
X156516220Y-105842803D01*
X156519129Y-105841405D01*
X156522041Y-105840028D01*
X156524956Y-105838672D01*
X156527873Y-105837336D01*
X156530792Y-105836022D01*
X156533715Y-105834727D01*
X156536640Y-105833454D01*
X156539568Y-105832201D01*
X156542498Y-105830969D01*
X156545431Y-105829757D01*
X156548367Y-105828566D01*
X156551306Y-105827395D01*
X156554247Y-105826245D01*
X156557191Y-105825115D01*
X156560138Y-105824005D01*
X156563088Y-105822916D01*
X156566039Y-105821847D01*
X156568995Y-105820798D01*
X156571953Y-105819769D01*
X156577877Y-105817773D01*
X156583813Y-105815856D01*
X156589760Y-105814020D01*
X156595719Y-105812264D01*
X156601689Y-105810587D01*
X156607671Y-105808990D01*
X156613665Y-105807473D01*
X156619671Y-105806035D01*
X156625689Y-105804676D01*
X156631720Y-105803396D01*
X156637763Y-105802195D01*
X156643818Y-105801074D01*
X156649885Y-105800031D01*
X156655965Y-105799067D01*
X156662058Y-105798182D01*
X156668164Y-105797375D01*
X156674283Y-105796648D01*
X156680415Y-105795999D01*
X156686560Y-105795430D01*
X156692718Y-105794939D01*
X156698889Y-105794528D01*
X156705073Y-105794195D01*
X156711271Y-105793942D01*
X156717483Y-105793768D01*
X156723708Y-105793674D01*
X156729946Y-105793660D01*
X156736199Y-105793725D01*
X156742464Y-105793871D01*
X156748744Y-105794097D01*
X156755037Y-105794403D01*
X156761344Y-105794790D01*
X156767664Y-105795257D01*
X156773998Y-105795806D01*
X156780346Y-105796437D01*
X156786707Y-105797149D01*
X156793082Y-105797943D01*
X156799471Y-105798819D01*
X156805872Y-105799777D01*
X156812287Y-105800819D01*
X156818716Y-105801944D01*
X156825157Y-105803152D01*
X156831612Y-105804443D01*
X156838079Y-105805819D01*
X156844559Y-105807280D01*
X156851051Y-105808825D01*
X156857556Y-105810455D01*
X156864073Y-105812171D01*
X156870602Y-105813972D01*
X156877143Y-105815860D01*
X156883695Y-105817834D01*
X156890258Y-105819895D01*
X156896832Y-105822043D01*
X156903416Y-105824279D01*
X156910011Y-105826603D01*
X156916615Y-105829015D01*
X156923229Y-105831515D01*
X156929852Y-105834105D01*
X156936484Y-105836783D01*
X156943124Y-105839552D01*
X156949772Y-105842410D01*
X156956428Y-105845358D01*
X156963090Y-105848397D01*
X156969758Y-105851527D01*
X156976433Y-105854748D01*
X156983113Y-105858060D01*
X156989797Y-105861464D01*
X156996486Y-105864960D01*
X157003178Y-105868548D01*
X157009873Y-105872228D01*
X157016570Y-105876000D01*
X157023269Y-105879866D01*
X157029969Y-105883824D01*
X157036668Y-105887875D01*
X157043368Y-105892019D01*
X157050066Y-105896257D01*
X157056761Y-105900588D01*
X157063454Y-105905012D01*
X157070143Y-105909529D01*
X157076827Y-105914140D01*
X157083506Y-105918845D01*
X157090179Y-105923642D01*
X157096844Y-105928534D01*
X157103501Y-105933518D01*
X157110149Y-105938595D01*
X157116787Y-105943766D01*
X157123414Y-105949029D01*
X157130029Y-105954385D01*
X157136631Y-105959833D01*
X157143218Y-105965373D01*
X157149791Y-105971005D01*
X157156347Y-105976729D01*
X157162886Y-105982544D01*
X157169407Y-105988449D01*
X157175908Y-105994445D01*
X157182389Y-106000531D01*
X157188847Y-106006706D01*
X157195284Y-106012970D01*
X157201696Y-106019322D01*
X157208083Y-106025762D01*
X157214443Y-106032289D01*
X157220776Y-106038903D01*
X157227081Y-106045602D01*
X157233356Y-106052387D01*
X157239599Y-106059256D01*
X157245811Y-106066208D01*
X157251989Y-106073243D01*
X157258132Y-106080360D01*
X157264239Y-106087558D01*
X157270310Y-106094836D01*
X157276342Y-106102193D01*
X157282335Y-106109628D01*
X157288287Y-106117140D01*
X157294197Y-106124728D01*
X157300065Y-106132392D01*
X157305888Y-106140129D01*
X157311665Y-106147939D01*
X157317396Y-106155821D01*
X157323080Y-106163773D01*
X157328714Y-106171795D01*
X157334298Y-106179884D01*
X157339832Y-106188040D01*
X157345313Y-106196262D01*
X157350740Y-106204549D01*
X157356113Y-106212898D01*
X157361431Y-106221308D01*
X157364069Y-106225537D01*
X157366692Y-106229779D01*
X157369301Y-106234037D01*
X157371895Y-106238309D01*
X157374475Y-106242596D01*
X157377040Y-106246896D01*
X157379590Y-106251211D01*
X157382124Y-106255540D01*
X157384644Y-106259882D01*
X157387148Y-106264238D01*
X157389637Y-106268607D01*
X157392111Y-106272989D01*
X157394569Y-106277384D01*
X157397011Y-106281793D01*
X157399437Y-106286213D01*
X157401847Y-106290646D01*
X157404241Y-106295091D01*
X157406618Y-106299549D01*
X157408980Y-106304018D01*
X157411325Y-106308499D01*
X157413653Y-106312991D01*
X157415965Y-106317495D01*
X157418259Y-106322009D01*
X157420538Y-106326536D01*
X157422798Y-106331072D01*
X157425043Y-106335619D01*
X157427269Y-106340176D01*
X157429479Y-106344745D01*
X157431670Y-106349322D01*
X157433845Y-106353910D01*
X157436002Y-106358507D01*
X157438142Y-106363114D01*
X157440263Y-106367730D01*
X157442367Y-106372356D01*
X157444453Y-106376989D01*
X157446521Y-106381633D01*
X157448570Y-106386283D01*
X157450602Y-106390944D01*
X157452615Y-106395611D01*
X157454610Y-106400288D01*
X157456586Y-106404970D01*
X157458545Y-106409663D01*
X157460483Y-106414361D01*
X157462405Y-106419068D01*
X157464306Y-106423780D01*
X157466190Y-106428502D01*
X157468053Y-106433227D01*
X157469899Y-106437962D01*
X157471725Y-106442700D01*
X157473533Y-106447448D01*
X157475321Y-106452199D01*
X157477090Y-106456958D01*
X157478839Y-106461720D01*
X157480570Y-106466491D01*
X157482280Y-106471263D01*
X157483973Y-106476045D01*
X157485644Y-106480827D01*
X157487297Y-106485618D01*
X157488930Y-106490410D01*
X157490544Y-106495211D01*
X157492136Y-106500011D01*
X157493711Y-106504820D01*
X157495264Y-106509629D01*
X157496799Y-106514445D01*
X157498313Y-106519261D01*
X157499808Y-106524085D01*
X157501282Y-106528908D01*
X157502737Y-106533738D01*
X157504171Y-106538566D01*
X157505586Y-106543402D01*
X157506980Y-106548236D01*
X157508355Y-106553077D01*
X157509708Y-106557916D01*
X157511043Y-106562762D01*
X157512356Y-106567605D01*
X157513650Y-106572454D01*
X157514922Y-106577301D01*
X157516176Y-106582154D01*
X157517407Y-106587003D01*
X157518620Y-106591858D01*
X157519811Y-106596710D01*
X157520983Y-106601568D01*
X157522134Y-106606421D01*
X157523265Y-106611280D01*
X157524374Y-106616135D01*
X157525464Y-106620995D01*
X157526533Y-106625850D01*
X157527582Y-106630710D01*
X157528610Y-106635566D01*
X157529618Y-106640426D01*
X157530604Y-106645281D01*
X157531571Y-106650140D01*
X157532517Y-106654994D01*
X157533443Y-106659852D01*
X157534347Y-106664704D01*
X157535232Y-106669561D01*
X157536095Y-106674410D01*
X157536939Y-106679265D01*
X157537761Y-106684112D01*
X157538564Y-106688964D01*
X157539345Y-106693808D01*
X157540106Y-106698656D01*
X157540846Y-106703497D01*
X157541566Y-106708341D01*
X157542265Y-106713178D01*
X157542944Y-106718018D01*
X157543602Y-106722850D01*
X157544240Y-106727686D01*
X157544856Y-106732513D01*
X157545453Y-106737343D01*
X157546029Y-106742165D01*
X157546584Y-106746990D01*
X157547119Y-106751806D01*
X157547634Y-106756625D01*
X157548127Y-106761435D01*
X157548601Y-106766247D01*
X157549054Y-106771050D01*
X157549486Y-106775856D01*
X157549898Y-106780652D01*
X157550290Y-106785450D01*
X157550661Y-106790239D01*
X157551012Y-106795030D01*
X157551342Y-106799811D01*
X157551653Y-106804594D01*
X157551942Y-106809367D01*
X157552212Y-106814141D01*
X157552461Y-106818906D01*
X157552689Y-106823672D01*
X157552898Y-106828427D01*
X157553086Y-106833184D01*
X157553254Y-106837930D01*
X157553402Y-106842678D01*
X157553530Y-106847414D01*
X157553637Y-106852152D01*
X157553724Y-106856879D01*
X157553791Y-106861607D01*
X157553838Y-106866324D01*
X157553865Y-106871042D01*
X157553872Y-106875748D01*
X157553859Y-106880455D01*
X157553826Y-106885151D01*
X157553772Y-106889847D01*
X157553699Y-106894532D01*
X157553606Y-106899217D01*
X157553493Y-106903891D01*
X157553360Y-106908564D01*
X157553207Y-106913226D01*
X157553034Y-106917888D01*
X157552842Y-106922539D01*
X157552629Y-106927189D01*
X157552397Y-106931827D01*
X157552145Y-106936465D01*
X157551873Y-106941091D01*
X157551582Y-106945717D01*
X157551271Y-106950330D01*
X157550940Y-106954944D01*
X157550590Y-106959544D01*
X157550219Y-106964145D01*
X157549830Y-106968733D01*
X157549421Y-106973320D01*
X157548992Y-106977895D01*
X157548544Y-106982469D01*
X157548076Y-106987031D01*
X157547589Y-106991592D01*
X157547083Y-106996140D01*
X157546556Y-107000687D01*
X157546011Y-107005221D01*
X157545446Y-107009755D01*
X157544862Y-107014276D01*
X157544259Y-107018795D01*
X157543636Y-107023302D01*
X157542994Y-107027807D01*
X157542333Y-107032300D01*
X157541653Y-107036791D01*
X157540953Y-107041270D01*
X157540234Y-107045746D01*
X157539497Y-107050210D01*
X157538740Y-107054673D01*
X157537964Y-107059122D01*
X157537168Y-107063570D01*
X157536355Y-107068005D01*
X157535521Y-107072437D01*
X157534669Y-107076857D01*
X157533798Y-107081275D01*
X157532908Y-107085680D01*
X157531999Y-107090083D01*
X157531071Y-107094473D01*
X157530124Y-107098861D01*
X157529159Y-107103236D01*
X157528174Y-107107608D01*
X157527171Y-107111968D01*
X157526148Y-107116325D01*
X157525108Y-107120669D01*
X157524048Y-107125011D01*
X157522970Y-107129339D01*
X157521872Y-107133666D01*
X157520757Y-107137979D01*
X157519622Y-107142289D01*
X157518469Y-107146587D01*
X157517297Y-107150882D01*
X157516107Y-107155163D01*
X157514898Y-107159442D01*
X157513671Y-107163709D01*
X157512424Y-107167972D01*
X157511160Y-107172222D01*
X157509876Y-107176469D01*
X157508575Y-107180703D01*
X157507254Y-107184934D01*
X157505916Y-107189153D01*
X157504558Y-107193368D01*
X157503183Y-107197570D01*
X157501788Y-107201769D01*
X157500376Y-107205955D01*
X157498944Y-107210138D01*
X157497495Y-107214308D01*
X157496027Y-107218475D01*
X157494541Y-107222628D01*
X157493036Y-107226779D01*
X157491514Y-107230916D01*
X157489972Y-107235050D01*
X157488413Y-107239171D01*
X157486834Y-107243289D01*
X157485238Y-107247394D01*
X157483623Y-107251495D01*
X157481991Y-107255583D01*
X157480339Y-107259668D01*
X157478670Y-107263740D01*
X157476982Y-107267808D01*
X157475276Y-107271864D01*
X157473551Y-107275915D01*
X157471810Y-107279954D01*
X157470048Y-107283989D01*
X157468270Y-107288012D01*
X157466472Y-107292030D01*
X157464657Y-107296036D01*
X157462822Y-107300038D01*
X157460971Y-107304027D01*
X157459100Y-107308012D01*
X157457212Y-107311985D01*
X157455305Y-107315953D01*
X157453381Y-107319910D01*
X157451437Y-107323861D01*
X157449476Y-107327801D01*
X157447496Y-107331736D01*
X157445499Y-107335658D01*
X157443482Y-107339576D01*
X157441449Y-107343483D01*
X157439395Y-107347384D01*
X157437325Y-107351273D01*
X157435236Y-107355158D01*
X157433129Y-107359031D01*
X157431003Y-107362898D01*
X157428860Y-107366754D01*
X157426697Y-107370605D01*
X157424518Y-107374444D01*
X157422319Y-107378278D01*
X157420103Y-107382100D01*
X157417867Y-107385917D01*
X157415615Y-107389723D01*
X157413342Y-107393523D01*
X157411053Y-107397311D01*
X157408744Y-107401095D01*
X157406419Y-107404866D01*
X157404073Y-107408633D01*
X157401711Y-107412387D01*
X157399329Y-107416137D01*
X157396930Y-107419875D01*
X157394511Y-107423607D01*
X157392075Y-107427328D01*
X157389619Y-107431043D01*
X157387147Y-107434747D01*
X157384654Y-107438446D01*
X157382145Y-107442133D01*
X157379615Y-107445814D01*
X157377069Y-107449484D01*
X157374502Y-107453148D01*
X157371919Y-107456802D01*
X157369316Y-107460449D01*
X157366695Y-107464085D01*
X157364055Y-107467715D01*
X157361398Y-107471334D01*
X157358720Y-107474947D01*
X157356025Y-107478549D01*
X157353311Y-107482145D01*
X157350579Y-107485730D01*
X157347827Y-107489308D01*
X157345057Y-107492876D01*
X157342268Y-107496438D01*
X157339461Y-107499988D01*
X157336634Y-107503533D01*
X157333790Y-107507066D01*
X157330926Y-107510593D01*
X157328044Y-107514110D01*
X157325142Y-107517619D01*
X157322222Y-107521119D01*
X157319282Y-107524611D01*
X157316325Y-107528093D01*
X157313347Y-107531568D01*
X157310352Y-107535033D01*
X157307336Y-107538490D01*
X157304303Y-107541938D01*
X157301249Y-107545378D01*
X157298178Y-107548808D01*
X157295086Y-107552231D01*
X157291976Y-107555644D01*
X157288846Y-107559049D01*
X157285698Y-107562445D01*
X157282530Y-107565833D01*
X157279343Y-107569210D01*
X157276136Y-107572581D01*
X157272911Y-107575941D01*
X157269665Y-107579294D01*
X157266402Y-107582637D01*
X157263117Y-107585972D01*
X157259814Y-107589298D01*
X157256491Y-107592615D01*
X157253149Y-107595923D01*
X157249787Y-107599223D01*
X157246406Y-107602513D01*
X157243004Y-107605795D01*
X157239584Y-107609067D01*
X157236143Y-107612332D01*
X157232684Y-107615586D01*
X157229203Y-107618833D01*
X157225704Y-107622070D01*
X157222184Y-107625298D01*
X157218645Y-107628517D01*
X157215086Y-107631728D01*
X157211507Y-107634929D01*
X157207907Y-107638122D01*
X157204288Y-107641304D01*
X157200649Y-107644479D01*
X157196990Y-107647644D01*
X157193310Y-107650801D01*
X157189610Y-107653947D01*
X157185890Y-107657086D01*
X157182150Y-107660214D01*
X157178389Y-107663335D01*
X157174609Y-107666445D01*
X157170807Y-107669547D01*
X157166986Y-107672639D01*
X157163143Y-107675722D01*
X157159281Y-107678796D01*
X157155397Y-107681861D01*
X157151493Y-107684916D01*
X157147568Y-107687963D01*
X157143623Y-107691000D01*
X157139657Y-107694028D01*
X157135670Y-107697046D01*
X157131662Y-107700055D01*
X157127634Y-107703054D01*
X157123584Y-107706045D01*
X157119514Y-107709026D01*
X157115422Y-107711997D01*
X157111309Y-107714959D01*
X157107175Y-107717912D01*
X157103021Y-107720855D01*
X157098844Y-107723788D01*
X157094647Y-107726712D01*
X157090428Y-107729627D01*
X157086188Y-107732532D01*
X157081926Y-107735427D01*
X157077643Y-107738313D01*
X157073338Y-107741189D01*
X157069012Y-107744055D01*
X157064664Y-107746912D01*
X157060295Y-107749759D01*
X157055904Y-107752596D01*
X157051491Y-107755423D01*
X157047056Y-107758241D01*
X157042599Y-107761049D01*
X157038120Y-107763847D01*
X157033620Y-107766635D01*
X157029097Y-107769413D01*
X157024552Y-107772181D01*
X157019985Y-107774940D01*
X157015396Y-107777688D01*
X157010785Y-107780426D01*
X157006151Y-107783155D01*
X157001495Y-107785873D01*
X156996817Y-107788581D01*
X156992116Y-107791279D01*
X156987392Y-107793967D01*
X156982646Y-107796644D01*
X156977877Y-107799312D01*
X156973086Y-107801969D01*
X156968271Y-107804616D01*
X156963434Y-107807252D01*
X156958574Y-107809879D01*
X156953691Y-107812494D01*
X156948785Y-107815100D01*
X156943857Y-107817695D01*
X156938905Y-107820280D01*
X156933930Y-107822854D01*
X156928931Y-107825417D01*
X156923909Y-107827970D01*
X156918864Y-107830513D01*
X156913796Y-107833044D01*
X156908704Y-107835565D01*
X156903589Y-107838076D01*
X156898449Y-107840575D01*
X156893287Y-107843064D01*
X156888101Y-107845542D01*
X156882891Y-107848009D01*
X156877657Y-107850466D01*
X156872399Y-107852911D01*
X156867117Y-107855346D01*
X156861812Y-107857769D01*
X156856482Y-107860182D01*
X156851128Y-107862583D01*
X156845000Y-107865305D01*
X156845000Y-107865305D02*
X156834778Y-107869778D01*
X156824227Y-107874308D01*
X156813338Y-107878895D01*
X156802104Y-107883540D01*
X156790517Y-107888245D01*
X156778568Y-107893010D01*
X156766248Y-107897837D01*
X156753549Y-107902727D01*
X156740461Y-107907680D01*
X156726975Y-107912698D01*
X156713082Y-107917782D01*
X156698771Y-107922933D01*
X156684033Y-107928153D01*
X156668856Y-107933444D01*
X156653231Y-107938806D01*
X156637145Y-107944241D01*
X156620589Y-107949750D01*
X156603549Y-107955336D01*
X156586014Y-107961001D01*
X156567971Y-107966745D01*
X156549407Y-107972571D01*
X156530308Y-107978480D01*
X156510661Y-107984476D01*
X156490451Y-107990560D01*
X156469662Y-107996734D01*
X156448279Y-108003001D01*
X156426285Y-108009364D01*
X156403664Y-108015825D01*
X156380397Y-108022388D01*
X156356465Y-108029055D01*
X156331848Y-108035829D01*
X156306526Y-108042715D01*
X156280478Y-108049715D01*
X156253679Y-108056834D01*
X156226105Y-108064076D01*
X156197731Y-108071446D01*
X156168529Y-108078949D01*
X156138470Y-108086589D01*
X156107522Y-108094372D01*
X156075653Y-108102305D01*
X156042827Y-108110393D01*
X156009005Y-108118645D01*
X155974145Y-108127068D01*
X155938203Y-108135671D01*
X155901129Y-108144462D01*
X155862870Y-108153452D01*
X155823367Y-108162653D01*
X155782556Y-108172076D01*
X155740364Y-108181737D01*
X155696712Y-108191650D01*
X155651510Y-108201834D01*
X155604657Y-108212308D01*
X155556036Y-108223096D01*
X155505517Y-108234224D01*
X155452944Y-108245723D01*
X155398138Y-108257629D01*
X155340886Y-108269986D01*
X155280929Y-108282845D01*
X155217951Y-108296272D01*
X155151556Y-108310346D01*
X155081237Y-108325172D01*
X155006321Y-108340887D01*
X154925878Y-108357681D01*
X154838562Y-108375832D01*
X154742262Y-108395771D01*
X154633306Y-108418253D01*
X154504034Y-108444853D01*
X154317464Y-108483168D01*
X154181616Y-108511061D01*
X154043970Y-108539357D01*
X153974506Y-108553661D01*
X153904634Y-108568070D01*
X153834367Y-108582586D01*
X153763720Y-108597210D01*
X153692706Y-108611944D01*
X153621339Y-108626790D01*
X153549633Y-108641748D01*
X153477602Y-108656821D01*
X153405259Y-108672009D01*
X153332620Y-108687314D01*
X153259696Y-108702739D01*
X153186503Y-108718283D01*
X153113054Y-108733949D01*
X153039364Y-108749738D01*
X152965445Y-108765651D01*
X152928404Y-108773655D01*
X152891312Y-108781691D01*
X152854169Y-108789759D01*
X152816978Y-108797858D01*
X152779741Y-108805990D01*
X152742459Y-108814154D01*
X152705133Y-108822351D01*
X152667766Y-108830581D01*
X152630359Y-108838844D01*
X152592915Y-108847140D01*
X152555434Y-108855469D01*
X152517919Y-108863832D01*
X152480371Y-108872228D01*
X152442792Y-108880659D01*
X152405183Y-108889123D01*
X152367548Y-108897622D01*
X152329886Y-108906155D01*
X152292200Y-108914723D01*
X152254492Y-108923325D01*
X152216763Y-108931963D01*
X152179016Y-108940636D01*
X152141251Y-108949344D01*
X152103471Y-108958088D01*
X152065677Y-108966868D01*
X152027871Y-108975683D01*
X151990055Y-108984535D01*
X151952231Y-108993423D01*
X151914400Y-109002347D01*
X151876563Y-109011308D01*
X151838724Y-109020306D01*
X151800883Y-109029341D01*
X151763042Y-109038413D01*
X151725203Y-109047523D01*
X151687368Y-109056670D01*
X151649538Y-109065855D01*
X151611715Y-109075078D01*
X151573901Y-109084339D01*
X151536098Y-109093638D01*
X151498307Y-109102976D01*
X151460530Y-109112352D01*
X151422769Y-109121768D01*
X151385025Y-109131222D01*
X151347301Y-109140716D01*
X151309597Y-109150249D01*
X151271917Y-109159822D01*
X151234261Y-109169434D01*
X151196631Y-109179087D01*
X151159029Y-109188780D01*
X151121456Y-109198513D01*
X151083915Y-109208286D01*
X151046407Y-109218101D01*
X151008934Y-109227956D01*
X150971498Y-109237852D01*
X150934100Y-109247790D01*
X150896742Y-109257769D01*
X150859426Y-109267789D01*
X150822153Y-109277852D01*
X150784925Y-109287956D01*
X150747745Y-109298103D01*
X150710613Y-109308292D01*
X150673532Y-109318523D01*
X150636503Y-109328798D01*
X150599528Y-109339115D01*
X150562608Y-109349475D01*
X150525746Y-109359879D01*
X150488943Y-109370326D01*
X150452201Y-109380817D01*
X150415522Y-109391351D01*
X150378907Y-109401930D01*
X150342358Y-109412553D01*
X150305877Y-109423220D01*
X150269465Y-109433932D01*
X150233124Y-109444689D01*
X150196857Y-109455490D01*
X150160664Y-109466337D01*
X150124548Y-109477229D01*
X150088510Y-109488167D01*
X150052552Y-109499150D01*
X150016675Y-109510179D01*
X149980882Y-109521254D01*
X149945174Y-109532375D01*
X149909553Y-109543543D01*
X149874021Y-109554758D01*
X149838579Y-109566019D01*
X149803229Y-109577327D01*
X149767972Y-109588682D01*
X149732812Y-109600085D01*
X149697748Y-109611535D01*
X149662784Y-109623033D01*
X149627920Y-109634579D01*
X149593159Y-109646173D01*
X149558502Y-109657815D01*
X149541213Y-109663654D01*
X149523951Y-109669506D01*
X149506716Y-109675369D01*
X149489507Y-109681245D01*
X149472327Y-109687133D01*
X149455173Y-109693033D01*
X149438048Y-109698945D01*
X149420951Y-109704870D01*
X149403881Y-109710807D01*
X149386841Y-109716756D01*
X149369828Y-109722718D01*
X149352845Y-109728692D01*
X149335891Y-109734678D01*
X149318966Y-109740677D01*
X149302071Y-109746688D01*
X149285205Y-109752712D01*
X149268370Y-109758748D01*
X149251564Y-109764797D01*
X149234789Y-109770858D01*
X149218044Y-109776932D01*
X149201331Y-109783018D01*
X149184648Y-109789117D01*
X149167997Y-109795228D01*
X149151377Y-109801353D01*
X149134788Y-109807489D01*
X149118232Y-109813639D01*
X149101708Y-109819801D01*
X149085216Y-109825976D01*
X149068757Y-109832164D01*
X149052330Y-109838364D01*
X149035937Y-109844578D01*
X149019576Y-109850804D01*
X149003249Y-109857043D01*
X148986956Y-109863295D01*
X148970696Y-109869559D01*
X148954471Y-109875837D01*
X148938280Y-109882128D01*
X148922123Y-109888431D01*
X148906001Y-109894748D01*
X148889914Y-109901077D01*
X148873863Y-109907420D01*
X148857846Y-109913776D01*
X148841865Y-109920144D01*
X148825920Y-109926526D01*
X148810011Y-109932921D01*
X148794138Y-109939329D01*
X148778302Y-109945750D01*
X148762502Y-109952185D01*
X148746740Y-109958633D01*
X148731014Y-109965093D01*
X148715326Y-109971568D01*
X148699675Y-109978055D01*
X148684062Y-109984556D01*
X148668487Y-109991070D01*
X148652950Y-109997597D01*
X148637451Y-110004138D01*
X148621991Y-110010693D01*
X148606570Y-110017260D01*
X148591188Y-110023841D01*
X148575845Y-110030436D01*
X148560542Y-110037044D01*
X148545279Y-110043666D01*
X148530055Y-110050301D01*
X148514871Y-110056949D01*
X148499728Y-110063612D01*
X148484626Y-110070288D01*
X148469564Y-110076977D01*
X148454543Y-110083680D01*
X148439564Y-110090397D01*
X148424625Y-110097128D01*
X148409729Y-110103872D01*
X148394874Y-110110630D01*
X148380062Y-110117402D01*
X148365292Y-110124187D01*
X148350564Y-110130987D01*
X148335879Y-110137800D01*
X148321237Y-110144627D01*
X148306638Y-110151468D01*
X148292083Y-110158323D01*
X148277571Y-110165192D01*
X148263103Y-110172074D01*
X148248679Y-110178971D01*
X148234299Y-110185882D01*
X148219964Y-110192807D01*
X148205673Y-110199745D01*
X148191428Y-110206698D01*
X148177227Y-110213665D01*
X148163072Y-110220646D01*
X148148962Y-110227641D01*
X148134898Y-110234651D01*
X148120881Y-110241674D01*
X148106909Y-110248712D01*
X148092984Y-110255764D01*
X148079105Y-110262830D01*
X148065273Y-110269911D01*
X148051488Y-110277006D01*
X148037751Y-110284115D01*
X148024061Y-110291238D01*
X148010419Y-110298376D01*
X147996825Y-110305528D01*
X147983279Y-110312695D01*
X147969781Y-110319876D01*
X147956332Y-110327072D01*
X147942931Y-110334282D01*
X147929580Y-110341506D01*
X147916278Y-110348745D01*
X147903025Y-110355999D01*
X147889822Y-110363267D01*
X147876669Y-110370550D01*
X147863566Y-110377847D01*
X147850514Y-110385159D01*
X147837512Y-110392486D01*
X147824560Y-110399827D01*
X147811660Y-110407184D01*
X147798811Y-110414554D01*
X147786013Y-110421940D01*
X147773267Y-110429340D01*
X147760572Y-110436756D01*
X147747930Y-110444186D01*
X147735340Y-110451631D01*
X147722803Y-110459090D01*
X147710318Y-110466565D01*
X147697886Y-110474054D01*
X147685507Y-110481559D01*
X147673182Y-110489078D01*
X147660910Y-110496613D01*
X147648692Y-110504162D01*
X147636528Y-110511727D01*
X147624418Y-110519306D01*
X147612363Y-110526901D01*
X147600362Y-110534511D01*
X147588416Y-110542136D01*
X147576526Y-110549776D01*
X147564690Y-110557431D01*
X147552910Y-110565101D01*
X147541186Y-110572787D01*
X147529518Y-110580488D01*
X147517906Y-110588204D01*
X147506350Y-110595935D01*
X147494851Y-110603682D01*
X147483409Y-110611444D01*
X147472024Y-110619221D01*
X147460696Y-110627014D01*
X147449425Y-110634822D01*
X147438213Y-110642646D01*
X147427058Y-110650485D01*
X147415961Y-110658340D01*
X147404923Y-110666210D01*
X147393943Y-110674095D01*
X147383022Y-110681996D01*
X147372160Y-110689913D01*
X147361357Y-110697845D01*
X147350613Y-110705793D01*
X147339929Y-110713757D01*
X147329305Y-110721736D01*
X147318741Y-110729730D01*
X147308238Y-110737741D01*
X147297795Y-110745767D01*
X147287412Y-110753809D01*
X147277091Y-110761867D01*
X147266831Y-110769941D01*
X147256632Y-110778030D01*
X147246494Y-110786135D01*
X147236419Y-110794256D01*
X147226405Y-110802393D01*
X147216454Y-110810546D01*
X147206565Y-110818715D01*
X147196739Y-110826900D01*
X147186976Y-110835100D01*
X147177276Y-110843317D01*
X147167639Y-110851550D01*
X147158066Y-110859799D01*
X147148556Y-110868063D01*
X147139111Y-110876344D01*
X147129730Y-110884642D01*
X147120413Y-110892955D01*
X147111160Y-110901284D01*
X147101973Y-110909630D01*
X147092850Y-110917991D01*
X147083793Y-110926369D01*
X147074802Y-110934764D01*
X147065876Y-110943174D01*
X147057016Y-110951601D01*
X147048222Y-110960044D01*
X147039494Y-110968504D01*
X147030833Y-110976980D01*
X147022239Y-110985472D01*
X147013712Y-110993981D01*
X147005252Y-111002506D01*
X146996860Y-111011047D01*
X146988535Y-111019605D01*
X146980278Y-111028180D01*
X146972089Y-111036771D01*
X146963969Y-111045379D01*
X146955917Y-111054003D01*
X146947933Y-111062644D01*
X146940019Y-111071301D01*
X146932174Y-111079975D01*
X146924398Y-111088666D01*
X146916692Y-111097374D01*
X146909056Y-111106098D01*
X146901489Y-111114839D01*
X146893993Y-111123596D01*
X146886568Y-111132371D01*
X146879213Y-111141162D01*
X146871929Y-111149970D01*
X146864716Y-111158795D01*
X146857574Y-111167637D01*
X146850505Y-111176496D01*
X146843506Y-111185371D01*
X146836580Y-111194264D01*
X146829726Y-111203173D01*
X146822945Y-111212100D01*
X146816236Y-111221044D01*
X146809600Y-111230004D01*
X146803037Y-111238982D01*
X146796547Y-111247977D01*
X146790131Y-111256988D01*
X146783789Y-111266017D01*
X146777520Y-111275063D01*
X146771326Y-111284127D01*
X146765206Y-111293207D01*
X146759160Y-111302305D01*
X146753190Y-111311420D01*
X146747294Y-111320552D01*
X146741474Y-111329702D01*
X146735729Y-111338868D01*
X146730060Y-111348053D01*
X146724467Y-111357254D01*
X146718950Y-111366473D01*
X146713509Y-111375709D01*
X146708144Y-111384963D01*
X146702857Y-111394234D01*
X146697646Y-111403523D01*
X146692513Y-111412829D01*
X146687457Y-111422153D01*
X146682479Y-111431494D01*
X146677578Y-111440853D01*
X146672756Y-111450229D01*
X146668012Y-111459623D01*
X146663346Y-111469035D01*
X146658759Y-111478464D01*
X146654251Y-111487911D01*
X146649822Y-111497376D01*
X146645472Y-111506858D01*
X146641203Y-111516358D01*
X146639097Y-111521115D01*
X146637012Y-111525876D01*
X146634947Y-111530642D01*
X146632902Y-111535412D01*
X146630877Y-111540186D01*
X146628872Y-111544965D01*
X146626887Y-111549749D01*
X146624923Y-111554537D01*
X146622978Y-111559329D01*
X146621054Y-111564126D01*
X146619150Y-111568927D01*
X146617266Y-111573733D01*
X147192999Y-116450532D02*
X147202686Y-116440930D01*
X147212404Y-116431183D01*
X147222154Y-116421291D01*
X147231936Y-116411253D01*
X147241750Y-116401066D01*
X147251597Y-116390731D01*
X147261476Y-116380245D01*
X147271388Y-116369608D01*
X147281332Y-116358818D01*
X147291310Y-116347874D01*
X147301321Y-116336774D01*
X147311365Y-116325518D01*
X147321443Y-116314104D01*
X147331555Y-116302531D01*
X147341700Y-116290797D01*
X147351880Y-116278901D01*
X147362093Y-116266842D01*
X147372341Y-116254619D01*
X147382624Y-116242229D01*
X147392941Y-116229673D01*
X147403293Y-116216948D01*
X147413680Y-116204053D01*
X147424102Y-116190987D01*
X147434559Y-116177748D01*
X147445052Y-116164335D01*
X147455580Y-116150746D01*
X147466143Y-116136981D01*
X147476743Y-116123037D01*
X147487378Y-116108914D01*
X147498050Y-116094610D01*
X147508758Y-116080123D01*
X147519502Y-116065452D01*
X147530282Y-116050596D01*
X147541099Y-116035553D01*
X147551953Y-116020322D01*
X147562844Y-116004901D01*
X147573772Y-115989288D01*
X147584736Y-115973483D01*
X147595738Y-115957484D01*
X147606778Y-115941289D01*
X147617855Y-115924897D01*
X147628969Y-115908306D01*
X147640121Y-115891515D01*
X147651311Y-115874522D01*
X147662539Y-115857325D01*
X147673805Y-115839924D01*
X147685109Y-115822317D01*
X147696451Y-115804502D01*
X147707832Y-115786477D01*
X147719251Y-115768241D01*
X147730709Y-115749792D01*
X147742205Y-115731130D01*
X147753740Y-115712251D01*
X147765315Y-115693156D01*
X147776928Y-115673841D01*
X147788580Y-115654306D01*
X147800272Y-115634548D01*
X147812002Y-115614567D01*
X147823773Y-115594360D01*
X147835583Y-115573927D01*
X147847432Y-115553264D01*
X147859321Y-115532371D01*
X147871250Y-115511247D01*
X147883219Y-115489888D01*
X147895228Y-115468295D01*
X147907277Y-115446464D01*
X147919367Y-115424395D01*
X147931496Y-115402085D01*
X147943666Y-115379534D01*
X147955877Y-115356738D01*
X147968128Y-115333697D01*
X147980419Y-115310410D01*
X147992752Y-115286873D01*
X148005125Y-115263085D01*
X148017539Y-115239046D01*
X148029994Y-115214752D01*
X148042491Y-115190203D01*
X148055028Y-115165396D01*
X148067607Y-115140329D01*
X148080227Y-115115002D01*
X148092889Y-115089412D01*
X148105592Y-115063557D01*
X148118337Y-115037436D01*
X148131123Y-115011046D01*
X148143951Y-114984387D01*
X148156821Y-114957456D01*
X148169733Y-114930251D01*
X148182687Y-114902771D01*
X148195684Y-114875014D01*
X148208722Y-114846978D01*
X148221802Y-114818660D01*
X148234925Y-114790060D01*
X148248091Y-114761176D01*
X148261299Y-114732005D01*
X148274549Y-114702546D01*
X148287842Y-114672797D01*
X148301178Y-114642756D01*
X148314556Y-114612421D01*
X148327978Y-114581790D01*
X148341442Y-114550861D01*
X148354950Y-114519633D01*
X148368500Y-114488104D01*
X148382094Y-114456271D01*
X148395731Y-114424133D01*
X148409411Y-114391687D01*
X148423135Y-114358933D01*
X148436902Y-114325867D01*
X148450713Y-114292489D01*
X148464567Y-114258795D01*
X148478465Y-114224785D01*
X148492407Y-114190455D01*
X148506393Y-114155805D01*
X148520422Y-114120832D01*
X148534496Y-114085535D01*
X148548613Y-114049910D01*
X148562775Y-114013957D01*
X148576981Y-113977673D01*
X148591231Y-113941056D01*
X148605525Y-113904105D01*
X148619864Y-113866817D01*
X148634247Y-113829190D01*
X148648675Y-113791222D01*
X148663147Y-113752911D01*
X148677664Y-113714255D01*
X148692226Y-113675253D01*
X148706832Y-113635901D01*
X148721483Y-113596199D01*
X148736180Y-113556143D01*
X148750921Y-113515732D01*
X148765707Y-113474963D01*
X148780539Y-113433836D01*
X148795415Y-113392347D01*
X148810337Y-113350494D01*
X148825304Y-113308276D01*
X148840317Y-113265689D01*
X148855375Y-113222733D01*
X148870479Y-113179405D01*
X148885628Y-113135703D01*
X148900823Y-113091625D01*
X148916063Y-113047168D01*
X148931349Y-113002331D01*
X148946682Y-112957111D01*
X148962060Y-112911506D01*
X148977484Y-112865514D01*
X148992954Y-112819133D01*
X149008470Y-112772360D01*
X149024032Y-112725194D01*
X149039641Y-112677632D01*
X149055296Y-112629672D01*
X149070997Y-112581312D01*
X149086744Y-112532550D01*
X149102538Y-112483383D01*
X149118379Y-112433810D01*
X149134266Y-112383827D01*
X149150200Y-112333433D01*
X149166181Y-112282625D01*
X149182208Y-112231402D01*
X149198282Y-112179761D01*
X149214404Y-112127700D01*
X149230572Y-112075216D01*
X149246787Y-112022307D01*
X149263049Y-111968971D01*
X149279359Y-111915206D01*
X149295715Y-111861009D01*
X149312119Y-111806379D01*
X149328571Y-111751312D01*
X149345070Y-111695806D01*
X149361616Y-111639860D01*
X149378210Y-111583470D01*
X149394851Y-111526636D01*
X149411540Y-111469353D01*
X149428277Y-111411620D01*
X149445061Y-111353434D01*
X149461894Y-111294794D01*
X149478774Y-111235697D01*
X149495702Y-111176140D01*
X149512678Y-111116121D01*
X149529703Y-111055637D01*
X149546775Y-110994687D01*
X149563896Y-110933268D01*
X149581065Y-110871378D01*
X149597533Y-110811734D01*
D11*
X146279819Y-96514404D02*
X147089342Y-96514404D01*
X147089342Y-96514404D02*
X147184580Y-96466785D01*
X147184580Y-96466785D02*
X147232200Y-96419166D01*
X147232200Y-96419166D02*
X147279819Y-96323928D01*
X147279819Y-96323928D02*
X147279819Y-96133452D01*
X147279819Y-96133452D02*
X147232200Y-96038214D01*
X147232200Y-96038214D02*
X147184580Y-95990595D01*
X147184580Y-95990595D02*
X147089342Y-95942976D01*
X147089342Y-95942976D02*
X146279819Y-95942976D01*
X147279819Y-94942976D02*
X147279819Y-95514404D01*
X147279819Y-95228690D02*
X146279819Y-95228690D01*
X146279819Y-95228690D02*
X146422676Y-95323928D01*
X146422676Y-95323928D02*
X146517914Y-95419166D01*
X146517914Y-95419166D02*
X146565533Y-95514404D01*
X143499819Y-92241666D02*
X143023628Y-92574999D01*
X143499819Y-92813094D02*
X142499819Y-92813094D01*
X142499819Y-92813094D02*
X142499819Y-92432142D01*
X142499819Y-92432142D02*
X142547438Y-92336904D01*
X142547438Y-92336904D02*
X142595057Y-92289285D01*
X142595057Y-92289285D02*
X142690295Y-92241666D01*
X142690295Y-92241666D02*
X142833152Y-92241666D01*
X142833152Y-92241666D02*
X142928390Y-92289285D01*
X142928390Y-92289285D02*
X142976009Y-92336904D01*
X142976009Y-92336904D02*
X143023628Y-92432142D01*
X143023628Y-92432142D02*
X143023628Y-92813094D01*
X142595057Y-91860713D02*
X142547438Y-91813094D01*
X142547438Y-91813094D02*
X142499819Y-91717856D01*
X142499819Y-91717856D02*
X142499819Y-91479761D01*
X142499819Y-91479761D02*
X142547438Y-91384523D01*
X142547438Y-91384523D02*
X142595057Y-91336904D01*
X142595057Y-91336904D02*
X142690295Y-91289285D01*
X142690295Y-91289285D02*
X142785533Y-91289285D01*
X142785533Y-91289285D02*
X142928390Y-91336904D01*
X142928390Y-91336904D02*
X143499819Y-91908332D01*
X143499819Y-91908332D02*
X143499819Y-91289285D01*
X135985475Y-66681147D02*
X136128332Y-66728766D01*
X136128332Y-66728766D02*
X136366427Y-66728766D01*
X136366427Y-66728766D02*
X136461665Y-66681147D01*
X136461665Y-66681147D02*
X136509284Y-66633527D01*
X136509284Y-66633527D02*
X136556903Y-66538289D01*
X136556903Y-66538289D02*
X136556903Y-66443051D01*
X136556903Y-66443051D02*
X136509284Y-66347813D01*
X136509284Y-66347813D02*
X136461665Y-66300194D01*
X136461665Y-66300194D02*
X136366427Y-66252575D01*
X136366427Y-66252575D02*
X136175951Y-66204956D01*
X136175951Y-66204956D02*
X136080713Y-66157337D01*
X136080713Y-66157337D02*
X136033094Y-66109718D01*
X136033094Y-66109718D02*
X135985475Y-66014480D01*
X135985475Y-66014480D02*
X135985475Y-65919242D01*
X135985475Y-65919242D02*
X136033094Y-65824004D01*
X136033094Y-65824004D02*
X136080713Y-65776385D01*
X136080713Y-65776385D02*
X136175951Y-65728766D01*
X136175951Y-65728766D02*
X136414046Y-65728766D01*
X136414046Y-65728766D02*
X136556903Y-65776385D01*
X136890237Y-65728766D02*
X137128332Y-66728766D01*
X137128332Y-66728766D02*
X137318808Y-66014480D01*
X137318808Y-66014480D02*
X137509284Y-66728766D01*
X137509284Y-66728766D02*
X137747380Y-65728766D01*
X138652141Y-66728766D02*
X138080713Y-66728766D01*
X138366427Y-66728766D02*
X138366427Y-65728766D01*
X138366427Y-65728766D02*
X138271189Y-65871623D01*
X138271189Y-65871623D02*
X138175951Y-65966861D01*
X138175951Y-65966861D02*
X138080713Y-66014480D01*
X139271189Y-65728766D02*
X139366427Y-65728766D01*
X139366427Y-65728766D02*
X139461665Y-65776385D01*
X139461665Y-65776385D02*
X139509284Y-65824004D01*
X139509284Y-65824004D02*
X139556903Y-65919242D01*
X139556903Y-65919242D02*
X139604522Y-66109718D01*
X139604522Y-66109718D02*
X139604522Y-66347813D01*
X139604522Y-66347813D02*
X139556903Y-66538289D01*
X139556903Y-66538289D02*
X139509284Y-66633527D01*
X139509284Y-66633527D02*
X139461665Y-66681147D01*
X139461665Y-66681147D02*
X139366427Y-66728766D01*
X139366427Y-66728766D02*
X139271189Y-66728766D01*
X139271189Y-66728766D02*
X139175951Y-66681147D01*
X139175951Y-66681147D02*
X139128332Y-66633527D01*
X139128332Y-66633527D02*
X139080713Y-66538289D01*
X139080713Y-66538289D02*
X139033094Y-66347813D01*
X139033094Y-66347813D02*
X139033094Y-66109718D01*
X139033094Y-66109718D02*
X139080713Y-65919242D01*
X139080713Y-65919242D02*
X139128332Y-65824004D01*
X139128332Y-65824004D02*
X139175951Y-65776385D01*
X139175951Y-65776385D02*
X139271189Y-65728766D01*
X132611904Y-61228766D02*
X132611904Y-60228766D01*
X132611904Y-60228766D02*
X132849999Y-60228766D01*
X132849999Y-60228766D02*
X132992856Y-60276385D01*
X132992856Y-60276385D02*
X133088094Y-60371623D01*
X133088094Y-60371623D02*
X133135713Y-60466861D01*
X133135713Y-60466861D02*
X133183332Y-60657337D01*
X133183332Y-60657337D02*
X133183332Y-60800194D01*
X133183332Y-60800194D02*
X133135713Y-60990670D01*
X133135713Y-60990670D02*
X133088094Y-61085908D01*
X133088094Y-61085908D02*
X132992856Y-61181147D01*
X132992856Y-61181147D02*
X132849999Y-61228766D01*
X132849999Y-61228766D02*
X132611904Y-61228766D01*
X134040475Y-60562099D02*
X134040475Y-61228766D01*
X133802380Y-60181147D02*
X133564285Y-60895432D01*
X133564285Y-60895432D02*
X134183332Y-60895432D01*
X136898094Y-60908766D02*
X136898094Y-59908766D01*
X137469522Y-60908766D02*
X137040951Y-60337337D01*
X137469522Y-59908766D02*
X136898094Y-60480194D01*
X94511904Y-69249819D02*
X94511904Y-68249819D01*
X94511904Y-68249819D02*
X94749999Y-68249819D01*
X94749999Y-68249819D02*
X94892856Y-68297438D01*
X94892856Y-68297438D02*
X94988094Y-68392676D01*
X94988094Y-68392676D02*
X95035713Y-68487914D01*
X95035713Y-68487914D02*
X95083332Y-68678390D01*
X95083332Y-68678390D02*
X95083332Y-68821247D01*
X95083332Y-68821247D02*
X95035713Y-69011723D01*
X95035713Y-69011723D02*
X94988094Y-69106961D01*
X94988094Y-69106961D02*
X94892856Y-69202200D01*
X94892856Y-69202200D02*
X94749999Y-69249819D01*
X94749999Y-69249819D02*
X94511904Y-69249819D01*
X95940475Y-68249819D02*
X95749999Y-68249819D01*
X95749999Y-68249819D02*
X95654761Y-68297438D01*
X95654761Y-68297438D02*
X95607142Y-68345057D01*
X95607142Y-68345057D02*
X95511904Y-68487914D01*
X95511904Y-68487914D02*
X95464285Y-68678390D01*
X95464285Y-68678390D02*
X95464285Y-69059342D01*
X95464285Y-69059342D02*
X95511904Y-69154580D01*
X95511904Y-69154580D02*
X95559523Y-69202200D01*
X95559523Y-69202200D02*
X95654761Y-69249819D01*
X95654761Y-69249819D02*
X95845237Y-69249819D01*
X95845237Y-69249819D02*
X95940475Y-69202200D01*
X95940475Y-69202200D02*
X95988094Y-69154580D01*
X95988094Y-69154580D02*
X96035713Y-69059342D01*
X96035713Y-69059342D02*
X96035713Y-68821247D01*
X96035713Y-68821247D02*
X95988094Y-68726009D01*
X95988094Y-68726009D02*
X95940475Y-68678390D01*
X95940475Y-68678390D02*
X95845237Y-68630771D01*
X95845237Y-68630771D02*
X95654761Y-68630771D01*
X95654761Y-68630771D02*
X95559523Y-68678390D01*
X95559523Y-68678390D02*
X95511904Y-68726009D01*
X95511904Y-68726009D02*
X95464285Y-68821247D01*
X98798094Y-68929819D02*
X98798094Y-67929819D01*
X99369522Y-68929819D02*
X98940951Y-68358390D01*
X99369522Y-67929819D02*
X98798094Y-68501247D01*
X40673781Y-110250108D02*
X40534608Y-109259840D01*
X40534608Y-109259840D02*
X40770386Y-109226704D01*
X40770386Y-109226704D02*
X40918480Y-109253977D01*
X40918480Y-109253977D02*
X41026046Y-109335034D01*
X41026046Y-109335034D02*
X41086456Y-109422718D01*
X41086456Y-109422718D02*
X41160121Y-109604713D01*
X41160121Y-109604713D02*
X41180003Y-109746180D01*
X41180003Y-109746180D02*
X41159356Y-109941430D01*
X41159356Y-109941430D02*
X41125455Y-110042368D01*
X41125455Y-110042368D02*
X41044398Y-110149934D01*
X41044398Y-110149934D02*
X40909559Y-110216972D01*
X40909559Y-110216972D02*
X40673781Y-110250108D01*
X42182761Y-110038035D02*
X41616893Y-110117562D01*
X41899827Y-110077799D02*
X41760654Y-109087531D01*
X41760654Y-109087531D02*
X41686224Y-109242252D01*
X41686224Y-109242252D02*
X41605168Y-109349818D01*
X41605168Y-109349818D02*
X41517484Y-109410228D01*
X42669101Y-109392640D02*
X42568162Y-109358739D01*
X42568162Y-109358739D02*
X42514379Y-109318211D01*
X42514379Y-109318211D02*
X42453969Y-109230527D01*
X42453969Y-109230527D02*
X42447342Y-109183371D01*
X42447342Y-109183371D02*
X42481243Y-109082432D01*
X42481243Y-109082432D02*
X42521771Y-109028650D01*
X42521771Y-109028650D02*
X42609455Y-108968239D01*
X42609455Y-108968239D02*
X42798077Y-108941730D01*
X42798077Y-108941730D02*
X42899016Y-108975631D01*
X42899016Y-108975631D02*
X42952799Y-109016160D01*
X42952799Y-109016160D02*
X43013209Y-109103844D01*
X43013209Y-109103844D02*
X43019836Y-109150999D01*
X43019836Y-109150999D02*
X42985935Y-109251938D01*
X42985935Y-109251938D02*
X42945407Y-109305721D01*
X42945407Y-109305721D02*
X42857723Y-109366131D01*
X42857723Y-109366131D02*
X42669101Y-109392640D01*
X42669101Y-109392640D02*
X42581417Y-109453050D01*
X42581417Y-109453050D02*
X42540888Y-109506833D01*
X42540888Y-109506833D02*
X42506987Y-109607772D01*
X42506987Y-109607772D02*
X42533496Y-109796394D01*
X42533496Y-109796394D02*
X42593907Y-109884078D01*
X42593907Y-109884078D02*
X42647690Y-109924606D01*
X42647690Y-109924606D02*
X42748628Y-109958507D01*
X42748628Y-109958507D02*
X42937251Y-109931998D01*
X42937251Y-109931998D02*
X43024935Y-109871588D01*
X43024935Y-109871588D02*
X43065463Y-109817805D01*
X43065463Y-109817805D02*
X43099364Y-109716867D01*
X43099364Y-109716867D02*
X43072855Y-109528244D01*
X43072855Y-109528244D02*
X43012445Y-109440560D01*
X43012445Y-109440560D02*
X42958662Y-109400032D01*
X42958662Y-109400032D02*
X42857723Y-109366131D01*
X45345279Y-109270429D02*
X45206106Y-108280161D01*
X45911147Y-109190902D02*
X45407219Y-108684680D01*
X45771974Y-108200634D02*
X45285634Y-108846029D01*
X75595290Y-94009764D02*
X75560391Y-93010374D01*
X75560391Y-93010374D02*
X75798341Y-93002064D01*
X75798341Y-93002064D02*
X75942773Y-93044669D01*
X75942773Y-93044669D02*
X76041277Y-93136525D01*
X76041277Y-93136525D02*
X76092191Y-93230043D01*
X76092191Y-93230043D02*
X76146428Y-93418741D01*
X76146428Y-93418741D02*
X76151414Y-93561512D01*
X76151414Y-93561512D02*
X76110471Y-93753534D01*
X76110471Y-93753534D02*
X76066205Y-93850376D01*
X76066205Y-93850376D02*
X75974349Y-93948879D01*
X75974349Y-93948879D02*
X75833241Y-94001455D01*
X75833241Y-94001455D02*
X75595290Y-94009764D01*
X77118172Y-93956584D02*
X76547091Y-93976527D01*
X76832631Y-93966556D02*
X76797732Y-92967165D01*
X76797732Y-92967165D02*
X76707537Y-93113259D01*
X76707537Y-93113259D02*
X76615681Y-93211762D01*
X76615681Y-93211762D02*
X76522163Y-93262676D01*
X77987483Y-92925618D02*
X77511583Y-92942237D01*
X77511583Y-92942237D02*
X77480611Y-93419799D01*
X77480611Y-93419799D02*
X77526539Y-93370547D01*
X77526539Y-93370547D02*
X77620058Y-93319633D01*
X77620058Y-93319633D02*
X77858008Y-93311324D01*
X77858008Y-93311324D02*
X77954850Y-93355590D01*
X77954850Y-93355590D02*
X78004102Y-93401518D01*
X78004102Y-93401518D02*
X78055016Y-93495036D01*
X78055016Y-93495036D02*
X78063325Y-93732986D01*
X78063325Y-93732986D02*
X78019059Y-93829828D01*
X78019059Y-93829828D02*
X77973131Y-93879080D01*
X77973131Y-93879080D02*
X77879612Y-93929994D01*
X77879612Y-93929994D02*
X77641662Y-93938304D01*
X77641662Y-93938304D02*
X77544820Y-93894037D01*
X77544820Y-93894037D02*
X77495568Y-93848109D01*
X80343602Y-93523754D02*
X80308703Y-92524363D01*
X80914683Y-93503811D02*
X80466430Y-92947688D01*
X80879783Y-92504420D02*
X80328645Y-93095443D01*
X155111626Y-126639787D02*
X155178970Y-126774474D01*
X155178970Y-126774474D02*
X155347328Y-126942833D01*
X155347328Y-126942833D02*
X155448344Y-126976504D01*
X155448344Y-126976504D02*
X155515687Y-126976504D01*
X155515687Y-126976504D02*
X155616702Y-126942833D01*
X155616702Y-126942833D02*
X155684046Y-126875489D01*
X155684046Y-126875489D02*
X155717718Y-126774474D01*
X155717718Y-126774474D02*
X155717718Y-126707130D01*
X155717718Y-126707130D02*
X155684046Y-126606115D01*
X155684046Y-126606115D02*
X155583031Y-126437756D01*
X155583031Y-126437756D02*
X155549359Y-126336741D01*
X155549359Y-126336741D02*
X155549359Y-126269398D01*
X155549359Y-126269398D02*
X155583031Y-126168382D01*
X155583031Y-126168382D02*
X155650374Y-126101039D01*
X155650374Y-126101039D02*
X155751389Y-126067367D01*
X155751389Y-126067367D02*
X155818733Y-126067367D01*
X155818733Y-126067367D02*
X155919748Y-126101039D01*
X155919748Y-126101039D02*
X156088107Y-126269398D01*
X156088107Y-126269398D02*
X156155450Y-126404085D01*
X156424824Y-126606115D02*
X155886076Y-127481581D01*
X155886076Y-127481581D02*
X156525840Y-127111191D01*
X156525840Y-127111191D02*
X156155450Y-127750955D01*
X156155450Y-127750955D02*
X157030916Y-127212207D01*
X157199275Y-127515252D02*
X157266618Y-127515252D01*
X157266618Y-127515252D02*
X157367633Y-127548924D01*
X157367633Y-127548924D02*
X157535992Y-127717283D01*
X157535992Y-127717283D02*
X157569664Y-127818298D01*
X157569664Y-127818298D02*
X157569664Y-127885642D01*
X157569664Y-127885642D02*
X157535992Y-127986657D01*
X157535992Y-127986657D02*
X157468649Y-128054000D01*
X157468649Y-128054000D02*
X157333962Y-128121344D01*
X157333962Y-128121344D02*
X156525840Y-128121344D01*
X156525840Y-128121344D02*
X156963572Y-128559077D01*
X157637007Y-129232512D02*
X157232946Y-128828451D01*
X157434977Y-129030481D02*
X158142084Y-128323374D01*
X158142084Y-128323374D02*
X157973725Y-128357046D01*
X157973725Y-128357046D02*
X157839038Y-128357046D01*
X157839038Y-128357046D02*
X157738023Y-128323374D01*
X136461666Y-47631147D02*
X136604523Y-47678766D01*
X136604523Y-47678766D02*
X136842618Y-47678766D01*
X136842618Y-47678766D02*
X136937856Y-47631147D01*
X136937856Y-47631147D02*
X136985475Y-47583527D01*
X136985475Y-47583527D02*
X137033094Y-47488289D01*
X137033094Y-47488289D02*
X137033094Y-47393051D01*
X137033094Y-47393051D02*
X136985475Y-47297813D01*
X136985475Y-47297813D02*
X136937856Y-47250194D01*
X136937856Y-47250194D02*
X136842618Y-47202575D01*
X136842618Y-47202575D02*
X136652142Y-47154956D01*
X136652142Y-47154956D02*
X136556904Y-47107337D01*
X136556904Y-47107337D02*
X136509285Y-47059718D01*
X136509285Y-47059718D02*
X136461666Y-46964480D01*
X136461666Y-46964480D02*
X136461666Y-46869242D01*
X136461666Y-46869242D02*
X136509285Y-46774004D01*
X136509285Y-46774004D02*
X136556904Y-46726385D01*
X136556904Y-46726385D02*
X136652142Y-46678766D01*
X136652142Y-46678766D02*
X136890237Y-46678766D01*
X136890237Y-46678766D02*
X137033094Y-46726385D01*
X137366428Y-46678766D02*
X137604523Y-47678766D01*
X137604523Y-47678766D02*
X137794999Y-46964480D01*
X137794999Y-46964480D02*
X137985475Y-47678766D01*
X137985475Y-47678766D02*
X138223571Y-46678766D01*
X139033094Y-47012099D02*
X139033094Y-47678766D01*
X138794999Y-46631147D02*
X138556904Y-47345432D01*
X138556904Y-47345432D02*
X139175951Y-47345432D01*
X94035713Y-88299819D02*
X94035713Y-87299819D01*
X94035713Y-87299819D02*
X94273808Y-87299819D01*
X94273808Y-87299819D02*
X94416665Y-87347438D01*
X94416665Y-87347438D02*
X94511903Y-87442676D01*
X94511903Y-87442676D02*
X94559522Y-87537914D01*
X94559522Y-87537914D02*
X94607141Y-87728390D01*
X94607141Y-87728390D02*
X94607141Y-87871247D01*
X94607141Y-87871247D02*
X94559522Y-88061723D01*
X94559522Y-88061723D02*
X94511903Y-88156961D01*
X94511903Y-88156961D02*
X94416665Y-88252200D01*
X94416665Y-88252200D02*
X94273808Y-88299819D01*
X94273808Y-88299819D02*
X94035713Y-88299819D01*
X95559522Y-88299819D02*
X94988094Y-88299819D01*
X95273808Y-88299819D02*
X95273808Y-87299819D01*
X95273808Y-87299819D02*
X95178570Y-87442676D01*
X95178570Y-87442676D02*
X95083332Y-87537914D01*
X95083332Y-87537914D02*
X94988094Y-87585533D01*
X95940475Y-87395057D02*
X95988094Y-87347438D01*
X95988094Y-87347438D02*
X96083332Y-87299819D01*
X96083332Y-87299819D02*
X96321427Y-87299819D01*
X96321427Y-87299819D02*
X96416665Y-87347438D01*
X96416665Y-87347438D02*
X96464284Y-87395057D01*
X96464284Y-87395057D02*
X96511903Y-87490295D01*
X96511903Y-87490295D02*
X96511903Y-87585533D01*
X96511903Y-87585533D02*
X96464284Y-87728390D01*
X96464284Y-87728390D02*
X95892856Y-88299819D01*
X95892856Y-88299819D02*
X96511903Y-88299819D01*
X98798094Y-87979819D02*
X98798094Y-86979819D01*
X99369522Y-87979819D02*
X98940951Y-87408390D01*
X99369522Y-86979819D02*
X98798094Y-87551247D01*
X56208704Y-52823682D02*
X56356798Y-52850955D01*
X56356798Y-52850955D02*
X56592576Y-52817819D01*
X56592576Y-52817819D02*
X56680260Y-52757409D01*
X56680260Y-52757409D02*
X56720788Y-52703626D01*
X56720788Y-52703626D02*
X56754689Y-52602687D01*
X56754689Y-52602687D02*
X56741435Y-52508376D01*
X56741435Y-52508376D02*
X56681025Y-52420692D01*
X56681025Y-52420692D02*
X56627242Y-52380164D01*
X56627242Y-52380164D02*
X56526303Y-52346263D01*
X56526303Y-52346263D02*
X56331053Y-52325616D01*
X56331053Y-52325616D02*
X56230115Y-52291715D01*
X56230115Y-52291715D02*
X56176332Y-52251187D01*
X56176332Y-52251187D02*
X56115922Y-52163503D01*
X56115922Y-52163503D02*
X56102667Y-52069192D01*
X56102667Y-52069192D02*
X56136568Y-51968253D01*
X56136568Y-51968253D02*
X56177097Y-51914470D01*
X56177097Y-51914470D02*
X56264781Y-51854060D01*
X56264781Y-51854060D02*
X56500559Y-51820924D01*
X56500559Y-51820924D02*
X56648653Y-51848197D01*
X56972115Y-51754651D02*
X57347066Y-52711782D01*
X57347066Y-52711782D02*
X57436279Y-51977939D01*
X57436279Y-51977939D02*
X57724311Y-52658764D01*
X57724311Y-52658764D02*
X57820916Y-51635360D01*
X58669717Y-51516068D02*
X58198161Y-51582341D01*
X58198161Y-51582341D02*
X58217278Y-52060525D01*
X58217278Y-52060525D02*
X58257807Y-52006742D01*
X58257807Y-52006742D02*
X58345491Y-51946332D01*
X58345491Y-51946332D02*
X58581269Y-51913195D01*
X58581269Y-51913195D02*
X58682207Y-51947096D01*
X58682207Y-51947096D02*
X58735990Y-51987625D01*
X58735990Y-51987625D02*
X58796400Y-52075308D01*
X58796400Y-52075308D02*
X58829537Y-52311087D01*
X58829537Y-52311087D02*
X58795636Y-52412025D01*
X58795636Y-52412025D02*
X58755107Y-52465808D01*
X58755107Y-52465808D02*
X58667423Y-52526218D01*
X58667423Y-52526218D02*
X58431645Y-52559355D01*
X58431645Y-52559355D02*
X58330707Y-52525454D01*
X58330707Y-52525454D02*
X58276924Y-52484925D01*
X97885475Y-74702200D02*
X98028332Y-74749819D01*
X98028332Y-74749819D02*
X98266427Y-74749819D01*
X98266427Y-74749819D02*
X98361665Y-74702200D01*
X98361665Y-74702200D02*
X98409284Y-74654580D01*
X98409284Y-74654580D02*
X98456903Y-74559342D01*
X98456903Y-74559342D02*
X98456903Y-74464104D01*
X98456903Y-74464104D02*
X98409284Y-74368866D01*
X98409284Y-74368866D02*
X98361665Y-74321247D01*
X98361665Y-74321247D02*
X98266427Y-74273628D01*
X98266427Y-74273628D02*
X98075951Y-74226009D01*
X98075951Y-74226009D02*
X97980713Y-74178390D01*
X97980713Y-74178390D02*
X97933094Y-74130771D01*
X97933094Y-74130771D02*
X97885475Y-74035533D01*
X97885475Y-74035533D02*
X97885475Y-73940295D01*
X97885475Y-73940295D02*
X97933094Y-73845057D01*
X97933094Y-73845057D02*
X97980713Y-73797438D01*
X97980713Y-73797438D02*
X98075951Y-73749819D01*
X98075951Y-73749819D02*
X98314046Y-73749819D01*
X98314046Y-73749819D02*
X98456903Y-73797438D01*
X98790237Y-73749819D02*
X99028332Y-74749819D01*
X99028332Y-74749819D02*
X99218808Y-74035533D01*
X99218808Y-74035533D02*
X99409284Y-74749819D01*
X99409284Y-74749819D02*
X99647380Y-73749819D01*
X100552141Y-74749819D02*
X99980713Y-74749819D01*
X100266427Y-74749819D02*
X100266427Y-73749819D01*
X100266427Y-73749819D02*
X100171189Y-73892676D01*
X100171189Y-73892676D02*
X100075951Y-73987914D01*
X100075951Y-73987914D02*
X99980713Y-74035533D01*
X100933094Y-73845057D02*
X100980713Y-73797438D01*
X100980713Y-73797438D02*
X101075951Y-73749819D01*
X101075951Y-73749819D02*
X101314046Y-73749819D01*
X101314046Y-73749819D02*
X101409284Y-73797438D01*
X101409284Y-73797438D02*
X101456903Y-73845057D01*
X101456903Y-73845057D02*
X101504522Y-73940295D01*
X101504522Y-73940295D02*
X101504522Y-74035533D01*
X101504522Y-74035533D02*
X101456903Y-74178390D01*
X101456903Y-74178390D02*
X100885475Y-74749819D01*
X100885475Y-74749819D02*
X101504522Y-74749819D01*
X98361666Y-55652200D02*
X98504523Y-55699819D01*
X98504523Y-55699819D02*
X98742618Y-55699819D01*
X98742618Y-55699819D02*
X98837856Y-55652200D01*
X98837856Y-55652200D02*
X98885475Y-55604580D01*
X98885475Y-55604580D02*
X98933094Y-55509342D01*
X98933094Y-55509342D02*
X98933094Y-55414104D01*
X98933094Y-55414104D02*
X98885475Y-55318866D01*
X98885475Y-55318866D02*
X98837856Y-55271247D01*
X98837856Y-55271247D02*
X98742618Y-55223628D01*
X98742618Y-55223628D02*
X98552142Y-55176009D01*
X98552142Y-55176009D02*
X98456904Y-55128390D01*
X98456904Y-55128390D02*
X98409285Y-55080771D01*
X98409285Y-55080771D02*
X98361666Y-54985533D01*
X98361666Y-54985533D02*
X98361666Y-54890295D01*
X98361666Y-54890295D02*
X98409285Y-54795057D01*
X98409285Y-54795057D02*
X98456904Y-54747438D01*
X98456904Y-54747438D02*
X98552142Y-54699819D01*
X98552142Y-54699819D02*
X98790237Y-54699819D01*
X98790237Y-54699819D02*
X98933094Y-54747438D01*
X99266428Y-54699819D02*
X99504523Y-55699819D01*
X99504523Y-55699819D02*
X99694999Y-54985533D01*
X99694999Y-54985533D02*
X99885475Y-55699819D01*
X99885475Y-55699819D02*
X100123571Y-54699819D01*
X100933094Y-54699819D02*
X100742618Y-54699819D01*
X100742618Y-54699819D02*
X100647380Y-54747438D01*
X100647380Y-54747438D02*
X100599761Y-54795057D01*
X100599761Y-54795057D02*
X100504523Y-54937914D01*
X100504523Y-54937914D02*
X100456904Y-55128390D01*
X100456904Y-55128390D02*
X100456904Y-55509342D01*
X100456904Y-55509342D02*
X100504523Y-55604580D01*
X100504523Y-55604580D02*
X100552142Y-55652200D01*
X100552142Y-55652200D02*
X100647380Y-55699819D01*
X100647380Y-55699819D02*
X100837856Y-55699819D01*
X100837856Y-55699819D02*
X100933094Y-55652200D01*
X100933094Y-55652200D02*
X100980713Y-55604580D01*
X100980713Y-55604580D02*
X101028332Y-55509342D01*
X101028332Y-55509342D02*
X101028332Y-55271247D01*
X101028332Y-55271247D02*
X100980713Y-55176009D01*
X100980713Y-55176009D02*
X100933094Y-55128390D01*
X100933094Y-55128390D02*
X100837856Y-55080771D01*
X100837856Y-55080771D02*
X100647380Y-55080771D01*
X100647380Y-55080771D02*
X100552142Y-55128390D01*
X100552142Y-55128390D02*
X100504523Y-55176009D01*
X100504523Y-55176009D02*
X100456904Y-55271247D01*
X113561904Y-55212977D02*
X113561904Y-54212977D01*
X113561904Y-54212977D02*
X113799999Y-54212977D01*
X113799999Y-54212977D02*
X113942856Y-54260596D01*
X113942856Y-54260596D02*
X114038094Y-54355834D01*
X114038094Y-54355834D02*
X114085713Y-54451072D01*
X114085713Y-54451072D02*
X114133332Y-54641548D01*
X114133332Y-54641548D02*
X114133332Y-54784405D01*
X114133332Y-54784405D02*
X114085713Y-54974881D01*
X114085713Y-54974881D02*
X114038094Y-55070119D01*
X114038094Y-55070119D02*
X113942856Y-55165358D01*
X113942856Y-55165358D02*
X113799999Y-55212977D01*
X113799999Y-55212977D02*
X113561904Y-55212977D01*
X114514285Y-54308215D02*
X114561904Y-54260596D01*
X114561904Y-54260596D02*
X114657142Y-54212977D01*
X114657142Y-54212977D02*
X114895237Y-54212977D01*
X114895237Y-54212977D02*
X114990475Y-54260596D01*
X114990475Y-54260596D02*
X115038094Y-54308215D01*
X115038094Y-54308215D02*
X115085713Y-54403453D01*
X115085713Y-54403453D02*
X115085713Y-54498691D01*
X115085713Y-54498691D02*
X115038094Y-54641548D01*
X115038094Y-54641548D02*
X114466666Y-55212977D01*
X114466666Y-55212977D02*
X115085713Y-55212977D01*
X117848094Y-54892977D02*
X117848094Y-53892977D01*
X118419522Y-54892977D02*
X117990951Y-54321548D01*
X118419522Y-53892977D02*
X117848094Y-54464405D01*
X118786578Y-106364042D02*
X118918996Y-106435744D01*
X118918996Y-106435744D02*
X119153474Y-106477089D01*
X119153474Y-106477089D02*
X119255534Y-106446731D01*
X119255534Y-106446731D02*
X119310699Y-106408105D01*
X119310699Y-106408105D02*
X119374132Y-106322582D01*
X119374132Y-106322582D02*
X119390670Y-106228791D01*
X119390670Y-106228791D02*
X119360312Y-106126731D01*
X119360312Y-106126731D02*
X119321686Y-106071566D01*
X119321686Y-106071566D02*
X119236163Y-106008133D01*
X119236163Y-106008133D02*
X119056850Y-105928161D01*
X119056850Y-105928161D02*
X118971328Y-105864728D01*
X118971328Y-105864728D02*
X118932701Y-105809563D01*
X118932701Y-105809563D02*
X118902343Y-105707503D01*
X118902343Y-105707503D02*
X118918881Y-105613712D01*
X118918881Y-105613712D02*
X118982315Y-105528190D01*
X118982315Y-105528190D02*
X119037479Y-105489563D01*
X119037479Y-105489563D02*
X119139540Y-105459205D01*
X119139540Y-105459205D02*
X119374018Y-105500550D01*
X119374018Y-105500550D02*
X119506435Y-105572253D01*
X119842974Y-105583240D02*
X119903804Y-106609392D01*
X119903804Y-106609392D02*
X120215420Y-105939034D01*
X120215420Y-105939034D02*
X120278968Y-106675544D01*
X120278968Y-106675544D02*
X120687095Y-105732081D01*
X121404463Y-106873999D02*
X120841716Y-106774772D01*
X121123089Y-106824385D02*
X121296737Y-105839578D01*
X121296737Y-105839578D02*
X121178139Y-105963726D01*
X121178139Y-105963726D02*
X121067810Y-106040980D01*
X121067810Y-106040980D02*
X120965750Y-106071337D01*
X121873419Y-106956689D02*
X122061001Y-106989765D01*
X122061001Y-106989765D02*
X122163062Y-106959407D01*
X122163062Y-106959407D02*
X122218226Y-106920780D01*
X122218226Y-106920780D02*
X122336824Y-106796631D01*
X122336824Y-106796631D02*
X122416796Y-106617318D01*
X122416796Y-106617318D02*
X122482947Y-106242153D01*
X122482947Y-106242153D02*
X122452590Y-106140093D01*
X122452590Y-106140093D02*
X122413963Y-106084928D01*
X122413963Y-106084928D02*
X122328441Y-106021495D01*
X122328441Y-106021495D02*
X122140858Y-105988419D01*
X122140858Y-105988419D02*
X122038798Y-106018777D01*
X122038798Y-106018777D02*
X121983634Y-106057403D01*
X121983634Y-106057403D02*
X121920200Y-106142925D01*
X121920200Y-106142925D02*
X121878855Y-106377404D01*
X121878855Y-106377404D02*
X121909213Y-106479464D01*
X121909213Y-106479464D02*
X121947840Y-106534628D01*
X121947840Y-106534628D02*
X122033362Y-106598062D01*
X122033362Y-106598062D02*
X122220944Y-106631138D01*
X122220944Y-106631138D02*
X122323004Y-106600780D01*
X122323004Y-106600780D02*
X122378169Y-106562153D01*
X122378169Y-106562153D02*
X122441603Y-106476631D01*
X59119769Y-104620238D02*
X58980596Y-103629970D01*
X58980596Y-103629970D02*
X59216374Y-103596834D01*
X59216374Y-103596834D02*
X59364468Y-103624107D01*
X59364468Y-103624107D02*
X59472034Y-103705164D01*
X59472034Y-103705164D02*
X59532444Y-103792848D01*
X59532444Y-103792848D02*
X59606109Y-103974843D01*
X59606109Y-103974843D02*
X59625991Y-104116310D01*
X59625991Y-104116310D02*
X59605344Y-104311560D01*
X59605344Y-104311560D02*
X59571443Y-104412498D01*
X59571443Y-104412498D02*
X59490386Y-104520064D01*
X59490386Y-104520064D02*
X59355547Y-104587102D01*
X59355547Y-104587102D02*
X59119769Y-104620238D01*
X60628749Y-104408165D02*
X60062881Y-104487692D01*
X60345815Y-104447929D02*
X60206642Y-103457661D01*
X60206642Y-103457661D02*
X60132212Y-103612382D01*
X60132212Y-103612382D02*
X60051156Y-103719948D01*
X60051156Y-103719948D02*
X59963472Y-103780358D01*
X60819665Y-103371506D02*
X61479844Y-103278724D01*
X61479844Y-103278724D02*
X61194616Y-104328637D01*
X63791267Y-103640559D02*
X63652094Y-102650291D01*
X64357135Y-103561032D02*
X63853207Y-103054810D01*
X64217962Y-102570764D02*
X63731622Y-103216159D01*
X75406356Y-74954751D02*
X75371457Y-73955360D01*
X75371457Y-73955360D02*
X75609407Y-73947050D01*
X75609407Y-73947050D02*
X75753839Y-73989655D01*
X75753839Y-73989655D02*
X75852343Y-74081511D01*
X75852343Y-74081511D02*
X75903257Y-74175029D01*
X75903257Y-74175029D02*
X75957494Y-74363728D01*
X75957494Y-74363728D02*
X75962480Y-74506498D01*
X75962480Y-74506498D02*
X75921537Y-74698520D01*
X75921537Y-74698520D02*
X75877271Y-74795362D01*
X75877271Y-74795362D02*
X75785415Y-74893866D01*
X75785415Y-74893866D02*
X75644307Y-74946441D01*
X75644307Y-74946441D02*
X75406356Y-74954751D01*
X76453337Y-74918189D02*
X76643697Y-74911542D01*
X76643697Y-74911542D02*
X76737216Y-74860628D01*
X76737216Y-74860628D02*
X76783144Y-74811376D01*
X76783144Y-74811376D02*
X76873338Y-74665282D01*
X76873338Y-74665282D02*
X76914281Y-74473260D01*
X76914281Y-74473260D02*
X76900986Y-74092540D01*
X76900986Y-74092540D02*
X76850072Y-73999022D01*
X76850072Y-73999022D02*
X76800820Y-73953093D01*
X76800820Y-73953093D02*
X76703978Y-73908827D01*
X76703978Y-73908827D02*
X76513618Y-73915475D01*
X76513618Y-73915475D02*
X76420100Y-73966388D01*
X76420100Y-73966388D02*
X76374171Y-74015640D01*
X76374171Y-74015640D02*
X76329905Y-74112482D01*
X76329905Y-74112482D02*
X76338215Y-74350433D01*
X76338215Y-74350433D02*
X76389128Y-74443951D01*
X76389128Y-74443951D02*
X76438380Y-74489879D01*
X76438380Y-74489879D02*
X76535222Y-74534145D01*
X76535222Y-74534145D02*
X76725582Y-74527498D01*
X76725582Y-74527498D02*
X76819101Y-74476584D01*
X76819101Y-74476584D02*
X76865029Y-74427332D01*
X76865029Y-74427332D02*
X76909295Y-74330490D01*
X79678767Y-74485359D02*
X79643868Y-73485968D01*
X80249848Y-74465416D02*
X79801595Y-73909293D01*
X80214948Y-73466025D02*
X79663810Y-74057048D01*
X132135713Y-99328766D02*
X132135713Y-98328766D01*
X132135713Y-98328766D02*
X132373808Y-98328766D01*
X132373808Y-98328766D02*
X132516665Y-98376385D01*
X132516665Y-98376385D02*
X132611903Y-98471623D01*
X132611903Y-98471623D02*
X132659522Y-98566861D01*
X132659522Y-98566861D02*
X132707141Y-98757337D01*
X132707141Y-98757337D02*
X132707141Y-98900194D01*
X132707141Y-98900194D02*
X132659522Y-99090670D01*
X132659522Y-99090670D02*
X132611903Y-99185908D01*
X132611903Y-99185908D02*
X132516665Y-99281147D01*
X132516665Y-99281147D02*
X132373808Y-99328766D01*
X132373808Y-99328766D02*
X132135713Y-99328766D01*
X133659522Y-99328766D02*
X133088094Y-99328766D01*
X133373808Y-99328766D02*
X133373808Y-98328766D01*
X133373808Y-98328766D02*
X133278570Y-98471623D01*
X133278570Y-98471623D02*
X133183332Y-98566861D01*
X133183332Y-98566861D02*
X133088094Y-98614480D01*
X134516665Y-98328766D02*
X134326189Y-98328766D01*
X134326189Y-98328766D02*
X134230951Y-98376385D01*
X134230951Y-98376385D02*
X134183332Y-98424004D01*
X134183332Y-98424004D02*
X134088094Y-98566861D01*
X134088094Y-98566861D02*
X134040475Y-98757337D01*
X134040475Y-98757337D02*
X134040475Y-99138289D01*
X134040475Y-99138289D02*
X134088094Y-99233527D01*
X134088094Y-99233527D02*
X134135713Y-99281147D01*
X134135713Y-99281147D02*
X134230951Y-99328766D01*
X134230951Y-99328766D02*
X134421427Y-99328766D01*
X134421427Y-99328766D02*
X134516665Y-99281147D01*
X134516665Y-99281147D02*
X134564284Y-99233527D01*
X134564284Y-99233527D02*
X134611903Y-99138289D01*
X134611903Y-99138289D02*
X134611903Y-98900194D01*
X134611903Y-98900194D02*
X134564284Y-98804956D01*
X134564284Y-98804956D02*
X134516665Y-98757337D01*
X134516665Y-98757337D02*
X134421427Y-98709718D01*
X134421427Y-98709718D02*
X134230951Y-98709718D01*
X134230951Y-98709718D02*
X134135713Y-98757337D01*
X134135713Y-98757337D02*
X134088094Y-98804956D01*
X134088094Y-98804956D02*
X134040475Y-98900194D01*
X136898094Y-99008766D02*
X136898094Y-98008766D01*
X137469522Y-99008766D02*
X137040951Y-98437337D01*
X137469522Y-98008766D02*
X136898094Y-98580194D01*
X116935475Y-79715358D02*
X117078332Y-79762977D01*
X117078332Y-79762977D02*
X117316427Y-79762977D01*
X117316427Y-79762977D02*
X117411665Y-79715358D01*
X117411665Y-79715358D02*
X117459284Y-79667738D01*
X117459284Y-79667738D02*
X117506903Y-79572500D01*
X117506903Y-79572500D02*
X117506903Y-79477262D01*
X117506903Y-79477262D02*
X117459284Y-79382024D01*
X117459284Y-79382024D02*
X117411665Y-79334405D01*
X117411665Y-79334405D02*
X117316427Y-79286786D01*
X117316427Y-79286786D02*
X117125951Y-79239167D01*
X117125951Y-79239167D02*
X117030713Y-79191548D01*
X117030713Y-79191548D02*
X116983094Y-79143929D01*
X116983094Y-79143929D02*
X116935475Y-79048691D01*
X116935475Y-79048691D02*
X116935475Y-78953453D01*
X116935475Y-78953453D02*
X116983094Y-78858215D01*
X116983094Y-78858215D02*
X117030713Y-78810596D01*
X117030713Y-78810596D02*
X117125951Y-78762977D01*
X117125951Y-78762977D02*
X117364046Y-78762977D01*
X117364046Y-78762977D02*
X117506903Y-78810596D01*
X117840237Y-78762977D02*
X118078332Y-79762977D01*
X118078332Y-79762977D02*
X118268808Y-79048691D01*
X118268808Y-79048691D02*
X118459284Y-79762977D01*
X118459284Y-79762977D02*
X118697380Y-78762977D01*
X119602141Y-79762977D02*
X119030713Y-79762977D01*
X119316427Y-79762977D02*
X119316427Y-78762977D01*
X119316427Y-78762977D02*
X119221189Y-78905834D01*
X119221189Y-78905834D02*
X119125951Y-79001072D01*
X119125951Y-79001072D02*
X119030713Y-79048691D01*
X120459284Y-79096310D02*
X120459284Y-79762977D01*
X120221189Y-78715358D02*
X119983094Y-79429643D01*
X119983094Y-79429643D02*
X120602141Y-79429643D01*
X156120714Y-83354104D02*
X156596904Y-83354104D01*
X156025476Y-83639819D02*
X156358809Y-82639819D01*
X156358809Y-82639819D02*
X156692142Y-83639819D01*
X157549285Y-83639819D02*
X156977857Y-83639819D01*
X157263571Y-83639819D02*
X157263571Y-82639819D01*
X157263571Y-82639819D02*
X157168333Y-82782676D01*
X157168333Y-82782676D02*
X157073095Y-82877914D01*
X157073095Y-82877914D02*
X156977857Y-82925533D01*
X158096904Y-43090180D02*
X158096904Y-42280657D01*
X158096904Y-42280657D02*
X158049285Y-42185419D01*
X158049285Y-42185419D02*
X158001666Y-42137800D01*
X158001666Y-42137800D02*
X157906428Y-42090180D01*
X157906428Y-42090180D02*
X157715952Y-42090180D01*
X157715952Y-42090180D02*
X157620714Y-42137800D01*
X157620714Y-42137800D02*
X157573095Y-42185419D01*
X157573095Y-42185419D02*
X157525476Y-42280657D01*
X157525476Y-42280657D02*
X157525476Y-43090180D01*
X157096904Y-42137800D02*
X156954047Y-42090180D01*
X156954047Y-42090180D02*
X156715952Y-42090180D01*
X156715952Y-42090180D02*
X156620714Y-42137800D01*
X156620714Y-42137800D02*
X156573095Y-42185419D01*
X156573095Y-42185419D02*
X156525476Y-42280657D01*
X156525476Y-42280657D02*
X156525476Y-42375895D01*
X156525476Y-42375895D02*
X156573095Y-42471133D01*
X156573095Y-42471133D02*
X156620714Y-42518752D01*
X156620714Y-42518752D02*
X156715952Y-42566371D01*
X156715952Y-42566371D02*
X156906428Y-42613990D01*
X156906428Y-42613990D02*
X157001666Y-42661609D01*
X157001666Y-42661609D02*
X157049285Y-42709228D01*
X157049285Y-42709228D02*
X157096904Y-42804466D01*
X157096904Y-42804466D02*
X157096904Y-42899704D01*
X157096904Y-42899704D02*
X157049285Y-42994942D01*
X157049285Y-42994942D02*
X157001666Y-43042561D01*
X157001666Y-43042561D02*
X156906428Y-43090180D01*
X156906428Y-43090180D02*
X156668333Y-43090180D01*
X156668333Y-43090180D02*
X156525476Y-43042561D01*
X155763571Y-42613990D02*
X155620714Y-42566371D01*
X155620714Y-42566371D02*
X155573095Y-42518752D01*
X155573095Y-42518752D02*
X155525476Y-42423514D01*
X155525476Y-42423514D02*
X155525476Y-42280657D01*
X155525476Y-42280657D02*
X155573095Y-42185419D01*
X155573095Y-42185419D02*
X155620714Y-42137800D01*
X155620714Y-42137800D02*
X155715952Y-42090180D01*
X155715952Y-42090180D02*
X156096904Y-42090180D01*
X156096904Y-42090180D02*
X156096904Y-43090180D01*
X156096904Y-43090180D02*
X155763571Y-43090180D01*
X155763571Y-43090180D02*
X155668333Y-43042561D01*
X155668333Y-43042561D02*
X155620714Y-42994942D01*
X155620714Y-42994942D02*
X155573095Y-42899704D01*
X155573095Y-42899704D02*
X155573095Y-42804466D01*
X155573095Y-42804466D02*
X155620714Y-42709228D01*
X155620714Y-42709228D02*
X155668333Y-42661609D01*
X155668333Y-42661609D02*
X155763571Y-42613990D01*
X155763571Y-42613990D02*
X156096904Y-42613990D01*
X135985475Y-85731147D02*
X136128332Y-85778766D01*
X136128332Y-85778766D02*
X136366427Y-85778766D01*
X136366427Y-85778766D02*
X136461665Y-85731147D01*
X136461665Y-85731147D02*
X136509284Y-85683527D01*
X136509284Y-85683527D02*
X136556903Y-85588289D01*
X136556903Y-85588289D02*
X136556903Y-85493051D01*
X136556903Y-85493051D02*
X136509284Y-85397813D01*
X136509284Y-85397813D02*
X136461665Y-85350194D01*
X136461665Y-85350194D02*
X136366427Y-85302575D01*
X136366427Y-85302575D02*
X136175951Y-85254956D01*
X136175951Y-85254956D02*
X136080713Y-85207337D01*
X136080713Y-85207337D02*
X136033094Y-85159718D01*
X136033094Y-85159718D02*
X135985475Y-85064480D01*
X135985475Y-85064480D02*
X135985475Y-84969242D01*
X135985475Y-84969242D02*
X136033094Y-84874004D01*
X136033094Y-84874004D02*
X136080713Y-84826385D01*
X136080713Y-84826385D02*
X136175951Y-84778766D01*
X136175951Y-84778766D02*
X136414046Y-84778766D01*
X136414046Y-84778766D02*
X136556903Y-84826385D01*
X136890237Y-84778766D02*
X137128332Y-85778766D01*
X137128332Y-85778766D02*
X137318808Y-85064480D01*
X137318808Y-85064480D02*
X137509284Y-85778766D01*
X137509284Y-85778766D02*
X137747380Y-84778766D01*
X138652141Y-85778766D02*
X138080713Y-85778766D01*
X138366427Y-85778766D02*
X138366427Y-84778766D01*
X138366427Y-84778766D02*
X138271189Y-84921623D01*
X138271189Y-84921623D02*
X138175951Y-85016861D01*
X138175951Y-85016861D02*
X138080713Y-85064480D01*
X139509284Y-84778766D02*
X139318808Y-84778766D01*
X139318808Y-84778766D02*
X139223570Y-84826385D01*
X139223570Y-84826385D02*
X139175951Y-84874004D01*
X139175951Y-84874004D02*
X139080713Y-85016861D01*
X139080713Y-85016861D02*
X139033094Y-85207337D01*
X139033094Y-85207337D02*
X139033094Y-85588289D01*
X139033094Y-85588289D02*
X139080713Y-85683527D01*
X139080713Y-85683527D02*
X139128332Y-85731147D01*
X139128332Y-85731147D02*
X139223570Y-85778766D01*
X139223570Y-85778766D02*
X139414046Y-85778766D01*
X139414046Y-85778766D02*
X139509284Y-85731147D01*
X139509284Y-85731147D02*
X139556903Y-85683527D01*
X139556903Y-85683527D02*
X139604522Y-85588289D01*
X139604522Y-85588289D02*
X139604522Y-85350194D01*
X139604522Y-85350194D02*
X139556903Y-85254956D01*
X139556903Y-85254956D02*
X139509284Y-85207337D01*
X139509284Y-85207337D02*
X139414046Y-85159718D01*
X139414046Y-85159718D02*
X139223570Y-85159718D01*
X139223570Y-85159718D02*
X139128332Y-85207337D01*
X139128332Y-85207337D02*
X139080713Y-85254956D01*
X139080713Y-85254956D02*
X139033094Y-85350194D01*
X61039642Y-90619168D02*
X61187736Y-90646441D01*
X61187736Y-90646441D02*
X61423514Y-90613305D01*
X61423514Y-90613305D02*
X61511198Y-90552895D01*
X61511198Y-90552895D02*
X61551727Y-90499112D01*
X61551727Y-90499112D02*
X61585628Y-90398173D01*
X61585628Y-90398173D02*
X61572373Y-90303862D01*
X61572373Y-90303862D02*
X61511963Y-90216178D01*
X61511963Y-90216178D02*
X61458180Y-90175650D01*
X61458180Y-90175650D02*
X61357242Y-90141749D01*
X61357242Y-90141749D02*
X61161992Y-90121102D01*
X61161992Y-90121102D02*
X61061053Y-90087201D01*
X61061053Y-90087201D02*
X61007270Y-90046673D01*
X61007270Y-90046673D02*
X60946860Y-89958989D01*
X60946860Y-89958989D02*
X60933605Y-89864678D01*
X60933605Y-89864678D02*
X60967507Y-89763739D01*
X60967507Y-89763739D02*
X61008035Y-89709956D01*
X61008035Y-89709956D02*
X61095719Y-89649546D01*
X61095719Y-89649546D02*
X61331497Y-89616410D01*
X61331497Y-89616410D02*
X61479591Y-89643683D01*
X61803053Y-89550137D02*
X62178004Y-90507268D01*
X62178004Y-90507268D02*
X62267218Y-89773425D01*
X62267218Y-89773425D02*
X62555249Y-90454250D01*
X62555249Y-90454250D02*
X62651854Y-89430845D01*
X63686984Y-90295195D02*
X63121117Y-90374723D01*
X63404050Y-90334959D02*
X63264877Y-89344691D01*
X63264877Y-89344691D02*
X63190448Y-89499412D01*
X63190448Y-89499412D02*
X63109391Y-89606978D01*
X63109391Y-89606978D02*
X63021707Y-89667388D01*
X63877900Y-89258536D02*
X64538079Y-89165754D01*
X64538079Y-89165754D02*
X64252852Y-90215668D01*
X78779224Y-61231060D02*
X78923656Y-61273664D01*
X78923656Y-61273664D02*
X79161606Y-61265355D01*
X79161606Y-61265355D02*
X79255124Y-61214441D01*
X79255124Y-61214441D02*
X79301053Y-61165189D01*
X79301053Y-61165189D02*
X79345319Y-61068347D01*
X79345319Y-61068347D02*
X79341995Y-60973167D01*
X79341995Y-60973167D02*
X79291081Y-60879649D01*
X79291081Y-60879649D02*
X79241829Y-60833721D01*
X79241829Y-60833721D02*
X79144987Y-60789455D01*
X79144987Y-60789455D02*
X78952965Y-60748512D01*
X78952965Y-60748512D02*
X78856123Y-60704246D01*
X78856123Y-60704246D02*
X78806871Y-60658318D01*
X78806871Y-60658318D02*
X78755958Y-60564800D01*
X78755958Y-60564800D02*
X78752634Y-60469619D01*
X78752634Y-60469619D02*
X78796900Y-60372777D01*
X78796900Y-60372777D02*
X78842828Y-60323526D01*
X78842828Y-60323526D02*
X78936347Y-60272612D01*
X78936347Y-60272612D02*
X79174297Y-60264302D01*
X79174297Y-60264302D02*
X79318729Y-60306907D01*
X79650197Y-60247684D02*
X79923047Y-61238765D01*
X79923047Y-61238765D02*
X80088479Y-60518267D01*
X80088479Y-60518267D02*
X80303767Y-61225470D01*
X80303767Y-61225470D02*
X80506818Y-60217770D01*
X80970028Y-61202204D02*
X81160388Y-61195556D01*
X81160388Y-61195556D02*
X81253906Y-61144642D01*
X81253906Y-61144642D02*
X81299834Y-61095390D01*
X81299834Y-61095390D02*
X81390029Y-60949296D01*
X81390029Y-60949296D02*
X81430971Y-60757274D01*
X81430971Y-60757274D02*
X81417676Y-60376554D01*
X81417676Y-60376554D02*
X81366762Y-60283036D01*
X81366762Y-60283036D02*
X81317510Y-60237108D01*
X81317510Y-60237108D02*
X81220668Y-60192842D01*
X81220668Y-60192842D02*
X81030308Y-60199489D01*
X81030308Y-60199489D02*
X80936790Y-60250403D01*
X80936790Y-60250403D02*
X80890862Y-60299655D01*
X80890862Y-60299655D02*
X80846596Y-60396497D01*
X80846596Y-60396497D02*
X80854905Y-60634447D01*
X80854905Y-60634447D02*
X80905819Y-60727965D01*
X80905819Y-60727965D02*
X80955071Y-60773893D01*
X80955071Y-60773893D02*
X81051913Y-60818160D01*
X81051913Y-60818160D02*
X81242273Y-60811512D01*
X81242273Y-60811512D02*
X81335791Y-60760598D01*
X81335791Y-60760598D02*
X81381719Y-60711346D01*
X81381719Y-60711346D02*
X81425985Y-60614504D01*
X138965884Y-114203302D02*
X139055593Y-114324249D01*
X139055593Y-114324249D02*
X139250629Y-114460815D01*
X139250629Y-114460815D02*
X139355956Y-114476434D01*
X139355956Y-114476434D02*
X139422277Y-114464740D01*
X139422277Y-114464740D02*
X139515910Y-114414038D01*
X139515910Y-114414038D02*
X139570537Y-114336024D01*
X139570537Y-114336024D02*
X139586156Y-114230696D01*
X139586156Y-114230696D02*
X139574462Y-114164376D01*
X139574462Y-114164376D02*
X139523760Y-114070742D01*
X139523760Y-114070742D02*
X139395045Y-113922482D01*
X139395045Y-113922482D02*
X139344343Y-113828849D01*
X139344343Y-113828849D02*
X139332649Y-113762528D01*
X139332649Y-113762528D02*
X139348268Y-113657201D01*
X139348268Y-113657201D02*
X139402895Y-113579186D01*
X139402895Y-113579186D02*
X139496528Y-113528485D01*
X139496528Y-113528485D02*
X139562849Y-113516791D01*
X139562849Y-113516791D02*
X139668176Y-113532410D01*
X139668176Y-113532410D02*
X139863212Y-113668976D01*
X139863212Y-113668976D02*
X139952921Y-113789922D01*
X140253285Y-113942107D02*
X139874745Y-114897825D01*
X139874745Y-114897825D02*
X140440471Y-114421969D01*
X140440471Y-114421969D02*
X140186803Y-115116330D01*
X140186803Y-115116330D02*
X140955415Y-114433744D01*
X141173839Y-114702951D02*
X141240160Y-114691257D01*
X141240160Y-114691257D02*
X141345488Y-114706876D01*
X141345488Y-114706876D02*
X141540524Y-114843442D01*
X141540524Y-114843442D02*
X141591225Y-114937075D01*
X141591225Y-114937075D02*
X141602919Y-115003396D01*
X141602919Y-115003396D02*
X141587300Y-115108723D01*
X141587300Y-115108723D02*
X141532674Y-115186738D01*
X141532674Y-115186738D02*
X141411727Y-115276446D01*
X141411727Y-115276446D02*
X140615882Y-115416775D01*
X140615882Y-115416775D02*
X141122976Y-115771846D01*
X142203647Y-115307765D02*
X142281661Y-115362392D01*
X142281661Y-115362392D02*
X142332363Y-115456025D01*
X142332363Y-115456025D02*
X142344057Y-115522346D01*
X142344057Y-115522346D02*
X142328438Y-115627673D01*
X142328438Y-115627673D02*
X142258192Y-115811016D01*
X142258192Y-115811016D02*
X142121626Y-116006052D01*
X142121626Y-116006052D02*
X141973367Y-116134768D01*
X141973367Y-116134768D02*
X141879733Y-116185469D01*
X141879733Y-116185469D02*
X141813413Y-116197163D01*
X141813413Y-116197163D02*
X141708085Y-116181544D01*
X141708085Y-116181544D02*
X141630070Y-116126917D01*
X141630070Y-116126917D02*
X141579369Y-116033284D01*
X141579369Y-116033284D02*
X141567675Y-115966964D01*
X141567675Y-115966964D02*
X141583294Y-115861636D01*
X141583294Y-115861636D02*
X141653540Y-115678294D01*
X141653540Y-115678294D02*
X141790105Y-115483258D01*
X141790105Y-115483258D02*
X141938365Y-115354542D01*
X141938365Y-115354542D02*
X142031999Y-115303840D01*
X142031999Y-115303840D02*
X142098319Y-115292146D01*
X142098319Y-115292146D02*
X142203647Y-115307765D01*
X42593654Y-96249038D02*
X42741748Y-96276311D01*
X42741748Y-96276311D02*
X42977526Y-96243175D01*
X42977526Y-96243175D02*
X43065210Y-96182765D01*
X43065210Y-96182765D02*
X43105739Y-96128982D01*
X43105739Y-96128982D02*
X43139640Y-96028043D01*
X43139640Y-96028043D02*
X43126385Y-95933732D01*
X43126385Y-95933732D02*
X43065975Y-95846048D01*
X43065975Y-95846048D02*
X43012192Y-95805520D01*
X43012192Y-95805520D02*
X42911254Y-95771619D01*
X42911254Y-95771619D02*
X42716004Y-95750972D01*
X42716004Y-95750972D02*
X42615065Y-95717071D01*
X42615065Y-95717071D02*
X42561282Y-95676543D01*
X42561282Y-95676543D02*
X42500872Y-95588859D01*
X42500872Y-95588859D02*
X42487617Y-95494548D01*
X42487617Y-95494548D02*
X42521519Y-95393609D01*
X42521519Y-95393609D02*
X42562047Y-95339826D01*
X42562047Y-95339826D02*
X42649731Y-95279416D01*
X42649731Y-95279416D02*
X42885509Y-95246280D01*
X42885509Y-95246280D02*
X43033603Y-95273553D01*
X43357065Y-95180007D02*
X43732016Y-96137138D01*
X43732016Y-96137138D02*
X43821230Y-95403295D01*
X43821230Y-95403295D02*
X44109261Y-96084120D01*
X44109261Y-96084120D02*
X44205866Y-95060715D01*
X45240996Y-95925065D02*
X44675129Y-96004593D01*
X44958062Y-95964829D02*
X44818889Y-94974561D01*
X44818889Y-94974561D02*
X44744460Y-95129282D01*
X44744460Y-95129282D02*
X44663403Y-95236848D01*
X44663403Y-95236848D02*
X44575719Y-95297258D01*
X45727336Y-95279670D02*
X45626398Y-95245769D01*
X45626398Y-95245769D02*
X45572615Y-95205241D01*
X45572615Y-95205241D02*
X45512205Y-95117557D01*
X45512205Y-95117557D02*
X45505577Y-95070401D01*
X45505577Y-95070401D02*
X45539478Y-94969463D01*
X45539478Y-94969463D02*
X45580007Y-94915680D01*
X45580007Y-94915680D02*
X45667691Y-94855270D01*
X45667691Y-94855270D02*
X45856313Y-94828760D01*
X45856313Y-94828760D02*
X45957252Y-94862661D01*
X45957252Y-94862661D02*
X46011035Y-94903190D01*
X46011035Y-94903190D02*
X46071445Y-94990874D01*
X46071445Y-94990874D02*
X46078072Y-95038029D01*
X46078072Y-95038029D02*
X46044171Y-95138968D01*
X46044171Y-95138968D02*
X46003643Y-95192751D01*
X46003643Y-95192751D02*
X45915959Y-95253161D01*
X45915959Y-95253161D02*
X45727336Y-95279670D01*
X45727336Y-95279670D02*
X45639652Y-95340080D01*
X45639652Y-95340080D02*
X45599124Y-95393863D01*
X45599124Y-95393863D02*
X45565223Y-95494802D01*
X45565223Y-95494802D02*
X45591732Y-95683424D01*
X45591732Y-95683424D02*
X45652142Y-95771108D01*
X45652142Y-95771108D02*
X45705925Y-95811637D01*
X45705925Y-95811637D02*
X45806864Y-95845538D01*
X45806864Y-95845538D02*
X45995486Y-95819028D01*
X45995486Y-95819028D02*
X46083170Y-95758618D01*
X46083170Y-95758618D02*
X46123698Y-95704835D01*
X46123698Y-95704835D02*
X46157600Y-95603897D01*
X46157600Y-95603897D02*
X46131090Y-95415274D01*
X46131090Y-95415274D02*
X46070680Y-95327590D01*
X46070680Y-95327590D02*
X46016897Y-95287062D01*
X46016897Y-95287062D02*
X45915959Y-95253161D01*
X78114389Y-42192665D02*
X78258821Y-42235269D01*
X78258821Y-42235269D02*
X78496771Y-42226960D01*
X78496771Y-42226960D02*
X78590289Y-42176046D01*
X78590289Y-42176046D02*
X78636218Y-42126794D01*
X78636218Y-42126794D02*
X78680484Y-42029952D01*
X78680484Y-42029952D02*
X78677160Y-41934772D01*
X78677160Y-41934772D02*
X78626246Y-41841254D01*
X78626246Y-41841254D02*
X78576994Y-41795326D01*
X78576994Y-41795326D02*
X78480152Y-41751060D01*
X78480152Y-41751060D02*
X78288130Y-41710117D01*
X78288130Y-41710117D02*
X78191288Y-41665851D01*
X78191288Y-41665851D02*
X78142036Y-41619923D01*
X78142036Y-41619923D02*
X78091123Y-41526405D01*
X78091123Y-41526405D02*
X78087799Y-41431224D01*
X78087799Y-41431224D02*
X78132065Y-41334382D01*
X78132065Y-41334382D02*
X78177993Y-41285131D01*
X78177993Y-41285131D02*
X78271512Y-41234217D01*
X78271512Y-41234217D02*
X78509462Y-41225907D01*
X78509462Y-41225907D02*
X78653894Y-41268512D01*
X78985362Y-41209289D02*
X79258212Y-42200370D01*
X79258212Y-42200370D02*
X79423644Y-41479872D01*
X79423644Y-41479872D02*
X79638932Y-42187075D01*
X79638932Y-42187075D02*
X79841983Y-41179375D01*
X80127523Y-41169403D02*
X80746193Y-41147799D01*
X80746193Y-41147799D02*
X80426358Y-41540152D01*
X80426358Y-41540152D02*
X80569128Y-41535167D01*
X80569128Y-41535167D02*
X80665970Y-41579433D01*
X80665970Y-41579433D02*
X80715222Y-41625361D01*
X80715222Y-41625361D02*
X80766136Y-41718879D01*
X80766136Y-41718879D02*
X80774445Y-41956830D01*
X80774445Y-41956830D02*
X80730179Y-42053672D01*
X80730179Y-42053672D02*
X80684251Y-42102924D01*
X80684251Y-42102924D02*
X80590733Y-42153837D01*
X80590733Y-42153837D02*
X80305193Y-42163809D01*
X80305193Y-42163809D02*
X80208351Y-42119542D01*
X80208351Y-42119542D02*
X80159099Y-42073614D01*
X38022533Y-91385501D02*
X37883360Y-90395233D01*
X37883360Y-90395233D02*
X38119138Y-90362097D01*
X38119138Y-90362097D02*
X38267232Y-90389370D01*
X38267232Y-90389370D02*
X38374798Y-90470427D01*
X38374798Y-90470427D02*
X38435208Y-90558111D01*
X38435208Y-90558111D02*
X38508873Y-90740106D01*
X38508873Y-90740106D02*
X38528755Y-90881573D01*
X38528755Y-90881573D02*
X38508108Y-91076823D01*
X38508108Y-91076823D02*
X38474207Y-91177761D01*
X38474207Y-91177761D02*
X38393150Y-91285327D01*
X38393150Y-91285327D02*
X38258311Y-91352365D01*
X38258311Y-91352365D02*
X38022533Y-91385501D01*
X39531513Y-91173428D02*
X38965645Y-91252955D01*
X39248579Y-91213192D02*
X39109406Y-90222924D01*
X39109406Y-90222924D02*
X39034976Y-90377645D01*
X39034976Y-90377645D02*
X38953920Y-90485211D01*
X38953920Y-90485211D02*
X38866236Y-90545621D01*
X39722429Y-90136769D02*
X40335452Y-90050614D01*
X40335452Y-90050614D02*
X40058381Y-90474250D01*
X40058381Y-90474250D02*
X40199848Y-90454368D01*
X40199848Y-90454368D02*
X40300786Y-90488269D01*
X40300786Y-90488269D02*
X40354569Y-90528798D01*
X40354569Y-90528798D02*
X40414979Y-90616481D01*
X40414979Y-90616481D02*
X40448116Y-90852260D01*
X40448116Y-90852260D02*
X40414215Y-90953198D01*
X40414215Y-90953198D02*
X40373687Y-91006981D01*
X40373687Y-91006981D02*
X40286003Y-91067391D01*
X40286003Y-91067391D02*
X40003069Y-91107155D01*
X40003069Y-91107155D02*
X39902130Y-91073254D01*
X39902130Y-91073254D02*
X39848347Y-91032726D01*
X42694031Y-90405822D02*
X42554858Y-89415554D01*
X43259899Y-90326295D02*
X42755971Y-89820073D01*
X43120726Y-89336027D02*
X42634386Y-89981422D01*
X58388395Y-71754561D02*
X58536489Y-71781834D01*
X58536489Y-71781834D02*
X58772267Y-71748698D01*
X58772267Y-71748698D02*
X58859951Y-71688288D01*
X58859951Y-71688288D02*
X58900480Y-71634505D01*
X58900480Y-71634505D02*
X58934381Y-71533566D01*
X58934381Y-71533566D02*
X58921126Y-71439255D01*
X58921126Y-71439255D02*
X58860716Y-71351571D01*
X58860716Y-71351571D02*
X58806933Y-71311043D01*
X58806933Y-71311043D02*
X58705995Y-71277142D01*
X58705995Y-71277142D02*
X58510745Y-71256495D01*
X58510745Y-71256495D02*
X58409806Y-71222594D01*
X58409806Y-71222594D02*
X58356023Y-71182066D01*
X58356023Y-71182066D02*
X58295613Y-71094382D01*
X58295613Y-71094382D02*
X58282358Y-71000071D01*
X58282358Y-71000071D02*
X58316260Y-70899132D01*
X58316260Y-70899132D02*
X58356788Y-70845349D01*
X58356788Y-70845349D02*
X58444472Y-70784939D01*
X58444472Y-70784939D02*
X58680250Y-70751803D01*
X58680250Y-70751803D02*
X58828344Y-70779076D01*
X59151806Y-70685530D02*
X59526757Y-71642661D01*
X59526757Y-71642661D02*
X59615971Y-70908818D01*
X59615971Y-70908818D02*
X59904002Y-71589643D01*
X59904002Y-71589643D02*
X60000607Y-70566238D01*
X61035737Y-71430588D02*
X60469870Y-71510116D01*
X60752803Y-71470352D02*
X60613630Y-70480084D01*
X60613630Y-70480084D02*
X60539201Y-70634805D01*
X60539201Y-70634805D02*
X60458144Y-70742371D01*
X60458144Y-70742371D02*
X60370460Y-70802781D01*
X61978850Y-71298042D02*
X61412982Y-71377570D01*
X61695916Y-71337806D02*
X61556743Y-70347538D01*
X61556743Y-70347538D02*
X61482313Y-70502259D01*
X61482313Y-70502259D02*
X61401257Y-70609825D01*
X61401257Y-70609825D02*
X61313573Y-70670235D01*
X160621907Y-97646937D02*
X160979050Y-98265526D01*
X160979050Y-98265526D02*
X161009239Y-98413054D01*
X161009239Y-98413054D02*
X160974379Y-98543151D01*
X160974379Y-98543151D02*
X160874471Y-98655819D01*
X160874471Y-98655819D02*
X160791992Y-98703438D01*
X161040680Y-97515129D02*
X161058110Y-97450081D01*
X161058110Y-97450081D02*
X161116779Y-97361222D01*
X161116779Y-97361222D02*
X161322975Y-97242175D01*
X161322975Y-97242175D02*
X161429263Y-97235795D01*
X161429263Y-97235795D02*
X161494312Y-97253225D01*
X161494312Y-97253225D02*
X161583170Y-97311894D01*
X161583170Y-97311894D02*
X161630790Y-97394372D01*
X161630790Y-97394372D02*
X161660979Y-97541900D01*
X161660979Y-97541900D02*
X161451821Y-98322486D01*
X161451821Y-98322486D02*
X161987932Y-98012962D01*
X74741521Y-55916356D02*
X74706622Y-54916965D01*
X74706622Y-54916965D02*
X74944572Y-54908655D01*
X74944572Y-54908655D02*
X75089004Y-54951260D01*
X75089004Y-54951260D02*
X75187508Y-55043116D01*
X75187508Y-55043116D02*
X75238422Y-55136634D01*
X75238422Y-55136634D02*
X75292659Y-55325333D01*
X75292659Y-55325333D02*
X75297645Y-55468103D01*
X75297645Y-55468103D02*
X75256702Y-55660125D01*
X75256702Y-55660125D02*
X75212436Y-55756967D01*
X75212436Y-55756967D02*
X75120580Y-55855471D01*
X75120580Y-55855471D02*
X74979472Y-55908046D01*
X74979472Y-55908046D02*
X74741521Y-55916356D01*
X75610833Y-54885389D02*
X76229503Y-54863785D01*
X76229503Y-54863785D02*
X75909668Y-55256138D01*
X75909668Y-55256138D02*
X76052438Y-55251152D01*
X76052438Y-55251152D02*
X76149280Y-55295419D01*
X76149280Y-55295419D02*
X76198532Y-55341347D01*
X76198532Y-55341347D02*
X76249446Y-55434865D01*
X76249446Y-55434865D02*
X76257755Y-55672815D01*
X76257755Y-55672815D02*
X76213489Y-55769657D01*
X76213489Y-55769657D02*
X76167561Y-55818909D01*
X76167561Y-55818909D02*
X76074042Y-55869823D01*
X76074042Y-55869823D02*
X75788502Y-55879794D01*
X75788502Y-55879794D02*
X75691660Y-55835528D01*
X75691660Y-55835528D02*
X75642408Y-55789600D01*
X79013932Y-55446964D02*
X78979033Y-54447573D01*
X79585013Y-55427021D02*
X79136760Y-54870898D01*
X79550113Y-54427630D02*
X78998975Y-55018653D01*
X94511904Y-50199819D02*
X94511904Y-49199819D01*
X94511904Y-49199819D02*
X94749999Y-49199819D01*
X94749999Y-49199819D02*
X94892856Y-49247438D01*
X94892856Y-49247438D02*
X94988094Y-49342676D01*
X94988094Y-49342676D02*
X95035713Y-49437914D01*
X95035713Y-49437914D02*
X95083332Y-49628390D01*
X95083332Y-49628390D02*
X95083332Y-49771247D01*
X95083332Y-49771247D02*
X95035713Y-49961723D01*
X95035713Y-49961723D02*
X94988094Y-50056961D01*
X94988094Y-50056961D02*
X94892856Y-50152200D01*
X94892856Y-50152200D02*
X94749999Y-50199819D01*
X94749999Y-50199819D02*
X94511904Y-50199819D01*
X96035713Y-50199819D02*
X95464285Y-50199819D01*
X95749999Y-50199819D02*
X95749999Y-49199819D01*
X95749999Y-49199819D02*
X95654761Y-49342676D01*
X95654761Y-49342676D02*
X95559523Y-49437914D01*
X95559523Y-49437914D02*
X95464285Y-49485533D01*
X98798094Y-49879819D02*
X98798094Y-48879819D01*
X99369522Y-49879819D02*
X98940951Y-49308390D01*
X99369522Y-48879819D02*
X98798094Y-49451247D01*
X132135713Y-80278766D02*
X132135713Y-79278766D01*
X132135713Y-79278766D02*
X132373808Y-79278766D01*
X132373808Y-79278766D02*
X132516665Y-79326385D01*
X132516665Y-79326385D02*
X132611903Y-79421623D01*
X132611903Y-79421623D02*
X132659522Y-79516861D01*
X132659522Y-79516861D02*
X132707141Y-79707337D01*
X132707141Y-79707337D02*
X132707141Y-79850194D01*
X132707141Y-79850194D02*
X132659522Y-80040670D01*
X132659522Y-80040670D02*
X132611903Y-80135908D01*
X132611903Y-80135908D02*
X132516665Y-80231147D01*
X132516665Y-80231147D02*
X132373808Y-80278766D01*
X132373808Y-80278766D02*
X132135713Y-80278766D01*
X133659522Y-80278766D02*
X133088094Y-80278766D01*
X133373808Y-80278766D02*
X133373808Y-79278766D01*
X133373808Y-79278766D02*
X133278570Y-79421623D01*
X133278570Y-79421623D02*
X133183332Y-79516861D01*
X133183332Y-79516861D02*
X133088094Y-79564480D01*
X134278570Y-79278766D02*
X134373808Y-79278766D01*
X134373808Y-79278766D02*
X134469046Y-79326385D01*
X134469046Y-79326385D02*
X134516665Y-79374004D01*
X134516665Y-79374004D02*
X134564284Y-79469242D01*
X134564284Y-79469242D02*
X134611903Y-79659718D01*
X134611903Y-79659718D02*
X134611903Y-79897813D01*
X134611903Y-79897813D02*
X134564284Y-80088289D01*
X134564284Y-80088289D02*
X134516665Y-80183527D01*
X134516665Y-80183527D02*
X134469046Y-80231147D01*
X134469046Y-80231147D02*
X134373808Y-80278766D01*
X134373808Y-80278766D02*
X134278570Y-80278766D01*
X134278570Y-80278766D02*
X134183332Y-80231147D01*
X134183332Y-80231147D02*
X134135713Y-80183527D01*
X134135713Y-80183527D02*
X134088094Y-80088289D01*
X134088094Y-80088289D02*
X134040475Y-79897813D01*
X134040475Y-79897813D02*
X134040475Y-79659718D01*
X134040475Y-79659718D02*
X134088094Y-79469242D01*
X134088094Y-79469242D02*
X134135713Y-79374004D01*
X134135713Y-79374004D02*
X134183332Y-79326385D01*
X134183332Y-79326385D02*
X134278570Y-79278766D01*
X136898094Y-79958766D02*
X136898094Y-78958766D01*
X137469522Y-79958766D02*
X137040951Y-79387337D01*
X137469522Y-78958766D02*
X136898094Y-79530194D01*
X35842842Y-72454621D02*
X35703669Y-71464353D01*
X35703669Y-71464353D02*
X35939447Y-71431217D01*
X35939447Y-71431217D02*
X36087542Y-71458490D01*
X36087542Y-71458490D02*
X36195107Y-71539547D01*
X36195107Y-71539547D02*
X36255518Y-71627231D01*
X36255518Y-71627231D02*
X36329182Y-71809226D01*
X36329182Y-71809226D02*
X36349064Y-71950693D01*
X36349064Y-71950693D02*
X36328418Y-72145943D01*
X36328418Y-72145943D02*
X36294517Y-72246881D01*
X36294517Y-72246881D02*
X36213460Y-72354447D01*
X36213460Y-72354447D02*
X36078621Y-72421485D01*
X36078621Y-72421485D02*
X35842842Y-72454621D01*
X36599626Y-71338435D02*
X37259805Y-71245653D01*
X37259805Y-71245653D02*
X36974577Y-72295566D01*
X40042784Y-71541215D02*
X39903611Y-70550947D01*
X40608652Y-71461688D02*
X40104724Y-70955466D01*
X40469479Y-70471420D02*
X39983139Y-71116815D01*
X37762716Y-58453551D02*
X37910810Y-58480824D01*
X37910810Y-58480824D02*
X38146588Y-58447688D01*
X38146588Y-58447688D02*
X38234272Y-58387278D01*
X38234272Y-58387278D02*
X38274800Y-58333495D01*
X38274800Y-58333495D02*
X38308701Y-58232556D01*
X38308701Y-58232556D02*
X38295447Y-58138245D01*
X38295447Y-58138245D02*
X38235037Y-58050561D01*
X38235037Y-58050561D02*
X38181254Y-58010033D01*
X38181254Y-58010033D02*
X38080315Y-57976132D01*
X38080315Y-57976132D02*
X37885065Y-57955485D01*
X37885065Y-57955485D02*
X37784127Y-57921584D01*
X37784127Y-57921584D02*
X37730344Y-57881056D01*
X37730344Y-57881056D02*
X37669934Y-57793372D01*
X37669934Y-57793372D02*
X37656679Y-57699061D01*
X37656679Y-57699061D02*
X37690580Y-57598122D01*
X37690580Y-57598122D02*
X37731109Y-57544339D01*
X37731109Y-57544339D02*
X37818793Y-57483929D01*
X37818793Y-57483929D02*
X38054571Y-57450793D01*
X38054571Y-57450793D02*
X38202665Y-57478066D01*
X38526127Y-57384520D02*
X38901078Y-58341651D01*
X38901078Y-58341651D02*
X38990291Y-57607808D01*
X38990291Y-57607808D02*
X39278323Y-58288633D01*
X39278323Y-58288633D02*
X39374928Y-57265229D01*
X39657862Y-57225465D02*
X40318040Y-57132683D01*
X40318040Y-57132683D02*
X40032813Y-58182596D01*
X117411666Y-60665358D02*
X117554523Y-60712977D01*
X117554523Y-60712977D02*
X117792618Y-60712977D01*
X117792618Y-60712977D02*
X117887856Y-60665358D01*
X117887856Y-60665358D02*
X117935475Y-60617738D01*
X117935475Y-60617738D02*
X117983094Y-60522500D01*
X117983094Y-60522500D02*
X117983094Y-60427262D01*
X117983094Y-60427262D02*
X117935475Y-60332024D01*
X117935475Y-60332024D02*
X117887856Y-60284405D01*
X117887856Y-60284405D02*
X117792618Y-60236786D01*
X117792618Y-60236786D02*
X117602142Y-60189167D01*
X117602142Y-60189167D02*
X117506904Y-60141548D01*
X117506904Y-60141548D02*
X117459285Y-60093929D01*
X117459285Y-60093929D02*
X117411666Y-59998691D01*
X117411666Y-59998691D02*
X117411666Y-59903453D01*
X117411666Y-59903453D02*
X117459285Y-59808215D01*
X117459285Y-59808215D02*
X117506904Y-59760596D01*
X117506904Y-59760596D02*
X117602142Y-59712977D01*
X117602142Y-59712977D02*
X117840237Y-59712977D01*
X117840237Y-59712977D02*
X117983094Y-59760596D01*
X118316428Y-59712977D02*
X118554523Y-60712977D01*
X118554523Y-60712977D02*
X118744999Y-59998691D01*
X118744999Y-59998691D02*
X118935475Y-60712977D01*
X118935475Y-60712977D02*
X119173571Y-59712977D01*
X119697380Y-60141548D02*
X119602142Y-60093929D01*
X119602142Y-60093929D02*
X119554523Y-60046310D01*
X119554523Y-60046310D02*
X119506904Y-59951072D01*
X119506904Y-59951072D02*
X119506904Y-59903453D01*
X119506904Y-59903453D02*
X119554523Y-59808215D01*
X119554523Y-59808215D02*
X119602142Y-59760596D01*
X119602142Y-59760596D02*
X119697380Y-59712977D01*
X119697380Y-59712977D02*
X119887856Y-59712977D01*
X119887856Y-59712977D02*
X119983094Y-59760596D01*
X119983094Y-59760596D02*
X120030713Y-59808215D01*
X120030713Y-59808215D02*
X120078332Y-59903453D01*
X120078332Y-59903453D02*
X120078332Y-59951072D01*
X120078332Y-59951072D02*
X120030713Y-60046310D01*
X120030713Y-60046310D02*
X119983094Y-60093929D01*
X119983094Y-60093929D02*
X119887856Y-60141548D01*
X119887856Y-60141548D02*
X119697380Y-60141548D01*
X119697380Y-60141548D02*
X119602142Y-60189167D01*
X119602142Y-60189167D02*
X119554523Y-60236786D01*
X119554523Y-60236786D02*
X119506904Y-60332024D01*
X119506904Y-60332024D02*
X119506904Y-60522500D01*
X119506904Y-60522500D02*
X119554523Y-60617738D01*
X119554523Y-60617738D02*
X119602142Y-60665358D01*
X119602142Y-60665358D02*
X119697380Y-60712977D01*
X119697380Y-60712977D02*
X119887856Y-60712977D01*
X119887856Y-60712977D02*
X119983094Y-60665358D01*
X119983094Y-60665358D02*
X120030713Y-60617738D01*
X120030713Y-60617738D02*
X120078332Y-60522500D01*
X120078332Y-60522500D02*
X120078332Y-60332024D01*
X120078332Y-60332024D02*
X120030713Y-60236786D01*
X120030713Y-60236786D02*
X119983094Y-60189167D01*
X119983094Y-60189167D02*
X119887856Y-60141548D01*
X39942406Y-77384431D02*
X40090500Y-77411704D01*
X40090500Y-77411704D02*
X40326278Y-77378568D01*
X40326278Y-77378568D02*
X40413962Y-77318158D01*
X40413962Y-77318158D02*
X40454491Y-77264375D01*
X40454491Y-77264375D02*
X40488392Y-77163436D01*
X40488392Y-77163436D02*
X40475137Y-77069125D01*
X40475137Y-77069125D02*
X40414727Y-76981441D01*
X40414727Y-76981441D02*
X40360944Y-76940913D01*
X40360944Y-76940913D02*
X40260006Y-76907012D01*
X40260006Y-76907012D02*
X40064756Y-76886365D01*
X40064756Y-76886365D02*
X39963817Y-76852464D01*
X39963817Y-76852464D02*
X39910034Y-76811936D01*
X39910034Y-76811936D02*
X39849624Y-76724252D01*
X39849624Y-76724252D02*
X39836369Y-76629941D01*
X39836369Y-76629941D02*
X39870271Y-76529002D01*
X39870271Y-76529002D02*
X39910799Y-76475219D01*
X39910799Y-76475219D02*
X39998483Y-76414809D01*
X39998483Y-76414809D02*
X40234261Y-76381673D01*
X40234261Y-76381673D02*
X40382355Y-76408946D01*
X40705817Y-76315400D02*
X41080768Y-77272531D01*
X41080768Y-77272531D02*
X41169982Y-76538688D01*
X41169982Y-76538688D02*
X41458013Y-77219513D01*
X41458013Y-77219513D02*
X41554618Y-76196108D01*
X42589748Y-77060458D02*
X42023881Y-77139986D01*
X42306814Y-77100222D02*
X42167641Y-76109954D01*
X42167641Y-76109954D02*
X42093212Y-76264675D01*
X42093212Y-76264675D02*
X42012155Y-76372241D01*
X42012155Y-76372241D02*
X41924471Y-76432651D01*
X42780664Y-76023799D02*
X43393688Y-75937644D01*
X43393688Y-75937644D02*
X43116617Y-76361280D01*
X43116617Y-76361280D02*
X43258083Y-76341398D01*
X43258083Y-76341398D02*
X43359022Y-76375299D01*
X43359022Y-76375299D02*
X43412805Y-76415828D01*
X43412805Y-76415828D02*
X43473215Y-76503512D01*
X43473215Y-76503512D02*
X43506352Y-76739290D01*
X43506352Y-76739290D02*
X43472450Y-76840228D01*
X43472450Y-76840228D02*
X43431922Y-76894011D01*
X43431922Y-76894011D02*
X43344238Y-76954421D01*
X43344238Y-76954421D02*
X43061304Y-76994185D01*
X43061304Y-76994185D02*
X42960366Y-76960284D01*
X42960366Y-76960284D02*
X42906583Y-76919756D01*
X128013070Y-123133686D02*
X128586647Y-122314534D01*
X128586647Y-122314534D02*
X128781683Y-122451100D01*
X128781683Y-122451100D02*
X128871392Y-122572046D01*
X128871392Y-122572046D02*
X128894780Y-122704687D01*
X128894780Y-122704687D02*
X128879161Y-122810015D01*
X128879161Y-122810015D02*
X128808915Y-122993357D01*
X128808915Y-122993357D02*
X128726976Y-123110379D01*
X128726976Y-123110379D02*
X128578716Y-123239094D01*
X128578716Y-123239094D02*
X128485082Y-123289796D01*
X128485082Y-123289796D02*
X128352441Y-123313184D01*
X128352441Y-123313184D02*
X128208107Y-123270252D01*
X128208107Y-123270252D02*
X128013070Y-123133686D01*
X129312165Y-122938811D02*
X129378486Y-122927117D01*
X129378486Y-122927117D02*
X129483813Y-122942736D01*
X129483813Y-122942736D02*
X129678850Y-123079302D01*
X129678850Y-123079302D02*
X129729551Y-123172936D01*
X129729551Y-123172936D02*
X129741245Y-123239256D01*
X129741245Y-123239256D02*
X129725626Y-123344584D01*
X129725626Y-123344584D02*
X129670999Y-123422598D01*
X129670999Y-123422598D02*
X129550053Y-123512307D01*
X129550053Y-123512307D02*
X128754208Y-123652636D01*
X128754208Y-123652636D02*
X129261302Y-124007707D01*
X130341973Y-123543626D02*
X130419987Y-123598252D01*
X130419987Y-123598252D02*
X130470688Y-123691886D01*
X130470688Y-123691886D02*
X130482383Y-123758206D01*
X130482383Y-123758206D02*
X130466763Y-123863534D01*
X130466763Y-123863534D02*
X130396518Y-124046876D01*
X130396518Y-124046876D02*
X130259952Y-124241912D01*
X130259952Y-124241912D02*
X130111692Y-124370628D01*
X130111692Y-124370628D02*
X130018059Y-124421329D01*
X130018059Y-124421329D02*
X129951738Y-124433024D01*
X129951738Y-124433024D02*
X129846411Y-124417404D01*
X129846411Y-124417404D02*
X129768396Y-124362778D01*
X129768396Y-124362778D02*
X129717695Y-124269145D01*
X129717695Y-124269145D02*
X129706001Y-124202824D01*
X129706001Y-124202824D02*
X129721620Y-124097497D01*
X129721620Y-124097497D02*
X129791865Y-123914154D01*
X129791865Y-123914154D02*
X129928431Y-123719118D01*
X129928431Y-123719118D02*
X130076691Y-123590402D01*
X130076691Y-123590402D02*
X130170325Y-123539701D01*
X130170325Y-123539701D02*
X130236645Y-123528007D01*
X130236645Y-123528007D02*
X130341973Y-123543626D01*
X132097728Y-125603147D02*
X132671305Y-124783995D01*
X132565815Y-125930905D02*
X132542508Y-125217000D01*
X133139392Y-125111753D02*
X132343547Y-125252082D01*
X113561904Y-74262977D02*
X113561904Y-73262977D01*
X113561904Y-73262977D02*
X113799999Y-73262977D01*
X113799999Y-73262977D02*
X113942856Y-73310596D01*
X113942856Y-73310596D02*
X114038094Y-73405834D01*
X114038094Y-73405834D02*
X114085713Y-73501072D01*
X114085713Y-73501072D02*
X114133332Y-73691548D01*
X114133332Y-73691548D02*
X114133332Y-73834405D01*
X114133332Y-73834405D02*
X114085713Y-74024881D01*
X114085713Y-74024881D02*
X114038094Y-74120119D01*
X114038094Y-74120119D02*
X113942856Y-74215358D01*
X113942856Y-74215358D02*
X113799999Y-74262977D01*
X113799999Y-74262977D02*
X113561904Y-74262977D01*
X114704761Y-73691548D02*
X114609523Y-73643929D01*
X114609523Y-73643929D02*
X114561904Y-73596310D01*
X114561904Y-73596310D02*
X114514285Y-73501072D01*
X114514285Y-73501072D02*
X114514285Y-73453453D01*
X114514285Y-73453453D02*
X114561904Y-73358215D01*
X114561904Y-73358215D02*
X114609523Y-73310596D01*
X114609523Y-73310596D02*
X114704761Y-73262977D01*
X114704761Y-73262977D02*
X114895237Y-73262977D01*
X114895237Y-73262977D02*
X114990475Y-73310596D01*
X114990475Y-73310596D02*
X115038094Y-73358215D01*
X115038094Y-73358215D02*
X115085713Y-73453453D01*
X115085713Y-73453453D02*
X115085713Y-73501072D01*
X115085713Y-73501072D02*
X115038094Y-73596310D01*
X115038094Y-73596310D02*
X114990475Y-73643929D01*
X114990475Y-73643929D02*
X114895237Y-73691548D01*
X114895237Y-73691548D02*
X114704761Y-73691548D01*
X114704761Y-73691548D02*
X114609523Y-73739167D01*
X114609523Y-73739167D02*
X114561904Y-73786786D01*
X114561904Y-73786786D02*
X114514285Y-73882024D01*
X114514285Y-73882024D02*
X114514285Y-74072500D01*
X114514285Y-74072500D02*
X114561904Y-74167738D01*
X114561904Y-74167738D02*
X114609523Y-74215358D01*
X114609523Y-74215358D02*
X114704761Y-74262977D01*
X114704761Y-74262977D02*
X114895237Y-74262977D01*
X114895237Y-74262977D02*
X114990475Y-74215358D01*
X114990475Y-74215358D02*
X115038094Y-74167738D01*
X115038094Y-74167738D02*
X115085713Y-74072500D01*
X115085713Y-74072500D02*
X115085713Y-73882024D01*
X115085713Y-73882024D02*
X115038094Y-73786786D01*
X115038094Y-73786786D02*
X114990475Y-73739167D01*
X114990475Y-73739167D02*
X114895237Y-73691548D01*
X117848094Y-73942977D02*
X117848094Y-72942977D01*
X118419522Y-73942977D02*
X117990951Y-73371548D01*
X118419522Y-72942977D02*
X117848094Y-73514405D01*
X112634100Y-119086578D02*
X112807748Y-118101771D01*
X112807748Y-118101771D02*
X113042226Y-118143115D01*
X113042226Y-118143115D02*
X113174644Y-118214818D01*
X113174644Y-118214818D02*
X113251897Y-118325147D01*
X113251897Y-118325147D02*
X113282255Y-118427207D01*
X113282255Y-118427207D02*
X113296075Y-118623059D01*
X113296075Y-118623059D02*
X113271268Y-118763745D01*
X113271268Y-118763745D02*
X113191296Y-118943059D01*
X113191296Y-118943059D02*
X113127863Y-119028581D01*
X113127863Y-119028581D02*
X113017534Y-119105834D01*
X113017534Y-119105834D02*
X112868578Y-119127923D01*
X112868578Y-119127923D02*
X112634100Y-119086578D01*
X114134759Y-119351185D02*
X113572012Y-119251958D01*
X113853386Y-119301571D02*
X114027034Y-118316764D01*
X114027034Y-118316764D02*
X113908436Y-118440912D01*
X113908436Y-118440912D02*
X113798107Y-118518166D01*
X113798107Y-118518166D02*
X113696047Y-118548523D01*
X114603716Y-119433875D02*
X114791298Y-119466951D01*
X114791298Y-119466951D02*
X114893358Y-119436593D01*
X114893358Y-119436593D02*
X114948523Y-119397966D01*
X114948523Y-119397966D02*
X115067121Y-119273817D01*
X115067121Y-119273817D02*
X115147092Y-119094504D01*
X115147092Y-119094504D02*
X115213244Y-118719339D01*
X115213244Y-118719339D02*
X115182886Y-118617279D01*
X115182886Y-118617279D02*
X115144260Y-118562114D01*
X115144260Y-118562114D02*
X115058737Y-118498681D01*
X115058737Y-118498681D02*
X114871155Y-118465605D01*
X114871155Y-118465605D02*
X114769095Y-118495963D01*
X114769095Y-118495963D02*
X114713930Y-118534589D01*
X114713930Y-118534589D02*
X114650497Y-118620111D01*
X114650497Y-118620111D02*
X114609152Y-118854589D01*
X114609152Y-118854589D02*
X114639510Y-118956650D01*
X114639510Y-118956650D02*
X114678136Y-119011814D01*
X114678136Y-119011814D02*
X114763658Y-119075248D01*
X114763658Y-119075248D02*
X114951241Y-119108324D01*
X114951241Y-119108324D02*
X115053301Y-119077966D01*
X115053301Y-119077966D02*
X115108466Y-119039339D01*
X115108466Y-119039339D02*
X115171899Y-118953817D01*
X117379697Y-119598419D02*
X117553345Y-118613611D01*
X117942444Y-119697646D02*
X117619612Y-119060478D01*
X118116093Y-118712838D02*
X117454118Y-119176358D01*
X56468522Y-85755631D02*
X56329349Y-84765363D01*
X56329349Y-84765363D02*
X56565127Y-84732227D01*
X56565127Y-84732227D02*
X56713221Y-84759500D01*
X56713221Y-84759500D02*
X56820787Y-84840557D01*
X56820787Y-84840557D02*
X56881197Y-84928241D01*
X56881197Y-84928241D02*
X56954862Y-85110236D01*
X56954862Y-85110236D02*
X56974744Y-85251703D01*
X56974744Y-85251703D02*
X56954097Y-85446953D01*
X56954097Y-85446953D02*
X56920196Y-85547891D01*
X56920196Y-85547891D02*
X56839139Y-85655457D01*
X56839139Y-85655457D02*
X56704300Y-85722495D01*
X56704300Y-85722495D02*
X56468522Y-85755631D01*
X57977502Y-85543558D02*
X57411634Y-85623085D01*
X57694568Y-85583322D02*
X57555395Y-84593054D01*
X57555395Y-84593054D02*
X57480965Y-84747775D01*
X57480965Y-84747775D02*
X57399909Y-84855341D01*
X57399909Y-84855341D02*
X57312225Y-84915751D01*
X58920614Y-85411012D02*
X58354747Y-85490540D01*
X58637680Y-85450776D02*
X58498507Y-84460508D01*
X58498507Y-84460508D02*
X58424078Y-84615229D01*
X58424078Y-84615229D02*
X58343021Y-84722795D01*
X58343021Y-84722795D02*
X58255337Y-84783205D01*
X61140020Y-84775952D02*
X61000847Y-83785684D01*
X61705888Y-84696425D02*
X61201960Y-84190203D01*
X61566715Y-83706157D02*
X61080375Y-84351552D01*
X54288830Y-66824752D02*
X54149657Y-65834484D01*
X54149657Y-65834484D02*
X54385435Y-65801348D01*
X54385435Y-65801348D02*
X54533530Y-65828621D01*
X54533530Y-65828621D02*
X54641095Y-65909678D01*
X54641095Y-65909678D02*
X54701506Y-65997362D01*
X54701506Y-65997362D02*
X54775170Y-66179357D01*
X54775170Y-66179357D02*
X54795052Y-66320824D01*
X54795052Y-66320824D02*
X54774406Y-66516074D01*
X54774406Y-66516074D02*
X54740505Y-66617012D01*
X54740505Y-66617012D02*
X54659448Y-66724578D01*
X54659448Y-66724578D02*
X54524609Y-66791616D01*
X54524609Y-66791616D02*
X54288830Y-66824752D01*
X55611482Y-65629038D02*
X55139925Y-65695311D01*
X55139925Y-65695311D02*
X55159043Y-66173495D01*
X55159043Y-66173495D02*
X55199571Y-66119712D01*
X55199571Y-66119712D02*
X55287255Y-66059301D01*
X55287255Y-66059301D02*
X55523033Y-66026165D01*
X55523033Y-66026165D02*
X55623972Y-66060066D01*
X55623972Y-66060066D02*
X55677754Y-66100594D01*
X55677754Y-66100594D02*
X55738165Y-66188278D01*
X55738165Y-66188278D02*
X55771301Y-66424056D01*
X55771301Y-66424056D02*
X55737400Y-66524995D01*
X55737400Y-66524995D02*
X55696872Y-66578778D01*
X55696872Y-66578778D02*
X55609188Y-66639188D01*
X55609188Y-66639188D02*
X55373410Y-66672325D01*
X55373410Y-66672325D02*
X55272471Y-66638423D01*
X55272471Y-66638423D02*
X55218688Y-66597895D01*
X58488772Y-65911346D02*
X58349599Y-64921078D01*
X59054640Y-65831819D02*
X58550712Y-65325597D01*
X58915467Y-64841551D02*
X58429127Y-65486946D01*
X98361666Y-36602200D02*
X98504523Y-36649819D01*
X98504523Y-36649819D02*
X98742618Y-36649819D01*
X98742618Y-36649819D02*
X98837856Y-36602200D01*
X98837856Y-36602200D02*
X98885475Y-36554580D01*
X98885475Y-36554580D02*
X98933094Y-36459342D01*
X98933094Y-36459342D02*
X98933094Y-36364104D01*
X98933094Y-36364104D02*
X98885475Y-36268866D01*
X98885475Y-36268866D02*
X98837856Y-36221247D01*
X98837856Y-36221247D02*
X98742618Y-36173628D01*
X98742618Y-36173628D02*
X98552142Y-36126009D01*
X98552142Y-36126009D02*
X98456904Y-36078390D01*
X98456904Y-36078390D02*
X98409285Y-36030771D01*
X98409285Y-36030771D02*
X98361666Y-35935533D01*
X98361666Y-35935533D02*
X98361666Y-35840295D01*
X98361666Y-35840295D02*
X98409285Y-35745057D01*
X98409285Y-35745057D02*
X98456904Y-35697438D01*
X98456904Y-35697438D02*
X98552142Y-35649819D01*
X98552142Y-35649819D02*
X98790237Y-35649819D01*
X98790237Y-35649819D02*
X98933094Y-35697438D01*
X99266428Y-35649819D02*
X99504523Y-36649819D01*
X99504523Y-36649819D02*
X99694999Y-35935533D01*
X99694999Y-35935533D02*
X99885475Y-36649819D01*
X99885475Y-36649819D02*
X100123571Y-35649819D01*
X101028332Y-36649819D02*
X100456904Y-36649819D01*
X100742618Y-36649819D02*
X100742618Y-35649819D01*
X100742618Y-35649819D02*
X100647380Y-35792676D01*
X100647380Y-35792676D02*
X100552142Y-35887914D01*
X100552142Y-35887914D02*
X100456904Y-35935533D01*
X117411666Y-41615358D02*
X117554523Y-41662977D01*
X117554523Y-41662977D02*
X117792618Y-41662977D01*
X117792618Y-41662977D02*
X117887856Y-41615358D01*
X117887856Y-41615358D02*
X117935475Y-41567738D01*
X117935475Y-41567738D02*
X117983094Y-41472500D01*
X117983094Y-41472500D02*
X117983094Y-41377262D01*
X117983094Y-41377262D02*
X117935475Y-41282024D01*
X117935475Y-41282024D02*
X117887856Y-41234405D01*
X117887856Y-41234405D02*
X117792618Y-41186786D01*
X117792618Y-41186786D02*
X117602142Y-41139167D01*
X117602142Y-41139167D02*
X117506904Y-41091548D01*
X117506904Y-41091548D02*
X117459285Y-41043929D01*
X117459285Y-41043929D02*
X117411666Y-40948691D01*
X117411666Y-40948691D02*
X117411666Y-40853453D01*
X117411666Y-40853453D02*
X117459285Y-40758215D01*
X117459285Y-40758215D02*
X117506904Y-40710596D01*
X117506904Y-40710596D02*
X117602142Y-40662977D01*
X117602142Y-40662977D02*
X117840237Y-40662977D01*
X117840237Y-40662977D02*
X117983094Y-40710596D01*
X118316428Y-40662977D02*
X118554523Y-41662977D01*
X118554523Y-41662977D02*
X118744999Y-40948691D01*
X118744999Y-40948691D02*
X118935475Y-41662977D01*
X118935475Y-41662977D02*
X119173571Y-40662977D01*
X119506904Y-40758215D02*
X119554523Y-40710596D01*
X119554523Y-40710596D02*
X119649761Y-40662977D01*
X119649761Y-40662977D02*
X119887856Y-40662977D01*
X119887856Y-40662977D02*
X119983094Y-40710596D01*
X119983094Y-40710596D02*
X120030713Y-40758215D01*
X120030713Y-40758215D02*
X120078332Y-40853453D01*
X120078332Y-40853453D02*
X120078332Y-40948691D01*
X120078332Y-40948691D02*
X120030713Y-41091548D01*
X120030713Y-41091548D02*
X119459285Y-41662977D01*
X119459285Y-41662977D02*
X120078332Y-41662977D01*
X142774465Y-133532562D02*
X143481572Y-132825456D01*
X143481572Y-132825456D02*
X143649931Y-132993814D01*
X143649931Y-132993814D02*
X143717274Y-133128501D01*
X143717274Y-133128501D02*
X143717274Y-133263188D01*
X143717274Y-133263188D02*
X143683602Y-133364204D01*
X143683602Y-133364204D02*
X143582587Y-133532562D01*
X143582587Y-133532562D02*
X143481572Y-133633578D01*
X143481572Y-133633578D02*
X143313213Y-133734593D01*
X143313213Y-133734593D02*
X143212198Y-133768265D01*
X143212198Y-133768265D02*
X143077511Y-133768265D01*
X143077511Y-133768265D02*
X142942824Y-133700921D01*
X142942824Y-133700921D02*
X142774465Y-133532562D01*
X144087663Y-133566234D02*
X144155007Y-133566234D01*
X144155007Y-133566234D02*
X144256022Y-133599906D01*
X144256022Y-133599906D02*
X144424381Y-133768265D01*
X144424381Y-133768265D02*
X144458053Y-133869280D01*
X144458053Y-133869280D02*
X144458053Y-133936623D01*
X144458053Y-133936623D02*
X144424381Y-134037639D01*
X144424381Y-134037639D02*
X144357037Y-134104982D01*
X144357037Y-134104982D02*
X144222350Y-134172326D01*
X144222350Y-134172326D02*
X143414228Y-134172326D01*
X143414228Y-134172326D02*
X143851961Y-134610058D01*
X144525396Y-135283494D02*
X144121335Y-134879433D01*
X144323366Y-135081463D02*
X145030473Y-134374356D01*
X145030473Y-134374356D02*
X144862114Y-134408028D01*
X144862114Y-134408028D02*
X144727427Y-134408028D01*
X144727427Y-134408028D02*
X144626412Y-134374356D01*
X146368251Y-136673799D02*
X147075358Y-135966693D01*
X146772312Y-137077861D02*
X146873328Y-136370754D01*
X147479419Y-136370754D02*
X146671297Y-136370754D01*
X113085713Y-93312977D02*
X113085713Y-92312977D01*
X113085713Y-92312977D02*
X113323808Y-92312977D01*
X113323808Y-92312977D02*
X113466665Y-92360596D01*
X113466665Y-92360596D02*
X113561903Y-92455834D01*
X113561903Y-92455834D02*
X113609522Y-92551072D01*
X113609522Y-92551072D02*
X113657141Y-92741548D01*
X113657141Y-92741548D02*
X113657141Y-92884405D01*
X113657141Y-92884405D02*
X113609522Y-93074881D01*
X113609522Y-93074881D02*
X113561903Y-93170119D01*
X113561903Y-93170119D02*
X113466665Y-93265358D01*
X113466665Y-93265358D02*
X113323808Y-93312977D01*
X113323808Y-93312977D02*
X113085713Y-93312977D01*
X114609522Y-93312977D02*
X114038094Y-93312977D01*
X114323808Y-93312977D02*
X114323808Y-92312977D01*
X114323808Y-92312977D02*
X114228570Y-92455834D01*
X114228570Y-92455834D02*
X114133332Y-92551072D01*
X114133332Y-92551072D02*
X114038094Y-92598691D01*
X115466665Y-92646310D02*
X115466665Y-93312977D01*
X115228570Y-92265358D02*
X114990475Y-92979643D01*
X114990475Y-92979643D02*
X115609522Y-92979643D01*
X117848094Y-92992977D02*
X117848094Y-91992977D01*
X118419522Y-92992977D02*
X117990951Y-92421548D01*
X118419522Y-91992977D02*
X117848094Y-92564405D01*
X78968158Y-80286074D02*
X79112590Y-80328678D01*
X79112590Y-80328678D02*
X79350540Y-80320369D01*
X79350540Y-80320369D02*
X79444058Y-80269455D01*
X79444058Y-80269455D02*
X79489987Y-80220203D01*
X79489987Y-80220203D02*
X79534253Y-80123361D01*
X79534253Y-80123361D02*
X79530929Y-80028181D01*
X79530929Y-80028181D02*
X79480015Y-79934663D01*
X79480015Y-79934663D02*
X79430763Y-79888735D01*
X79430763Y-79888735D02*
X79333921Y-79844469D01*
X79333921Y-79844469D02*
X79141899Y-79803526D01*
X79141899Y-79803526D02*
X79045057Y-79759260D01*
X79045057Y-79759260D02*
X78995806Y-79713332D01*
X78995806Y-79713332D02*
X78944892Y-79619813D01*
X78944892Y-79619813D02*
X78941568Y-79524633D01*
X78941568Y-79524633D02*
X78985834Y-79427791D01*
X78985834Y-79427791D02*
X79031762Y-79378539D01*
X79031762Y-79378539D02*
X79125281Y-79327626D01*
X79125281Y-79327626D02*
X79363231Y-79319316D01*
X79363231Y-79319316D02*
X79507663Y-79361921D01*
X79839131Y-79302697D02*
X80111981Y-80293779D01*
X80111981Y-80293779D02*
X80277413Y-79573281D01*
X80277413Y-79573281D02*
X80492701Y-80280484D01*
X80492701Y-80280484D02*
X80695752Y-79272784D01*
X81634862Y-80240599D02*
X81063782Y-80260541D01*
X81349322Y-80250570D02*
X81314422Y-79251179D01*
X81314422Y-79251179D02*
X81224228Y-79397273D01*
X81224228Y-79397273D02*
X81132372Y-79495777D01*
X81132372Y-79495777D02*
X81038853Y-79546691D01*
X82504173Y-79209632D02*
X82028273Y-79226251D01*
X82028273Y-79226251D02*
X81997302Y-79703813D01*
X81997302Y-79703813D02*
X82043230Y-79654561D01*
X82043230Y-79654561D02*
X82136748Y-79603647D01*
X82136748Y-79603647D02*
X82374698Y-79595338D01*
X82374698Y-79595338D02*
X82471540Y-79639604D01*
X82471540Y-79639604D02*
X82520792Y-79685532D01*
X82520792Y-79685532D02*
X82571706Y-79779051D01*
X82571706Y-79779051D02*
X82580015Y-80017001D01*
X82580015Y-80017001D02*
X82535749Y-80113843D01*
X82535749Y-80113843D02*
X82489821Y-80163095D01*
X82489821Y-80163095D02*
X82396303Y-80214009D01*
X82396303Y-80214009D02*
X82158353Y-80222318D01*
X82158353Y-80222318D02*
X82061511Y-80178052D01*
X82061511Y-80178052D02*
X82012259Y-80132124D01*
D12*
%TO.C,JP1*%
X150765000Y-100965000D02*
X152765000Y-100965000D01*
%TO.C,U1*%
X147665000Y-95752500D02*
X147665000Y-96552500D01*
X147665000Y-95752500D02*
X147665000Y-94952500D01*
X150785000Y-95752500D02*
X150785000Y-96552500D01*
X150785000Y-95752500D02*
X150785000Y-94952500D01*
X147715000Y-97052500D02*
X147385000Y-97292500D01*
X147385000Y-96812500D01*
X147715000Y-97052500D01*
G36*
X147715000Y-97052500D02*
G01*
X147385000Y-97292500D01*
X147385000Y-96812500D01*
X147715000Y-97052500D01*
G37*
%TO.C,R2*%
X145415000Y-96115000D02*
X145415000Y-95345000D01*
X145415000Y-88035000D02*
X145415000Y-88805000D01*
X144045000Y-95345000D02*
X146785000Y-95345000D01*
X146785000Y-88805000D01*
X144045000Y-88805000D01*
X144045000Y-95345000D01*
D11*
%TO.C,SW10*%
X126349999Y-61178947D02*
X127349999Y-61178947D01*
X126349999Y-62178947D02*
X126349999Y-61178947D01*
X126349999Y-75178947D02*
X126349999Y-74178947D01*
X127349999Y-75178947D02*
X126349999Y-75178947D01*
X131349999Y-72378947D02*
X131849999Y-71878947D01*
X131349999Y-75878947D02*
X131849999Y-76378947D01*
X131849999Y-71878947D02*
X134349999Y-71878947D01*
X131849999Y-76378947D02*
X134849999Y-76378947D01*
X134849999Y-76378947D02*
X135349999Y-75878947D01*
X135349999Y-74878947D02*
X135349999Y-75878947D01*
X135849999Y-69678947D02*
X140349999Y-69678947D01*
X135849999Y-70378947D02*
X135849999Y-69678947D01*
X139349999Y-61178947D02*
X140349999Y-61178947D01*
X140349999Y-61178947D02*
X140349999Y-62178947D01*
X140349999Y-69678947D02*
X140349999Y-70178947D01*
X140349999Y-73778947D02*
X140349999Y-74378947D01*
X140349999Y-74178947D02*
X140349999Y-75178947D01*
X140349999Y-74378947D02*
X135849999Y-74378947D01*
X140349999Y-75178947D02*
X139349999Y-75178947D01*
X135349999Y-74878947D02*
G75*
G02*
X135849999Y-74378947I500000J0D01*
G01*
X135849999Y-70378947D02*
G75*
G02*
X134349999Y-71878947I-1500000J0D01*
G01*
D12*
%TO.C,D4*%
X130579999Y-58653947D02*
X131229999Y-58653947D01*
X131229999Y-57533947D02*
X131229999Y-59773947D01*
X131229999Y-58653947D02*
X132524499Y-58653947D01*
X131229999Y-59773947D02*
X135469999Y-59773947D01*
X134111999Y-59542947D02*
X134111999Y-57764947D01*
X135469999Y-57533947D02*
X131229999Y-57533947D01*
X135469999Y-59773947D02*
X135469999Y-57533947D01*
X135508999Y-58653947D02*
X134111999Y-58653947D01*
X136119999Y-58653947D02*
X135469999Y-58653947D01*
D13*
X134111999Y-58653947D02*
X132587999Y-59542947D01*
X132587999Y-57764947D01*
X134111999Y-58653947D01*
G36*
X134111999Y-58653947D02*
G01*
X132587999Y-59542947D01*
X132587999Y-57764947D01*
X134111999Y-58653947D01*
G37*
D12*
%TO.C,D6*%
X92479999Y-66675000D02*
X93129999Y-66675000D01*
X93129999Y-65555000D02*
X93129999Y-67795000D01*
X93129999Y-66675000D02*
X94424499Y-66675000D01*
X93129999Y-67795000D02*
X97369999Y-67795000D01*
X96011999Y-67564000D02*
X96011999Y-65786000D01*
X97369999Y-65555000D02*
X93129999Y-65555000D01*
X97369999Y-67795000D02*
X97369999Y-65555000D01*
X97408999Y-66675000D02*
X96011999Y-66675000D01*
X98019999Y-66675000D02*
X97369999Y-66675000D01*
D13*
X96011999Y-66675000D02*
X94487999Y-67564000D01*
X94487999Y-65786000D01*
X96011999Y-66675000D01*
G36*
X96011999Y-66675000D02*
G01*
X94487999Y-67564000D01*
X94487999Y-65786000D01*
X96011999Y-66675000D01*
G37*
D12*
%TO.C,D18*%
X38774861Y-107916861D02*
X39418535Y-107826397D01*
X39262661Y-106717298D02*
X39574409Y-108935499D01*
X39418535Y-107826397D02*
X40700437Y-107646239D01*
X39574409Y-108935499D02*
X43773146Y-108345405D01*
X42396213Y-108305650D02*
X42148763Y-106544953D01*
X43461398Y-106127204D02*
X39262661Y-106717298D01*
X43655892Y-107230877D02*
X42272488Y-107425302D01*
X43773146Y-108345405D02*
X43461398Y-106127204D01*
X44260946Y-107145842D02*
X43617272Y-107236305D01*
D13*
X42272488Y-107425302D02*
X40887044Y-108517750D01*
X40639595Y-106757053D01*
X42272488Y-107425302D01*
G36*
X42272488Y-107425302D02*
G01*
X40887044Y-108517750D01*
X40639595Y-106757053D01*
X42272488Y-107425302D01*
G37*
D12*
%TO.C,D15*%
X73950664Y-91490808D02*
X74600268Y-91468123D01*
X74561181Y-90348805D02*
X74639356Y-92587441D01*
X74600268Y-91468123D02*
X75893980Y-91422946D01*
X74639356Y-92587441D02*
X78876773Y-92439467D01*
X77511538Y-92256001D02*
X77449487Y-90479084D01*
X78798598Y-90200831D02*
X74561181Y-90348805D01*
X78876662Y-91318788D02*
X77480513Y-91367543D01*
X78876773Y-92439467D02*
X78798598Y-90200831D01*
X79487290Y-91297464D02*
X78837689Y-91320149D01*
D13*
X77480513Y-91367543D02*
X75988467Y-92309188D01*
X75926415Y-90532271D01*
X77480513Y-91367543D01*
G36*
X77480513Y-91367543D02*
G01*
X75988467Y-92309188D01*
X75926415Y-90532271D01*
X77480513Y-91367543D01*
G37*
D11*
%TO.C,SW21*%
X142289464Y-125835329D02*
X142996571Y-125128222D01*
X142996571Y-126542436D02*
X142289464Y-125835329D01*
X145330023Y-129865838D02*
X145330023Y-130572944D01*
X145330023Y-130572944D02*
X147451344Y-132694265D01*
X147451344Y-132694265D02*
X148158450Y-132694265D01*
X147804897Y-127390964D02*
X148512004Y-127390964D01*
X148512004Y-127390964D02*
X150279771Y-129158731D01*
X148865557Y-131987158D02*
X148158450Y-132694265D01*
X151481852Y-116642941D02*
X152188959Y-115935834D01*
X152188959Y-115935834D02*
X152896066Y-116642941D01*
X152188959Y-135734824D02*
X151481852Y-135027717D01*
X152401091Y-129158731D02*
X152896066Y-128663756D01*
X152754644Y-135169139D02*
X149572664Y-131987158D01*
X152896066Y-128663756D02*
X156078046Y-131845737D01*
X152896066Y-135027717D02*
X152188959Y-135734824D01*
X153178908Y-134744874D02*
X152754644Y-135169139D01*
X156078046Y-131845737D02*
X155724493Y-132199290D01*
X161381347Y-125128222D02*
X162088454Y-125835329D01*
X162088454Y-125835329D02*
X161381347Y-126542436D01*
X148865557Y-131987158D02*
G75*
G02*
X149572665Y-131987157I353554J-353553D01*
G01*
X152401091Y-129158731D02*
G75*
G02*
X150279771Y-129158731I-1060660J1060660D01*
G01*
%TO.C,SW4*%
X126349999Y-42128947D02*
X127349999Y-42128947D01*
X126349999Y-43128947D02*
X126349999Y-42128947D01*
X126349999Y-56128947D02*
X126349999Y-55128947D01*
X127349999Y-56128947D02*
X126349999Y-56128947D01*
X131349999Y-53328947D02*
X131849999Y-52828947D01*
X131349999Y-56828947D02*
X131849999Y-57328947D01*
X131849999Y-52828947D02*
X134349999Y-52828947D01*
X131849999Y-57328947D02*
X134849999Y-57328947D01*
X134849999Y-57328947D02*
X135349999Y-56828947D01*
X135349999Y-55828947D02*
X135349999Y-56828947D01*
X135849999Y-50628947D02*
X140349999Y-50628947D01*
X135849999Y-51328947D02*
X135849999Y-50628947D01*
X139349999Y-42128947D02*
X140349999Y-42128947D01*
X140349999Y-42128947D02*
X140349999Y-43128947D01*
X140349999Y-50628947D02*
X140349999Y-51128947D01*
X140349999Y-54728947D02*
X140349999Y-55328947D01*
X140349999Y-55128947D02*
X140349999Y-56128947D01*
X140349999Y-55328947D02*
X135849999Y-55328947D01*
X140349999Y-56128947D02*
X139349999Y-56128947D01*
X135349999Y-55828947D02*
G75*
G02*
X135849999Y-55328947I500000J0D01*
G01*
X135849999Y-51328947D02*
G75*
G02*
X134349999Y-52828947I-1500000J0D01*
G01*
D12*
%TO.C,D12*%
X92479999Y-85725000D02*
X93129999Y-85725000D01*
X93129999Y-84605000D02*
X93129999Y-86845000D01*
X93129999Y-85725000D02*
X94424499Y-85725000D01*
X93129999Y-86845000D02*
X97369999Y-86845000D01*
X96011999Y-86614000D02*
X96011999Y-84836000D01*
X97369999Y-84605000D02*
X93129999Y-84605000D01*
X97369999Y-86845000D02*
X97369999Y-84605000D01*
X97408999Y-85725000D02*
X96011999Y-85725000D01*
X98019999Y-85725000D02*
X97369999Y-85725000D01*
D13*
X96011999Y-85725000D02*
X94487999Y-86614000D01*
X94487999Y-84836000D01*
X96011999Y-85725000D01*
G36*
X96011999Y-85725000D02*
G01*
X94487999Y-86614000D01*
X94487999Y-84836000D01*
X96011999Y-85725000D01*
G37*
D11*
%TO.C,SW5*%
X45429685Y-48782301D02*
X46419953Y-48643128D01*
X45568858Y-49772569D02*
X45429685Y-48782301D01*
X47378108Y-62646054D02*
X47238935Y-61655786D01*
X48368376Y-62506881D02*
X47378108Y-62646054D01*
X51939764Y-59177438D02*
X52365311Y-58612718D01*
X52365311Y-58612718D02*
X54840982Y-58264785D01*
X52426870Y-62643376D02*
X52991590Y-63068924D01*
X52991590Y-63068924D02*
X55962395Y-62651406D01*
X55962395Y-62651406D02*
X56387942Y-62086684D01*
X56020203Y-55877435D02*
X60476409Y-55251156D01*
X56117624Y-56570623D02*
X56020203Y-55877435D01*
X56248769Y-61096416D02*
X56387942Y-62086684D01*
X58303170Y-46973051D02*
X59293438Y-46833878D01*
X59293438Y-46833878D02*
X59432611Y-47824146D01*
X60476409Y-55251156D02*
X60545996Y-55746290D01*
X61047019Y-59311255D02*
X61130523Y-59905416D01*
X61102688Y-59707363D02*
X61241861Y-60697631D01*
X61130523Y-59905416D02*
X56674316Y-60531695D01*
X61241861Y-60697631D02*
X60251593Y-60836804D01*
X56117624Y-56570623D02*
G75*
G02*
X54840982Y-58264785I-1485402J-208760D01*
G01*
X56248769Y-61096416D02*
G75*
G02*
X56674316Y-60531695I495134J69587D01*
G01*
%TO.C,SW12*%
X88249999Y-69200000D02*
X89249999Y-69200000D01*
X88249999Y-70200000D02*
X88249999Y-69200000D01*
X88249999Y-83200000D02*
X88249999Y-82200000D01*
X89249999Y-83200000D02*
X88249999Y-83200000D01*
X93249999Y-80400000D02*
X93749999Y-79900000D01*
X93249999Y-83900000D02*
X93749999Y-84400000D01*
X93749999Y-79900000D02*
X96249999Y-79900000D01*
X93749999Y-84400000D02*
X96749999Y-84400000D01*
X96749999Y-84400000D02*
X97249999Y-83900000D01*
X97249999Y-82900000D02*
X97249999Y-83900000D01*
X97749999Y-77700000D02*
X102249999Y-77700000D01*
X97749999Y-78400000D02*
X97749999Y-77700000D01*
X101249999Y-69200000D02*
X102249999Y-69200000D01*
X102249999Y-69200000D02*
X102249999Y-70200000D01*
X102249999Y-77700000D02*
X102249999Y-78200000D01*
X102249999Y-81800000D02*
X102249999Y-82400000D01*
X102249999Y-82200000D02*
X102249999Y-83200000D01*
X102249999Y-82400000D02*
X97749999Y-82400000D01*
X102249999Y-83200000D02*
X101249999Y-83200000D01*
X97249999Y-82900000D02*
G75*
G02*
X97749999Y-82400000I500000J0D01*
G01*
X97749999Y-78400000D02*
G75*
G02*
X96249999Y-79900000I-1500000J0D01*
G01*
%TO.C,SW6*%
X88249999Y-50150000D02*
X89249999Y-50150000D01*
X88249999Y-51150000D02*
X88249999Y-50150000D01*
X88249999Y-64150000D02*
X88249999Y-63150000D01*
X89249999Y-64150000D02*
X88249999Y-64150000D01*
X93249999Y-61350000D02*
X93749999Y-60850000D01*
X93249999Y-64850000D02*
X93749999Y-65350000D01*
X93749999Y-60850000D02*
X96249999Y-60850000D01*
X93749999Y-65350000D02*
X96749999Y-65350000D01*
X96749999Y-65350000D02*
X97249999Y-64850000D01*
X97249999Y-63850000D02*
X97249999Y-64850000D01*
X97749999Y-58650000D02*
X102249999Y-58650000D01*
X97749999Y-59350000D02*
X97749999Y-58650000D01*
X101249999Y-50150000D02*
X102249999Y-50150000D01*
X102249999Y-50150000D02*
X102249999Y-51150000D01*
X102249999Y-58650000D02*
X102249999Y-59150000D01*
X102249999Y-62750000D02*
X102249999Y-63350000D01*
X102249999Y-63150000D02*
X102249999Y-64150000D01*
X102249999Y-63350000D02*
X97749999Y-63350000D01*
X102249999Y-64150000D02*
X101249999Y-64150000D01*
X97249999Y-63850000D02*
G75*
G02*
X97749999Y-63350000I500000J0D01*
G01*
X97749999Y-59350000D02*
G75*
G02*
X96249999Y-60850000I-1500000J0D01*
G01*
D12*
%TO.C,D2*%
X111529999Y-52638158D02*
X112179999Y-52638158D01*
X112179999Y-51518158D02*
X112179999Y-53758158D01*
X112179999Y-52638158D02*
X113474499Y-52638158D01*
X112179999Y-53758158D02*
X116419999Y-53758158D01*
X115061999Y-53527158D02*
X115061999Y-51749158D01*
X116419999Y-51518158D02*
X112179999Y-51518158D01*
X116419999Y-53758158D02*
X116419999Y-51518158D01*
X116458999Y-52638158D02*
X115061999Y-52638158D01*
X117069999Y-52638158D02*
X116419999Y-52638158D01*
D13*
X115061999Y-52638158D02*
X113537999Y-53527158D01*
X113537999Y-51749158D01*
X115061999Y-52638158D01*
G36*
X115061999Y-52638158D02*
G01*
X113537999Y-53527158D01*
X113537999Y-51749158D01*
X115061999Y-52638158D01*
G37*
D11*
%TO.C,SW19*%
X107821859Y-113059559D02*
X107995508Y-112074751D01*
X108806667Y-113233207D02*
X107821859Y-113059559D01*
X110079286Y-100257058D02*
X110252934Y-99272250D01*
X110252934Y-99272250D02*
X111237742Y-99445899D01*
X112624345Y-114617165D02*
X113029924Y-115196393D01*
X113029924Y-115196393D02*
X115984348Y-115717338D01*
X113232113Y-111170338D02*
X113811341Y-110764758D01*
X113811341Y-110764758D02*
X116273360Y-111198879D01*
X115984348Y-115717338D02*
X116563576Y-115311758D01*
X116737224Y-114326950D02*
X116563576Y-115311758D01*
X118011044Y-109982140D02*
X118132598Y-109292774D01*
X118132598Y-109292774D02*
X122564233Y-110074191D01*
X121609168Y-115490634D02*
X120624360Y-115316985D01*
X121748087Y-114702787D02*
X117316452Y-113921371D01*
X121782816Y-114505826D02*
X121609168Y-115490634D01*
X121852275Y-114111903D02*
X121748087Y-114702787D01*
X122564233Y-110074191D02*
X122477409Y-110566595D01*
X123055435Y-101529677D02*
X124040243Y-101703325D01*
X124040243Y-101703325D02*
X123866594Y-102688133D01*
X116737224Y-114326950D02*
G75*
G02*
X117316452Y-113921370I492404J-86824D01*
G01*
X118011044Y-109982140D02*
G75*
G02*
X116273360Y-111198878I-1477211J260473D01*
G01*
D12*
%TO.C,D17*%
X57220849Y-102286991D02*
X57864523Y-102196527D01*
X57708649Y-101087428D02*
X58020397Y-103305629D01*
X57864523Y-102196527D02*
X59146425Y-102016369D01*
X58020397Y-103305629D02*
X62219134Y-102715535D01*
X60842201Y-102675780D02*
X60594751Y-100915083D01*
X61907386Y-100497334D02*
X57708649Y-101087428D01*
X62101880Y-101601007D02*
X60718476Y-101795432D01*
X62219134Y-102715535D02*
X61907386Y-100497334D01*
X62706934Y-101515972D02*
X62063260Y-101606435D01*
D13*
X60718476Y-101795432D02*
X59333032Y-102887880D01*
X59085583Y-101127183D01*
X60718476Y-101795432D01*
G36*
X60718476Y-101795432D02*
G01*
X59333032Y-102887880D01*
X59085583Y-101127183D01*
X60718476Y-101795432D01*
G37*
D12*
%TO.C,D9*%
X73285829Y-72452413D02*
X73935433Y-72429728D01*
X73896346Y-71310410D02*
X73974521Y-73549046D01*
X73935433Y-72429728D02*
X75229145Y-72384551D01*
X73974521Y-73549046D02*
X78211938Y-73401072D01*
X76846703Y-73217606D02*
X76784652Y-71440689D01*
X78133763Y-71162436D02*
X73896346Y-71310410D01*
X78211827Y-72280393D02*
X76815678Y-72329148D01*
X78211938Y-73401072D02*
X78133763Y-71162436D01*
X78822455Y-72259069D02*
X78172854Y-72281754D01*
D13*
X76815678Y-72329148D02*
X75323632Y-73270793D01*
X75261580Y-71493876D01*
X76815678Y-72329148D01*
G36*
X76815678Y-72329148D02*
G01*
X75323632Y-73270793D01*
X75261580Y-71493876D01*
X76815678Y-72329148D01*
G37*
D12*
%TO.C,D16*%
X130579999Y-96753947D02*
X131229999Y-96753947D01*
X131229999Y-95633947D02*
X131229999Y-97873947D01*
X131229999Y-96753947D02*
X132524499Y-96753947D01*
X131229999Y-97873947D02*
X135469999Y-97873947D01*
X134111999Y-97642947D02*
X134111999Y-95864947D01*
X135469999Y-95633947D02*
X131229999Y-95633947D01*
X135469999Y-97873947D02*
X135469999Y-95633947D01*
X135508999Y-96753947D02*
X134111999Y-96753947D01*
X136119999Y-96753947D02*
X135469999Y-96753947D01*
D13*
X134111999Y-96753947D02*
X132587999Y-97642947D01*
X132587999Y-95864947D01*
X134111999Y-96753947D01*
G36*
X134111999Y-96753947D02*
G01*
X132587999Y-97642947D01*
X132587999Y-95864947D01*
X134111999Y-96753947D01*
G37*
D11*
%TO.C,SW14*%
X107299999Y-74213158D02*
X108299999Y-74213158D01*
X107299999Y-75213158D02*
X107299999Y-74213158D01*
X107299999Y-88213158D02*
X107299999Y-87213158D01*
X108299999Y-88213158D02*
X107299999Y-88213158D01*
X112299999Y-85413158D02*
X112799999Y-84913158D01*
X112299999Y-88913158D02*
X112799999Y-89413158D01*
X112799999Y-84913158D02*
X115299999Y-84913158D01*
X112799999Y-89413158D02*
X115799999Y-89413158D01*
X115799999Y-89413158D02*
X116299999Y-88913158D01*
X116299999Y-87913158D02*
X116299999Y-88913158D01*
X116799999Y-82713158D02*
X121299999Y-82713158D01*
X116799999Y-83413158D02*
X116799999Y-82713158D01*
X120299999Y-74213158D02*
X121299999Y-74213158D01*
X121299999Y-74213158D02*
X121299999Y-75213158D01*
X121299999Y-82713158D02*
X121299999Y-83213158D01*
X121299999Y-86813158D02*
X121299999Y-87413158D01*
X121299999Y-87213158D02*
X121299999Y-88213158D01*
X121299999Y-87413158D02*
X116799999Y-87413158D01*
X121299999Y-88213158D02*
X120299999Y-88213158D01*
X116299999Y-87913158D02*
G75*
G02*
X116799999Y-87413158I500000J0D01*
G01*
X116799999Y-83413158D02*
G75*
G02*
X115299999Y-84913158I-1500000J0D01*
G01*
D12*
%TO.C,A1*%
X147815000Y-38605000D02*
X147815000Y-82045000D01*
X147815000Y-38605000D02*
X152895000Y-38605000D01*
X147815000Y-82045000D02*
X165855000Y-82045000D01*
X150485000Y-41275000D02*
X147815000Y-41275000D01*
X150485000Y-79375000D02*
X147815000Y-79375000D01*
X150485000Y-79375000D02*
X150485000Y-41275000D01*
X152895000Y-36065000D02*
X160775000Y-36065000D01*
X152895000Y-46485000D02*
X152895000Y-36065000D01*
X160775000Y-36065000D02*
X160775000Y-46485000D01*
X160775000Y-46485000D02*
X152895000Y-46485000D01*
X163185000Y-41275000D02*
X165855000Y-41275000D01*
X163185000Y-76835000D02*
X163185000Y-41275000D01*
X163185000Y-76835000D02*
X163185000Y-79375000D01*
X163185000Y-76835000D02*
X165855000Y-76835000D01*
X163185000Y-79375000D02*
X165855000Y-79375000D01*
X165855000Y-38605000D02*
X160775000Y-38605000D01*
X165855000Y-76835000D02*
X165855000Y-38605000D01*
X165855000Y-82045000D02*
X165855000Y-79375000D01*
D11*
%TO.C,SW16*%
X126349999Y-80228947D02*
X127349999Y-80228947D01*
X126349999Y-81228947D02*
X126349999Y-80228947D01*
X126349999Y-94228947D02*
X126349999Y-93228947D01*
X127349999Y-94228947D02*
X126349999Y-94228947D01*
X131349999Y-91428947D02*
X131849999Y-90928947D01*
X131349999Y-94928947D02*
X131849999Y-95428947D01*
X131849999Y-90928947D02*
X134349999Y-90928947D01*
X131849999Y-95428947D02*
X134849999Y-95428947D01*
X134849999Y-95428947D02*
X135349999Y-94928947D01*
X135349999Y-93928947D02*
X135349999Y-94928947D01*
X135849999Y-88728947D02*
X140349999Y-88728947D01*
X135849999Y-89428947D02*
X135849999Y-88728947D01*
X139349999Y-80228947D02*
X140349999Y-80228947D01*
X140349999Y-80228947D02*
X140349999Y-81228947D01*
X140349999Y-88728947D02*
X140349999Y-89228947D01*
X140349999Y-92828947D02*
X140349999Y-93428947D01*
X140349999Y-93228947D02*
X140349999Y-94228947D01*
X140349999Y-93428947D02*
X135849999Y-93428947D01*
X140349999Y-94228947D02*
X139349999Y-94228947D01*
X135349999Y-93928947D02*
G75*
G02*
X135849999Y-93428947I500000J0D01*
G01*
X135849999Y-89428947D02*
G75*
G02*
X134349999Y-90928947I-1500000J0D01*
G01*
%TO.C,SW17*%
X50732180Y-86511514D02*
X51722448Y-86372341D01*
X50871353Y-87501782D02*
X50732180Y-86511514D01*
X52680603Y-100375267D02*
X52541430Y-99384999D01*
X53670871Y-100236094D02*
X52680603Y-100375267D01*
X57242259Y-96906651D02*
X57667806Y-96341931D01*
X57667806Y-96341931D02*
X60143477Y-95993998D01*
X57729365Y-100372589D02*
X58294085Y-100798137D01*
X58294085Y-100798137D02*
X61264890Y-100380619D01*
X61264890Y-100380619D02*
X61690437Y-99815897D01*
X61322698Y-93606648D02*
X65778904Y-92980369D01*
X61420119Y-94299836D02*
X61322698Y-93606648D01*
X61551264Y-98825629D02*
X61690437Y-99815897D01*
X63605665Y-84702264D02*
X64595933Y-84563091D01*
X64595933Y-84563091D02*
X64735106Y-85553359D01*
X65778904Y-92980369D02*
X65848491Y-93475503D01*
X66349514Y-97040468D02*
X66433018Y-97634629D01*
X66405183Y-97436576D02*
X66544356Y-98426844D01*
X66433018Y-97634629D02*
X61976811Y-98260908D01*
X66544356Y-98426844D02*
X65554088Y-98566017D01*
X61420119Y-94299836D02*
G75*
G02*
X60143477Y-95993998I-1485402J-208760D01*
G01*
X61551264Y-98825629D02*
G75*
G02*
X61976811Y-98260908I495134J69587D01*
G01*
%TO.C,SW9*%
X68481693Y-56085105D02*
X69481084Y-56050205D01*
X68516592Y-57084496D02*
X68481693Y-56085105D01*
X68970286Y-70076576D02*
X68935386Y-69077185D01*
X69969677Y-70041677D02*
X68970286Y-70076576D01*
X73869521Y-67103784D02*
X74351767Y-66586639D01*
X73991669Y-70601652D02*
X74508815Y-71083898D01*
X74351767Y-66586639D02*
X76850244Y-66499391D01*
X74508815Y-71083898D02*
X77506987Y-70979200D01*
X77506987Y-70979200D02*
X77989233Y-70462054D01*
X77954333Y-69462664D02*
X77989233Y-70462054D01*
X78272551Y-64248379D02*
X82769810Y-64091334D01*
X78296981Y-64947955D02*
X78272551Y-64248379D01*
X81473773Y-55631411D02*
X82473164Y-55596512D01*
X82473164Y-55596512D02*
X82508064Y-56595903D01*
X82769810Y-64091334D02*
X82787260Y-64591029D01*
X82912898Y-68188836D02*
X82933838Y-68788471D01*
X82926858Y-68588592D02*
X82961757Y-69587983D01*
X82933838Y-68788471D02*
X78436579Y-68945518D01*
X82961757Y-69587983D02*
X81962366Y-69622883D01*
X77954333Y-69462664D02*
G75*
G02*
X78436579Y-68945518I499696J17450D01*
G01*
X78296981Y-64947955D02*
G75*
G02*
X76850244Y-66499390I-1499086J-52349D01*
G01*
%TO.C,SW20*%
X126198827Y-115637610D02*
X126772403Y-114818458D01*
X127017979Y-116211187D02*
X126198827Y-115637610D01*
X129893083Y-119078899D02*
X130015871Y-119775263D01*
X130015871Y-119775263D02*
X132473327Y-121495992D01*
X131900601Y-116211867D02*
X132596965Y-116089079D01*
X132473327Y-121495992D02*
X133169692Y-121373205D01*
X132596965Y-116089079D02*
X134644845Y-117523020D01*
X133655320Y-104988634D02*
X134228897Y-104169482D01*
X133743268Y-120554053D02*
X133169692Y-121373205D01*
X134228897Y-104169482D02*
X135048049Y-104743058D01*
X136733938Y-117154657D02*
X137135441Y-116581250D01*
X137135441Y-116581250D02*
X140821626Y-119162344D01*
X137666955Y-123667680D02*
X136847803Y-123094104D01*
X138125816Y-123012359D02*
X134439632Y-120431265D01*
X138240532Y-122848528D02*
X137666955Y-123667680D01*
X138469962Y-122520868D02*
X138125816Y-123012359D01*
X140821626Y-119162344D02*
X140534837Y-119571920D01*
X144877873Y-111625975D02*
X145697025Y-112199552D01*
X145697025Y-112199552D02*
X145123449Y-113018704D01*
X133743268Y-120554053D02*
G75*
G02*
X134439632Y-120431265I409576J-286788D01*
G01*
X136733938Y-117154657D02*
G75*
G02*
X134644845Y-117523020I-1228728J860365D01*
G01*
%TO.C,SW18*%
X32286192Y-92141384D02*
X33276460Y-92002211D01*
X32425365Y-93131652D02*
X32286192Y-92141384D01*
X34234615Y-106005137D02*
X34095442Y-105014869D01*
X35224883Y-105865964D02*
X34234615Y-106005137D01*
X38796271Y-102536521D02*
X39221818Y-101971801D01*
X39221818Y-101971801D02*
X41697489Y-101623868D01*
X39283377Y-106002459D02*
X39848097Y-106428007D01*
X39848097Y-106428007D02*
X42818902Y-106010489D01*
X42818902Y-106010489D02*
X43244449Y-105445767D01*
X42876710Y-99236518D02*
X47332916Y-98610239D01*
X42974131Y-99929706D02*
X42876710Y-99236518D01*
X43105276Y-104455499D02*
X43244449Y-105445767D01*
X45159677Y-90332134D02*
X46149945Y-90192961D01*
X46149945Y-90192961D02*
X46289118Y-91183229D01*
X47332916Y-98610239D02*
X47402503Y-99105373D01*
X47903526Y-102670338D02*
X47987030Y-103264499D01*
X47959195Y-103066446D02*
X48098368Y-104056714D01*
X47987030Y-103264499D02*
X43530823Y-103890778D01*
X48098368Y-104056714D02*
X47108100Y-104195887D01*
X42974131Y-99929706D02*
G75*
G02*
X41697489Y-101623868I-1485402J-208760D01*
G01*
X43105276Y-104455499D02*
G75*
G02*
X43530823Y-103890778I495134J69587D01*
G01*
%TO.C,SW3*%
X67816858Y-37046710D02*
X68816249Y-37011810D01*
X67851757Y-38046101D02*
X67816858Y-37046710D01*
X68305451Y-51038181D02*
X68270551Y-50038790D01*
X69304842Y-51003282D02*
X68305451Y-51038181D01*
X73204686Y-48065389D02*
X73686932Y-47548244D01*
X73326834Y-51563257D02*
X73843980Y-52045503D01*
X73686932Y-47548244D02*
X76185409Y-47460996D01*
X73843980Y-52045503D02*
X76842152Y-51940805D01*
X76842152Y-51940805D02*
X77324398Y-51423659D01*
X77289498Y-50424269D02*
X77324398Y-51423659D01*
X77607716Y-45209984D02*
X82104975Y-45052939D01*
X77632146Y-45909560D02*
X77607716Y-45209984D01*
X80808938Y-36593016D02*
X81808329Y-36558117D01*
X81808329Y-36558117D02*
X81843229Y-37557508D01*
X82104975Y-45052939D02*
X82122425Y-45552634D01*
X82248063Y-49150441D02*
X82269003Y-49750076D01*
X82262023Y-49550197D02*
X82296922Y-50549588D01*
X82269003Y-49750076D02*
X77771744Y-49907123D01*
X82296922Y-50549588D02*
X81297531Y-50584488D01*
X77289498Y-50424269D02*
G75*
G02*
X77771744Y-49907123I499696J17450D01*
G01*
X77632146Y-45909560D02*
G75*
G02*
X76185409Y-47460995I-1499086J-52349D01*
G01*
D12*
%TO.C,D13*%
X36123613Y-89052254D02*
X36767287Y-88961790D01*
X36611413Y-87852691D02*
X36923161Y-90070892D01*
X36767287Y-88961790D02*
X38049189Y-88781632D01*
X36923161Y-90070892D02*
X41121898Y-89480798D01*
X39744965Y-89441043D02*
X39497515Y-87680346D01*
X40810150Y-87262597D02*
X36611413Y-87852691D01*
X41004644Y-88366270D02*
X39621240Y-88560695D01*
X41121898Y-89480798D02*
X40810150Y-87262597D01*
X41609698Y-88281235D02*
X40966024Y-88371698D01*
D13*
X39621240Y-88560695D02*
X38235796Y-89653143D01*
X37988347Y-87892446D01*
X39621240Y-88560695D01*
G36*
X39621240Y-88560695D02*
G01*
X38235796Y-89653143D01*
X37988347Y-87892446D01*
X39621240Y-88560695D01*
G37*
D11*
%TO.C,SW11*%
X48080933Y-67646907D02*
X49071201Y-67507734D01*
X48220106Y-68637175D02*
X48080933Y-67646907D01*
X50029356Y-81510660D02*
X49890183Y-80520392D01*
X51019624Y-81371487D02*
X50029356Y-81510660D01*
X54591012Y-78042044D02*
X55016559Y-77477324D01*
X55016559Y-77477324D02*
X57492230Y-77129391D01*
X55078118Y-81507982D02*
X55642838Y-81933530D01*
X55642838Y-81933530D02*
X58613643Y-81516012D01*
X58613643Y-81516012D02*
X59039190Y-80951290D01*
X58671451Y-74742041D02*
X63127657Y-74115762D01*
X58768872Y-75435229D02*
X58671451Y-74742041D01*
X58900017Y-79961022D02*
X59039190Y-80951290D01*
X60954418Y-65837657D02*
X61944686Y-65698484D01*
X61944686Y-65698484D02*
X62083859Y-66688752D01*
X63127657Y-74115762D02*
X63197244Y-74610896D01*
X63698267Y-78175861D02*
X63781771Y-78770022D01*
X63753936Y-78571969D02*
X63893109Y-79562237D01*
X63781771Y-78770022D02*
X59325564Y-79396301D01*
X63893109Y-79562237D02*
X62902841Y-79701410D01*
X58768872Y-75435229D02*
G75*
G02*
X57492230Y-77129391I-1485402J-208760D01*
G01*
X58900017Y-79961022D02*
G75*
G02*
X59325564Y-79396301I495134J69587D01*
G01*
D12*
%TO.C,J2*%
X154422310Y-99351252D02*
X151122310Y-93635484D01*
X162380640Y-87135484D02*
X151122310Y-93635484D01*
X162780640Y-87828305D02*
X162380640Y-87135484D01*
X164512691Y-86828305D02*
X162780640Y-87828305D01*
X165280640Y-92158432D02*
X165680640Y-92851252D01*
X165680640Y-92851252D02*
X154422310Y-99351252D01*
X166862691Y-90898624D02*
X164512691Y-86828305D01*
X166862691Y-90898624D02*
X167012691Y-91158432D01*
X167012691Y-91158432D02*
X165280640Y-92158432D01*
%TO.C,D3*%
X72620994Y-53414018D02*
X73270598Y-53391333D01*
X73231511Y-52272015D02*
X73309686Y-54510651D01*
X73270598Y-53391333D02*
X74564310Y-53346156D01*
X73309686Y-54510651D02*
X77547103Y-54362677D01*
X76181868Y-54179211D02*
X76119817Y-52402294D01*
X77468928Y-52124041D02*
X73231511Y-52272015D01*
X77546992Y-53241998D02*
X76150843Y-53290753D01*
X77547103Y-54362677D02*
X77468928Y-52124041D01*
X78157620Y-53220674D02*
X77508019Y-53243359D01*
D13*
X76150843Y-53290753D02*
X74658797Y-54232398D01*
X74596745Y-52455481D01*
X76150843Y-53290753D01*
G36*
X76150843Y-53290753D02*
G01*
X74658797Y-54232398D01*
X74596745Y-52455481D01*
X76150843Y-53290753D01*
G37*
D12*
%TO.C,D1*%
X92479999Y-47625000D02*
X93129999Y-47625000D01*
X93129999Y-46505000D02*
X93129999Y-48745000D01*
X93129999Y-47625000D02*
X94424499Y-47625000D01*
X93129999Y-48745000D02*
X97369999Y-48745000D01*
X96011999Y-48514000D02*
X96011999Y-46736000D01*
X97369999Y-46505000D02*
X93129999Y-46505000D01*
X97369999Y-48745000D02*
X97369999Y-46505000D01*
X97408999Y-47625000D02*
X96011999Y-47625000D01*
X98019999Y-47625000D02*
X97369999Y-47625000D01*
D13*
X96011999Y-47625000D02*
X94487999Y-48514000D01*
X94487999Y-46736000D01*
X96011999Y-47625000D01*
G36*
X96011999Y-47625000D02*
G01*
X94487999Y-48514000D01*
X94487999Y-46736000D01*
X96011999Y-47625000D01*
G37*
D12*
%TO.C,D10*%
X130579999Y-77703947D02*
X131229999Y-77703947D01*
X131229999Y-76583947D02*
X131229999Y-78823947D01*
X131229999Y-77703947D02*
X132524499Y-77703947D01*
X131229999Y-78823947D02*
X135469999Y-78823947D01*
X134111999Y-78592947D02*
X134111999Y-76814947D01*
X135469999Y-76583947D02*
X131229999Y-76583947D01*
X135469999Y-78823947D02*
X135469999Y-76583947D01*
X135508999Y-77703947D02*
X134111999Y-77703947D01*
X136119999Y-77703947D02*
X135469999Y-77703947D01*
D13*
X134111999Y-77703947D02*
X132587999Y-78592947D01*
X132587999Y-76814947D01*
X134111999Y-77703947D01*
G36*
X134111999Y-77703947D02*
G01*
X132587999Y-78592947D01*
X132587999Y-76814947D01*
X134111999Y-77703947D01*
G37*
D12*
%TO.C,D7*%
X33472366Y-70187647D02*
X34116040Y-70097183D01*
X33960166Y-68988084D02*
X34271914Y-71206285D01*
X34116040Y-70097183D02*
X35397942Y-69917025D01*
X34271914Y-71206285D02*
X38470651Y-70616191D01*
X37093718Y-70576436D02*
X36846268Y-68815739D01*
X38158903Y-68397990D02*
X33960166Y-68988084D01*
X38353397Y-69501663D02*
X36969993Y-69696088D01*
X38470651Y-70616191D02*
X38158903Y-68397990D01*
X38958451Y-69416628D02*
X38314777Y-69507091D01*
D13*
X36969993Y-69696088D02*
X35584549Y-70788536D01*
X35337100Y-69027839D01*
X36969993Y-69696088D01*
G36*
X36969993Y-69696088D02*
G01*
X35584549Y-70788536D01*
X35337100Y-69027839D01*
X36969993Y-69696088D01*
G37*
D11*
%TO.C,SW7*%
X26983697Y-54412170D02*
X27973965Y-54272997D01*
X27122870Y-55402438D02*
X26983697Y-54412170D01*
X28932120Y-68275923D02*
X28792947Y-67285655D01*
X29922388Y-68136750D02*
X28932120Y-68275923D01*
X33493776Y-64807307D02*
X33919323Y-64242587D01*
X33919323Y-64242587D02*
X36394994Y-63894654D01*
X33980882Y-68273245D02*
X34545602Y-68698793D01*
X34545602Y-68698793D02*
X37516407Y-68281275D01*
X37516407Y-68281275D02*
X37941954Y-67716553D01*
X37574215Y-61507304D02*
X42030421Y-60881025D01*
X37671636Y-62200492D02*
X37574215Y-61507304D01*
X37802781Y-66726285D02*
X37941954Y-67716553D01*
X39857182Y-52602920D02*
X40847450Y-52463747D01*
X40847450Y-52463747D02*
X40986623Y-53454015D01*
X42030421Y-60881025D02*
X42100008Y-61376159D01*
X42601031Y-64941124D02*
X42684535Y-65535285D01*
X42656700Y-65337232D02*
X42795873Y-66327500D01*
X42684535Y-65535285D02*
X38228328Y-66161564D01*
X42795873Y-66327500D02*
X41805605Y-66466673D01*
X37671636Y-62200492D02*
G75*
G02*
X36394994Y-63894654I-1485402J-208760D01*
G01*
X37802781Y-66726285D02*
G75*
G02*
X38228328Y-66161564I495134J69587D01*
G01*
%TO.C,SW8*%
X107299999Y-55163158D02*
X108299999Y-55163158D01*
X107299999Y-56163158D02*
X107299999Y-55163158D01*
X107299999Y-69163158D02*
X107299999Y-68163158D01*
X108299999Y-69163158D02*
X107299999Y-69163158D01*
X112299999Y-66363158D02*
X112799999Y-65863158D01*
X112299999Y-69863158D02*
X112799999Y-70363158D01*
X112799999Y-65863158D02*
X115299999Y-65863158D01*
X112799999Y-70363158D02*
X115799999Y-70363158D01*
X115799999Y-70363158D02*
X116299999Y-69863158D01*
X116299999Y-68863158D02*
X116299999Y-69863158D01*
X116799999Y-63663158D02*
X121299999Y-63663158D01*
X116799999Y-64363158D02*
X116799999Y-63663158D01*
X120299999Y-55163158D02*
X121299999Y-55163158D01*
X121299999Y-55163158D02*
X121299999Y-56163158D01*
X121299999Y-63663158D02*
X121299999Y-64163158D01*
X121299999Y-67763158D02*
X121299999Y-68363158D01*
X121299999Y-68163158D02*
X121299999Y-69163158D01*
X121299999Y-68363158D02*
X116799999Y-68363158D01*
X121299999Y-69163158D02*
X120299999Y-69163158D01*
X116299999Y-68863158D02*
G75*
G02*
X116799999Y-68363158I500000J0D01*
G01*
X116799999Y-64363158D02*
G75*
G02*
X115299999Y-65863158I-1500000J0D01*
G01*
%TO.C,SW13*%
X29634944Y-73276777D02*
X30625212Y-73137604D01*
X29774117Y-74267045D02*
X29634944Y-73276777D01*
X31583367Y-87140530D02*
X31444194Y-86150262D01*
X32573635Y-87001357D02*
X31583367Y-87140530D01*
X36145023Y-83671914D02*
X36570570Y-83107194D01*
X36570570Y-83107194D02*
X39046241Y-82759261D01*
X36632129Y-87137852D02*
X37196849Y-87563400D01*
X37196849Y-87563400D02*
X40167654Y-87145882D01*
X40167654Y-87145882D02*
X40593201Y-86581160D01*
X40225462Y-80371911D02*
X44681668Y-79745632D01*
X40322883Y-81065099D02*
X40225462Y-80371911D01*
X40454028Y-85590892D02*
X40593201Y-86581160D01*
X42508429Y-71467527D02*
X43498697Y-71328354D01*
X43498697Y-71328354D02*
X43637870Y-72318622D01*
X44681668Y-79745632D02*
X44751255Y-80240766D01*
X45252278Y-83805731D02*
X45335782Y-84399892D01*
X45307947Y-84201839D02*
X45447120Y-85192107D01*
X45335782Y-84399892D02*
X40879575Y-85026171D01*
X45447120Y-85192107D02*
X44456852Y-85331280D01*
X40322883Y-81065099D02*
G75*
G02*
X39046241Y-82759261I-1485402J-208760D01*
G01*
X40454028Y-85590892D02*
G75*
G02*
X40879575Y-85026171I495134J69587D01*
G01*
D12*
%TO.C,D20*%
X128105603Y-121422472D02*
X131578807Y-123854436D01*
X128215560Y-120132197D02*
X128748008Y-120505022D01*
X128748008Y-120505022D02*
X129808401Y-121247516D01*
X129390414Y-119587571D02*
X128105603Y-121422472D01*
X130598895Y-122886295D02*
X131618714Y-121429843D01*
X131578807Y-123854436D02*
X132863619Y-122019536D01*
X132253160Y-122959355D02*
X131108805Y-122158069D01*
X132753662Y-123309811D02*
X132221213Y-122936986D01*
X132863619Y-122019536D02*
X129390414Y-119587571D01*
D13*
X131108805Y-122158069D02*
X129350507Y-122012165D01*
X130370326Y-120555712D01*
X131108805Y-122158069D01*
G36*
X131108805Y-122158069D02*
G01*
X129350507Y-122012165D01*
X130370326Y-120555712D01*
X131108805Y-122158069D01*
G37*
D12*
%TO.C,D8*%
X111529999Y-71688158D02*
X112179999Y-71688158D01*
X112179999Y-70568158D02*
X112179999Y-72808158D01*
X112179999Y-71688158D02*
X113474499Y-71688158D01*
X112179999Y-72808158D02*
X116419999Y-72808158D01*
X115061999Y-72577158D02*
X115061999Y-70799158D01*
X116419999Y-70568158D02*
X112179999Y-70568158D01*
X116419999Y-72808158D02*
X116419999Y-70568158D01*
X116458999Y-71688158D02*
X115061999Y-71688158D01*
X117069999Y-71688158D02*
X116419999Y-71688158D01*
D13*
X115061999Y-71688158D02*
X113537999Y-72577158D01*
X113537999Y-70799158D01*
X115061999Y-71688158D01*
G36*
X115061999Y-71688158D02*
G01*
X113537999Y-72577158D01*
X113537999Y-70799158D01*
X115061999Y-71688158D01*
G37*
D12*
%TO.C,D19*%
X111549134Y-116280730D02*
X112189259Y-116393601D01*
X111994773Y-117496586D02*
X116170358Y-118232854D01*
X112189259Y-116393601D02*
X113464093Y-116618389D01*
X112383745Y-115290617D02*
X111994773Y-117496586D01*
X114873102Y-117769549D02*
X115181848Y-116018561D01*
X116170358Y-118232854D02*
X116559330Y-116026885D01*
X116403251Y-117136642D02*
X115027475Y-116894055D01*
X116559330Y-116026885D02*
X112383745Y-115290617D01*
X117004969Y-117242741D02*
X116364844Y-117129870D01*
D13*
X115027475Y-116894055D02*
X113372255Y-117504910D01*
X113681001Y-115753921D01*
X115027475Y-116894055D01*
G36*
X115027475Y-116894055D02*
G01*
X113372255Y-117504910D01*
X113681001Y-115753921D01*
X115027475Y-116894055D01*
G37*
D12*
%TO.C,D11*%
X54569602Y-83422384D02*
X55213276Y-83331920D01*
X55057402Y-82222821D02*
X55369150Y-84441022D01*
X55213276Y-83331920D02*
X56495178Y-83151762D01*
X55369150Y-84441022D02*
X59567887Y-83850928D01*
X58190954Y-83811173D02*
X57943504Y-82050476D01*
X59256139Y-81632727D02*
X55057402Y-82222821D01*
X59450633Y-82736400D02*
X58067229Y-82930825D01*
X59567887Y-83850928D02*
X59256139Y-81632727D01*
X60055687Y-82651365D02*
X59412013Y-82741828D01*
D13*
X58067229Y-82930825D02*
X56681785Y-84023273D01*
X56434336Y-82262576D01*
X58067229Y-82930825D01*
G36*
X58067229Y-82930825D02*
G01*
X56681785Y-84023273D01*
X56434336Y-82262576D01*
X58067229Y-82930825D01*
G37*
D12*
%TO.C,D5*%
X51918354Y-64557778D02*
X52562028Y-64467314D01*
X52406154Y-63358215D02*
X52717902Y-65576416D01*
X52562028Y-64467314D02*
X53843930Y-64287156D01*
X52717902Y-65576416D02*
X56916639Y-64986322D01*
X55539706Y-64946567D02*
X55292256Y-63185870D01*
X56604891Y-62768121D02*
X52406154Y-63358215D01*
X56799385Y-63871794D02*
X55415981Y-64066219D01*
X56916639Y-64986322D02*
X56604891Y-62768121D01*
X57404439Y-63786759D02*
X56760765Y-63877222D01*
D13*
X55415981Y-64066219D02*
X54030537Y-65158667D01*
X53783088Y-63397970D01*
X55415981Y-64066219D01*
G36*
X55415981Y-64066219D02*
G01*
X54030537Y-65158667D01*
X53783088Y-63397970D01*
X55415981Y-64066219D01*
G37*
D11*
%TO.C,SW1*%
X88249999Y-31100000D02*
X89249999Y-31100000D01*
X88249999Y-32100000D02*
X88249999Y-31100000D01*
X88249999Y-45100000D02*
X88249999Y-44100000D01*
X89249999Y-45100000D02*
X88249999Y-45100000D01*
X93249999Y-42300000D02*
X93749999Y-41800000D01*
X93249999Y-45800000D02*
X93749999Y-46300000D01*
X93749999Y-41800000D02*
X96249999Y-41800000D01*
X93749999Y-46300000D02*
X96749999Y-46300000D01*
X96749999Y-46300000D02*
X97249999Y-45800000D01*
X97249999Y-44800000D02*
X97249999Y-45800000D01*
X97749999Y-39600000D02*
X102249999Y-39600000D01*
X97749999Y-40300000D02*
X97749999Y-39600000D01*
X101249999Y-31100000D02*
X102249999Y-31100000D01*
X102249999Y-31100000D02*
X102249999Y-32100000D01*
X102249999Y-39600000D02*
X102249999Y-40100000D01*
X102249999Y-43700000D02*
X102249999Y-44300000D01*
X102249999Y-44100000D02*
X102249999Y-45100000D01*
X102249999Y-44300000D02*
X97749999Y-44300000D01*
X102249999Y-45100000D02*
X101249999Y-45100000D01*
X97249999Y-44800000D02*
G75*
G02*
X97749999Y-44300000I500000J0D01*
G01*
X97749999Y-40300000D02*
G75*
G02*
X96249999Y-41800000I-1500000J0D01*
G01*
%TO.C,SW2*%
X107299999Y-36113158D02*
X108299999Y-36113158D01*
X107299999Y-37113158D02*
X107299999Y-36113158D01*
X107299999Y-50113158D02*
X107299999Y-49113158D01*
X108299999Y-50113158D02*
X107299999Y-50113158D01*
X112299999Y-47313158D02*
X112799999Y-46813158D01*
X112299999Y-50813158D02*
X112799999Y-51313158D01*
X112799999Y-46813158D02*
X115299999Y-46813158D01*
X112799999Y-51313158D02*
X115799999Y-51313158D01*
X115799999Y-51313158D02*
X116299999Y-50813158D01*
X116299999Y-49813158D02*
X116299999Y-50813158D01*
X116799999Y-44613158D02*
X121299999Y-44613158D01*
X116799999Y-45313158D02*
X116799999Y-44613158D01*
X120299999Y-36113158D02*
X121299999Y-36113158D01*
X121299999Y-36113158D02*
X121299999Y-37113158D01*
X121299999Y-44613158D02*
X121299999Y-45113158D01*
X121299999Y-48713158D02*
X121299999Y-49313158D01*
X121299999Y-49113158D02*
X121299999Y-50113158D01*
X121299999Y-49313158D02*
X116799999Y-49313158D01*
X121299999Y-50113158D02*
X120299999Y-50113158D01*
X116299999Y-49813158D02*
G75*
G02*
X116799999Y-49313158I500000J0D01*
G01*
X116799999Y-45313158D02*
G75*
G02*
X115299999Y-46813158I-1500000J0D01*
G01*
D12*
%TO.C,D21*%
X143162741Y-131863413D02*
X146160874Y-134861546D01*
X143495081Y-130611834D02*
X143954701Y-131071454D01*
X143954701Y-131071454D02*
X144870051Y-131986804D01*
X144746660Y-130279494D02*
X143162741Y-131863413D01*
X145363965Y-133737953D02*
X146621200Y-132480718D01*
X146160874Y-134861546D02*
X147744793Y-133277627D01*
X146980411Y-134097164D02*
X145992583Y-133109336D01*
X147412453Y-134529206D02*
X146952834Y-134069587D01*
X147744793Y-133277627D02*
X144746660Y-130279494D01*
D13*
X145992583Y-133109336D02*
X144286334Y-132660323D01*
X145543570Y-131403087D01*
X145992583Y-133109336D01*
G36*
X145992583Y-133109336D02*
G01*
X144286334Y-132660323D01*
X145543570Y-131403087D01*
X145992583Y-133109336D01*
G37*
D12*
%TO.C,D14*%
X111529999Y-90738158D02*
X112179999Y-90738158D01*
X112179999Y-89618158D02*
X112179999Y-91858158D01*
X112179999Y-90738158D02*
X113474499Y-90738158D01*
X112179999Y-91858158D02*
X116419999Y-91858158D01*
X115061999Y-91627158D02*
X115061999Y-89849158D01*
X116419999Y-89618158D02*
X112179999Y-89618158D01*
X116419999Y-91858158D02*
X116419999Y-89618158D01*
X116458999Y-90738158D02*
X115061999Y-90738158D01*
X117069999Y-90738158D02*
X116419999Y-90738158D01*
D13*
X115061999Y-90738158D02*
X113537999Y-91627158D01*
X113537999Y-89849158D01*
X115061999Y-90738158D01*
G36*
X115061999Y-90738158D02*
G01*
X113537999Y-91627158D01*
X113537999Y-89849158D01*
X115061999Y-90738158D01*
G37*
D11*
%TO.C,SW15*%
X69146528Y-75123500D02*
X70145919Y-75088600D01*
X69181427Y-76122891D02*
X69146528Y-75123500D01*
X69635121Y-89114971D02*
X69600221Y-88115580D01*
X70634512Y-89080072D02*
X69635121Y-89114971D01*
X74534356Y-86142179D02*
X75016602Y-85625034D01*
X74656504Y-89640047D02*
X75173650Y-90122293D01*
X75016602Y-85625034D02*
X77515079Y-85537786D01*
X75173650Y-90122293D02*
X78171822Y-90017595D01*
X78171822Y-90017595D02*
X78654068Y-89500449D01*
X78619168Y-88501059D02*
X78654068Y-89500449D01*
X78937386Y-83286774D02*
X83434645Y-83129729D01*
X78961816Y-83986350D02*
X78937386Y-83286774D01*
X82138608Y-74669806D02*
X83137999Y-74634907D01*
X83137999Y-74634907D02*
X83172899Y-75634298D01*
X83434645Y-83129729D02*
X83452095Y-83629424D01*
X83577733Y-87227231D02*
X83598673Y-87826866D01*
X83591693Y-87626987D02*
X83626592Y-88626378D01*
X83598673Y-87826866D02*
X79101414Y-87983913D01*
X83626592Y-88626378D02*
X82627201Y-88661278D01*
X78619168Y-88501059D02*
G75*
G02*
X79101414Y-87983913I499696J17450D01*
G01*
X78961816Y-83986350D02*
G75*
G02*
X77515079Y-85537785I-1499086J-52349D01*
G01*
%TD*%
M02*
