M48
; DRILL file {KiCad 9.0.4} date 2025-09-06T18:01:24-0500
; FORMAT={-:-/ absolute / metric / decimal}
; #@! TF.CreationDate,2025-09-06T18:01:24-05:00
; #@! TF.GenerationSoftware,Kicad,Pcbnew,9.0.4
; #@! TF.FileFunction,NonPlated,1,2,NPTH
FMAT,2
METRIC
; #@! TA.AperFunction,NonPlated,NPTH,ComponentDrill
T1C0.991
; #@! TA.AperFunction,NonPlated,NPTH,ComponentDrill
T2C1.500
; #@! TA.AperFunction,NonPlated,NPTH,ComponentDrill
T3C1.702
; #@! TA.AperFunction,NonPlated,NPTH,ComponentDrill
T4C3.000
; #@! TA.AperFunction,NonPlated,NPTH,ComponentDrill
T5C3.429
%
G90
G05
T1
X29.136Y-56.937
X31.787Y-75.802
X34.439Y-94.666
X39.474Y-55.484
X42.126Y-74.349
X44.777Y-93.213
X47.582Y-51.307
X50.233Y-70.172
X52.885Y-89.037
X57.92Y-49.854
X60.572Y-68.719
X63.223Y-87.584
X69.693Y-39.783
X70.358Y-58.821
X71.023Y-77.86
X80.127Y-39.419
X80.792Y-58.457
X81.457Y-77.495
X90.03Y-33.9
X90.03Y-52.95
X90.03Y-72.0
X100.47Y-33.9
X100.47Y-52.95
X100.47Y-72.0
X109.08Y-38.913
X109.08Y-57.963
X109.08Y-77.013
X111.52Y-102.339
X119.52Y-38.913
X119.52Y-57.963
X119.52Y-77.013
X121.801Y-104.152
X128.13Y-44.929
X128.13Y-63.979
X128.13Y-83.029
X134.081Y-107.484
X138.57Y-44.929
X138.57Y-63.979
X138.57Y-83.029
X142.633Y-113.472
X151.468Y-119.174
X158.85Y-126.557
T2
X155.544Y-92.694
X156.496Y-94.343
X161.606Y-89.194
X162.558Y-90.843
T3
X29.443Y-61.135
X32.095Y-80.0
X34.746Y-98.865
X40.336Y-59.604
X42.988Y-78.469
X45.639Y-97.334
X47.889Y-55.505
X50.541Y-74.37
X53.192Y-93.235
X58.782Y-53.975
X61.433Y-72.839
X64.085Y-91.704
X69.56Y-43.99
X70.225Y-63.028
X70.89Y-82.067
X80.554Y-43.606
X81.218Y-62.645
X81.883Y-81.683
X89.75Y-38.1
X89.75Y-57.15
X89.75Y-76.2
X100.75Y-38.1
X100.75Y-57.15
X100.75Y-76.2
X108.8Y-43.113
X108.8Y-62.163
X108.8Y-81.213
X110.515Y-106.426
X119.8Y-43.113
X119.8Y-62.163
X119.8Y-81.213
X121.347Y-108.337
X127.85Y-49.129
X127.85Y-68.179
X127.85Y-87.229
X131.443Y-110.764
X138.85Y-49.129
X138.85Y-68.179
X138.85Y-87.229
X140.453Y-117.073
X148.3Y-121.946
X156.078Y-129.724
T4
X30.46Y-64.779
X33.112Y-83.644
X35.718Y-66.262
X35.763Y-102.508
X38.369Y-85.127
X40.363Y-63.387
X41.02Y-103.991
X43.014Y-82.252
X45.666Y-101.117
X48.906Y-59.149
X51.558Y-78.014
X54.164Y-60.632
X54.209Y-96.879
X56.815Y-79.497
X58.809Y-57.758
X59.466Y-98.361
X61.46Y-76.622
X64.112Y-95.487
X70.191Y-47.72
X70.856Y-66.759
X71.52Y-85.797
X75.265Y-49.745
X75.929Y-68.783
X76.594Y-87.821
X80.185Y-47.371
X80.85Y-66.41
X81.514Y-85.448
X90.25Y-41.85
X90.25Y-60.9
X90.25Y-79.95
X95.25Y-44.05
X95.25Y-63.1
X95.25Y-82.15
X100.25Y-41.85
X100.25Y-60.9
X100.25Y-79.95
X109.3Y-46.863
X109.3Y-65.913
X109.3Y-84.963
X110.356Y-110.206
X114.3Y-49.063
X114.3Y-68.113
X114.3Y-87.163
X114.898Y-113.241
X119.3Y-46.863
X119.3Y-65.913
X119.3Y-84.963
X120.204Y-111.943
X128.35Y-52.879
X128.35Y-71.929
X128.35Y-90.979
X129.701Y-114.123
X132.535Y-118.793
X133.35Y-55.079
X133.35Y-74.129
X133.35Y-93.179
X137.893Y-119.858
X138.35Y-52.879
X138.35Y-71.929
X138.35Y-90.979
X146.002Y-124.951
X147.982Y-130.043
X153.073Y-132.023
T5
X34.89Y-60.37
X37.541Y-79.234
X40.192Y-98.099
X53.336Y-54.74
X55.987Y-73.605
X58.638Y-92.469
X75.057Y-43.798
X75.722Y-62.837
X76.387Y-81.875
X95.25Y-38.1
X95.25Y-57.15
X95.25Y-76.2
X114.3Y-43.113
X114.3Y-62.163
X114.3Y-81.213
X115.931Y-107.381
X133.35Y-49.129
X133.35Y-68.179
X133.35Y-87.229
X135.948Y-113.919
X152.189Y-125.835
M30
