%TF.GenerationSoftware,KiCad,Pcbnew,9.0.4*%
%TF.CreationDate,2025-09-06T18:01:24-05:00*%
%TF.ProjectId,esp32_s3_port,65737033-325f-4733-935f-706f72742e6b,rev?*%
%TF.SameCoordinates,Original*%
%TF.FileFunction,Legend,Bot*%
%TF.FilePolarity,Positive*%
%FSLAX46Y46*%
G04 Gerber Fmt 4.6, Leading zero omitted, Abs format (unit mm)*
G04 Created by KiCad (PCBNEW 9.0.4) date 2025-09-06 18:01:24*
%MOMM*%
%LPD*%
G01*
G04 APERTURE LIST*
%ADD10C,0.150000*%
%ADD11C,0.120000*%
G04 APERTURE END LIST*
D10*
X154777757Y-86191239D02*
X155134900Y-86809829D01*
X155134900Y-86809829D02*
X155247568Y-86909737D01*
X155247568Y-86909737D02*
X155377666Y-86944597D01*
X155377666Y-86944597D02*
X155525193Y-86914407D01*
X155525193Y-86914407D02*
X155607672Y-86866788D01*
X154411732Y-87557265D02*
X154906603Y-87271550D01*
X154659168Y-87414408D02*
X154159168Y-86548382D01*
X154159168Y-86548382D02*
X154313075Y-86624481D01*
X154313075Y-86624481D02*
X154443172Y-86659341D01*
X154443172Y-86659341D02*
X154549460Y-86652961D01*
%TO.C,SW10*%
X126349999Y-61178947D02*
X127349999Y-61178947D01*
X126349999Y-62178947D02*
X126349999Y-61178947D01*
X126349999Y-69678947D02*
X126349999Y-70178947D01*
X126349999Y-73778947D02*
X126349999Y-74378947D01*
X126349999Y-74378947D02*
X130849999Y-74378947D01*
X126349999Y-75178947D02*
X126349999Y-74178947D01*
X127349999Y-75178947D02*
X126349999Y-75178947D01*
X130849999Y-69678947D02*
X126349999Y-69678947D01*
X130849999Y-70378947D02*
X130849999Y-69678947D01*
X131349999Y-74878947D02*
X131349999Y-75878947D01*
X131849999Y-76378947D02*
X131349999Y-75878947D01*
X134849999Y-71878947D02*
X132349999Y-71878947D01*
X134849999Y-76378947D02*
X131849999Y-76378947D01*
X135349999Y-72378947D02*
X134849999Y-71878947D01*
X135349999Y-75878947D02*
X134849999Y-76378947D01*
X139349999Y-61178947D02*
X140349999Y-61178947D01*
X140349999Y-61178947D02*
X140349999Y-62178947D01*
X140349999Y-74178947D02*
X140349999Y-75178947D01*
X140349999Y-75178947D02*
X139349999Y-75178947D01*
X130849999Y-74378947D02*
G75*
G02*
X131349999Y-74878947I-1J-500001D01*
G01*
X132349999Y-71878947D02*
G75*
G02*
X130849999Y-70378947I1J1500001D01*
G01*
%TO.C,SW21*%
X142289464Y-125835329D02*
X142996571Y-125128222D01*
X142855149Y-125269644D02*
X146037130Y-128451624D01*
X142996571Y-126542436D02*
X142289464Y-125835329D01*
X143279414Y-124845380D02*
X142855149Y-125269644D01*
X145330023Y-130572944D02*
X145330023Y-129865838D01*
X146037130Y-129158731D02*
X145330023Y-129865838D01*
X146178551Y-121946242D02*
X145824998Y-122299795D01*
X147451344Y-132694265D02*
X145330023Y-130572944D01*
X148158450Y-132694265D02*
X147451344Y-132694265D01*
X148865557Y-125623197D02*
X149360532Y-125128222D01*
X149360532Y-125128222D02*
X146178551Y-121946242D01*
X150633324Y-129512284D02*
X148865557Y-127744517D01*
X150633324Y-130219391D02*
X150633324Y-129512284D01*
X151481852Y-116642941D02*
X152188959Y-115935834D01*
X152188959Y-115935834D02*
X152896066Y-116642941D01*
X152188959Y-135734824D02*
X151481852Y-135027717D01*
X152896066Y-135027717D02*
X152188959Y-135734824D01*
X161381347Y-125128222D02*
X162088454Y-125835329D01*
X162088454Y-125835329D02*
X161381347Y-126542436D01*
X146037130Y-128451624D02*
G75*
G02*
X146037130Y-129158731I-353555J-353553D01*
G01*
X148865557Y-127744517D02*
G75*
G02*
X148865557Y-125623197I1060662J1060660D01*
G01*
%TO.C,SW4*%
X126349999Y-42128947D02*
X127349999Y-42128947D01*
X126349999Y-43128947D02*
X126349999Y-42128947D01*
X126349999Y-50628947D02*
X126349999Y-51128947D01*
X126349999Y-54728947D02*
X126349999Y-55328947D01*
X126349999Y-55328947D02*
X130849999Y-55328947D01*
X126349999Y-56128947D02*
X126349999Y-55128947D01*
X127349999Y-56128947D02*
X126349999Y-56128947D01*
X130849999Y-50628947D02*
X126349999Y-50628947D01*
X130849999Y-51328947D02*
X130849999Y-50628947D01*
X131349999Y-55828947D02*
X131349999Y-56828947D01*
X131849999Y-57328947D02*
X131349999Y-56828947D01*
X134849999Y-52828947D02*
X132349999Y-52828947D01*
X134849999Y-57328947D02*
X131849999Y-57328947D01*
X135349999Y-53328947D02*
X134849999Y-52828947D01*
X135349999Y-56828947D02*
X134849999Y-57328947D01*
X139349999Y-42128947D02*
X140349999Y-42128947D01*
X140349999Y-42128947D02*
X140349999Y-43128947D01*
X140349999Y-55128947D02*
X140349999Y-56128947D01*
X140349999Y-56128947D02*
X139349999Y-56128947D01*
X130849999Y-55328947D02*
G75*
G02*
X131349999Y-55828947I-1J-500001D01*
G01*
X132349999Y-52828947D02*
G75*
G02*
X130849999Y-51328947I1J1500001D01*
G01*
%TO.C,SW5*%
X45429685Y-48782301D02*
X46419953Y-48643128D01*
X45568858Y-49772569D02*
X45429685Y-48782301D01*
X46612656Y-57199580D02*
X46682243Y-57694714D01*
X47183266Y-61259679D02*
X47266770Y-61853840D01*
X47266770Y-61853840D02*
X51722976Y-61227561D01*
X47378108Y-62646054D02*
X47238935Y-61655786D01*
X48368376Y-62506881D02*
X47378108Y-62646054D01*
X51068862Y-56573301D02*
X46612656Y-57199580D01*
X51166284Y-57266489D02*
X51068862Y-56573301D01*
X52287697Y-61653108D02*
X52426870Y-62643376D01*
X52991590Y-63068924D02*
X52426870Y-62643376D01*
X55336116Y-58195198D02*
X52860445Y-58543131D01*
X55900836Y-58620746D02*
X55336116Y-58195198D01*
X55962395Y-62651406D02*
X52991590Y-63068924D01*
X56387942Y-62086684D02*
X55962395Y-62651406D01*
X58303170Y-46973051D02*
X59293438Y-46833878D01*
X59293438Y-46833878D02*
X59432611Y-47824146D01*
X61102688Y-59707363D02*
X61241861Y-60697631D01*
X61241861Y-60697631D02*
X60251593Y-60836804D01*
X51722976Y-61227561D02*
G75*
G02*
X52287697Y-61653108I69586J-495135D01*
G01*
X52860445Y-58543131D02*
G75*
G02*
X51166284Y-57266489I-208758J1485403D01*
G01*
%TO.C,SW12*%
X88249999Y-69200000D02*
X89249999Y-69200000D01*
X88249999Y-70200000D02*
X88249999Y-69200000D01*
X88249999Y-77700000D02*
X88249999Y-78200000D01*
X88249999Y-81800000D02*
X88249999Y-82400000D01*
X88249999Y-82400000D02*
X92749999Y-82400000D01*
X88249999Y-83200000D02*
X88249999Y-82200000D01*
X89249999Y-83200000D02*
X88249999Y-83200000D01*
X92749999Y-77700000D02*
X88249999Y-77700000D01*
X92749999Y-78400000D02*
X92749999Y-77700000D01*
X93249999Y-82900000D02*
X93249999Y-83900000D01*
X93749999Y-84400000D02*
X93249999Y-83900000D01*
X96749999Y-79900000D02*
X94249999Y-79900000D01*
X96749999Y-84400000D02*
X93749999Y-84400000D01*
X97249999Y-80400000D02*
X96749999Y-79900000D01*
X97249999Y-83900000D02*
X96749999Y-84400000D01*
X101249999Y-69200000D02*
X102249999Y-69200000D01*
X102249999Y-69200000D02*
X102249999Y-70200000D01*
X102249999Y-82200000D02*
X102249999Y-83200000D01*
X102249999Y-83200000D02*
X101249999Y-83200000D01*
X92749999Y-82400000D02*
G75*
G02*
X93249999Y-82900000I-1J-500001D01*
G01*
X94249999Y-79900000D02*
G75*
G02*
X92749999Y-78400000I1J1500001D01*
G01*
%TO.C,SW6*%
X88249999Y-50150000D02*
X89249999Y-50150000D01*
X88249999Y-51150000D02*
X88249999Y-50150000D01*
X88249999Y-58650000D02*
X88249999Y-59150000D01*
X88249999Y-62750000D02*
X88249999Y-63350000D01*
X88249999Y-63350000D02*
X92749999Y-63350000D01*
X88249999Y-64150000D02*
X88249999Y-63150000D01*
X89249999Y-64150000D02*
X88249999Y-64150000D01*
X92749999Y-58650000D02*
X88249999Y-58650000D01*
X92749999Y-59350000D02*
X92749999Y-58650000D01*
X93249999Y-63850000D02*
X93249999Y-64850000D01*
X93749999Y-65350000D02*
X93249999Y-64850000D01*
X96749999Y-60850000D02*
X94249999Y-60850000D01*
X96749999Y-65350000D02*
X93749999Y-65350000D01*
X97249999Y-61350000D02*
X96749999Y-60850000D01*
X97249999Y-64850000D02*
X96749999Y-65350000D01*
X101249999Y-50150000D02*
X102249999Y-50150000D01*
X102249999Y-50150000D02*
X102249999Y-51150000D01*
X102249999Y-63150000D02*
X102249999Y-64150000D01*
X102249999Y-64150000D02*
X101249999Y-64150000D01*
X92749999Y-63350000D02*
G75*
G02*
X93249999Y-63850000I-1J-500001D01*
G01*
X94249999Y-60850000D02*
G75*
G02*
X92749999Y-59350000I1J1500001D01*
G01*
%TO.C,SW19*%
X107821859Y-113059559D02*
X107995508Y-112074751D01*
X107960778Y-112271713D02*
X112392413Y-113053130D01*
X108064967Y-111680828D02*
X107960778Y-112271713D01*
X108776922Y-107643116D02*
X108690100Y-108135520D01*
X108806667Y-113233207D02*
X107821859Y-113059559D01*
X110079286Y-100257058D02*
X110252934Y-99272250D01*
X110252934Y-99272250D02*
X111237742Y-99445899D01*
X112797993Y-113632358D02*
X112624345Y-114617165D01*
X113029924Y-115196393D02*
X112624345Y-114617165D01*
X113087006Y-109113899D02*
X113208559Y-108424533D01*
X113208559Y-108424533D02*
X108776922Y-107643116D01*
X115984348Y-115717338D02*
X113029924Y-115196393D01*
X116563576Y-115311758D02*
X115984348Y-115717338D01*
X116765764Y-111285703D02*
X114303745Y-110851583D01*
X117171344Y-111864931D02*
X116765764Y-111285703D01*
X121609168Y-115490634D02*
X120624360Y-115316985D01*
X121782816Y-114505826D02*
X121609168Y-115490634D01*
X123055435Y-101529677D02*
X124040243Y-101703325D01*
X124040243Y-101703325D02*
X123866594Y-102688133D01*
X112392413Y-113053130D02*
G75*
G02*
X112797992Y-113632358I-86825J-492404D01*
G01*
X114303745Y-110851583D02*
G75*
G02*
X113087005Y-109113899I260473J1477213D01*
G01*
%TO.C,SW14*%
X107299999Y-74213158D02*
X108299999Y-74213158D01*
X107299999Y-75213158D02*
X107299999Y-74213158D01*
X107299999Y-82713158D02*
X107299999Y-83213158D01*
X107299999Y-86813158D02*
X107299999Y-87413158D01*
X107299999Y-87413158D02*
X111799999Y-87413158D01*
X107299999Y-88213158D02*
X107299999Y-87213158D01*
X108299999Y-88213158D02*
X107299999Y-88213158D01*
X111799999Y-82713158D02*
X107299999Y-82713158D01*
X111799999Y-83413158D02*
X111799999Y-82713158D01*
X112299999Y-87913158D02*
X112299999Y-88913158D01*
X112799999Y-89413158D02*
X112299999Y-88913158D01*
X115799999Y-84913158D02*
X113299999Y-84913158D01*
X115799999Y-89413158D02*
X112799999Y-89413158D01*
X116299999Y-85413158D02*
X115799999Y-84913158D01*
X116299999Y-88913158D02*
X115799999Y-89413158D01*
X120299999Y-74213158D02*
X121299999Y-74213158D01*
X121299999Y-74213158D02*
X121299999Y-75213158D01*
X121299999Y-87213158D02*
X121299999Y-88213158D01*
X121299999Y-88213158D02*
X120299999Y-88213158D01*
X111799999Y-87413158D02*
G75*
G02*
X112299999Y-87913158I-1J-500001D01*
G01*
X113299999Y-84913158D02*
G75*
G02*
X111799999Y-83413158I1J1500001D01*
G01*
%TO.C,SW16*%
X126349999Y-80228947D02*
X127349999Y-80228947D01*
X126349999Y-81228947D02*
X126349999Y-80228947D01*
X126349999Y-88728947D02*
X126349999Y-89228947D01*
X126349999Y-92828947D02*
X126349999Y-93428947D01*
X126349999Y-93428947D02*
X130849999Y-93428947D01*
X126349999Y-94228947D02*
X126349999Y-93228947D01*
X127349999Y-94228947D02*
X126349999Y-94228947D01*
X130849999Y-88728947D02*
X126349999Y-88728947D01*
X130849999Y-89428947D02*
X130849999Y-88728947D01*
X131349999Y-93928947D02*
X131349999Y-94928947D01*
X131849999Y-95428947D02*
X131349999Y-94928947D01*
X134849999Y-90928947D02*
X132349999Y-90928947D01*
X134849999Y-95428947D02*
X131849999Y-95428947D01*
X135349999Y-91428947D02*
X134849999Y-90928947D01*
X135349999Y-94928947D02*
X134849999Y-95428947D01*
X139349999Y-80228947D02*
X140349999Y-80228947D01*
X140349999Y-80228947D02*
X140349999Y-81228947D01*
X140349999Y-93228947D02*
X140349999Y-94228947D01*
X140349999Y-94228947D02*
X139349999Y-94228947D01*
X130849999Y-93428947D02*
G75*
G02*
X131349999Y-93928947I-1J-500001D01*
G01*
X132349999Y-90928947D02*
G75*
G02*
X130849999Y-89428947I1J1500001D01*
G01*
%TO.C,SW17*%
X50732180Y-86511514D02*
X51722448Y-86372341D01*
X50871353Y-87501782D02*
X50732180Y-86511514D01*
X51915151Y-94928793D02*
X51984738Y-95423927D01*
X52485761Y-98988892D02*
X52569265Y-99583053D01*
X52569265Y-99583053D02*
X57025471Y-98956774D01*
X52680603Y-100375267D02*
X52541430Y-99384999D01*
X53670871Y-100236094D02*
X52680603Y-100375267D01*
X56371357Y-94302514D02*
X51915151Y-94928793D01*
X56468779Y-94995702D02*
X56371357Y-94302514D01*
X57590192Y-99382321D02*
X57729365Y-100372589D01*
X58294085Y-100798137D02*
X57729365Y-100372589D01*
X60638611Y-95924411D02*
X58162940Y-96272344D01*
X61203331Y-96349959D02*
X60638611Y-95924411D01*
X61264890Y-100380619D02*
X58294085Y-100798137D01*
X61690437Y-99815897D02*
X61264890Y-100380619D01*
X63605665Y-84702264D02*
X64595933Y-84563091D01*
X64595933Y-84563091D02*
X64735106Y-85553359D01*
X66405183Y-97436576D02*
X66544356Y-98426844D01*
X66544356Y-98426844D02*
X65554088Y-98566017D01*
X57025471Y-98956774D02*
G75*
G02*
X57590192Y-99382321I69586J-495135D01*
G01*
X58162940Y-96272344D02*
G75*
G02*
X56468779Y-94995702I-208758J1485403D01*
G01*
%TO.C,SW9*%
X68481693Y-56085105D02*
X69481084Y-56050205D01*
X68516592Y-57084496D02*
X68481693Y-56085105D01*
X68778338Y-64579927D02*
X68795788Y-65079622D01*
X68921426Y-68677429D02*
X68942366Y-69277064D01*
X68942366Y-69277064D02*
X73439625Y-69120016D01*
X68970286Y-70076576D02*
X68935386Y-69077185D01*
X69969677Y-70041677D02*
X68970286Y-70076576D01*
X73275597Y-64422879D02*
X68778338Y-64579927D01*
X73300027Y-65122453D02*
X73275597Y-64422879D01*
X73956770Y-69602262D02*
X73991669Y-70601652D01*
X74508815Y-71083898D02*
X73991669Y-70601652D01*
X77349939Y-66481941D02*
X74851462Y-66569190D01*
X77506987Y-70979200D02*
X74508815Y-71083898D01*
X77867085Y-66964186D02*
X77349939Y-66481941D01*
X77989233Y-70462054D02*
X77506987Y-70979200D01*
X81473773Y-55631411D02*
X82473164Y-55596512D01*
X82473164Y-55596512D02*
X82508064Y-56595903D01*
X82926858Y-68588592D02*
X82961757Y-69587983D01*
X82961757Y-69587983D02*
X81962366Y-69622883D01*
X73439625Y-69120016D02*
G75*
G02*
X73956770Y-69602262I17449J-499696D01*
G01*
X74851462Y-66569190D02*
G75*
G02*
X73300026Y-65122453I-52348J1499088D01*
G01*
%TO.C,SW20*%
X126198827Y-115637610D02*
X126772403Y-114818458D01*
X126657688Y-114982289D02*
X130343872Y-117563383D01*
X127001834Y-114490797D02*
X126657688Y-114982289D01*
X127017979Y-116211187D02*
X126198827Y-115637610D01*
X129353497Y-111132274D02*
X129066709Y-111541850D01*
X130015871Y-119775263D02*
X129893083Y-119078899D01*
X130466660Y-118259747D02*
X129893083Y-119078899D01*
X132473327Y-121495992D02*
X130015871Y-119775263D01*
X132638178Y-114286774D02*
X133039681Y-113713368D01*
X133039681Y-113713368D02*
X129353497Y-111132274D01*
X133169692Y-121373205D02*
X132473327Y-121495992D01*
X133655320Y-104988634D02*
X134228897Y-104169482D01*
X134228897Y-104169482D02*
X135048049Y-104743058D01*
X135054421Y-117809808D02*
X133006541Y-116375867D01*
X135177209Y-118506172D02*
X135054421Y-117809808D01*
X137666955Y-123667680D02*
X136847803Y-123094104D01*
X138240532Y-122848528D02*
X137666955Y-123667680D01*
X144877873Y-111625975D02*
X145697025Y-112199552D01*
X145697025Y-112199552D02*
X145123449Y-113018704D01*
X130343872Y-117563383D02*
G75*
G02*
X130466660Y-118259747I-286790J-409576D01*
G01*
X133006541Y-116375867D02*
G75*
G02*
X132638178Y-114286774I860366J1228728D01*
G01*
%TO.C,SW18*%
X32286192Y-92141384D02*
X33276460Y-92002211D01*
X32425365Y-93131652D02*
X32286192Y-92141384D01*
X33469163Y-100558663D02*
X33538750Y-101053797D01*
X34039773Y-104618762D02*
X34123277Y-105212923D01*
X34123277Y-105212923D02*
X38579483Y-104586644D01*
X34234615Y-106005137D02*
X34095442Y-105014869D01*
X35224883Y-105865964D02*
X34234615Y-106005137D01*
X37925369Y-99932384D02*
X33469163Y-100558663D01*
X38022791Y-100625572D02*
X37925369Y-99932384D01*
X39144204Y-105012191D02*
X39283377Y-106002459D01*
X39848097Y-106428007D02*
X39283377Y-106002459D01*
X42192623Y-101554281D02*
X39716952Y-101902214D01*
X42757343Y-101979829D02*
X42192623Y-101554281D01*
X42818902Y-106010489D02*
X39848097Y-106428007D01*
X43244449Y-105445767D02*
X42818902Y-106010489D01*
X45159677Y-90332134D02*
X46149945Y-90192961D01*
X46149945Y-90192961D02*
X46289118Y-91183229D01*
X47959195Y-103066446D02*
X48098368Y-104056714D01*
X48098368Y-104056714D02*
X47108100Y-104195887D01*
X38579483Y-104586644D02*
G75*
G02*
X39144204Y-105012191I69586J-495135D01*
G01*
X39716952Y-101902214D02*
G75*
G02*
X38022791Y-100625572I-208758J1485403D01*
G01*
%TO.C,SW3*%
X67816858Y-37046710D02*
X68816249Y-37011810D01*
X67851757Y-38046101D02*
X67816858Y-37046710D01*
X68113503Y-45541532D02*
X68130953Y-46041227D01*
X68256591Y-49639034D02*
X68277531Y-50238669D01*
X68277531Y-50238669D02*
X72774790Y-50081621D01*
X68305451Y-51038181D02*
X68270551Y-50038790D01*
X69304842Y-51003282D02*
X68305451Y-51038181D01*
X72610762Y-45384484D02*
X68113503Y-45541532D01*
X72635192Y-46084058D02*
X72610762Y-45384484D01*
X73291935Y-50563867D02*
X73326834Y-51563257D01*
X73843980Y-52045503D02*
X73326834Y-51563257D01*
X76685104Y-47443546D02*
X74186627Y-47530795D01*
X76842152Y-51940805D02*
X73843980Y-52045503D01*
X77202250Y-47925791D02*
X76685104Y-47443546D01*
X77324398Y-51423659D02*
X76842152Y-51940805D01*
X80808938Y-36593016D02*
X81808329Y-36558117D01*
X81808329Y-36558117D02*
X81843229Y-37557508D01*
X82262023Y-49550197D02*
X82296922Y-50549588D01*
X82296922Y-50549588D02*
X81297531Y-50584488D01*
X72774790Y-50081621D02*
G75*
G02*
X73291935Y-50563867I17449J-499696D01*
G01*
X74186627Y-47530795D02*
G75*
G02*
X72635191Y-46084058I-52348J1499088D01*
G01*
%TO.C,SW11*%
X48080933Y-67646907D02*
X49071201Y-67507734D01*
X48220106Y-68637175D02*
X48080933Y-67646907D01*
X49263904Y-76064186D02*
X49333491Y-76559320D01*
X49834514Y-80124285D02*
X49918018Y-80718446D01*
X49918018Y-80718446D02*
X54374224Y-80092167D01*
X50029356Y-81510660D02*
X49890183Y-80520392D01*
X51019624Y-81371487D02*
X50029356Y-81510660D01*
X53720110Y-75437907D02*
X49263904Y-76064186D01*
X53817532Y-76131095D02*
X53720110Y-75437907D01*
X54938945Y-80517714D02*
X55078118Y-81507982D01*
X55642838Y-81933530D02*
X55078118Y-81507982D01*
X57987364Y-77059804D02*
X55511693Y-77407737D01*
X58552084Y-77485352D02*
X57987364Y-77059804D01*
X58613643Y-81516012D02*
X55642838Y-81933530D01*
X59039190Y-80951290D02*
X58613643Y-81516012D01*
X60954418Y-65837657D02*
X61944686Y-65698484D01*
X61944686Y-65698484D02*
X62083859Y-66688752D01*
X63753936Y-78571969D02*
X63893109Y-79562237D01*
X63893109Y-79562237D02*
X62902841Y-79701410D01*
X54374224Y-80092167D02*
G75*
G02*
X54938945Y-80517714I69586J-495135D01*
G01*
X55511693Y-77407737D02*
G75*
G02*
X53817532Y-76131095I-208758J1485403D01*
G01*
%TO.C,SW7*%
X26983697Y-54412170D02*
X27973965Y-54272997D01*
X27122870Y-55402438D02*
X26983697Y-54412170D01*
X28166668Y-62829449D02*
X28236255Y-63324583D01*
X28737278Y-66889548D02*
X28820782Y-67483709D01*
X28820782Y-67483709D02*
X33276988Y-66857430D01*
X28932120Y-68275923D02*
X28792947Y-67285655D01*
X29922388Y-68136750D02*
X28932120Y-68275923D01*
X32622874Y-62203170D02*
X28166668Y-62829449D01*
X32720296Y-62896358D02*
X32622874Y-62203170D01*
X33841709Y-67282977D02*
X33980882Y-68273245D01*
X34545602Y-68698793D02*
X33980882Y-68273245D01*
X36890128Y-63825067D02*
X34414457Y-64173000D01*
X37454848Y-64250615D02*
X36890128Y-63825067D01*
X37516407Y-68281275D02*
X34545602Y-68698793D01*
X37941954Y-67716553D02*
X37516407Y-68281275D01*
X39857182Y-52602920D02*
X40847450Y-52463747D01*
X40847450Y-52463747D02*
X40986623Y-53454015D01*
X42656700Y-65337232D02*
X42795873Y-66327500D01*
X42795873Y-66327500D02*
X41805605Y-66466673D01*
X33276988Y-66857430D02*
G75*
G02*
X33841709Y-67282977I69586J-495135D01*
G01*
X34414457Y-64173000D02*
G75*
G02*
X32720296Y-62896358I-208758J1485403D01*
G01*
%TO.C,SW8*%
X107299999Y-55163158D02*
X108299999Y-55163158D01*
X107299999Y-56163158D02*
X107299999Y-55163158D01*
X107299999Y-63663158D02*
X107299999Y-64163158D01*
X107299999Y-67763158D02*
X107299999Y-68363158D01*
X107299999Y-68363158D02*
X111799999Y-68363158D01*
X107299999Y-69163158D02*
X107299999Y-68163158D01*
X108299999Y-69163158D02*
X107299999Y-69163158D01*
X111799999Y-63663158D02*
X107299999Y-63663158D01*
X111799999Y-64363158D02*
X111799999Y-63663158D01*
X112299999Y-68863158D02*
X112299999Y-69863158D01*
X112799999Y-70363158D02*
X112299999Y-69863158D01*
X115799999Y-65863158D02*
X113299999Y-65863158D01*
X115799999Y-70363158D02*
X112799999Y-70363158D01*
X116299999Y-66363158D02*
X115799999Y-65863158D01*
X116299999Y-69863158D02*
X115799999Y-70363158D01*
X120299999Y-55163158D02*
X121299999Y-55163158D01*
X121299999Y-55163158D02*
X121299999Y-56163158D01*
X121299999Y-68163158D02*
X121299999Y-69163158D01*
X121299999Y-69163158D02*
X120299999Y-69163158D01*
X111799999Y-68363158D02*
G75*
G02*
X112299999Y-68863158I-1J-500001D01*
G01*
X113299999Y-65863158D02*
G75*
G02*
X111799999Y-64363158I1J1500001D01*
G01*
%TO.C,SW13*%
X29634944Y-73276777D02*
X30625212Y-73137604D01*
X29774117Y-74267045D02*
X29634944Y-73276777D01*
X30817915Y-81694056D02*
X30887502Y-82189190D01*
X31388525Y-85754155D02*
X31472029Y-86348316D01*
X31472029Y-86348316D02*
X35928235Y-85722037D01*
X31583367Y-87140530D02*
X31444194Y-86150262D01*
X32573635Y-87001357D02*
X31583367Y-87140530D01*
X35274121Y-81067777D02*
X30817915Y-81694056D01*
X35371543Y-81760965D02*
X35274121Y-81067777D01*
X36492956Y-86147584D02*
X36632129Y-87137852D01*
X37196849Y-87563400D02*
X36632129Y-87137852D01*
X39541375Y-82689674D02*
X37065704Y-83037607D01*
X40106095Y-83115222D02*
X39541375Y-82689674D01*
X40167654Y-87145882D02*
X37196849Y-87563400D01*
X40593201Y-86581160D02*
X40167654Y-87145882D01*
X42508429Y-71467527D02*
X43498697Y-71328354D01*
X43498697Y-71328354D02*
X43637870Y-72318622D01*
X45307947Y-84201839D02*
X45447120Y-85192107D01*
X45447120Y-85192107D02*
X44456852Y-85331280D01*
X35928235Y-85722037D02*
G75*
G02*
X36492956Y-86147584I69586J-495135D01*
G01*
X37065704Y-83037607D02*
G75*
G02*
X35371543Y-81760965I-208758J1485403D01*
G01*
%TO.C,SW1*%
X88249999Y-31100000D02*
X89249999Y-31100000D01*
X88249999Y-32100000D02*
X88249999Y-31100000D01*
X88249999Y-39600000D02*
X88249999Y-40100000D01*
X88249999Y-43700000D02*
X88249999Y-44300000D01*
X88249999Y-44300000D02*
X92749999Y-44300000D01*
X88249999Y-45100000D02*
X88249999Y-44100000D01*
X89249999Y-45100000D02*
X88249999Y-45100000D01*
X92749999Y-39600000D02*
X88249999Y-39600000D01*
X92749999Y-40300000D02*
X92749999Y-39600000D01*
X93249999Y-44800000D02*
X93249999Y-45800000D01*
X93749999Y-46300000D02*
X93249999Y-45800000D01*
X96749999Y-41800000D02*
X94249999Y-41800000D01*
X96749999Y-46300000D02*
X93749999Y-46300000D01*
X97249999Y-42300000D02*
X96749999Y-41800000D01*
X97249999Y-45800000D02*
X96749999Y-46300000D01*
X101249999Y-31100000D02*
X102249999Y-31100000D01*
X102249999Y-31100000D02*
X102249999Y-32100000D01*
X102249999Y-44100000D02*
X102249999Y-45100000D01*
X102249999Y-45100000D02*
X101249999Y-45100000D01*
X92749999Y-44300000D02*
G75*
G02*
X93249999Y-44800000I-1J-500001D01*
G01*
X94249999Y-41800000D02*
G75*
G02*
X92749999Y-40300000I1J1500001D01*
G01*
%TO.C,SW2*%
X107299999Y-36113158D02*
X108299999Y-36113158D01*
X107299999Y-37113158D02*
X107299999Y-36113158D01*
X107299999Y-44613158D02*
X107299999Y-45113158D01*
X107299999Y-48713158D02*
X107299999Y-49313158D01*
X107299999Y-49313158D02*
X111799999Y-49313158D01*
X107299999Y-50113158D02*
X107299999Y-49113158D01*
X108299999Y-50113158D02*
X107299999Y-50113158D01*
X111799999Y-44613158D02*
X107299999Y-44613158D01*
X111799999Y-45313158D02*
X111799999Y-44613158D01*
X112299999Y-49813158D02*
X112299999Y-50813158D01*
X112799999Y-51313158D02*
X112299999Y-50813158D01*
X115799999Y-46813158D02*
X113299999Y-46813158D01*
X115799999Y-51313158D02*
X112799999Y-51313158D01*
X116299999Y-47313158D02*
X115799999Y-46813158D01*
X116299999Y-50813158D02*
X115799999Y-51313158D01*
X120299999Y-36113158D02*
X121299999Y-36113158D01*
X121299999Y-36113158D02*
X121299999Y-37113158D01*
X121299999Y-49113158D02*
X121299999Y-50113158D01*
X121299999Y-50113158D02*
X120299999Y-50113158D01*
X111799999Y-49313158D02*
G75*
G02*
X112299999Y-49813158I-1J-500001D01*
G01*
X113299999Y-46813158D02*
G75*
G02*
X111799999Y-45313158I1J1500001D01*
G01*
%TO.C,SW15*%
X69146528Y-75123500D02*
X70145919Y-75088600D01*
X69181427Y-76122891D02*
X69146528Y-75123500D01*
X69443173Y-83618322D02*
X69460623Y-84118017D01*
X69586261Y-87715824D02*
X69607201Y-88315459D01*
X69607201Y-88315459D02*
X74104460Y-88158411D01*
X69635121Y-89114971D02*
X69600221Y-88115580D01*
X70634512Y-89080072D02*
X69635121Y-89114971D01*
X73940432Y-83461274D02*
X69443173Y-83618322D01*
X73964862Y-84160848D02*
X73940432Y-83461274D01*
X74621605Y-88640657D02*
X74656504Y-89640047D01*
X75173650Y-90122293D02*
X74656504Y-89640047D01*
X78014774Y-85520336D02*
X75516297Y-85607585D01*
X78171822Y-90017595D02*
X75173650Y-90122293D01*
X78531920Y-86002581D02*
X78014774Y-85520336D01*
X78654068Y-89500449D02*
X78171822Y-90017595D01*
X82138608Y-74669806D02*
X83137999Y-74634907D01*
X83137999Y-74634907D02*
X83172899Y-75634298D01*
X83591693Y-87626987D02*
X83626592Y-88626378D01*
X83626592Y-88626378D02*
X82627201Y-88661278D01*
X74104460Y-88158411D02*
G75*
G02*
X74621605Y-88640657I17449J-499696D01*
G01*
X75516297Y-85607585D02*
G75*
G02*
X73964861Y-84160848I-52348J1499088D01*
G01*
D11*
%TO.C,J1*%
X150169810Y-91985706D02*
X153469810Y-97701474D01*
X161428140Y-85485706D02*
X150169810Y-91985706D01*
X161828140Y-86178526D02*
X161428140Y-85485706D01*
X163560191Y-85178526D02*
X161828140Y-86178526D01*
X163710191Y-85438334D02*
X163560191Y-85178526D01*
X163710191Y-85438334D02*
X166060191Y-89508653D01*
X164328140Y-90508653D02*
X164728140Y-91201474D01*
X164728140Y-91201474D02*
X153469810Y-97701474D01*
X166060191Y-89508653D02*
X164328140Y-90508653D01*
%TD*%
M02*
