%TF.GenerationSoftware,KiCad,Pcbnew,9.0.4*%
%TF.CreationDate,2025-09-06T18:01:24-05:00*%
%TF.ProjectId,esp32_s3_port,65737033-325f-4733-935f-706f72742e6b,rev?*%
%TF.SameCoordinates,Original*%
%TF.FileFunction,Soldermask,Bot*%
%TF.FilePolarity,Negative*%
%FSLAX46Y46*%
G04 Gerber Fmt 4.6, Leading zero omitted, Abs format (unit mm)*
G04 Created by KiCad (PCBNEW 9.0.4) date 2025-09-06 18:01:24*
%MOMM*%
%LPD*%
G01*
G04 APERTURE LIST*
G04 Aperture macros list*
%AMHorizOval*
0 Thick line with rounded ends*
0 $1 width*
0 $2 $3 position (X,Y) of the first rounded end (center of the circle)*
0 $4 $5 position (X,Y) of the second rounded end (center of the circle)*
0 Add line between two ends*
20,1,$1,$2,$3,$4,$5,0*
0 Add two circle primitives to create the rounded ends*
1,1,$1,$2,$3*
1,1,$1,$4,$5*%
%AMRotRect*
0 Rectangle, with rotation*
0 The origin of the aperture is its center*
0 $1 length*
0 $2 width*
0 $3 Rotation angle, in degrees counterclockwise*
0 Add horizontal line*
21,1,$1,$2,0,0,$3*%
G04 Aperture macros list end*
%ADD10C,1.900000*%
%ADD11C,1.600000*%
%ADD12C,1.701800*%
%ADD13C,0.990600*%
%ADD14C,3.000000*%
%ADD15C,3.429000*%
%ADD16R,2.600000X2.600000*%
%ADD17R,1.600000X1.600000*%
%ADD18O,1.600000X1.600000*%
%ADD19RotRect,1.600000X1.600000X188.000000*%
%ADD20HorizOval,1.600000X0.000000X0.000000X0.000000X0.000000X0*%
%ADD21RotRect,1.600000X1.600000X182.000000*%
%ADD22HorizOval,1.600000X0.000000X0.000000X0.000000X0.000000X0*%
%ADD23RotRect,2.600000X2.600000X315.000000*%
%ADD24RotRect,2.600000X2.600000X8.000000*%
%ADD25RotRect,2.600000X2.600000X350.000000*%
%ADD26RotRect,2.600000X2.600000X2.000000*%
%ADD27RotRect,2.600000X2.600000X325.000000*%
%ADD28RotRect,1.600000X1.600000X145.000000*%
%ADD29HorizOval,1.600000X0.000000X0.000000X0.000000X0.000000X0*%
%ADD30RotRect,1.600000X1.600000X170.000000*%
%ADD31HorizOval,1.600000X0.000000X0.000000X0.000000X0.000000X0*%
%ADD32RotRect,1.600000X1.600000X135.000000*%
%ADD33HorizOval,1.600000X0.000000X0.000000X0.000000X0.000000X0*%
G04 APERTURE END LIST*
D10*
%TO.C,JP1*%
X149225000Y-100965000D03*
X154305000Y-100965000D03*
%TD*%
D11*
%TO.C,R2*%
X145415000Y-97155000D03*
X145415000Y-86995000D03*
%TD*%
D12*
%TO.C,SW10*%
X127849999Y-68178947D03*
D13*
X128129999Y-63978947D03*
D14*
X128349999Y-71928947D03*
D15*
X133349999Y-68178947D03*
D14*
X133349999Y-74128947D03*
X138349999Y-71928947D03*
D13*
X138569999Y-63978947D03*
D12*
X138849999Y-68178947D03*
D16*
X136624999Y-74128947D03*
X125074999Y-71928947D03*
%TD*%
D17*
%TO.C,D4*%
X137159999Y-58653947D03*
D18*
X129539999Y-58653947D03*
%TD*%
D17*
%TO.C,D6*%
X99059999Y-66675000D03*
D18*
X91439999Y-66675000D03*
%TD*%
D19*
%TO.C,D18*%
X45290825Y-107001102D03*
D20*
X37744982Y-108061601D03*
%TD*%
D21*
%TO.C,D15*%
X80526656Y-91261169D03*
D22*
X72911298Y-91527103D03*
%TD*%
D12*
%TO.C,SW21*%
X148299872Y-121946242D03*
D13*
X151467710Y-119174383D03*
D14*
X146001775Y-124951446D03*
D15*
X152188959Y-125835329D03*
D14*
X147981674Y-130042614D03*
X153072842Y-132022513D03*
D13*
X158849905Y-126556578D03*
D12*
X156078046Y-129724416D03*
D23*
X150297448Y-132358389D03*
X143686000Y-122635671D03*
%TD*%
D12*
%TO.C,SW4*%
X127849999Y-49128947D03*
D13*
X128129999Y-44928947D03*
D14*
X128349999Y-52878947D03*
D15*
X133349999Y-49128947D03*
D14*
X133349999Y-55078947D03*
X138349999Y-52878947D03*
D13*
X138569999Y-44928947D03*
D12*
X138849999Y-49128947D03*
D16*
X136624999Y-55078947D03*
X125074999Y-52878947D03*
%TD*%
D17*
%TO.C,D12*%
X99059999Y-85725000D03*
D18*
X91439999Y-85725000D03*
%TD*%
D12*
%TO.C,SW5*%
X47889299Y-55505418D03*
D13*
X47582047Y-51307324D03*
D14*
X48906332Y-59149337D03*
D15*
X53335773Y-54739966D03*
D14*
X54163853Y-60632061D03*
X58809011Y-57757606D03*
D13*
X57920445Y-49854357D03*
D12*
X58782247Y-53974514D03*
D24*
X57406981Y-60176269D03*
X45663204Y-59605129D03*
%TD*%
D12*
%TO.C,SW12*%
X89749999Y-76200000D03*
D13*
X90029999Y-72000000D03*
D14*
X90249999Y-79950000D03*
D15*
X95249999Y-76200000D03*
D14*
X95249999Y-82150000D03*
X100249999Y-79950000D03*
D13*
X100469999Y-72000000D03*
D12*
X100749999Y-76200000D03*
D16*
X98524999Y-82150000D03*
X86974999Y-79950000D03*
%TD*%
D12*
%TO.C,SW6*%
X89749999Y-57150000D03*
D13*
X90029999Y-52950000D03*
D14*
X90249999Y-60900000D03*
D15*
X95249999Y-57150000D03*
D14*
X95249999Y-63100000D03*
X100249999Y-60900000D03*
D13*
X100469999Y-52950000D03*
D12*
X100749999Y-57150000D03*
D16*
X98524999Y-63100000D03*
X86974999Y-60900000D03*
%TD*%
D17*
%TO.C,D2*%
X118109999Y-52638158D03*
D18*
X110489999Y-52638158D03*
%TD*%
D12*
%TO.C,SW19*%
X110514608Y-106426377D03*
D13*
X111519677Y-102338806D03*
D14*
X110355832Y-110206230D03*
D15*
X115931051Y-107381442D03*
D14*
X114897844Y-113241048D03*
X120203909Y-111942712D03*
D13*
X121801070Y-104151693D03*
D12*
X121347494Y-108336507D03*
D25*
X118123090Y-113809746D03*
X107130586Y-109637532D03*
%TD*%
D19*
%TO.C,D17*%
X63736813Y-101371232D03*
D20*
X56190970Y-102431731D03*
%TD*%
D21*
%TO.C,D9*%
X79861821Y-72222774D03*
D22*
X72246463Y-72488708D03*
%TD*%
D17*
%TO.C,D16*%
X137159999Y-96753947D03*
D18*
X129539999Y-96753947D03*
%TD*%
D12*
%TO.C,SW14*%
X108799999Y-81213158D03*
D13*
X109079999Y-77013158D03*
D14*
X109299999Y-84963158D03*
D15*
X114299999Y-81213158D03*
D14*
X114299999Y-87163158D03*
X119299999Y-84963158D03*
D13*
X119519999Y-77013158D03*
D12*
X119799999Y-81213158D03*
D16*
X117574999Y-87163158D03*
X106024999Y-84963158D03*
%TD*%
D17*
%TO.C,A1*%
X164455000Y-78105000D03*
D18*
X164455000Y-75565000D03*
X164455000Y-73025000D03*
X164455000Y-70485000D03*
X164455000Y-67945000D03*
X164455000Y-65405000D03*
X164455000Y-62865000D03*
X164455000Y-60325000D03*
X164455000Y-57785000D03*
X164455000Y-55245000D03*
X164455000Y-52705000D03*
X164455000Y-50165000D03*
X164455000Y-47625000D03*
X164455000Y-45085000D03*
X164455000Y-42545000D03*
X149215000Y-42545000D03*
X149215000Y-45085000D03*
X149215000Y-47625000D03*
X149215000Y-50165000D03*
X149215000Y-52705000D03*
X149215000Y-55245000D03*
X149215000Y-57785000D03*
X149215000Y-60325000D03*
X149215000Y-62865000D03*
X149215000Y-65405000D03*
X149215000Y-67945000D03*
X149215000Y-70485000D03*
X149215000Y-73025000D03*
X149215000Y-75565000D03*
X149215000Y-78105000D03*
%TD*%
D12*
%TO.C,SW16*%
X127849999Y-87228947D03*
D13*
X128129999Y-83028947D03*
D14*
X128349999Y-90978947D03*
D15*
X133349999Y-87228947D03*
D14*
X133349999Y-93178947D03*
X138349999Y-90978947D03*
D13*
X138569999Y-83028947D03*
D12*
X138849999Y-87228947D03*
D16*
X136624999Y-93178947D03*
X125074999Y-90978947D03*
%TD*%
D12*
%TO.C,SW17*%
X53191794Y-93234631D03*
D13*
X52884542Y-89036537D03*
D14*
X54208827Y-96878550D03*
D15*
X58638268Y-92469179D03*
D14*
X59466348Y-98361274D03*
X64111506Y-95486819D03*
D13*
X63222940Y-87583570D03*
D12*
X64084742Y-91703727D03*
D24*
X62709476Y-97905482D03*
X50965699Y-97334342D03*
%TD*%
D12*
%TO.C,SW9*%
X70225075Y-63028491D03*
D13*
X70358327Y-58821278D03*
D14*
X70855644Y-66758757D03*
D15*
X75721725Y-62836544D03*
D14*
X75929377Y-68782919D03*
X80849552Y-66409762D03*
D13*
X80791967Y-58456927D03*
D12*
X81218375Y-62644597D03*
D26*
X79202382Y-68668624D03*
X67582639Y-66873053D03*
%TD*%
D12*
%TO.C,SW20*%
X131442590Y-110763911D03*
D13*
X134080973Y-107484073D03*
D14*
X129701254Y-114122519D03*
D15*
X135947926Y-113918581D03*
D14*
X132535146Y-118792536D03*
X137892775Y-119858283D03*
D13*
X142632921Y-113472211D03*
D12*
X140453262Y-117073251D03*
D27*
X135217869Y-120670998D03*
X127018531Y-112244056D03*
%TD*%
D12*
%TO.C,SW18*%
X34745806Y-98864501D03*
D13*
X34438554Y-94666407D03*
D14*
X35762839Y-102508420D03*
D15*
X40192280Y-98099049D03*
D14*
X41020360Y-103991144D03*
X45665518Y-101116689D03*
D13*
X44776952Y-93213440D03*
D12*
X45638754Y-97333597D03*
D24*
X44263488Y-103535352D03*
X32519711Y-102964212D03*
%TD*%
D12*
%TO.C,SW3*%
X69560240Y-43990096D03*
D13*
X69693492Y-39782883D03*
D14*
X70190809Y-47720362D03*
D15*
X75056890Y-43798149D03*
D14*
X75264542Y-49744524D03*
X80184717Y-47371367D03*
D13*
X80127132Y-39418532D03*
D12*
X80553540Y-43606202D03*
D26*
X78537547Y-49630229D03*
X66917804Y-47834658D03*
%TD*%
D19*
%TO.C,D13*%
X42639577Y-88136495D03*
D20*
X35093734Y-89196994D03*
%TD*%
D12*
%TO.C,SW11*%
X50540547Y-74370024D03*
D13*
X50233295Y-70171930D03*
D14*
X51557580Y-78013943D03*
D15*
X55987021Y-73604572D03*
D14*
X56815101Y-79496667D03*
X61460259Y-76622212D03*
D13*
X60571693Y-68718963D03*
D12*
X61433495Y-72839120D03*
D24*
X60058229Y-79040875D03*
X48314452Y-78469735D03*
%TD*%
D11*
%TO.C,J2*%
X153274457Y-93663112D03*
X156340482Y-96973624D03*
X159804584Y-94973624D03*
X162402660Y-93473624D03*
%TD*%
D21*
%TO.C,D3*%
X79196986Y-53184379D03*
D22*
X71581628Y-53450313D03*
%TD*%
D17*
%TO.C,D1*%
X99059999Y-47625000D03*
D18*
X91439999Y-47625000D03*
%TD*%
D17*
%TO.C,D10*%
X137159999Y-77703947D03*
D18*
X129539999Y-77703947D03*
%TD*%
D19*
%TO.C,D7*%
X39988330Y-69271888D03*
D20*
X32442487Y-70332387D03*
%TD*%
D12*
%TO.C,SW7*%
X29443311Y-61135287D03*
D13*
X29136059Y-56937193D03*
D14*
X30460344Y-64779206D03*
D15*
X34889785Y-60369835D03*
D14*
X35717865Y-66261930D03*
X40363023Y-63387475D03*
D13*
X39474457Y-55484226D03*
D12*
X40336259Y-59604383D03*
D24*
X38960993Y-65806138D03*
X27217216Y-65234998D03*
%TD*%
D12*
%TO.C,SW8*%
X108799999Y-62163158D03*
D13*
X109079999Y-57963158D03*
D14*
X109299999Y-65913158D03*
D15*
X114299999Y-62163158D03*
D14*
X114299999Y-68113158D03*
X119299999Y-65913158D03*
D13*
X119519999Y-57963158D03*
D12*
X119799999Y-62163158D03*
D16*
X117574999Y-68113158D03*
X106024999Y-65913158D03*
%TD*%
D12*
%TO.C,SW13*%
X32094558Y-79999894D03*
D13*
X31787306Y-75801800D03*
D14*
X33111591Y-83643813D03*
D15*
X37541032Y-79234442D03*
D14*
X38369112Y-85126537D03*
X43014270Y-82252082D03*
D13*
X42125704Y-74348833D03*
D12*
X42987506Y-78468990D03*
D24*
X41612240Y-84670745D03*
X29868463Y-84099605D03*
%TD*%
D28*
%TO.C,D20*%
X133605580Y-123906330D03*
D29*
X127363641Y-119535678D03*
%TD*%
D17*
%TO.C,D8*%
X118109999Y-71688158D03*
D18*
X110489999Y-71688158D03*
%TD*%
D30*
%TO.C,D19*%
X118029169Y-117423335D03*
D31*
X110524934Y-116100136D03*
%TD*%
D19*
%TO.C,D11*%
X61085566Y-82506625D03*
D20*
X53539723Y-83567124D03*
%TD*%
D19*
%TO.C,D5*%
X58434318Y-63642019D03*
D20*
X50888475Y-64702518D03*
%TD*%
D12*
%TO.C,SW1*%
X89749999Y-38100000D03*
D13*
X90029999Y-33900000D03*
D14*
X90249999Y-41850000D03*
D15*
X95249999Y-38100000D03*
D14*
X95249999Y-44050000D03*
X100249999Y-41850000D03*
D13*
X100469999Y-33900000D03*
D12*
X100749999Y-38100000D03*
D16*
X98524999Y-44050000D03*
X86974999Y-41850000D03*
%TD*%
D12*
%TO.C,SW2*%
X108799999Y-43113158D03*
D13*
X109079999Y-38913158D03*
D14*
X109299999Y-46863158D03*
D15*
X114299999Y-43113158D03*
D14*
X114299999Y-49063158D03*
X119299999Y-46863158D03*
D13*
X119519999Y-38913158D03*
D12*
X119799999Y-43113158D03*
D16*
X117574999Y-49063158D03*
X106024999Y-46863158D03*
%TD*%
D32*
%TO.C,D21*%
X148147844Y-135264597D03*
D33*
X142759690Y-129876443D03*
%TD*%
D17*
%TO.C,D14*%
X118109999Y-90738158D03*
D18*
X110489999Y-90738158D03*
%TD*%
D12*
%TO.C,SW15*%
X70889910Y-82066886D03*
D13*
X71023162Y-77859673D03*
D14*
X71520479Y-85797152D03*
D15*
X76386560Y-81874939D03*
D14*
X76594212Y-87821314D03*
X81514387Y-85448157D03*
D13*
X81456802Y-77495322D03*
D12*
X81883210Y-81682992D03*
D26*
X79867217Y-87707019D03*
X68247474Y-85911448D03*
%TD*%
D11*
%TO.C,J1*%
X154521957Y-95823846D03*
X153187982Y-91513334D03*
X156652084Y-89513334D03*
X159250160Y-88013334D03*
%TD*%
M02*
