M48
; DRILL file {KiCad 9.0.4} date 2025-09-06T18:01:24-0500
; FORMAT={-:-/ absolute / metric / decimal}
; #@! TF.CreationDate,2025-09-06T18:01:24-05:00
; #@! TF.GenerationSoftware,Kicad,Pcbnew,9.0.4
; #@! TF.FileFunction,Plated,1,2,PTH
FMAT,2
METRIC
; #@! TA.AperFunction,Plated,PTH,ViaDrill
T1C0.300
; #@! TA.AperFunction,Plated,PTH,ComponentDrill
T2C0.700
; #@! TA.AperFunction,Plated,PTH,ComponentDrill
T3C0.800
; #@! TA.AperFunction,Plated,PTH,ComponentDrill
T4C1.000
%
G90
G05
T1
X28.326Y-63.857
X30.978Y-82.722
X33.519Y-65.348
X33.629Y-101.586
X36.17Y-84.212
X38.822Y-103.077
X43.5Y-54.5
X46.5Y-71.5
X46.772Y-58.227
X49.0Y-90.5
X49.423Y-77.092
X51.965Y-59.718
X52.075Y-95.957
X54.616Y-78.582
X57.267Y-97.447
X64.0Y-52.0
X65.0Y-65.5
X66.5Y-83.0
X68.165Y-46.58
X68.83Y-65.619
X69.494Y-84.657
X73.173Y-48.605
X73.838Y-67.644
X74.503Y-86.682
X84.5Y-40.0
X85.5Y-55.0
X85.5Y-74.0
X88.265Y-40.64
X88.265Y-59.69
X88.265Y-78.74
X93.2Y-42.839
X93.2Y-61.889
X93.2Y-80.939
X102.235Y-88.9
X104.5Y-55.5
X104.5Y-74.5
X106.5Y-98.0
X107.315Y-45.653
X107.315Y-64.703
X107.315Y-83.753
X108.611Y-108.67
X112.25Y-47.852
X112.25Y-66.902
X112.25Y-85.952
X113.089Y-111.692
X116.205Y-74.295
X116.205Y-78.105
X126.365Y-51.669
X126.365Y-70.719
X126.365Y-89.769
X128.769Y-111.993
X131.3Y-53.868
X131.3Y-72.918
X131.3Y-91.968
X131.551Y-116.624
X143.0Y-67.5
X143.5Y-57.5
X145.454Y-122.692
X146.778Y-75.604
X147.389Y-127.736
X147.955Y-94.615
X149.118Y-88.793
X149.86Y-90.805
X154.305Y-76.87
X157.0Y-42.5
X157.0Y-50.0
X158.115Y-69.85
X159.385Y-69.215
T3
X32.442Y-70.332
X35.094Y-89.197
X37.745Y-108.062
X39.988Y-69.272
X42.64Y-88.136
X45.291Y-107.001
X50.888Y-64.703
X53.54Y-83.567
X56.191Y-102.432
X58.434Y-63.642
X61.086Y-82.507
X63.737Y-101.371
X71.582Y-53.45
X72.246Y-72.489
X72.911Y-91.527
X79.197Y-53.184
X79.862Y-72.223
X80.527Y-91.261
X91.44Y-47.625
X91.44Y-66.675
X91.44Y-85.725
X99.06Y-47.625
X99.06Y-66.675
X99.06Y-85.725
X110.49Y-52.638
X110.49Y-71.688
X110.49Y-90.738
X110.525Y-116.1
X118.029Y-117.423
X118.11Y-52.638
X118.11Y-71.688
X118.11Y-90.738
X127.364Y-119.536
X129.54Y-58.654
X129.54Y-77.704
X129.54Y-96.754
X133.606Y-123.906
X137.16Y-58.654
X137.16Y-77.704
X137.16Y-96.754
X142.76Y-129.876
X145.415Y-86.995
X145.415Y-97.155
X148.148Y-135.265
X149.225Y-100.965
X154.305Y-100.965
T4
X149.215Y-42.545
X149.215Y-45.085
X149.215Y-47.625
X149.215Y-50.165
X149.215Y-52.705
X149.215Y-55.245
X149.215Y-57.785
X149.215Y-60.325
X149.215Y-62.865
X149.215Y-65.405
X149.215Y-67.945
X149.215Y-70.485
X149.215Y-73.025
X149.215Y-75.565
X149.215Y-78.105
X164.455Y-42.545
X164.455Y-45.085
X164.455Y-47.625
X164.455Y-50.165
X164.455Y-52.705
X164.455Y-55.245
X164.455Y-57.785
X164.455Y-60.325
X164.455Y-62.865
X164.455Y-65.405
X164.455Y-67.945
X164.455Y-70.485
X164.455Y-73.025
X164.455Y-75.565
X164.455Y-78.105
T2
G00X153.534Y-91.313
M15
G01X152.842Y-91.713
M16
G05
G00X153.621Y-93.463
M15
G01X152.928Y-93.863
M16
G05
G00X154.868Y-95.624
M15
G01X154.176Y-96.024
M16
G05
G00X156.687Y-96.774
M15
G01X155.994Y-97.174
M16
G05
G00X156.998Y-89.313
M15
G01X156.306Y-89.713
M16
G05
G00X159.597Y-87.813
M15
G01X158.904Y-88.213
M16
G05
G00X160.151Y-94.774
M15
G01X159.458Y-95.174
M16
G05
G00X162.749Y-93.274
M15
G01X162.056Y-93.674
M16
G05
M30
