0
SECTION
2
HEADER
9
$INSUNITS
70
4
0
ENDSEC
0
SECTION
2
TABLES
0
TABLE
2
LTYPE
0
LTYPE
72
65
70
64
2
CONTINUOUS
3
______
73
0
40
0
0
ENDTAB
0
TABLE
2
LAYER
0
ENDTAB
0
ENDSEC
0
SECTION
2
ENTITIES
0
LINE
8
0
10
-10.3386187
20
6.6750469
11
7.4862065
21
9.1801627
0
LINE
8
0
10
7.4862065
20
9.1801627
11
9.9913223
21
-8.6446625
0
LINE
8
0
10
9.9913223
20
-8.6446625
11
-7.8335029
21
-11.1497783
0
LINE
8
0
10
-7.8335029
20
-11.1497783
11
-10.3386187
21
6.6750469
0
LINE
8
0
10
-12.9829076
20
25.4901402
11
4.8419176
21
27.995256
0
LINE
8
0
10
4.8419176
20
27.995256
11
7.3470334
21
10.1704308
0
LINE
8
0
10
7.3470334
20
10.1704308
11
-10.4777918
21
7.665315
0
LINE
8
0
10
-10.4777918
20
7.665315
11
-12.9829076
21
25.4901402
0
LINE
8
0
10
-15.6271965
20
44.3052335
11
2.1976287
21
46.8103493
0
LINE
8
0
10
2.1976287
20
46.8103493
11
4.7027445
21
28.9855241
0
LINE
8
0
10
4.7027445
20
28.9855241
11
-13.1220807
21
26.4804083
0
LINE
8
0
10
-13.1220807
20
26.4804083
11
-15.6271965
21
44.3052335
0
LINE
8
0
10
8.0589553
20
12.29014
11
25.8837805
21
14.7952558
0
LINE
8
0
10
25.8837805
20
14.7952558
11
28.3888963
21
-3.0295694
0
LINE
8
0
10
28.3888963
20
-3.0295694
11
10.5640711
21
-5.5346852
0
LINE
8
0
10
10.5640711
20
-5.5346852
11
8.0589553
21
12.29014
0
LINE
8
0
10
5.4146664
20
31.1052333
11
23.2394916
21
33.6103491
0
LINE
8
0
10
23.2394916
20
33.6103491
11
25.7446074
21
15.7855239
0
LINE
8
0
10
25.7446074
20
15.7855239
11
7.9197822
21
13.2804081
0
LINE
8
0
10
7.9197822
20
13.2804081
11
5.4146664
21
31.1052333
0
LINE
8
0
10
2.7703774
20
49.9203266
11
20.5952026
21
52.4254424
0
LINE
8
0
10
20.5952026
20
52.4254424
11
23.1003184
21
34.6006172
0
LINE
8
0
10
23.1003184
20
34.6006172
11
5.2754932
21
32.0955014
0
LINE
8
0
10
5.2754932
20
32.0955014
11
2.7703774
21
49.9203266
0
LINE
8
0
10
26.6170214
20
23.8771409
11
44.6060563
21
24.5053318
0
LINE
8
0
10
44.6060563
20
24.5053318
11
45.2342472
21
6.5162969
0
LINE
8
0
10
45.2342472
20
6.5162969
11
27.2452123
21
5.888106
0
LINE
8
0
10
27.2452123
20
5.888106
11
26.6170214
21
23.8771409
0
LINE
8
0
10
25.953931
20
42.8655666
11
43.9429659
21
43.4937575
0
LINE
8
0
10
43.9429659
20
43.4937575
11
44.5711568
21
25.5047226
0
LINE
8
0
10
44.5711568
20
25.5047226
11
26.5821219
21
24.8765317
0
LINE
8
0
10
26.5821219
20
24.8765317
11
25.953931
21
42.8655666
0
LINE
8
0
10
25.2908406
20
61.8539923
11
43.2798755
21
62.4821832
0
LINE
8
0
10
43.2798755
20
62.4821832
11
43.9080664
21
44.4931483
0
LINE
8
0
10
43.9080664
20
44.4931483
11
25.9190315
21
43.8649574
0
LINE
8
0
10
25.9190315
20
43.8649574
11
25.2908406
21
61.8539923
0
LINE
8
0
10
45.7395625
20
29.8567634
11
63.7395625
21
29.8567634
0
LINE
8
0
10
63.7395625
20
29.8567634
11
63.7395625
21
11.8567634
0
LINE
8
0
10
63.7395625
20
11.8567634
11
45.7395625
21
11.8567634
0
LINE
8
0
10
45.7395625
20
11.8567634
11
45.7395625
21
29.8567634
0
LINE
8
0
10
45.7395625
20
48.8567634
11
63.7395625
21
48.8567634
0
LINE
8
0
10
63.7395625
20
48.8567634
11
63.7395625
21
30.8567634
0
LINE
8
0
10
63.7395625
20
30.8567634
11
45.7395625
21
30.8567634
0
LINE
8
0
10
45.7395625
20
30.8567634
11
45.7395625
21
48.8567634
0
LINE
8
0
10
45.7395625
20
67.8567634
11
63.7395625
21
67.8567634
0
LINE
8
0
10
63.7395625
20
67.8567634
11
63.7395625
21
49.8567634
0
LINE
8
0
10
63.7395625
20
49.8567634
11
45.7395625
21
49.8567634
0
LINE
8
0
10
45.7395625
20
49.8567634
11
45.7395625
21
67.8567634
0
LINE
8
0
10
64.7395625
20
24.8567635
11
82.7395625
21
24.8567635
0
LINE
8
0
10
82.7395625
20
24.8567635
11
82.7395625
21
6.8567635
0
LINE
8
0
10
82.7395625
20
6.8567635
11
64.7395625
21
6.8567635
0
LINE
8
0
10
64.7395625
20
6.8567635
11
64.7395625
21
24.8567635
0
LINE
8
0
10
64.7395625
20
43.8567635
11
82.7395625
21
43.8567635
0
LINE
8
0
10
82.7395625
20
43.8567635
11
82.7395625
21
25.8567635
0
LINE
8
0
10
82.7395625
20
25.8567635
11
64.7395625
21
25.8567635
0
LINE
8
0
10
64.7395625
20
25.8567635
11
64.7395625
21
43.8567635
0
LINE
8
0
10
64.7395625
20
62.8567635
11
82.7395625
21
62.8567635
0
LINE
8
0
10
82.7395625
20
62.8567635
11
82.7395625
21
44.8567635
0
LINE
8
0
10
82.7395625
20
44.8567635
11
64.7395625
21
44.8567635
0
LINE
8
0
10
64.7395625
20
44.8567635
11
64.7395625
21
62.8567635
0
LINE
8
0
10
83.7395625
20
18.8567634
11
101.7395625
21
18.8567634
0
LINE
8
0
10
101.7395625
20
18.8567634
11
101.7395625
21
0.8567634
0
LINE
8
0
10
101.7395625
20
0.8567634
11
83.7395625
21
0.8567634
0
LINE
8
0
10
83.7395625
20
0.8567634
11
83.7395625
21
18.8567634
0
LINE
8
0
10
83.7395625
20
37.8567633
11
101.7395625
21
37.8567633
0
LINE
8
0
10
101.7395625
20
37.8567633
11
101.7395625
21
19.8567633
0
LINE
8
0
10
101.7395625
20
19.8567633
11
83.7395625
21
19.8567633
0
LINE
8
0
10
83.7395625
20
19.8567633
11
83.7395625
21
37.8567633
0
LINE
8
0
10
83.7395625
20
56.8567633
11
101.7395625
21
56.8567633
0
LINE
8
0
10
101.7395625
20
56.8567633
11
101.7395625
21
38.8567633
0
LINE
8
0
10
101.7395625
20
38.8567633
11
83.7395625
21
38.8567633
0
LINE
8
0
10
83.7395625
20
38.8567633
11
83.7395625
21
56.8567633
0
LINE
8
0
10
81.3322616
20
-5.2022326
11
99.0588012
21
-8.3278998
0
LINE
8
0
10
99.0588012
20
-8.3278998
11
95.933134
21
-26.0544394
0
LINE
8
0
10
95.933134
20
-26.0544394
11
78.2065944
21
-22.9287722
0
LINE
8
0
10
78.2065944
20
-22.9287722
11
81.3322616
21
-5.2022326
0
LINE
8
0
10
107.1034801
20
-6.7403914
11
121.8482169
21
-17.0647672
0
LINE
8
0
10
121.8482169
20
-17.0647672
11
111.5238411
21
-31.809504
0
LINE
8
0
10
111.5238411
20
-31.809504
11
96.7791043
21
-21.4851282
0
LINE
8
0
10
96.7791043
20
-21.4851282
11
107.1034801
21
-6.7403914
0
LINE
8
0
10
128.726034
20
-18.7854966
11
139.0504098
21
-33.5302334
0
LINE
8
0
10
139.0504098
20
-33.5302334
11
124.305673
21
-43.8546092
0
LINE
8
0
10
124.305673
20
-43.8546092
11
113.9812972
21
-29.1098724
0
LINE
8
0
10
113.9812972
20
-29.1098724
11
128.726034
21
-18.7854966
0
LINE
8
0
10
144.9249197
20
-37.499542
11
149.5836625
21
-54.8862068
0
LINE
8
0
10
149.5836625
20
-54.8862068
11
132.1969977
21
-59.5449496
0
LINE
8
0
10
132.1969977
20
-59.5449496
11
127.5382549
21
-42.1582848
0
LINE
8
0
10
127.5382549
20
-42.1582848
11
144.9249197
21
-37.499542
0
ENDSEC
0
EOF