<svg width="165.211mm" height="127.402mm" viewBox="0 0 165.211 127.402" xmlns="http://www.w3.org/2000/svg"><g id="svgGroup" stroke-linecap="round" fill-rule="evenodd" font-size="9pt" stroke="#000" stroke-width="0.25mm" fill="none" style="stroke:#000;stroke-width:0.25mm;fill:none"><path d="M 96.959 73.059 L 114.686 76.185 L 111.56 93.911 L 93.834 90.786 L 96.959 73.059 Z M 42.244 43.98 L 60.233 43.351 L 60.861 61.34 L 42.872 61.969 L 42.244 43.98 Z M 41.581 24.991 L 59.57 24.363 L 60.198 42.352 L 42.209 42.98 L 41.581 24.991 Z M 40.918 6.003 L 58.907 5.375 L 59.535 23.364 L 41.546 23.992 L 40.918 6.003 Z M 61.367 0 L 79.367 0 L 79.367 18 L 61.367 18 L 61.367 0 Z M 61.367 38 L 79.367 38 L 79.367 56 L 61.367 56 L 61.367 38 Z M 61.367 19 L 79.367 19 L 79.367 37 L 61.367 37 L 61.367 19 Z M 80.367 43 L 98.367 43 L 98.367 61 L 80.367 61 L 80.367 43 Z M 80.367 24 L 98.367 24 L 98.367 42 L 80.367 42 L 80.367 24 Z M 80.367 5 L 98.367 5 L 98.367 23 L 80.367 23 L 80.367 5 Z M 99.367 49 L 117.367 49 L 117.367 67 L 99.367 67 L 99.367 49 Z M 99.367 30 L 117.367 30 L 117.367 48 L 99.367 48 L 99.367 30 Z M 99.367 11 L 117.367 11 L 117.367 29 L 99.367 29 L 99.367 11 Z M 122.731 74.597 L 137.475 84.922 L 127.151 99.666 L 112.406 89.342 L 122.731 74.597 Z M 144.353 86.642 L 154.678 101.387 L 139.933 111.711 L 129.608 96.967 L 144.353 86.642 Z M 5.289 61.182 L 23.113 58.677 L 25.619 76.501 L 7.794 79.007 L 5.289 61.182 Z M 2.644 42.367 L 20.469 39.862 L 22.974 57.686 L 5.149 60.191 L 2.644 42.367 Z M 0 23.552 L 17.825 21.046 L 20.33 38.871 L 2.505 41.376 L 0 23.552 Z M 23.686 55.567 L 41.511 53.062 L 44.016 70.886 L 26.191 73.391 L 23.686 55.567 Z M 21.042 36.752 L 38.867 34.246 L 41.372 52.071 L 23.547 54.576 L 21.042 36.752 Z M 18.398 17.936 L 36.222 15.431 L 38.728 33.256 L 20.903 35.761 L 18.398 17.936 Z M 160.552 105.356 L 165.211 122.743 L 147.824 127.402 L 143.165 110.015 L 160.552 105.356 Z" vector-effect="non-scaling-stroke"/></g></svg>