0
SECTION
2
HEADER
9
$INSUNITS
70
4
0
ENDSEC
0
SECTION
2
TABLES
0
TABLE
2
LTYPE
0
LTYPE
72
65
70
64
2
CONTINUOUS
3
______
73
0
40
0
0
ENDTAB
0
TABLE
2
LAYER
0
ENDTAB
0
ENDSEC
0
SECTION
2
ENTITIES
0
LINE
8
0
10
-8.4275291
20
-14.2879917
11
11.4273458
21
-11.497571
0
LINE
8
0
10
13.1295357
20
-9.2386887
11
12.9903626
21
-8.2484206
0
LINE
8
0
10
-20.1571409
20
54.8019404
11
-10.6864114
21
-12.5858018
0
LINE
8
0
10
-18.454951
20
57.0608227
11
-11.5230746
21
58.0350344
0
LINE
8
0
10
12.9903626
20
-8.2484206
11
29.8249198
21
-5.8824779
0
LINE
8
0
10
31.5271097
20
-3.6235956
11
30.9083961
21
0.7787798
0
LINE
8
0
10
-9.9600578
20
61.2841848
11
10.3859107
21
64.1436241
0
LINE
8
0
10
-11.5230746
20
58.0350344
11
-11.6622477
21
59.0253025
0
LINE
8
0
10
32.8191332
20
3.0559077
11
46.3641937
21
3.5289117
0
LINE
8
0
10
48.2931764
20
5.5974924
11
48.2525122
21
6.7619644
0
LINE
8
0
10
13.8179908
20
74.4862909
11
30.7843615
21
75.0787696
0
LINE
8
0
10
12.1063463
20
66.1939592
11
11.8890081
21
72.4177102
0
LINE
8
0
10
50.2512939
20
8.8317634
11
59.7145625
21
8.8317634
0
LINE
8
0
10
34.7145625
20
80.8817634
11
74.7645625
21
80.8817634
0
LINE
8
0
10
76.7645625
20
78.8817634
11
76.7645625
21
77.8817635
0
LINE
8
0
10
32.7145625
20
77.0775513
11
32.7145625
21
78.8817634
0
LINE
8
0
10
63.7145625
20
3.8317635
11
78.7145625
21
3.8317635
0
LINE
8
0
10
61.7145625
20
6.8317634
11
61.7145625
21
5.8317635
0
LINE
8
0
10
78.7645625
20
75.8817635
11
93.7645625
21
75.8817635
0
LINE
8
0
10
95.7645625
20
73.8817635
11
95.7645625
21
71.8817633
0
LINE
8
0
10
81.5458959
20
-2.1682366
11
94.4043484
21
-2.1682366
0
LINE
8
0
10
104.7645625
20
-1.4098205
11
104.7645625
21
67.8817633
0
LINE
8
0
10
80.7145625
20
1.8317635
11
80.7145625
21
-2.0216501
0
LINE
8
0
10
97.7645625
20
69.8817633
11
102.7645625
21
69.8817633
0
LINE
8
0
10
76.6718807
20
-25.7298262
11
104.1635104
21
-30.5773423
0
LINE
8
0
10
81.5458959
20
-2.1682366
11
91.7364595
21
-3.965108
0
LINE
8
0
10
80.7145625
20
-2.0216501
11
78.8785039
21
-1.6979034
0
LINE
8
0
10
78.8785039
20
-1.6979034
11
75.0495616
21
-23.4129144
0
LINE
8
0
10
104.9633669
20
-30.9086537
11
110.6284032
21
-34.8753548
0
LINE
8
0
10
113.4138602
20
-34.3842036
11
113.6977203
21
-33.9788093
0
LINE
8
0
10
125.1865957
20
-17.5709948
11
126.0612206
21
-16.321901
0
LINE
8
0
10
104.7645625
20
-1.4098205
11
126.0612206
21
-16.321901
0
LINE
8
0
10
93.72206
20
-3.1426453
11
94.4043484
21
-2.1682366
0
LINE
8
0
10
113.6977203
20
-33.9788093
11
122.4156539
21
-46.4293088
0
LINE
8
0
10
125.2011109
20
-46.92046
11
125.6065053
21
-46.6365998
0
LINE
8
0
10
142.0143199
20
-35.1477244
11
143.2634135
21
-34.2730996
0
LINE
8
0
10
143.2634135
20
-34.2730996
11
130.6160531
21
-16.210797
0
LINE
8
0
10
127.8305961
20
-15.7196458
11
125.1865957
21
-17.5709948
0
LINE
8
0
10
125.6065053
20
-46.6365998
11
129.5403616
21
-61.3179511
0
LINE
8
0
10
131.9898513
20
-62.7321648
11
151.356664
21
-57.5428429
0
LINE
8
0
10
152.7708777
20
-55.0933532
11
147.5815558
21
-35.7265405
0
LINE
8
0
10
145.1320661
20
-34.3123268
11
142.0143199
21
-35.1477244
0
ARC
8
0
10
11.1489996
20
-9.5170349
40
2
50
277.9999997
51
7.9999997
0
ARC
8
0
10
29.5465736
20
-3.9019418
40
2
50
277.9999997
51
7.9999997
0
ARC
8
0
10
32.8889323
20
1.057126
40
2
50
92.0000002
51
187.9999997
0
ARC
8
0
10
46.2943947
20
5.5276934
40
2
50
272.0000002
51
2.0000002
0
ARC
8
0
10
50.2512939
20
6.8317634
40
2
50
90
51
182.0000002
0
ARC
8
0
10
59.7145625
20
6.8317634
40
2
50
0
51
90
0
ARC
8
0
10
63.7145625
20
5.8317635
40
2
50
180
51
270
0
ARC
8
0
10
78.7145625
20
1.8317635
40
2
50
0
51
90
0
ARC
8
0
10
77.0191771
20
-23.7602108
40
2
50
169.9999992
51
259.9999992
0
ARC
8
0
10
103.8162141
20
-32.5469578
40
2
50
55.0000003
51
79.9999992
0
ARC
8
0
10
111.7755561
20
-33.2370507
40
2
50
235.0000003
51
325.0000003
0
ARC
8
0
10
124.053958
20
-45.2821559
40
2
50
214.9999997
51
304.9999997
0
ARC
8
0
10
131.4722133
20
-60.8003131
40
2
50
194.9999979
51
284.9999979
0
ARC
8
0
10
150.839026
20
-55.6109912
40
2
50
284.9999979
51
14.9999979
0
ARC
8
0
10
145.6497041
20
-36.2441785
40
2
50
14.9999979
51
104.9999979
0
ARC
8
0
10
128.977749
20
-17.3579499
40
2
50
34.9999997
51
124.9999997
0
ARC
8
0
10
102.7645625
20
67.8817633
40
2
50
0
51
90
0
ARC
8
0
10
97.7645625
20
71.8817633
40
2
50
180
51
270
0
ARC
8
0
10
93.7645625
20
73.8817635
40
2
50
0
51
90
0
ARC
8
0
10
78.7645625
20
77.8817635
40
2
50
180
51
270
0
ARC
8
0
10
74.7645625
20
78.8817634
40
2
50
0
51
90
0
ARC
8
0
10
34.7145625
20
78.8817634
40
2
50
90
51
180
0
ARC
8
0
10
30.7145625
20
77.0775513
40
2
50
272.0000002
51
0
0
ARC
8
0
10
13.8877898
20
72.4875092
40
2
50
92.0000002
51
182.0000002
0
ARC
8
0
10
10.1075646
20
66.1241602
40
2
50
277.9999997
51
2.0000002
0
ARC
8
0
10
-9.6817116
20
59.3036487
40
2
50
97.9999997
51
187.9999997
0
ARC
8
0
10
-18.1766048
20
55.0802866
40
2
50
97.9999997
51
187.9999997
0
ARC
8
0
10
-8.7058753
20
-12.3074556
40
2
50
187.9999997
51
277.9999997
0
ARC
8
0
10
92.0837559
20
-1.9954925
40
2
50
259.9999992
51
325.0000003
0
ENDSEC
0
EOF