<svg width="173.016mm" height="143.682mm" viewBox="0 0 173.016 143.682" xmlns="http://www.w3.org/2000/svg"><g id="svgGroup" stroke-linecap="round" fill-rule="evenodd" font-size="9pt" stroke="#000" stroke-width="0.25mm" fill="none" style="stroke:#000;stroke-width:0.25mm;fill:none"><path d="M 11.749 95.17 L 31.604 92.379 A 2 2 0 0 0 33.306 90.12 L 33.167 89.13 L 50.002 86.764 A 2 2 0 0 0 51.704 84.505 L 51.085 80.103 A 2 2 0 0 1 52.996 77.826 L 66.541 77.353 A 2 2 0 0 0 68.47 75.284 L 68.429 74.12 A 2 2 0 0 1 70.428 72.05 L 79.891 72.05 A 2 2 0 0 1 81.891 74.05 L 81.891 75.05 A 2 2 0 0 0 83.891 77.05 L 98.891 77.05 A 2 2 0 0 1 100.891 79.05 L 100.891 82.903 L 99.055 82.58 L 95.226 104.295 A 2 2 0 0 0 96.848 106.612 L 124.34 111.459 A 2 2 0 0 1 125.14 111.79 L 130.805 115.757 A 2 2 0 0 0 133.59 115.266 L 133.874 114.861 L 142.592 127.311 A 2 2 0 0 0 145.378 127.802 L 145.783 127.518 L 149.717 142.2 A 2 2 0 0 0 152.166 143.614 L 171.533 138.425 A 2 2 0 0 0 172.947 135.975 L 167.758 116.608 A 2 2 0 0 0 165.309 115.194 L 162.191 116.029 L 163.44 115.155 L 150.793 97.093 A 2 2 0 0 0 148.007 96.601 L 145.363 98.453 L 146.238 97.204 L 124.941 82.292 L 124.941 13 A 2 2 0 0 0 122.941 11 L 117.941 11 A 2 2 0 0 1 115.941 9 L 115.941 7 A 2 2 0 0 0 113.941 5 L 98.941 5 A 2 2 0 0 1 96.941 3 L 96.941 2 A 2 2 0 0 0 94.941 0 L 54.891 0 A 2 2 0 0 0 52.891 2 L 52.891 3.804 A 2 2 0 0 1 50.961 5.803 L 33.995 6.395 A 2 2 0 0 0 32.066 8.464 L 32.283 14.688 A 2 2 0 0 1 30.563 16.738 L 10.217 19.598 A 2 2 0 0 0 8.514 21.856 L 8.654 22.847 L 1.722 23.821 A 2 2 0 0 0 0.019 26.08 L 9.49 93.468 A 2 2 0 0 0 11.749 95.17 Z M 101.723 83.05 L 114.581 83.05 L 113.899 84.024 A 2 2 0 0 1 111.913 84.847 L 101.723 83.05 Z" vector-effect="non-scaling-stroke"/></g></svg>